<svg fill="none" viewBox="0 0 56 56" xmlns="http://www.w3.org/2000/svg"><g clip-path="url(#clip0_2368_3004)"><path d="M24.8836 16.6152C24.0184 17.052 23.4752 17.9704 23.2596 18.9168C23.044 19.8632 23.1084 20.846 23.1756 21.8148C23.2204 22.4728 23.2708 23.1448 23.5368 23.7468C23.8028 24.3488 24.332 24.878 24.9872 24.9564C25.6368 21.5236 26.2388 18.1384 24.8836 16.6152Z" fill="#99CC33"/><path opacity="0.2" d="M34.6332 50.6316C29.47 50.038 24.3096 49.142 19.432 47.2156C18.0376 46.6668 16.478 45.7652 16.268 44.0852C16.0944 42.6992 16.9932 41.3328 18.102 40.7C19.2108 40.0672 20.944 39.8376 22.1676 39.7396C28.5264 39.2328 34.6444 40.2688 40.5692 41.3972C45.1332 42.2652 50.7416 43.4496 53.2392 46.412C55.3672 48.9404 52.36 50.6792 50.9012 51.0572C48.4148 51.6984 37.548 50.9676 34.6332 50.6316Z" fill="black"/><path d="M25.9561 30.1812C24.4777 30.6208 22.8481 30.6124 21.3361 30.9092C19.7989 31.2116 19.2333 32.242 18.1413 33.3648C17.4273 34.1012 16.3045 38.738 16.3045 38.738L15.9069 43.96L16.4277 45.752C16.4277 45.752 17.2733 46.8692 17.8669 47.1436C20.1265 48.1908 25.3653 49.4144 27.7537 50.1256C30.8421 51.044 32.1861 50.7164 35.3585 51.2792C38.5533 51.8447 43.1201 51.2904 46.3457 51.646C47.5413 51.7776 49.3837 51.1028 50.3413 50.4196C51.8449 49.3444 51.4921 43.1088 51.4921 43.1088C51.4921 43.1088 51.6797 42.9548 51.4725 41.5604C51.2345 39.9476 50.9489 38.234 49.8653 37.016C49.0337 36.078 47.8381 35.56 46.6817 35.0728C45.3349 34.5044 43.9909 33.9332 42.6441 33.3648C42.4845 33.2976 42.3165 33.2276 42.1457 33.2528C40.2361 34.9524 39.0937 35.7363 37.3185 36.4475C35.8849 37.0215 34.3617 37.4276 32.8161 37.4108C31.2733 37.3939 29.8957 37.044 28.8373 35.9212C27.1461 34.1264 27.0873 31.7408 27.0873 31.7408C27.0873 31.7408 26.1465 30.982 25.9533 30.1868L25.9561 30.1812Z" fill="#D9EEA8"/><path d="M19.8828 47.9472C19.8268 46.872 19.9192 45.7912 20.1544 44.7412C21.896 45.4636 23.7664 45.892 25.6004 46.3204C25.4184 47.376 25.424 48.4344 25.5024 49.504" stroke="#99CC33" stroke-linecap="round" stroke-linejoin="round"/><path d="M21.0197 30.9873C19.7177 31.3625 19.1549 32.3229 18.1441 33.3645C17.4301 34.0981 16.3073 38.7377 16.3073 38.7377L15.9097 43.9597L16.4305 45.7517C16.4305 45.7517 17.2761 46.8689 17.8697 47.1433C19.4013 47.8517 22.2993 48.6441 24.7521 49.2993C23.3605 47.0453 21.1037 42.4981 21.0225 30.9873H21.0197Z" fill="#1E3300"/><path d="M19.7848 38.3184C19.3592 40.0796 19.1632 41.4992 19.04 43.0196" stroke="white" stroke-linecap="round" stroke-linejoin="round"/><path d="M25.4156 14.891C25.1412 15.4622 24.8668 16.0642 24.8948 16.697C24.9144 17.1254 25.074 17.537 25.116 17.9654C25.2 18.797 24.8444 19.6006 24.6792 20.421C24.4272 21.6866 24.6344 22.997 24.8444 24.271C25.0992 25.8222 25.354 27.3734 25.6088 28.9246C25.8412 30.3442 26.222 30.669 27.146 31.7722C27.4344 32.1166 27.1516 32.5254 27.3504 33.1778C28.056 35.5214 29.5624 36.8962 30.702 37.0894C32.4744 37.3918 35.112 37.193 36.6268 36.661C37.9568 36.1934 40.6476 35.4094 41.2104 34.1186C41.244 34.043 41.9944 33.343 41.9944 33.259C41.9944 33.1218 39.3428 31.1842 39.27 31.0666C38.4188 29.6946 38.1248 27.5106 38.3964 25.9202C39.8244 26.3598 41.3756 25.2762 41.93 23.8902C42.3164 22.927 42.336 21.8406 42.0896 20.8326C41.8684 19.9198 41.4372 19.0686 41.2132 18.153C40.894 16.8398 41.0144 15.465 40.9304 14.1154C40.8436 12.7658 40.4908 11.3322 39.466 10.453C38.5084 9.62977 37.156 9.45897 35.8932 9.47017C34.6304 9.48137 33.3452 9.63817 32.1188 9.33857C30.9932 9.06417 29.7556 8.42297 28.7616 9.01937C28.4312 9.21817 28.1876 9.52897 27.9664 9.84537C26.8968 11.3714 26.2248 13.211 25.4156 14.8854V14.891Z" fill="white"/><path d="M32.2841 24.459C32.8693 24.4842 33.4209 24.9014 33.6001 25.4614" stroke="#B3BCC4" stroke-linecap="round" stroke-linejoin="round"/><path d="M30.0917 24.4281C30.6909 24.2685 31.2453 23.8289 30.8281 23.0337" stroke="#B3BCC4" stroke-linecap="round" stroke-linejoin="round"/><path d="M28.0532 29.3029C29.036 28.8801 30.184 28.8577 31.1808 29.2469" stroke="#B3BCC4" stroke-linecap="round" stroke-linejoin="round"/><path d="M26.026 30.1597C24.3236 30.3165 22.2544 30.5209 20.7816 31.0977C19.6896 31.5261 18.6144 32.0021 17.8164 33.7829C16.9092 35.8045 16.0384 38.1957 15.9124 43.2861C15.8704 45.0417 16.8448 46.6797 18.438 47.4217C19.6924 48.0069 21.0588 48.3961 22.4336 48.7993C30.4024 51.1373 39.7852 52.1313 48.2496 51.4061C49.896 51.2661 51.184 49.9333 51.2764 48.2841C51.4556 45.0921 51.5816 42.7345 51.3912 41.0209C51.2736 39.9709 50.8004 38.7697 50.2572 37.8625C49.518 36.6277 48.244 35.8185 46.9644 35.1549C45.6876 34.4941 43.7052 33.7101 42.3416 33.2565" stroke="#1E3300" stroke-linecap="round" stroke-linejoin="round"/><path d="M25.1384 15.6859C25.8384 13.7623 26.5972 12.3875 27.8012 10.7327C28.392 11.0827 28.9548 11.7015 29.5372 12.0655C29.9712 12.3343 30.5144 12.5163 31.0044 12.6619C34.2748 13.6279 35.0364 12.8887 37.072 12.9279C38.1556 12.9475 38.976 13.9191 38.7996 14.9887C38.6568 15.8511 38.542 16.7191 38.4552 17.5871C38.43 17.8363 38.4076 18.0883 38.4356 18.3347C38.458 18.5475 38.5168 18.7575 38.5644 18.9675C38.8948 20.4263 38.7324 21.9467 38.5532 23.4307C38.7688 23.5063 39.018 23.4895 39.2224 23.3859C39.2476 22.7027 39.3624 22.0671 39.508 21.4007C39.6116 20.9247 39.7544 20.4375 40.0792 20.0763C40.404 19.7123 40.9556 19.5135 41.3924 19.7263C41.6696 19.8607 41.8544 20.1295 42.0252 20.3871C42.574 19.2195 43.1088 18.0799 43.4504 16.8339C43.792 15.5907 43.932 14.2719 43.6828 13.0063C43.5596 12.3791 43.3384 11.7743 43.036 11.2115C42.5068 10.2343 41.706 9.39709 40.7232 8.88189C40.3032 8.66349 39.8552 8.50389 39.4072 8.34989C38.4188 8.01389 37.4192 7.70589 36.414 7.42589C36.582 7.24109 36.7276 7.02549 36.8956 6.84069C36.274 6.54109 35.5908 6.39269 34.9104 6.26949C34.2972 6.16029 33.684 6.06789 33.0652 5.99789C33.18 5.75149 33.2752 5.48829 33.3928 5.24189C32.5164 5.12149 31.6288 5.26429 30.7608 5.43789C30.2736 5.53589 29.7836 5.64229 29.33 5.84669C27.8768 6.50469 26.8492 7.92149 26.9416 9.51469C25.97 10.1363 25.3148 11.2003 24.9284 12.2867C24.542 13.3731 24.6092 14.6611 25.144 15.6831L25.1384 15.6859Z" fill="#61666B"/><path d="M40.4488 10.7129C40.852 10.9817 41.3588 11.0377 41.846 11.0433C42.1372 11.0461 42.4284 11.0349 42.7168 11.0069C43.1928 13.3981 42.7616 15.8089 42.322 18.2085C41.7396 17.7913 40.9612 17.6765 40.2752 17.8809C40.2584 17.8865 40.2388 17.8893 40.2304 17.8725C40.222 17.8557 40.2584 17.8529 40.25 17.8669C40.2808 16.9205 40.2864 16.0301 40.4068 15.0921C40.502 14.3613 40.6504 13.6361 40.7176 12.8997C40.7848 12.1633 40.6868 11.4129 40.4516 10.7129H40.4488Z" fill="#497D00"/><path d="M36.5035 7.38334C36.9515 7.52894 37.3995 7.67454 37.8475 7.82014C38.0687 7.89294 38.2899 7.96574 38.5111 8.04414C38.7631 8.13654 39.0179 8.23734 39.2335 8.40254C39.4491 8.56774 39.6143 8.78614 39.7571 9.01574C40.0511 9.48894 40.2527 10.0209 40.3451 10.5697C40.3535 10.6229 40.3647 10.6817 40.3983 10.7237C40.4375 10.7685 40.4963 10.7881 40.5551 10.8049C41.1627 10.9757 41.7871 11.0765 42.4171 11.1017C42.4871 11.1045 42.5683 11.1017 42.6075 11.0429C42.6243 11.0149 42.6271 10.9841 42.6299 10.9505C42.6551 10.6621 42.6747 10.3765 42.6915 10.0881C42.7027 9.86414 42.7083 9.64014 42.6607 9.42174C42.6271 9.26774 42.5655 9.12214 42.4927 8.98214C42.0615 8.15894 41.2299 7.61014 40.3647 7.26854C39.7095 7.00814 39.0179 6.84854 38.3151 6.78974C37.9595 6.75894 37.5983 6.75334 37.2399 6.78134C36.9011 6.80654 36.7219 7.14534 36.5063 7.38614L36.5035 7.38334Z" fill="#99CC33"/><path d="M38.262 7.97412C38.7156 8.11692 39.228 8.33252 39.6144 8.61252C39.8104 8.75532 39.998 8.91492 40.2052 9.04372C40.9024 9.46932 41.7732 9.48612 42.5852 9.39372" stroke="#497D00" stroke-linecap="round" stroke-linejoin="round"/><path d="M29.9488 8.14795C29.5484 9.08875 29.7136 10.2479 30.3632 11.0375" stroke="#B3BCC4" stroke-linecap="round" stroke-linejoin="round"/><path d="M31.8165 8.77197C31.4945 9.64557 31.7101 10.6956 32.3485 11.3732" stroke="#B3BCC4" stroke-linecap="round" stroke-linejoin="round"/><path d="M33.5384 9.40186C33.4432 9.93386 33.6364 10.5107 34.0312 10.8803" stroke="#B3BCC4" stroke-linecap="round" stroke-linejoin="round"/><path d="M36.8509 28.7277C35.4173 30.2901 33.5805 31.4829 31.5673 32.1465C30.4081 32.5301 29.1033 32.7317 27.9889 32.2305C26.8101 31.6985 26.0821 30.4749 25.7321 29.2317C25.3821 27.9885 25.3373 26.6809 25.1077 25.4097C24.8333 23.8949 24.2957 22.3661 24.6037 20.8569C24.7913 19.9357 25.2925 19.0481 25.1777 18.1129C25.1189 17.6369 24.9005 17.1861 24.8921 16.7045C24.8865 16.3013 25.0265 15.9121 25.1777 15.5369C25.9225 13.6609 26.6953 12.4065 27.8433 10.7461C28.9689 11.6897 30.1365 12.4933 31.4889 12.8853C32.5277 13.1849 33.6029 13.2465 34.6837 13.1877C35.9045 13.1205 36.3385 12.8853 37.0861 12.9105C38.1725 12.9469 38.9845 13.9185 38.8277 14.9937C38.7157 15.7609 38.6037 16.5197 38.4917 17.3009C38.4161 17.8273 38.4189 18.3677 38.5477 18.8829C38.6933 19.4681 38.7185 20.0897 38.6961 20.6945C38.6653 21.6185 38.6093 22.5397 38.5337 23.4609C38.7773 23.5561 39.0685 23.5141 39.2449 23.3209C39.3233 22.5285 39.4493 21.7333 39.6649 20.9661C39.8413 20.3277 40.2193 19.6221 40.9361 19.6333C41.2553 19.6389 41.5577 19.8069 41.7621 20.0533C42.1821 20.5545 42.2157 21.2097 42.1961 21.8313C42.1597 22.9205 41.9609 24.0489 41.3141 24.9253C40.6673 25.8017 39.4829 26.3505 38.4553 25.9893" stroke="#1E3300" stroke-linecap="round" stroke-linejoin="round"/><path d="M38.4468 25.0908C38.2228 26.74 37.3324 31.528 42.3472 33.2584" stroke="#1E3300" stroke-linecap="round" stroke-linejoin="round"/><path d="M39.7797 24.7325C40.1549 24.4833 40.3845 24.0325 40.3677 23.5817C40.3593 23.3773 40.3061 23.1757 40.2837 22.9741C40.2193 22.3693 40.4629 21.7393 40.9221 21.3389" stroke="#1E3300" stroke-linecap="round" stroke-linejoin="round"/><path d="M29.0949 19.3452C28.9577 20.7284 27.9609 21.8484 27.3309 23.0888C27.1125 23.5172 26.9613 24.0968 27.3113 24.4244C27.5045 24.6092 27.7929 24.6428 28.0589 24.654C28.7421 24.682 29.4309 24.6036 30.0917 24.4244" stroke="#1E3300" stroke-linecap="round" stroke-linejoin="round"/><path d="M42.7112 10.7129C42.7896 10.8389 42.868 10.9677 42.9408 11.0993C43.2012 11.5697 43.4252 12.0653 43.5736 12.5833C43.9488 13.8825 43.8452 15.2825 43.5008 16.5929C43.1564 17.9005 42.5824 19.1353 42.0112 20.3617" stroke="#1E3300" stroke-linecap="round" stroke-linejoin="round"/><path d="M25.13 15.6602C24.6428 14.627 24.5728 13.4034 24.9368 12.3198C25.3008 11.2362 26.0764 9.96224 27.09 9.43024C26.9444 8.47824 27.3728 7.68584 28.0056 6.96064C28.6384 6.23544 29.5148 5.75384 30.436 5.47664C31.4132 5.18264 32.4548 5.10704 33.4628 5.25264C33.3256 5.49624 33.2164 5.75104 33.0792 5.99464C34.4428 6.03664 35.6916 6.33624 36.974 6.79544C36.7724 6.99704 36.5932 7.25184 36.3916 7.45064C36.6912 7.51784 37.4472 7.70824 38.3264 7.99104" stroke="#1E3300" stroke-linecap="round" stroke-linejoin="round"/><path d="M31.6148 18.0491C31.724 18.1275 31.864 18.1443 31.9984 18.1583C32.6648 18.2283 33.334 18.2815 33.9864 18.4327C34.6388 18.5839 35.2772 18.8499 35.7756 19.2979C35.896 19.4071 36.0584 19.5331 36.2012 19.4575C36.3356 19.3847 36.33 19.1943 36.2908 19.0459C36.1088 18.3599 35.574 17.8055 34.944 17.4807C34.314 17.1559 33.5972 17.0383 32.8888 17.0047C32.5304 16.9879 31.99 16.9711 31.6792 17.1839C31.4244 17.3575 31.3264 17.8419 31.612 18.0435L31.6148 18.0491Z" fill="#1E3300"/><path d="M25.2868 15.4336C25.9168 15.4448 26.5552 15.4728 27.16 15.6436C27.7676 15.8144 28.3472 16.1448 28.7084 16.6628C28.8148 16.8168 28.8988 17.0324 28.7812 17.178C28.7112 17.2648 28.588 17.2928 28.476 17.2956C28.1064 17.3096 27.7564 17.1528 27.4064 17.0324C26.6308 16.7692 25.7936 16.6964 24.9844 16.8224L25.2868 15.4336Z" fill="#1E3300"/><path d="M33.9744 21.0304C34.0276 20.526 33.7926 20.0878 33.4496 20.0517C33.1067 20.0156 32.7856 20.3952 32.7325 20.8996C32.6794 21.4041 32.9144 21.8423 33.2573 21.8784C33.6003 21.9145 33.9213 21.5348 33.9744 21.0304Z" fill="#1E3300"/><path d="M27.5338 19.7589C27.5869 19.2545 27.3519 18.8163 27.009 18.7802C26.666 18.7441 26.3449 19.1237 26.2918 19.6282C26.2387 20.1326 26.4737 20.5708 26.8166 20.6069C27.1596 20.643 27.4807 20.2633 27.5338 19.7589Z" fill="#1E3300"/><path d="M27.9133 10.8315C27.8209 10.7475 27.2749 10.2799 27.0901 9.42871" stroke="#1E3300" stroke-linecap="round" stroke-linejoin="round"/><path d="M30.6908 35.0468C32.578 34.4084 34.258 32.006 35.3584 30.0796C33.6476 31.3284 31.9676 32.1432 29.8984 32.594L30.6908 35.0468Z" fill="#1E3300"/><path d="M42.3387 45.4578C42.5571 43.2542 43.2571 41.101 44.3771 39.1914" stroke="#99CC33" stroke-linecap="round" stroke-linejoin="round"/><path d="M29.9012 32.5957C30.3772 33.6065 30.786 34.7713 30.4472 35.5329" stroke="#1E3300" stroke-linecap="round" stroke-linejoin="round"/><path d="M27.1488 26.7074C28.0336 26.8866 28.9408 27.0098 29.8396 26.9062C30.7384 26.8026 31.6288 26.4498 32.2504 25.7974" stroke="#1E3300" stroke-linecap="round" stroke-linejoin="round"/><path d="M27.2468 31.96C27.2832 34.004 28.0924 35.7232 29.7052 36.5884C31.318 37.4536 33.2584 37.4592 35.0728 37.1932C36.4308 36.9944 40.124 35.9024 41.874 33.1612" stroke="#1E3300" stroke-linecap="round" stroke-linejoin="round"/><path d="M27.2468 38.4181C29.3328 39.6977 31.6064 40.1905 34.0508 40.0365C36.4924 39.8825 38.9844 39.1937 41.356 37.4185" stroke="#99CC33" stroke-linecap="round" stroke-linejoin="round"/><path opacity="0.2" d="M23.3576 51.8559C23.4052 51.4891 23.1756 51.1447 22.82 51.0467L13.062 48.4819C12.2248 48.2551 11.3428 48.2495 10.5028 48.4623L7.26323 49.2911C6.58003 49.4647 6.57443 50.4307 7.25203 50.6127L16.6992 53.1019C16.926 53.1635 17.1584 53.1943 17.3936 53.1971L19.6672 53.2139C19.8296 53.2139 19.9892 53.1943 20.146 53.1551L22.8088 52.4747C23.1028 52.3991 23.3212 52.1527 23.3604 51.8531L23.3576 51.8559Z" fill="black"/><path d="M5.86047 20.2072L8.29927 19.5996L8.42807 19.5688C8.73887 19.5044 9.06927 19.51 9.40527 19.5968L18.1581 21.8844C19.9557 22.3548 21.2073 23.976 21.2073 25.8324V50.072C21.2073 51.0576 20.5661 51.9004 19.7009 52.1272L17.1277 52.7656L5.86047 20.2072Z" fill="#99CC33"/><path d="M21.1009 46.8608L18.9141 47.404" stroke="#497D00" stroke-linecap="round" stroke-linejoin="round"/><path d="M21.1009 27.6753L18.9141 28.2185" stroke="#497D00" stroke-linecap="round" stroke-linejoin="round"/><path d="M4.37366 22.2567V46.4963C4.37366 48.3527 5.62806 49.9767 7.42286 50.4443L16.1757 52.7319C17.5421 53.0903 18.8777 52.0571 18.8777 50.6459V26.4063C18.8777 24.5499 17.6233 22.9259 15.8285 22.4583L7.07566 20.1707C5.70926 19.8123 4.37366 20.8455 4.37366 22.2567Z" fill="white"/><path d="M6.15442 22.1523V22.7291L7.41162 23.0679V22.4883L6.15442 22.1523Z" stroke="#B3BCC4" stroke-width="0.42" stroke-linecap="round" stroke-linejoin="round"/><path d="M6.93277 22.3988L6.64437 22.8608L6.17957 22.6928L6.22437 22.228L6.93277 22.3988Z" fill="#B3BCC4"/><path d="M15.3243 25.2337V24.9453" stroke="#B3BCC4" stroke-linecap="round" stroke-linejoin="round"/><path d="M15.9852 25.4351V24.8555" stroke="#B3BCC4" stroke-linecap="round" stroke-linejoin="round"/><path d="M16.6488 25.6365V24.5361" stroke="#B3BCC4" stroke-linecap="round" stroke-linejoin="round"/><path d="M4.37366 22.2567V46.4963C4.37366 48.3527 5.62806 49.9767 7.42286 50.4443L16.1757 52.7319C17.5421 53.0903 18.8777 52.0571 18.8777 50.6459V26.4063C18.8777 24.5499 17.6233 22.9259 15.8285 22.4583L7.07566 20.1707C5.70926 19.8123 4.37366 20.8455 4.37366 22.2567Z" stroke="#1E3300" stroke-linecap="round" stroke-linejoin="round"/><path d="M5.86047 20.2072L8.29927 19.5996L8.42807 19.5688C8.73887 19.5044 9.06927 19.51 9.40527 19.5968L18.1581 21.8844C19.9557 22.3548 21.2073 23.976 21.2073 25.8324V50.072C21.2073 51.0576 20.5661 51.9004 19.7009 52.1272L17.1277 52.7656" stroke="#1E3300" stroke-linecap="round" stroke-linejoin="round"/><path d="M13.9608 24.3797C13.9552 24.6989 13.6108 25.0013 13.3336 24.9257L9.09164 23.7721C8.75004 23.6797 8.54004 23.3773 8.54004 22.9825C8.54004 22.6605 8.88724 22.3525 9.16724 22.4281L13.4092 23.5733C13.7564 23.6685 13.9692 23.9765 13.9636 24.3769L13.9608 24.3797Z" fill="#1E3300"/><path d="M20.062 30.0273C20.2216 29.9349 20.4204 30.0497 20.4204 30.2345V32.9365C20.4204 33.0849 20.3448 33.2221 20.2216 33.3005L20.216 33.3061C20.0564 33.4069 19.8492 33.2921 19.8492 33.1045V30.4025C19.8492 30.2485 19.9304 30.1057 20.0648 30.0301L20.062 30.0273Z" fill="#497D00"/><path d="M20.062 34.5268C20.2216 34.4344 20.4204 34.5492 20.4204 34.734V37.436C20.4204 37.5844 20.3448 37.7216 20.2216 37.8L20.216 37.8056C20.0564 37.9064 19.8492 37.7916 19.8492 37.604V34.902C19.8492 34.748 19.9304 34.6052 20.0648 34.5296L20.062 34.5268Z" fill="#497D00"/><path d="M14.7264 38.1368L9 36.6409C9.83582 35.6422 10.6631 35.1492 11.9275 35.415C13.3291 35.7065 14.0964 36.6237 14.7264 38.1368Z" stroke="#B3BCC4" stroke-linecap="round" stroke-linejoin="round"/><path d="M13.0335 31.91C13.5221 32.7416 13.4064 33.7746 12.7763 34.2118C12.1462 34.649 11.2418 34.3318 10.7532 33.496C10.2646 32.6644 10.3803 31.6314 11.0104 31.1942C11.6405 30.757 12.5449 31.0742 13.0335 31.91Z" fill="#B3BCC4"/><path d="M8.45382 40.5735L15.0563 42.3224C15.5911 42.4638 16.0061 43.0202 15.9999 43.5827C15.9938 44.1944 15.502 44.5786 14.9241 44.4249L8.32165 42.6759C7.78681 42.5345 7.37185 41.9782 7.378 41.4157C7.38414 40.804 7.87595 40.4198 8.45382 40.5735Z" fill="#99CC33"/><path d="M33.7704 28.6678C34.5409 28.342 34.9776 27.6334 34.7458 27.085C34.5139 26.5366 33.7013 26.3562 32.9307 26.682C32.1602 27.0079 31.7235 27.7165 31.9553 28.2649C32.1872 28.8132 32.9998 28.9936 33.7704 28.6678Z" fill="#1E3300"/><path d="M33.3872 27.7C34.9776 26.8628 37.1224 25.1996 38.3656 23.9004" stroke="#1E3300" stroke-linecap="round" stroke-linejoin="round"/><path d="M40.1968 17.7432C40.0876 17.5136 39.83 17.3792 39.5752 17.3624C39.3204 17.3456 39.0713 17.4324 38.8417 17.5444C38.0857 17.9224 36.7221 19.874 36.5009 22.0076C36.4113 22.8616 36.4616 23.556 36.6352 24.396C36.8088 25.236 37.1197 25.964 37.7301 26.5716C37.9653 26.804 38.3153 27.1008 38.6457 27.1232C38.9761 27.1456 39.3401 26.9132 39.3541 26.5828L40.1968 17.7404V17.7432Z" fill="#1E3300"/><path d="M43.4931 22.7258C43.9042 20.2718 42.8997 18.0584 41.2495 17.782C39.5993 17.5055 37.9283 19.2707 37.5172 21.7247C37.1061 24.1786 38.1106 26.3921 39.7608 26.6685C41.411 26.945 43.082 25.1797 43.4931 22.7258Z" fill="#99CC33"/><path d="M43.0882 22.6623C43.3536 21.0777 42.7058 19.6485 41.6413 19.4702C40.5767 19.2919 39.4986 20.4319 39.2331 22.0165C38.9676 23.6011 39.6154 25.0303 40.68 25.2086C41.7445 25.387 42.8227 24.247 43.0882 22.6623Z" stroke="#497D00" stroke-linecap="round" stroke-linejoin="round"/><path d="M42.179 22.4926C42.3067 21.73 41.9949 21.0423 41.4824 20.9564C40.97 20.8706 40.451 21.4192 40.3232 22.1817C40.1955 22.9443 40.5073 23.6321 41.0198 23.7179C41.5322 23.8038 42.0512 23.2552 42.179 22.4926Z" fill="#497D00"/><path d="M43.4931 22.7258C43.9042 20.2718 42.8997 18.0584 41.2495 17.782C39.5993 17.5055 37.9283 19.2707 37.5172 21.7247C37.1061 24.1786 38.1106 26.3921 39.7608 26.6685C41.411 26.945 43.082 25.1797 43.4931 22.7258Z" stroke="#1E3300" stroke-linecap="round" stroke-linejoin="round"/><path d="M40.1968 17.7437C40.5076 16.1757 40.5832 15.4981 40.7148 14.2885C40.8464 13.0789 40.7708 12.0457 40.5244 10.8893C40.2752 9.73294 39.5052 8.33574 38.3292 7.99414" stroke="#1E3300" stroke-linecap="round" stroke-linejoin="round"/><path d="M42.3612 18.3344C42.6048 16.8896 42.6748 16.3436 42.8036 15.134C42.9296 13.958 43.0276 12.7596 42.7784 11.6032C42.7448 11.4436 42.7028 11.2896 42.6552 11.144" stroke="#1E3300" stroke-linecap="round" stroke-linejoin="round"/><path d="M40.5076 10.7545C41.1208 11.0261 41.8712 11.2473 42.5236 11.0849C42.9184 10.2953 42.7112 9.29571 42.182 8.59011C41.6528 7.88451 40.8492 7.43091 40.0176 7.13971C39.0236 6.78971 38.0268 6.73091 36.974 6.79531" stroke="#1E3300" stroke-linecap="round" stroke-linejoin="round"/><path d="M24.8836 16.6152C24.0184 17.052 23.4752 17.9704 23.2596 18.9168C23.044 19.8632 23.1084 20.846 23.1756 21.8148C23.2204 22.4728 23.2708 23.1448 23.5368 23.7468C23.8028 24.3488 24.332 24.878 24.9872 24.9564" stroke="#1E3300" stroke-linecap="round" stroke-linejoin="round"/></g><defs><clipPath id="clip0_2368_3004"><rect width="56" height="56" fill="white"/></clipPath></defs></svg>