<svg fill="none" viewBox="0 0 56 56" xmlns="http://www.w3.org/2000/svg"><path opacity="0.2" d="M55.14 44.1999C55.14 43.3699 54.58 42.6499 53.78 42.4399L28.37 35.8199C26.76 35.3999 25.08 35.3999 23.47 35.8199L7.87002 39.8099C6.57002 40.1499 6.57002 41.9999 7.87002 42.3399L33.98 49.3199C34.41 49.4299 34.86 49.4899 35.31 49.4899H39.84C40.03 49.4899 40.21 49.4699 40.39 49.4199L53.77 45.9699C54.58 45.7599 55.14 45.0399 55.14 44.1999Z" fill="black"/><path opacity="0.2" d="M43.7329 51.2453C45.9091 50.8991 47.6072 50.2028 47.5256 49.6901C47.4441 49.1774 45.6138 49.0425 43.4375 49.3887C41.2613 49.7349 39.5632 50.4312 39.6448 50.9439C39.7263 51.4566 41.5567 51.5916 43.7329 51.2453Z" fill="black"/><path d="M24.3998 46.3699L14.0098 43.6299L4.83984 46.0899L15.1498 48.7899L24.3998 46.3699Z" fill="#99CC33" stroke="#98C917" stroke-linecap="round" stroke-linejoin="round"/><path d="M5.41016 7.13008L22.7102 2.58008L51.6802 10.1201L34.2402 14.6701L5.41016 7.13008Z" fill="#99CC33"/><path d="M51.6802 10.1201V44.3101L34.2402 48.8601V14.6701L51.6802 10.1201Z" fill="#61666B"/><path d="M51.6802 10.1201V44.3101L34.2402 48.8601V14.6701L51.6802 10.1201Z" stroke="#1E3300" stroke-linecap="round" stroke-linejoin="round"/><path d="M40.2002 13.0703V47.2603" stroke="#1E3300" stroke-linecap="round" stroke-linejoin="round"/><path d="M46.1401 13.0703V45.6603" stroke="#1E3300" stroke-linecap="round" stroke-linejoin="round"/><path d="M5.41016 7.12988V41.3199L34.2402 48.8599V14.6699L5.41016 7.12988Z" fill="#B3BCC4"/><path d="M26.4302 31.2002V46.8102L32.2502 48.2402V32.7802L26.4302 31.2002Z" fill="#99CC33"/><path d="M26.5898 34.9004L26.6098 40.5204L32.1298 41.9604L32.1098 36.3404L26.5898 34.9004Z" fill="#61666B"/><path d="M5.41016 7.12988V41.3199L34.2402 48.8599V14.6699L5.41016 7.12988Z" stroke="#1E3300" stroke-linecap="round" stroke-linejoin="round"/><path d="M24.3999 46.2103V12.0303" stroke="#1E3300" stroke-linecap="round" stroke-linejoin="round"/><path d="M26.4302 46.8096V31.3496" stroke="#1E3300" stroke-linecap="round" stroke-linejoin="round"/><path d="M32.25 48.2403V32.7803" stroke="#1E3300" stroke-linecap="round" stroke-linejoin="round"/><path d="M19.3101 44.9497V29.4297" stroke="#1E3300" stroke-linecap="round" stroke-linejoin="round"/><path d="M14.3999 43.6097V9.42969" stroke="#1E3300" stroke-linecap="round" stroke-linejoin="round"/><path d="M51.6802 28.71L34.2402 33.26" stroke="#1E3300" stroke-linecap="round" stroke-linejoin="round"/><path d="M5.5 25.7197L34.24 33.2597" stroke="#1E3300" stroke-linecap="round" stroke-linejoin="round"/><path d="M52.4598 10.1296L22.6698 2.34961L4.7998 6.99961L34.6798 14.7796L52.4598 10.1296Z" fill="#99CC33"/><path d="M22.6602 5.08008L9.9502 8.46008L34.2402 14.7801L47.1402 11.4801L22.6602 5.08008Z" fill="#D9EEA8"/><path d="M4.7998 7V9.58L34.6798 17.36V14.78L4.7998 7Z" fill="#99CC33"/><path d="M52.4602 10.1299V12.7099L34.6802 17.3599V14.7799L52.4602 10.1299Z" fill="#497D00"/><path d="M52.4598 10.1296L22.6698 2.34961L4.7998 6.99961L34.6798 14.7796L52.4598 10.1296Z" stroke="#1E3300" stroke-linecap="round" stroke-linejoin="round"/><path d="M47.15 11.5201L22.63 5.12012L10.25 8.40012" stroke="#1E3300" stroke-linecap="round" stroke-linejoin="round"/><path d="M4.7998 7V9.58L34.6798 17.36V14.78L4.7998 7Z" stroke="#1E3300" stroke-linecap="round" stroke-linejoin="round"/><path d="M52.4602 10.1299V12.7099L34.6802 17.3599V14.7799L52.4602 10.1299Z" stroke="#1E3300" stroke-linecap="round" stroke-linejoin="round"/><path d="M26.4301 26.5098L12.0601 22.7598V27.4598L26.4301 31.1998V26.5098Z" fill="#99CC33"/><path d="M26.4301 26.5098L12.0601 22.7598V27.4598L26.4301 31.1998V26.5098Z" stroke="#1E3300" stroke-linecap="round" stroke-linejoin="round"/><path d="M14.3999 28.1201V43.6101L19.3099 44.9501V29.3701L14.3999 28.1201Z" fill="#1E3300"/><path d="M14.1598 28.4102V43.5802L9.5498 44.7802V29.6102L14.1598 28.4102Z" fill="white"/><path d="M14.1598 28.2998V43.5798L9.5498 44.7798V29.4998L14.1598 28.2998Z" stroke="#1E3300" stroke-linecap="round" stroke-linejoin="round"/><path d="M32.1098 41.9502L26.5898 40.5102L29.3598 35.9502" stroke="#1E3300" stroke-linecap="round" stroke-linejoin="round"/><path d="M26.5898 34.9004L32.1098 36.3404" stroke="#1E3300" stroke-linecap="round" stroke-linejoin="round"/><path d="M43.1201 17.7695C41.5201 17.9595 39.9201 18.1495 38.3701 18.6095C36.8201 19.0695 35.3301 19.7895 34.2001 20.9295C32.8401 22.2895 32.0701 24.1295 31.6101 25.9995C30.7601 29.4795 30.8901 33.1395 31.5301 36.6695C32.1601 40.1995 33.2801 43.6095 34.4001 49.0195L43.1801 46.8595L43.1201 17.7795V17.7695Z" fill="#1E3300"/><path d="M40.3598 50.7802L46.2198 49.3102C46.3398 49.2802 46.4498 49.1902 46.4998 49.0502C48.6898 42.6302 54.0898 37.3202 53.8598 28.4002C53.6998 22.3302 50.3298 18.3802 46.5098 17.6202C45.6798 17.4602 44.8298 17.4802 44.0098 17.6402L38.0498 18.7702L40.3598 50.7802Z" fill="#497D00"/><path d="M47.9401 29.5602C48.1701 38.4702 42.8401 44.1002 40.6501 50.5202C40.5301 50.8602 40.0701 50.8802 39.9201 50.5602C37.4901 45.1002 32.5701 38.7102 31.6301 31.0402C30.7801 24.0802 34.2701 19.0002 38.7701 18.6802C43.2701 18.3602 47.7501 22.5502 47.9301 29.5702L47.9401 29.5602Z" fill="#99CC33"/><path d="M47.9401 29.5602C48.1701 38.4702 42.8401 44.1002 40.6501 50.5202C40.5301 50.8602 40.0701 50.8802 39.9201 50.5602C37.4901 45.1002 31.9601 37.7702 31.6301 30.7402C31.3101 23.7302 34.2701 19.0002 38.7701 18.6802C43.2701 18.3602 47.7501 22.5502 47.9301 29.5702L47.9401 29.5602Z" stroke="#1E3300" stroke-linecap="round" stroke-linejoin="round"/><path d="M39.9242 34.2559C41.6539 34.1317 42.8995 31.8517 42.7064 29.1634C42.5132 26.4752 40.9544 24.3968 39.2247 24.521C37.495 24.6453 36.2494 26.9253 36.4425 29.6135C36.6357 32.3018 38.1945 34.3802 39.9242 34.2559Z" fill="#61666B"/><path d="M39.9242 34.2559C41.6539 34.1317 42.8995 31.8517 42.7064 29.1634C42.5132 26.4752 40.9544 24.3968 39.2247 24.521C37.495 24.6453 36.2494 26.9253 36.4425 29.6135C36.6357 32.3018 38.1945 34.3802 39.9242 34.2559Z" stroke="#1E3300" stroke-linecap="round" stroke-linejoin="round"/><path d="M42.2501 32.1996C41.9601 31.5196 41.7601 30.7396 41.7001 29.8896C41.6201 28.7596 41.7901 27.7096 42.1501 26.8496" stroke="#1E3300" stroke-linecap="round" stroke-linejoin="round"/><path d="M40.3598 50.7802L46.2198 49.3102C46.3398 49.2802 46.4498 49.1902 46.4998 49.0502C48.6898 42.6302 54.0898 37.3202 53.8598 28.4002C53.6998 22.3302 50.3298 18.3802 46.5098 17.6202C45.6798 17.4602 44.8298 17.4802 44.0098 17.6402L38.0498 18.7702" stroke="#1E3300" stroke-linecap="round" stroke-linejoin="round"/><path d="M42.26 32.0697C42.21 31.9397 42.52 31.2797 42.56 31.1097C42.64 30.7797 42.69 30.4497 42.72 30.1197C42.78 29.4297 42.73 28.7397 42.59 28.0597C42.55 27.8797 42.46 27.1597 42.29 27.0597C42.1 26.9497 42 27.5797 41.96 27.7297C41.79 28.3997 41.72 29.0897 41.76 29.7697C41.8 30.5497 41.97 31.3297 42.27 32.0597L42.26 32.0697Z" fill="#1E3300"/></svg>