<svg fill="none" viewBox="0 0 56 56" xmlns="http://www.w3.org/2000/svg"><path opacity="0.2" d="M52.84 44.46C52.84 43.67 52.31 42.98 51.55 42.77L31.89 37.41C29.59 36.81 27.17 36.81 24.87 37.41L7.89 42.11C7.37 42.24 7 42.71 7 43.25C7 43.78 7.35 44.25 7.86 44.4L27.94 49.66C28.56 49.82 29.2 49.9 29.84 49.9H36.33C36.6 49.9 36.86 49.87 37.12 49.8L51.52 46.16C52.3 45.96 52.84 45.26 52.84 44.46Z" fill="black"/><path opacity="0.2" d="M18.9632 37.8616C22.149 37.5279 24.6341 36.3267 24.5139 35.1787C24.3936 34.0307 21.7135 33.3706 18.5277 33.7043C15.3419 34.0381 12.8568 35.2392 12.977 36.3872C13.0973 37.5352 15.7774 38.1953 18.9632 37.8616Z" fill="black"/><path opacity="0.2" d="M11.3099 42.1253C14.4957 41.7915 16.9808 40.5904 16.8606 39.4424C16.7403 38.2944 14.0602 37.6343 10.8744 37.968C7.68857 38.3017 5.20344 39.5029 5.3237 40.6509C5.44395 41.7989 8.12405 42.459 11.3099 42.1253Z" fill="black"/><path d="M22.9599 31.9697V34.6697C22.9599 36.2497 20.3599 37.5197 17.1599 37.5197C13.9499 37.5197 11.3599 36.2397 11.3599 34.6697V31.9697H22.9699H22.9599Z" fill="#B2BBC3"/><path d="M22.9599 31.9697V34.6697C22.9599 36.2497 20.3599 37.5197 17.1599 37.5197C13.9499 37.5197 11.3599 36.2397 11.3599 34.6697V31.9697" stroke="#1E3300" stroke-linecap="round" stroke-linejoin="round"/><path d="M17.1599 34.8201C20.3631 34.8201 22.9599 33.5441 22.9599 31.9701C22.9599 30.3961 20.3631 29.1201 17.1599 29.1201C13.9566 29.1201 11.3599 30.3961 11.3599 31.9701C11.3599 33.5441 13.9566 34.8201 17.1599 34.8201Z" fill="white"/><path d="M17.1599 34.8201C20.3631 34.8201 22.9599 33.5441 22.9599 31.9701C22.9599 30.3961 20.3631 29.1201 17.1599 29.1201C13.9566 29.1201 11.3599 30.3961 11.3599 31.9701C11.3599 33.5441 13.9566 34.8201 17.1599 34.8201Z" stroke="#1E3300" stroke-linecap="round" stroke-linejoin="round"/><path d="M22.9599 29.2695V31.9695C22.9599 33.5495 20.3599 34.8195 17.1599 34.8195C13.9499 34.8195 11.3599 33.5395 11.3599 31.9695V29.2695H22.9699H22.9599Z" fill="#B2BBC3"/><path d="M22.9599 29.2695V31.9695C22.9599 33.5495 20.3599 34.8195 17.1599 34.8195C13.9499 34.8195 11.3599 33.5395 11.3599 31.9695V29.2695" stroke="#1E3300" stroke-linecap="round" stroke-linejoin="round"/><path d="M17.1599 32.1199C20.3631 32.1199 22.9599 30.8439 22.9599 29.2699C22.9599 27.6959 20.3631 26.4199 17.1599 26.4199C13.9566 26.4199 11.3599 27.6959 11.3599 29.2699C11.3599 30.8439 13.9566 32.1199 17.1599 32.1199Z" fill="white"/><path d="M17.1599 32.1199C20.3631 32.1199 22.9599 30.8439 22.9599 29.2699C22.9599 27.6959 20.3631 26.4199 17.1599 26.4199C13.9566 26.4199 11.3599 27.6959 11.3599 29.2699C11.3599 30.8439 13.9566 32.1199 17.1599 32.1199Z" stroke="#1E3300" stroke-linecap="round" stroke-linejoin="round"/><path d="M22.9599 26.5703V29.2703C22.9599 30.8503 20.3599 32.1203 17.1599 32.1203C13.9499 32.1203 11.3599 30.8403 11.3599 29.2703V26.5703H22.9699H22.9599Z" fill="#B2BBC3"/><path d="M22.9599 26.5703V29.2703C22.9599 30.8503 20.3599 32.1203 17.1599 32.1203C13.9499 32.1203 11.3599 30.8403 11.3599 29.2703V26.5703" stroke="#1E3300" stroke-linecap="round" stroke-linejoin="round"/><path d="M17.1599 29.4197C20.3631 29.4197 22.9599 28.1437 22.9599 26.5697C22.9599 24.9957 20.3631 23.7197 17.1599 23.7197C13.9566 23.7197 11.3599 24.9957 11.3599 26.5697C11.3599 28.1437 13.9566 29.4197 17.1599 29.4197Z" fill="white"/><path d="M17.1599 29.4197C20.3631 29.4197 22.9599 28.1437 22.9599 26.5697C22.9599 24.9957 20.3631 23.7197 17.1599 23.7197C13.9566 23.7197 11.3599 24.9957 11.3599 26.5697C11.3599 28.1437 13.9566 29.4197 17.1599 29.4197Z" stroke="#1E3300" stroke-linecap="round" stroke-linejoin="round"/><path d="M22.9599 23.8701V26.5701C22.9599 28.1501 20.3599 29.4201 17.1599 29.4201C13.9499 29.4201 11.3599 28.1401 11.3599 26.5701V23.8701H22.9699H22.9599Z" fill="#B2BBC3"/><path d="M22.9599 23.8701V26.5701C22.9599 28.1501 20.3599 29.4201 17.1599 29.4201C13.9499 29.4201 11.3599 28.1401 11.3599 26.5701V23.8701" stroke="#1E3300" stroke-linecap="round" stroke-linejoin="round"/><path d="M17.1599 26.7195C20.3631 26.7195 22.9599 25.4435 22.9599 23.8695C22.9599 22.2955 20.3631 21.0195 17.1599 21.0195C13.9566 21.0195 11.3599 22.2955 11.3599 23.8695C11.3599 25.4435 13.9566 26.7195 17.1599 26.7195Z" fill="white"/><path d="M17.1599 26.7195C20.3631 26.7195 22.9599 25.4435 22.9599 23.8695C22.9599 22.2955 20.3631 21.0195 17.1599 21.0195C13.9566 21.0195 11.3599 22.2955 11.3599 23.8695C11.3599 25.4435 13.9566 26.7195 17.1599 26.7195Z" stroke="#1E3300" stroke-linecap="round" stroke-linejoin="round"/><path d="M22.9599 21.1699V23.8699C22.9599 25.4499 20.3599 26.7199 17.1599 26.7199C13.9499 26.7199 11.3599 25.4399 11.3599 23.8699V21.1699H22.9699H22.9599Z" fill="#B2BBC3"/><path d="M22.9599 21.1699V23.8699C22.9599 25.4499 20.3599 26.7199 17.1599 26.7199C13.9499 26.7199 11.3599 25.4399 11.3599 23.8699V21.1699" stroke="#1E3300" stroke-linecap="round" stroke-linejoin="round"/><path d="M17.1599 24.0203C20.3631 24.0203 22.9599 22.7443 22.9599 21.1703C22.9599 19.5963 20.3631 18.3203 17.1599 18.3203C13.9566 18.3203 11.3599 19.5963 11.3599 21.1703C11.3599 22.7443 13.9566 24.0203 17.1599 24.0203Z" fill="white"/><path d="M17.1599 24.0203C20.3631 24.0203 22.9599 22.7443 22.9599 21.1703C22.9599 19.5963 20.3631 18.3203 17.1599 18.3203C13.9566 18.3203 11.3599 19.5963 11.3599 21.1703C11.3599 22.7443 13.9566 24.0203 17.1599 24.0203Z" stroke="#1E3300" stroke-linecap="round" stroke-linejoin="round"/><path d="M20.9599 17.4697V20.1697C20.9599 21.7497 18.3599 23.0197 15.1599 23.0197C11.9499 23.0197 9.35986 21.7397 9.35986 20.1697V17.4697H20.9699H20.9599Z" fill="#B2BBC3"/><path d="M20.9599 17.4697V20.1697C20.9599 21.7497 18.3599 23.0197 15.1599 23.0197C11.9499 23.0197 9.35986 21.7397 9.35986 20.1697V17.4697" stroke="#1E3300" stroke-linecap="round" stroke-linejoin="round"/><path d="M15.1599 20.3201C18.3631 20.3201 20.9599 19.0441 20.9599 17.4701C20.9599 15.8961 18.3631 14.6201 15.1599 14.6201C11.9566 14.6201 9.35986 15.8961 9.35986 17.4701C9.35986 19.0441 11.9566 20.3201 15.1599 20.3201Z" fill="white"/><path d="M15.1599 20.3201C18.3631 20.3201 20.9599 19.0441 20.9599 17.4701C20.9599 15.8961 18.3631 14.6201 15.1599 14.6201C11.9566 14.6201 9.35986 15.8961 9.35986 17.4701C9.35986 19.0441 11.9566 20.3201 15.1599 20.3201Z" stroke="#1E3300" stroke-linecap="round" stroke-linejoin="round"/><path d="M20.9599 14.7695V17.4695C20.9599 19.0495 18.3599 20.3195 15.1599 20.3195C11.9499 20.3195 9.35986 19.0395 9.35986 17.4695V14.7695H20.9699H20.9599Z" fill="#B2BBC3"/><path d="M20.9599 14.7695V17.4695C20.9599 19.0495 18.3599 20.3195 15.1599 20.3195C11.9499 20.3195 9.35986 19.0395 9.35986 17.4695V14.7695" stroke="#1E3300" stroke-linecap="round" stroke-linejoin="round"/><path d="M15.1599 17.6199C18.3631 17.6199 20.9599 16.3439 20.9599 14.7699C20.9599 13.1959 18.3631 11.9199 15.1599 11.9199C11.9566 11.9199 9.35986 13.1959 9.35986 14.7699C9.35986 16.3439 11.9566 17.6199 15.1599 17.6199Z" fill="white"/><path d="M15.1599 17.6199C18.3631 17.6199 20.9599 16.3439 20.9599 14.7699C20.9599 13.1959 18.3631 11.9199 15.1599 11.9199C11.9566 11.9199 9.35986 13.1959 9.35986 14.7699C9.35986 16.3439 11.9566 17.6199 15.1599 17.6199Z" stroke="#1E3300" stroke-linecap="round" stroke-linejoin="round"/><path d="M15.4301 36.2695V38.9695C15.4301 40.5495 12.8301 41.8195 9.63008 41.8195C6.42008 41.8195 3.83008 40.5395 3.83008 38.9695V36.2695H15.4401H15.4301Z" fill="#B2BBC3"/><path d="M15.4301 36.2695V38.9695C15.4301 40.5495 12.8301 41.8195 9.63008 41.8195C6.42008 41.8195 3.83008 40.5395 3.83008 38.9695V36.2695" stroke="#1E3300" stroke-linecap="round" stroke-linejoin="round"/><path d="M9.61982 39.1199C12.8231 39.1199 15.4198 37.8439 15.4198 36.2699C15.4198 34.6959 12.8231 33.4199 9.61982 33.4199C6.41657 33.4199 3.81982 34.6959 3.81982 36.2699C3.81982 37.8439 6.41657 39.1199 9.61982 39.1199Z" fill="white"/><path d="M9.61982 39.1199C12.8231 39.1199 15.4198 37.8439 15.4198 36.2699C15.4198 34.6959 12.8231 33.4199 9.61982 33.4199C6.41657 33.4199 3.81982 34.6959 3.81982 36.2699C3.81982 37.8439 6.41657 39.1199 9.61982 39.1199Z" stroke="#1E3300" stroke-linecap="round" stroke-linejoin="round"/><path d="M15.4301 33.6104V36.3104C15.4301 37.8904 12.8301 39.1604 9.63008 39.1604C6.42008 39.1604 3.83008 37.8804 3.83008 36.3104V33.6104H15.4401H15.4301Z" fill="#B2BBC3"/><path d="M15.4301 33.6104V36.3104C15.4301 37.8904 12.8301 39.1604 9.63008 39.1604C6.42008 39.1604 3.83008 37.8804 3.83008 36.3104V33.6104" stroke="#1E3300" stroke-linecap="round" stroke-linejoin="round"/><path d="M9.61982 36.4598C12.8231 36.4598 15.4198 35.1838 15.4198 33.6098C15.4198 32.0358 12.8231 30.7598 9.61982 30.7598C6.41657 30.7598 3.81982 32.0358 3.81982 33.6098C3.81982 35.1838 6.41657 36.4598 9.61982 36.4598Z" fill="white"/><path d="M9.61982 36.4598C12.8231 36.4598 15.4198 35.1838 15.4198 33.6098C15.4198 32.0358 12.8231 30.7598 9.61982 30.7598C6.41657 30.7598 3.81982 32.0358 3.81982 33.6098C3.81982 35.1838 6.41657 36.4598 9.61982 36.4598Z" stroke="#1E3300" stroke-linecap="round" stroke-linejoin="round"/><path d="M15.4301 30.96V33.66C15.4301 35.24 12.8301 36.51 9.63008 36.51C6.42008 36.51 3.83008 35.23 3.83008 33.66V30.96H15.4401H15.4301Z" fill="#B2BBC3"/><path d="M15.4301 30.96V33.66C15.4301 35.24 12.8301 36.51 9.63008 36.51C6.42008 36.51 3.83008 35.23 3.83008 33.66V30.96" stroke="#1E3300" stroke-linecap="round" stroke-linejoin="round"/><path d="M9.61982 33.8104C12.8231 33.8104 15.4198 32.5344 15.4198 30.9604C15.4198 29.3863 12.8231 28.1104 9.61982 28.1104C6.41657 28.1104 3.81982 29.3863 3.81982 30.9604C3.81982 32.5344 6.41657 33.8104 9.61982 33.8104Z" fill="white"/><path d="M9.61982 33.8104C12.8231 33.8104 15.4198 32.5344 15.4198 30.9604C15.4198 29.3863 12.8231 28.1104 9.61982 28.1104C6.41657 28.1104 3.81982 29.3863 3.81982 30.9604C3.81982 32.5344 6.41657 33.8104 9.61982 33.8104Z" stroke="#1E3300" stroke-linecap="round" stroke-linejoin="round"/><path d="M49.3902 44.5099C49.6002 44.2299 49.7202 43.8999 49.7302 43.5499C49.7402 42.6799 49.7302 41.1499 49.3902 41.0599L25.3502 37.0099C25.3502 37.0099 25.2802 36.9999 25.2502 36.9899C24.2202 36.7299 23.1402 36.7299 22.1102 36.9899C22.0502 36.9999 22.0002 37.0199 21.9402 37.0199L4.12018 39.2999C3.80018 39.3899 3.86018 40.8799 3.89018 41.6899C3.90018 42.0099 4.01018 42.3199 4.19018 42.5799C4.42018 42.9199 4.77018 43.1599 5.16018 43.2599L28.3002 49.3099C29.3702 49.5899 30.4902 49.5899 31.5602 49.3099L48.5102 45.0899C48.8602 44.9999 49.1702 44.7999 49.3902 44.5099Z" fill="#99CC33"/><path d="M3.87988 39.5098V41.6298C3.87988 41.9798 3.98988 42.3198 4.18988 42.5998C4.41988 42.9298 4.75988 43.1598 5.13988 43.2598L28.2899 49.3098C29.3599 49.5898 30.4799 49.5898 31.5499 49.3098L48.5099 45.0798C48.8599 44.9898 49.1599 44.7898 49.3799 44.5098C49.5899 44.2298 49.7099 43.8898 49.7099 43.5398V41.3598" stroke="#1E3300" stroke-linecap="round" stroke-linejoin="round"/><path d="M49.0501 40.5003L25.2901 34.2803C24.2201 34.0003 23.0901 34.0003 22.0101 34.2803L4.54006 38.6503C3.65006 38.8803 3.65006 40.1503 4.54006 40.3803L28.2801 46.5803C29.3501 46.8603 30.4701 46.8603 31.5401 46.5803L49.0301 42.2203C49.9201 41.9903 49.9201 40.7203 49.0301 40.4903L49.0501 40.5003Z" fill="#D9EEA8"/><path d="M38.5701 42.4204L18.0801 37.1504" stroke="#1E3300" stroke-linecap="round" stroke-linejoin="round"/><path d="M43.3398 41.3297L22.5698 35.8896" stroke="#1E3300" stroke-linecap="round" stroke-linejoin="round"/><path d="M49.0501 40.5003L25.2901 34.2803C24.2201 34.0003 23.0901 34.0003 22.0101 34.2803L4.54006 38.6503C3.65006 38.8803 3.65006 40.1503 4.54006 40.3803L28.2801 46.5803C29.3501 46.8603 30.4701 46.8603 31.5401 46.5803L49.0301 42.2203C49.9201 41.9903 49.9201 40.7203 49.0301 40.4903L49.0501 40.5003Z" stroke="#1E3300" stroke-linecap="round" stroke-linejoin="round"/><path d="M27.3102 41.5503L21.6402 40.0603C21.3802 39.9903 21.1102 39.9903 20.8602 40.0603L16.6902 41.1003C16.4802 41.1603 16.4802 41.4603 16.6902 41.5103L22.3602 42.9903C22.6202 43.0603 22.8802 43.0603 23.1402 42.9903L27.3202 41.9503C27.5302 41.8903 27.5302 41.5903 27.3202 41.5403L27.3102 41.5503Z" fill="white"/><path d="M27.3102 41.5503L21.6402 40.0603C21.3802 39.9903 21.1102 39.9903 20.8602 40.0603L16.6902 41.1003C16.4802 41.1603 16.4802 41.4603 16.6902 41.5103L22.3602 42.9903C22.6202 43.0603 22.8802 43.0603 23.1402 42.9903L27.3202 41.9503C27.5302 41.8903 27.5302 41.5903 27.3202 41.5403L27.3102 41.5503Z" stroke="#1E3300" stroke-linecap="round" stroke-linejoin="round"/><path d="M26.1399 11.7997L23.4599 31.6697C23.2699 32.8097 23.9799 33.8997 25.0899 34.1897L49.4799 40.5697C50.4399 40.8197 51.4099 40.1897 51.5799 39.2097L54.2599 19.3397C54.4499 18.1997 53.7399 17.1097 52.6299 16.8197L28.2399 10.4397C27.2799 10.1897 26.3099 10.8197 26.1399 11.7997Z" fill="white"/><path d="M26.1399 11.7997L23.4599 31.6697C23.2699 32.8097 23.9799 33.8997 25.0899 34.1897L49.4799 40.5697C50.4399 40.8197 51.4099 40.1897 51.5799 39.2097L54.2599 19.3397C54.4499 18.1997 53.7399 17.1097 52.6299 16.8197L28.2399 10.4397C27.2799 10.1897 26.3099 10.8197 26.1399 11.7997Z" stroke="#1E3300" stroke-linecap="round" stroke-linejoin="round"/><path d="M48.1998 23.5601L48.8398 18.9001C48.8798 18.6201 48.5998 18.4001 48.3398 18.5001L43.8298 20.1801C43.5498 20.2801 43.4998 20.6501 43.7298 20.8301L47.5998 23.8101C47.8298 23.9901 48.1598 23.8501 48.1998 23.5601Z" fill="#99CC33"/><path d="M38.1901 32.2003C38.1001 32.2203 38.0101 32.2303 37.9201 32.2303C37.6601 32.2203 37.4101 32.0803 37.2701 31.8603L31.7401 23.5403L29.1201 26.5903C28.8201 26.9403 28.2901 26.9803 27.9401 26.6803C27.5901 26.3803 27.5501 25.8503 27.8501 25.5003L31.2001 21.6103C31.3701 21.4103 31.6301 21.3003 31.8901 21.3203C32.1501 21.3403 32.3901 21.4703 32.5401 21.6903L38.0601 30.0003L46.4701 19.9403C46.7701 19.5903 47.3001 19.5403 47.6501 19.8303C48.0101 20.1303 48.0501 20.6603 47.7601 21.0103L38.6201 31.9303C38.5101 32.0603 38.3601 32.1503 38.2001 32.2003H38.1901Z" fill="#99CC33"/><path d="M38.8002 29.08L38.0402 29.98L37.0502 28.48C36.5402 28.27 36.0302 28.04 35.5202 27.83C35.7402 27.94 34.6502 27.59 34.4602 27.55C34.4402 27.55 34.4202 27.55 34.4102 27.54L37.2702 31.84C37.4202 32.06 37.6602 32.2 37.9202 32.21C38.0102 32.21 38.1002 32.21 38.1902 32.18C38.3502 32.13 38.5002 32.04 38.6102 31.91L40.7302 29.37C40.0802 29.33 39.4302 29.22 38.8002 29.06V29.08Z" fill="#B3BCC4"/><path d="M30.52 26.8203L47.54 31.2203" stroke="#1E3300" stroke-linecap="round" stroke-linejoin="round"/><path d="M47.0601 34.0398L42.3301 32.7998" stroke="#CAD1D7" stroke-miterlimit="10" stroke-linecap="round"/><path d="M46.7001 36.8501L40.1001 35.1201" stroke="#CAD1D7" stroke-miterlimit="10" stroke-linecap="round"/></svg>