<svg fill="none" viewBox="0 0 56 56" xmlns="http://www.w3.org/2000/svg"><path opacity="0.2" d="M17.2894 51.3573C20.4752 51.0235 22.9375 49.6042 22.7891 48.187C22.6406 46.7699 19.9377 45.8916 16.7518 46.2253C13.566 46.5591 11.1037 47.9784 11.2522 49.3956C11.4006 50.8127 14.1036 51.691 17.2894 51.3573Z" fill="black"/><path opacity="0.2" d="M30.1546 46.8919C33.3405 46.5582 35.8027 45.1389 35.6543 43.7217C35.5059 42.3046 32.8029 41.4263 29.6171 41.76C26.4312 42.0937 23.969 43.5131 24.1174 44.9302C24.2659 46.3474 26.9688 47.2256 30.1546 46.8919Z" fill="black"/><path opacity="0.2" d="M43.1219 42.554C46.3078 42.2203 48.77 40.801 48.6216 39.3838C48.4731 37.9667 45.7702 37.0884 42.5844 37.4221C39.3985 37.7558 36.9363 39.1752 37.0847 40.5923C37.2332 42.0095 39.9361 42.8878 43.1219 42.554Z" fill="black"/><path d="M21.08 45.3398V48.0398C21.08 49.6198 18.48 50.8898 15.28 50.8898C12.07 50.8898 9.47998 49.6098 9.47998 48.0398V45.3398H21.09H21.08Z" fill="#B2BBC3"/><path d="M21.08 45.3398V48.0398C21.08 49.6198 18.48 50.8898 15.28 50.8898C12.07 50.8898 9.47998 49.6098 9.47998 48.0398V45.3398" stroke="#1E3300" stroke-linecap="round" stroke-linejoin="round"/><path d="M15.2702 48.19C18.4735 48.19 21.0702 46.914 21.0702 45.34C21.0702 43.766 18.4735 42.49 15.2702 42.49C12.067 42.49 9.47021 43.766 9.47021 45.34C9.47021 46.914 12.067 48.19 15.2702 48.19Z" fill="white"/><path d="M15.2702 48.19C18.4735 48.19 21.0702 46.914 21.0702 45.34C21.0702 43.766 18.4735 42.49 15.2702 42.49C12.067 42.49 9.47021 43.766 9.47021 45.34C9.47021 46.914 12.067 48.19 15.2702 48.19Z" stroke="#1E3300" stroke-linecap="round" stroke-linejoin="round"/><path d="M21.08 42.6899V45.3899C21.08 46.9699 18.48 48.2399 15.28 48.2399C12.07 48.2399 9.47998 46.9599 9.47998 45.3899V42.6899H21.09H21.08Z" fill="#B2BBC3"/><path d="M21.08 42.6899V45.3899C21.08 46.9699 18.48 48.2399 15.28 48.2399C12.07 48.2399 9.47998 46.9599 9.47998 45.3899V42.6899" stroke="#1E3300" stroke-linecap="round" stroke-linejoin="round"/><path d="M15.2702 45.5398C18.4735 45.5398 21.0702 44.2639 21.0702 42.6898C21.0702 41.1158 18.4735 39.8398 15.2702 39.8398C12.067 39.8398 9.47021 41.1158 9.47021 42.6898C9.47021 44.2639 12.067 45.5398 15.2702 45.5398Z" fill="white"/><path d="M15.2702 45.5398C18.4735 45.5398 21.0702 44.2639 21.0702 42.6898C21.0702 41.1158 18.4735 39.8398 15.2702 39.8398C12.067 39.8398 9.47021 41.1158 9.47021 42.6898C9.47021 44.2639 12.067 45.5398 15.2702 45.5398Z" stroke="#1E3300" stroke-linecap="round" stroke-linejoin="round"/><path d="M21.08 40.03V42.73C21.08 44.31 18.48 45.58 15.28 45.58C12.07 45.58 9.47998 44.3 9.47998 42.73V40.03H21.09H21.08Z" fill="#B2BBC3"/><path d="M21.08 40.03V42.73C21.08 44.31 18.48 45.58 15.28 45.58C12.07 45.58 9.47998 44.3 9.47998 42.73V40.03" stroke="#1E3300" stroke-linecap="round" stroke-linejoin="round"/><path d="M15.2702 42.8802C18.4735 42.8802 21.0702 41.6042 21.0702 40.0302C21.0702 38.4562 18.4735 37.1802 15.2702 37.1802C12.067 37.1802 9.47021 38.4562 9.47021 40.0302C9.47021 41.6042 12.067 42.8802 15.2702 42.8802Z" fill="white"/><path d="M15.2702 42.8802C18.4735 42.8802 21.0702 41.6042 21.0702 40.0302C21.0702 38.4562 18.4735 37.1802 15.2702 37.1802C12.067 37.1802 9.47021 38.4562 9.47021 40.0302C9.47021 41.6042 12.067 42.8802 15.2702 42.8802Z" stroke="#1E3300" stroke-linecap="round" stroke-linejoin="round"/><path d="M21.08 37.3599V40.0599C21.08 41.6399 18.48 42.9099 15.28 42.9099C12.07 42.9099 9.47998 41.6299 9.47998 40.0599V37.3599H21.09H21.08Z" fill="#B2BBC3"/><path d="M21.08 37.3599V40.0599C21.08 41.6399 18.48 42.9099 15.28 42.9099C12.07 42.9099 9.47998 41.6299 9.47998 40.0599V37.3599" stroke="#1E3300" stroke-linecap="round" stroke-linejoin="round"/><path d="M15.2702 40.21C18.4735 40.21 21.0702 38.934 21.0702 37.36C21.0702 35.786 18.4735 34.51 15.2702 34.51C12.067 34.51 9.47021 35.786 9.47021 37.36C9.47021 38.934 12.067 40.21 15.2702 40.21Z" fill="white"/><path d="M15.2702 40.21C18.4735 40.21 21.0702 38.934 21.0702 37.36C21.0702 35.786 18.4735 34.51 15.2702 34.51C12.067 34.51 9.47021 35.786 9.47021 37.36C9.47021 38.934 12.067 40.21 15.2702 40.21Z" stroke="#1E3300" stroke-linecap="round" stroke-linejoin="round"/><path d="M21.08 34.6802V37.3802C21.08 38.9602 18.48 40.2302 15.28 40.2302C12.07 40.2302 9.47998 38.9502 9.47998 37.3802V34.6802H21.09H21.08Z" fill="#B2BBC3"/><path d="M21.08 34.6802V37.3802C21.08 38.9602 18.48 40.2302 15.28 40.2302C12.07 40.2302 9.47998 38.9502 9.47998 37.3802V34.6802" stroke="#1E3300" stroke-linecap="round" stroke-linejoin="round"/><path d="M15.2702 37.5301C18.4735 37.5301 21.0702 36.2541 21.0702 34.6801C21.0702 33.1061 18.4735 31.8301 15.2702 31.8301C12.067 31.8301 9.47021 33.1061 9.47021 34.6801C9.47021 36.2541 12.067 37.5301 15.2702 37.5301Z" fill="white"/><path d="M15.2702 37.5301C18.4735 37.5301 21.0702 36.2541 21.0702 34.6801C21.0702 33.1061 18.4735 31.8301 15.2702 31.8301C12.067 31.8301 9.47021 33.1061 9.47021 34.6801C9.47021 36.2541 12.067 37.5301 15.2702 37.5301Z" stroke="#1E3300" stroke-linecap="round" stroke-linejoin="round"/><path d="M33.9701 40.96V43.66C33.9701 45.24 31.3701 46.51 28.1701 46.51C24.9601 46.51 22.3701 45.23 22.3701 43.66V40.96H33.9801H33.9701Z" fill="#B2BBC3"/><path d="M33.9701 40.96V43.66C33.9701 45.24 31.3701 46.51 28.1701 46.51C24.9601 46.51 22.3701 45.23 22.3701 43.66V40.96" stroke="#1E3300" stroke-linecap="round" stroke-linejoin="round"/><path d="M28.1599 43.8099C31.3631 43.8099 33.9599 42.5339 33.9599 40.9599C33.9599 39.3859 31.3631 38.1099 28.1599 38.1099C24.9566 38.1099 22.3599 39.3859 22.3599 40.9599C22.3599 42.5339 24.9566 43.8099 28.1599 43.8099Z" fill="white"/><path d="M28.1599 43.8099C31.3631 43.8099 33.9599 42.5339 33.9599 40.9599C33.9599 39.3859 31.3631 38.1099 28.1599 38.1099C24.9566 38.1099 22.3599 39.3859 22.3599 40.9599C22.3599 42.5339 24.9566 43.8099 28.1599 43.8099Z" stroke="#1E3300" stroke-linecap="round" stroke-linejoin="round"/><path d="M33.9701 38.3101V41.0101C33.9701 42.5901 31.3701 43.8601 28.1701 43.8601C24.9601 43.8601 22.3701 42.5801 22.3701 41.0101V38.3101H33.9801H33.9701Z" fill="#B2BBC3"/><path d="M33.9701 38.3101V41.0101C33.9701 42.5901 31.3701 43.8601 28.1701 43.8601C24.9601 43.8601 22.3701 42.5801 22.3701 41.0101V38.3101" stroke="#1E3300" stroke-linecap="round" stroke-linejoin="round"/><path d="M28.1599 41.16C31.3631 41.16 33.9599 39.884 33.9599 38.31C33.9599 36.736 31.3631 35.46 28.1599 35.46C24.9566 35.46 22.3599 36.736 22.3599 38.31C22.3599 39.884 24.9566 41.16 28.1599 41.16Z" fill="white"/><path d="M28.1599 41.16C31.3631 41.16 33.9599 39.884 33.9599 38.31C33.9599 36.736 31.3631 35.46 28.1599 35.46C24.9566 35.46 22.3599 36.736 22.3599 38.31C22.3599 39.884 24.9566 41.16 28.1599 41.16Z" stroke="#1E3300" stroke-linecap="round" stroke-linejoin="round"/><path d="M33.9701 35.6499V38.3499C33.9701 39.9299 31.3701 41.1999 28.1701 41.1999C24.9601 41.1999 22.3701 39.9199 22.3701 38.3499V35.6499H33.9801H33.9701Z" fill="#B2BBC3"/><path d="M33.9701 35.6499V38.3499C33.9701 39.9299 31.3701 41.1999 28.1701 41.1999C24.9601 41.1999 22.3701 39.9199 22.3701 38.3499V35.6499" stroke="#1E3300" stroke-linecap="round" stroke-linejoin="round"/><path d="M28.1599 38.5C31.3631 38.5 33.9599 37.2241 33.9599 35.6501C33.9599 34.076 31.3631 32.8 28.1599 32.8C24.9566 32.8 22.3599 34.076 22.3599 35.6501C22.3599 37.2241 24.9566 38.5 28.1599 38.5Z" fill="white"/><path d="M28.1599 38.5C31.3631 38.5 33.9599 37.2241 33.9599 35.6501C33.9599 34.076 31.3631 32.8 28.1599 32.8C24.9566 32.8 22.3599 34.076 22.3599 35.6501C22.3599 37.2241 24.9566 38.5 28.1599 38.5Z" stroke="#1E3300" stroke-linecap="round" stroke-linejoin="round"/><path d="M46.8402 36.8301V39.5301C46.8402 41.1101 44.2402 42.3801 41.0402 42.3801C37.8302 42.3801 35.2402 41.1001 35.2402 39.5301V36.8301H46.8502H46.8402Z" fill="#B2BBC3"/><path d="M46.8402 36.8301V39.5301C46.8402 41.1101 44.2402 42.3801 41.0402 42.3801C37.8302 42.3801 35.2402 41.1001 35.2402 39.5301V36.8301" stroke="#1E3300" stroke-linecap="round" stroke-linejoin="round"/><path d="M41.0402 39.68C44.2435 39.68 46.8402 38.404 46.8402 36.83C46.8402 35.256 44.2435 33.98 41.0402 33.98C37.837 33.98 35.2402 35.256 35.2402 36.83C35.2402 38.404 37.837 39.68 41.0402 39.68Z" fill="white"/><path d="M41.0402 39.68C44.2435 39.68 46.8402 38.404 46.8402 36.83C46.8402 35.256 44.2435 33.98 41.0402 33.98C37.837 33.98 35.2402 35.256 35.2402 36.83C35.2402 38.404 37.837 39.68 41.0402 39.68Z" stroke="#1E3300" stroke-linecap="round" stroke-linejoin="round"/><path d="M46.8402 34.1299V36.8299C46.8402 38.4099 44.2402 39.6799 41.0402 39.6799C37.8302 39.6799 35.2402 38.3999 35.2402 36.8299V34.1299H46.8502H46.8402Z" fill="#B2BBC3"/><path d="M46.8402 34.1299V36.8299C46.8402 38.4099 44.2402 39.6799 41.0402 39.6799C37.8302 39.6799 35.2402 38.3999 35.2402 36.8299V34.1299" stroke="#1E3300" stroke-linecap="round" stroke-linejoin="round"/><path d="M41.0402 36.98C44.2435 36.98 46.8402 35.704 46.8402 34.13C46.8402 32.556 44.2435 31.28 41.0402 31.28C37.837 31.28 35.2402 32.556 35.2402 34.13C35.2402 35.704 37.837 36.98 41.0402 36.98Z" fill="white"/><path d="M41.0402 36.98C44.2435 36.98 46.8402 35.704 46.8402 34.13C46.8402 32.556 44.2435 31.28 41.0402 31.28C37.837 31.28 35.2402 32.556 35.2402 34.13C35.2402 35.704 37.837 36.98 41.0402 36.98Z" stroke="#1E3300" stroke-linecap="round" stroke-linejoin="round"/><path d="M46.8402 31.4302V34.1302C46.8402 35.7102 44.2402 36.9802 41.0402 36.9802C37.8302 36.9802 35.2402 35.7002 35.2402 34.1302V31.4302H46.8502H46.8402Z" fill="#B2BBC3"/><path d="M46.8402 31.4302V34.1302C46.8402 35.7102 44.2402 36.9802 41.0402 36.9802C37.8302 36.9802 35.2402 35.7002 35.2402 34.1302V31.4302" stroke="#1E3300" stroke-linecap="round" stroke-linejoin="round"/><path d="M41.0402 34.2801C44.2435 34.2801 46.8402 33.0041 46.8402 31.4301C46.8402 29.8561 44.2435 28.5801 41.0402 28.5801C37.837 28.5801 35.2402 29.8561 35.2402 31.4301C35.2402 33.0041 37.837 34.2801 41.0402 34.2801Z" fill="white"/><path d="M41.0402 34.2801C44.2435 34.2801 46.8402 33.0041 46.8402 31.4301C46.8402 29.8561 44.2435 28.5801 41.0402 28.5801C37.837 28.5801 35.2402 29.8561 35.2402 31.4301C35.2402 33.0041 37.837 34.2801 41.0402 34.2801Z" stroke="#1E3300" stroke-linecap="round" stroke-linejoin="round"/><path d="M46.8402 28.73V31.43C46.8402 33.01 44.2402 34.28 41.0402 34.28C37.8302 34.28 35.2402 33 35.2402 31.43V28.73H46.8502H46.8402Z" fill="#B2BBC3"/><path d="M46.8402 28.73V31.43C46.8402 33.01 44.2402 34.28 41.0402 34.28C37.8302 34.28 35.2402 33 35.2402 31.43V28.73" stroke="#1E3300" stroke-linecap="round" stroke-linejoin="round"/><path d="M41.0402 31.5799C44.2435 31.5799 46.8402 30.3039 46.8402 28.7299C46.8402 27.1559 44.2435 25.8799 41.0402 25.8799C37.837 25.8799 35.2402 27.1559 35.2402 28.7299C35.2402 30.3039 37.837 31.5799 41.0402 31.5799Z" fill="white"/><path d="M41.0402 31.5799C44.2435 31.5799 46.8402 30.3039 46.8402 28.7299C46.8402 27.1559 44.2435 25.8799 41.0402 25.8799C37.837 25.8799 35.2402 27.1559 35.2402 28.7299C35.2402 30.3039 37.837 31.5799 41.0402 31.5799Z" stroke="#1E3300" stroke-linecap="round" stroke-linejoin="round"/><path d="M46.8402 26.03V28.73C46.8402 30.31 44.2402 31.58 41.0402 31.58C37.8302 31.58 35.2402 30.3 35.2402 28.73V26.03H46.8502H46.8402Z" fill="#B2BBC3"/><path d="M46.8402 26.03V28.73C46.8402 30.31 44.2402 31.58 41.0402 31.58C37.8302 31.58 35.2402 30.3 35.2402 28.73V26.03" stroke="#1E3300" stroke-linecap="round" stroke-linejoin="round"/><path d="M41.0402 28.8802C44.2435 28.8802 46.8402 27.6042 46.8402 26.0302C46.8402 24.4562 44.2435 23.1802 41.0402 23.1802C37.837 23.1802 35.2402 24.4562 35.2402 26.0302C35.2402 27.6042 37.837 28.8802 41.0402 28.8802Z" fill="white"/><path d="M41.0402 28.8802C44.2435 28.8802 46.8402 27.6042 46.8402 26.0302C46.8402 24.4562 44.2435 23.1802 41.0402 23.1802C37.837 23.1802 35.2402 24.4562 35.2402 26.0302C35.2402 27.6042 37.837 28.8802 41.0402 28.8802Z" stroke="#1E3300" stroke-linecap="round" stroke-linejoin="round"/><path d="M46.8402 23.3301V26.0301C46.8402 27.6101 44.2402 28.8801 41.0402 28.8801C37.8302 28.8801 35.2402 27.6001 35.2402 26.0301V23.3301H46.8502H46.8402Z" fill="#B2BBC3"/><path d="M46.8402 23.3301V26.0301C46.8402 27.6101 44.2402 28.8801 41.0402 28.8801C37.8302 28.8801 35.2402 27.6001 35.2402 26.0301V23.3301" stroke="#1E3300" stroke-linecap="round" stroke-linejoin="round"/><path d="M41.0402 26.18C44.2435 26.18 46.8402 24.904 46.8402 23.33C46.8402 21.756 44.2435 20.48 41.0402 20.48C37.837 20.48 35.2402 21.756 35.2402 23.33C35.2402 24.904 37.837 26.18 41.0402 26.18Z" fill="white"/><path d="M41.0402 26.18C44.2435 26.18 46.8402 24.904 46.8402 23.33C46.8402 21.756 44.2435 20.48 41.0402 20.48C37.837 20.48 35.2402 21.756 35.2402 23.33C35.2402 24.904 37.837 26.18 41.0402 26.18Z" stroke="#1E3300" stroke-linecap="round" stroke-linejoin="round"/><path d="M46.8402 20.6299V23.3299C46.8402 24.9099 44.2402 26.1799 41.0402 26.1799C37.8302 26.1799 35.2402 24.8999 35.2402 23.3299V20.6299H46.8502H46.8402Z" fill="#B2BBC3"/><path d="M46.8402 20.6299V23.3299C46.8402 24.9099 44.2402 26.1799 41.0402 26.1799C37.8302 26.1799 35.2402 24.8999 35.2402 23.3299V20.6299" stroke="#1E3300" stroke-linecap="round" stroke-linejoin="round"/><path d="M41.0402 23.48C44.2435 23.48 46.8402 22.204 46.8402 20.63C46.8402 19.056 44.2435 17.78 41.0402 17.78C37.837 17.78 35.2402 19.056 35.2402 20.63C35.2402 22.204 37.837 23.48 41.0402 23.48Z" fill="white"/><path d="M41.0402 23.48C44.2435 23.48 46.8402 22.204 46.8402 20.63C46.8402 19.056 44.2435 17.78 41.0402 17.78C37.837 17.78 35.2402 19.056 35.2402 20.63C35.2402 22.204 37.837 23.48 41.0402 23.48Z" stroke="#1E3300" stroke-linecap="round" stroke-linejoin="round"/><path d="M16.4102 33.83L9.7002 33.89C9.7902 33.24 10.3602 32.97 11.3202 32.75L16.4102 33.83Z" fill="#1E3300" stroke="#1E3300" stroke-linecap="round" stroke-linejoin="round"/><path d="M22.4601 35.4701H30.9601L23.6401 33.8901C23.1201 34.1601 22.4201 34.9901 22.4601 35.4701Z" fill="#1E3300" stroke="#1E3300" stroke-linecap="round" stroke-linejoin="round"/><path d="M9.12012 31.8298L16.5201 33.7198L24.1401 16.8498L16.7201 15.0698L9.12012 31.8298Z" fill="#99CC33"/><path d="M42.7901 14.3299L39.0101 7.81993C38.4701 6.89993 37.3101 6.55993 36.3601 7.03993L29.1301 10.7499L32.2701 11.5699L27.0001 24.6899L24.1201 16.8799L30.9601 35.4599L39.6201 13.4899L42.7901 14.3199V14.3299Z" fill="#99CC33"/><path d="M24.0201 17.3198L20.3301 25.8498L23.6401 33.6698L30.9701 35.4698L24.0201 17.3198Z" fill="#99CC33"/><path d="M27.0001 24.7L32.2301 11.68L29.1401 10.76L36.3701 7.04998C37.3201 6.55998 38.4801 6.89998 39.0201 7.82998L42.8001 14.34L39.6301 13.51L30.9701 35.48L24.1301 16.9L16.5101 33.77L9.12012 31.84L16.7201 15.08L24.1201 16.9" stroke="#1E3300" stroke-linecap="round" stroke-linejoin="round"/><path d="M20.3301 25.55L23.6401 33.67L30.9701 35.4701" stroke="#1E3300" stroke-linecap="round" stroke-linejoin="round"/><path d="M21.4398 28.0501C21.1698 27.4401 20.8798 26.8201 20.6798 26.1801C20.6098 25.9701 20.5498 25.7601 20.5598 25.5401C20.5598 25.2901 20.6698 25.0601 20.7598 24.8301C18.7198 29.5901 19.7698 27.1401 22.3898 21.0201C22.8998 19.8401 23.2898 18.3701 24.0098 17.3101C24.1298 19.9801 22.7898 23.2401 21.4398 28.0401V28.0501Z" fill="#1E3200"/><path d="M28.46 28.05C28.46 28.05 29.66 31.15 32.11 32.75L30.97 35.1L28.46 28.06V28.05Z" fill="#1E3200"/><path d="M37.9899 18.27V22.69L36.3799 21.99L37.9899 18.27Z" fill="#1E3300" stroke="#1E3300" stroke-linecap="round" stroke-linejoin="round"/></svg>