<svg fill="none" viewBox="0 0 56 56" xmlns="http://www.w3.org/2000/svg"><path opacity="0.2" d="M46.9798 44.26C46.9798 43.45 46.4298 42.75 45.6498 42.55L33.9798 39.53C32.8198 39.23 31.5998 39.22 30.4298 39.53H30.3798L8.97983 46.37C8.36983 46.53 8.14983 47.15 8.32983 47.64C8.40983 47.86 8.26983 48.1 8.04983 48.18L6.95983 48.55C6.76983 48.62 6.63983 48.8 6.66983 49.01C6.68983 49.19 6.81983 49.35 6.99983 49.39L7.92983 49.63L8.17983 49.66H8.55983L8.72983 49.64L16.7498 47.21C16.8298 47.18 16.9198 47.18 16.9998 47.21L31.0298 50.8C31.3498 50.88 31.6698 50.92 31.9998 50.92H35.3098C35.4498 50.92 35.5798 50.9 35.7098 50.87L45.9898 45.88C46.5998 45.58 46.9898 44.97 46.9898 44.29L46.9798 44.26Z" fill="black"/><path d="M43.7 42.1899C37.39 47.1399 30.99 49.2499 24.77 47.4999V49.8599C30.83 51.4399 36.89 49.9899 42.95 45.4899C43.42 45.1399 43.71 44.5899 43.71 43.9999V42.1999L43.7 42.1899Z" fill="#99CC33"/><path d="M30.64 38.5698C24.33 43.5198 17.93 45.6298 11.71 43.8798V46.2398C17.77 47.8198 23.83 46.3698 29.89 41.8698C30.36 41.5198 30.65 40.9698 30.65 40.3798V38.5798L30.64 38.5698Z" fill="#99CC33"/><path d="M16.3301 27.6201C16.5901 26.7801 17.5701 26.4201 18.4301 26.2201C19.9901 25.8601 21.5801 25.6401 23.1101 25.1801C24.6401 24.7101 26.1401 23.9701 27.1801 22.7701C28.1201 21.6901 28.6401 20.3101 29.1401 18.9701C29.8501 17.0701 30.5501 15.1701 31.2601 13.2701C31.6201 12.3101 31.9801 11.3401 32.5201 10.4701C33.5801 8.7601 35.4001 7.4601 37.4101 7.3001C39.4201 7.1401 41.5401 8.2701 42.3001 10.1301C43.0201 11.8901 42.4901 13.8801 41.9701 15.7001C41.4501 17.5001 40.9301 19.3001 40.4001 21.1001C39.9201 22.7701 39.3701 24.5301 38.0501 25.6601C37.3001 26.3001 36.3501 26.6701 35.4101 26.9801C33.7401 27.5301 32.0201 27.9201 30.3101 28.3101C29.8101 28.4201 29.3001 28.6201 28.8101 28.7801C28.5101 28.8701 28.2101 28.9701 27.9501 29.1501C27.5201 29.4401 27.2601 29.9401 27.1501 30.4501C27.0401 30.9601 27.0801 31.4901 27.1501 32.0101C28.0201 32.2101 28.7601 32.3801 29.6101 32.6601C29.5501 32.2401 29.5001 31.9001 29.5501 31.4801C29.6001 31.0601 29.7701 30.6401 30.0701 30.3401C30.4201 29.9901 30.9201 29.8401 31.3901 29.7101C31.9501 29.5601 32.5001 29.4201 33.0701 29.2901C34.4501 28.9801 35.8001 28.5801 37.1101 28.0401C38.4201 27.5001 39.6801 26.6801 40.4001 25.4601C40.8301 24.7301 41.3201 24.0701 41.6201 23.2801C41.9201 22.4901 42.1301 21.6701 42.3401 20.8501C42.4101 20.5601 42.4801 20.2701 42.5501 19.9801C42.6501 19.5601 42.7401 19.1301 42.8601 18.7101C43.0901 17.8501 43.3801 17.0101 43.6701 16.1701C44.1501 14.7801 44.4601 13.3401 44.4501 11.8601C44.4401 10.3801 44.0201 8.8701 43.0301 7.7701C42.6301 7.3201 42.1501 6.9501 41.6401 6.6501C39.8901 5.6001 37.7101 5.2801 35.7301 5.7801C33.7501 6.2801 31.9901 7.5901 30.9401 9.3501C30.0901 10.7801 29.7101 12.4401 29.1001 13.9901C28.2901 16.0101 27.6001 17.9901 26.7101 19.9801C26.4801 20.5001 26.2401 21.0201 25.9001 21.4801C25.1501 22.5001 24.0001 23.1601 22.8001 23.5701C21.6001 23.9801 20.3401 24.1901 19.1201 24.5001C18.2101 24.7301 17.3201 25.0201 16.4301 25.3001C16.2101 26.0901 16.0401 26.8601 16.3601 27.6201H16.3301Z" fill="#99CC33"/><path d="M39.7401 30.9199V32.8399C39.7401 33.1599 39.5501 33.4899 39.1601 33.5899L28.2101 36.4499C27.1001 36.7399 25.9201 36.7399 24.8101 36.4499L13.8801 33.5899C13.5401 33.4999 13.3501 33.2399 13.3101 32.9699V32.8399V30.9199H39.7501H39.7401Z" fill="#497C00"/><path d="M31.2402 28.0099L28.2902 27.2299C27.1802 26.9299 26.0002 26.9299 24.8902 27.2299L13.8802 30.1199C13.1102 30.3199 13.1102 31.4299 13.8802 31.6399L24.8102 34.5299C25.9202 34.8199 27.1002 34.8199 28.2102 34.5299L39.1602 31.6399C39.9302 31.4399 39.9302 30.3299 39.1602 30.1299L34.3602 28.8499" fill="#99CC33"/><path d="M43.7 42.1899C37.39 47.1399 30.99 49.2499 24.77 47.4999V49.8599C30.83 51.4399 36.89 49.9899 42.95 45.4899C43.42 45.1399 43.71 44.5899 43.71 43.9999V42.1999L43.7 42.1899Z" stroke="#1E3300" stroke-linecap="round" stroke-linejoin="round"/><path d="M30.64 38.5698C24.33 43.5198 17.93 45.6298 11.71 43.8798V46.2398C17.88 47.8498 24.05 46.3098 30.22 41.6198C30.49 41.4198 30.64 41.0898 30.64 40.7598V38.5798V38.5698Z" stroke="#1E3300" stroke-linecap="round" stroke-linejoin="round"/><path d="M31.4502 28.0699L28.2902 27.2299C27.1802 26.9299 26.0002 26.9299 24.8902 27.2299L13.8802 30.1199C13.1102 30.3199 13.1102 31.4299 13.8802 31.6399L24.8102 34.5299C25.9202 34.8199 27.1002 34.8199 28.2102 34.5299L39.1602 31.6399C39.9302 31.4399 39.9302 30.3299 39.1602 30.1299L34.5302 28.8999" stroke="#1E3300" stroke-linecap="round" stroke-linejoin="round"/><path d="M39.7401 30.9199V32.8399C39.7401 33.1599 39.5501 33.4899 39.1601 33.5899L28.2101 36.4499C27.1001 36.7399 25.9201 36.7399 24.8101 36.4499L13.8801 33.5899C13.5401 33.4999 13.3501 33.2399 13.3101 32.9699V32.8399V30.9199" stroke="#1E3300" stroke-linecap="round" stroke-linejoin="round"/><path d="M41.59 43.1799L37.77 33.2799V27.8799" stroke="#1E3300" stroke-linecap="round" stroke-linejoin="round"/><path d="M24.52 27.3101V24.8501" stroke="#1E3300" stroke-linecap="round" stroke-linejoin="round"/><path d="M28.3399 39.9202L27.1099 36.7402" stroke="#1E3300" stroke-linecap="round" stroke-linejoin="round"/><path d="M16.3301 29.4698V28.3698C16.3301 27.5098 16.9101 26.7498 17.7501 26.5298L23.8101 25.0298" stroke="#1E3300" stroke-linecap="round" stroke-linejoin="round"/><path d="M14.75 44.3098L16.04 34.2798" stroke="#1E3300" stroke-linecap="round" stroke-linejoin="round"/><path d="M28.56 43.2098L15.52 39.7998" stroke="#1E3300" stroke-linecap="round" stroke-linejoin="round"/><path d="M40.26 40.1899L28.73 43.2099" stroke="#1E3300" stroke-linecap="round" stroke-linejoin="round"/><path d="M26.9302 36.7402L15.4102 39.7502" stroke="#1E3300" stroke-linecap="round" stroke-linejoin="round"/><path d="M14.9502 26.9702L15.8702 27.2102" stroke="#1E3300" stroke-linecap="round" stroke-linejoin="round"/><path d="M16.1502 29.2598L13.9102 28.6698V27.6298C13.9102 26.6398 14.5802 25.7698 15.5402 25.5198L22.4302 23.7398C24.5202 23.1998 26.2002 21.6498 26.9202 19.6198L30.5302 10.2398C31.2202 8.48977 33.4202 6.34977 35.2502 5.89977C40.7602 4.23977 45.9702 8.11977 44.0202 14.5798L41.7502 22.7098C40.9402 25.8398 38.7702 27.7598 36.0102 28.4898L30.9802 29.8098C30.1402 30.0298 29.5602 30.7798 29.5602 31.6498V35.1098C29.5602 35.2698 29.5502 35.4298 29.5302 35.5898L27.9502 47.8498" stroke="#1E3300" stroke-linecap="round" stroke-linejoin="round"/><path d="M23.9302 24.9898C26.0202 24.4498 27.7002 22.6698 28.4202 20.6298L32.2202 11.0298C32.9102 9.27978 34.4102 7.96978 36.2402 7.50978C40.6202 6.39978 43.5702 9.79978 42.5402 13.5498L40.0302 22.5298C39.4102 24.7598 37.6502 26.4898 35.4102 27.0598L28.8002 28.7698C27.8402 29.0198 27.1702 29.8898 27.1702 30.8798V31.9198L29.4102 32.5098" stroke="#1E3300" stroke-linecap="round" stroke-linejoin="round"/><path d="M32.4302 27.7098L35.0202 8.0498" stroke="#1E3300" stroke-linecap="round" stroke-linejoin="round"/><path d="M35.5498 27.0299L38.1398 7.41992" stroke="#1E3300" stroke-linecap="round" stroke-linejoin="round"/><path d="M35.2798 29.0899L35.3298 28.6899" stroke="#1E3300" stroke-linecap="round" stroke-linejoin="round"/><path d="M38.8901 24.7499L41.0401 8.43994" stroke="#1E3300" stroke-linecap="round" stroke-linejoin="round"/><path d="M38.23 29.7699L38.54 27.4199" stroke="#1E3300" stroke-linecap="round" stroke-linejoin="round"/><path d="M29.5298 27.5402L31.4498 12.9702" stroke="#1E3300" stroke-linecap="round" stroke-linejoin="round"/><path d="M18.8699 24.6201C17.2399 25.4901 16.1999 27.3601 16.3099 29.2001C15.6099 29.2501 14.5799 29.0001 13.9199 28.6701C13.9199 28.0901 13.9199 27.4701 14.0399 26.9101C14.1299 26.5201 14.3999 26.2601 14.6799 25.9801C14.9399 25.7201 15.4999 25.5701 15.8499 25.4501C16.8499 25.1101 17.8399 24.8701 18.8699 24.6301V24.6201Z" fill="#1E3200"/><path d="M14.17 31.77C14.14 32.67 14.53 33.38 15.29 33.92C14.93 33.8 14.35 33.65 13.99 33.53C13.76 33.45 13.52 33.37 13.31 33.23C13.1 33.09 13.13 32.67 13.16 32.52C13.22 32.2 13.04 31.54 13.12 31.23L14.17 31.77Z" fill="#1E3200"/><path d="M8.15019 44.79C7.95019 44.82 7.74019 44.79 7.53019 44.72C6.85019 44.47 6.50019 43.71 6.75019 43.03L18.1902 11.97C18.6402 10.74 18.0202 9.37002 16.7902 8.90002C15.5702 8.43002 14.1902 9.04002 13.7102 10.25L12.0202 14.45C11.7502 15.12 10.9802 15.45 10.3102 15.18C9.64019 14.91 9.31019 14.14 9.58019 13.47L11.2702 9.27002C12.2802 6.74002 15.1802 5.47002 17.7302 6.44002C20.2902 7.42002 21.6002 10.3 20.6602 12.88L9.22019 43.94C9.04019 44.42 8.62019 44.73 8.15019 44.79Z" fill="#B2BBC3"/><path d="M8.15019 44.79C7.95019 44.82 7.74019 44.79 7.53019 44.72C6.85019 44.47 6.50019 43.71 6.75019 43.03L18.1902 11.97C18.6402 10.74 18.0202 9.37002 16.7902 8.90002C15.5702 8.43002 14.1902 9.04002 13.7102 10.25L12.0202 14.45C11.7502 15.12 10.9802 15.45 10.3102 15.18C9.64019 14.91 9.31019 14.14 9.58019 13.47L11.2702 9.27002C12.2802 6.74002 15.1802 5.47002 17.7302 6.44002C20.2902 7.42002 21.6002 10.3 20.6602 12.88L9.22019 43.94C9.04019 44.42 8.62019 44.73 8.15019 44.79Z" stroke="#1E3300" stroke-linecap="round" stroke-linejoin="round"/><path d="M7.05014 41.1401L4.21014 47.4501C3.55014 49.1601 7.26014 50.6001 7.93014 48.8901C7.93014 48.8901 9.51014 44.6801 9.93014 43.3601C9.76014 44.1301 8.69014 44.7101 7.90014 44.6501C7.11014 44.5901 6.18014 44.5101 7.05014 41.1501V41.1401Z" fill="#1E3200"/></svg>