<svg fill="none" viewBox="0 0 56 56" xmlns="http://www.w3.org/2000/svg" aria-label="Dluhopisy"><path opacity="0.2" d="M19.3901 34.8502L11.6801 36.7602C10.6201 37.0102 10.5901 38.5002 11.6401 38.8002L32.5801 44.8702C32.9301 44.9702 33.2901 45.0202 33.6501 45.0302L37.3101 45.1102C37.4601 45.1102 37.6101 45.1002 37.7501 45.0602L45.4701 43.1502C46.2501 43.0402 46.8601 42.0002 45.8301 41.4302L23.3501 34.9302C22.0601 34.5602 20.7001 34.5402 19.4001 34.8502H19.3901Z" fill="black"/><path d="M16.7101 8.29964C15.7601 18.9496 12.6501 28.6596 7.39014 37.3496L32.9201 44.5096C39.0001 34.7996 42.2001 23.1696 42.6001 9.65964L24.2201 4.50964C21.3201 3.69964 16.9901 5.02964 16.7001 8.29964H16.7101Z" fill="white"/><path d="M22.2798 4.41016C21.2698 4.51016 20.2398 4.60016 19.2898 4.97016C18.3398 5.34016 17.4698 6.01016 17.0898 6.96016C17.4498 6.76016 17.8398 6.56016 18.2498 6.54016C18.5298 6.52016 18.8298 6.59016 19.0598 6.76016C19.1898 6.86016 19.2298 7.02016 19.3798 6.91016C19.5098 6.81016 19.6198 6.64016 19.7298 6.53016C20.2098 6.02016 20.7398 5.55016 21.2898 5.11016C21.5998 4.87016 21.9298 4.63016 22.2598 4.42016L22.2798 4.41016Z" fill="#B2BBC3"/><path d="M23.7902 19.9902C22.3402 26.9902 19.9802 32.0402 17.1802 37.5202" stroke="#B2BBC3" stroke-linecap="round" stroke-linejoin="round"/><path d="M31.3898 22.0801C29.9398 29.0801 27.5798 34.1301 24.7798 39.6101" stroke="#B2BBC3" stroke-linecap="round" stroke-linejoin="round"/><path d="M31.88 41.6299C34.68 36.1499 36.86 30.9699 38.31 23.9599L17.67 18.1699C16.22 25.1699 13.84 30.3499 11.04 35.8299L31.86 41.6699L31.88 41.6299Z" stroke="#B2BBC3" stroke-linecap="round" stroke-linejoin="round"/><path d="M37.16 28.3997L16.77 22.6797" stroke="#B2BBC3" stroke-linecap="round" stroke-linejoin="round"/><path d="M35.6499 32.9004L15.1699 27.1504" stroke="#B2BBC3" stroke-linecap="round" stroke-linejoin="round"/><path d="M33.88 37.3298L13.29 31.5498" stroke="#B2BBC3" stroke-linecap="round" stroke-linejoin="round"/><path d="M19.2599 7.06006L20.7899 5.56006C21.7899 4.59006 23.2199 4.22006 24.5599 4.60006L42.5899 9.66006C42.1899 23.1701 38.9799 34.8001 32.9099 44.5101L7.37988 37.3501C12.6899 28.5701 15.7299 18.7301 16.7299 7.95006C16.8299 6.90006 17.9799 6.31006 18.8799 6.85006L19.2499 7.07006L19.2599 7.06006Z" stroke="#1E3200" stroke-linecap="round" stroke-linejoin="round"/><path d="M37.6998 15.1403L22.2798 10.8203" stroke="#B2BBC3" stroke-linecap="round" stroke-linejoin="round"/><path d="M23.4202 4.46036C23.4202 4.46036 17.2502 3.87036 16.7402 7.95036" stroke="#1E3200" stroke-linecap="round" stroke-linejoin="round"/><path d="M33.7 23.3398L20.5 36.3098L26.91 38.3098L26.82 46.9098L40.01 33.9398L33.7 23.3398Z" fill="#B1BAC2"/><path d="M28.0398 34.6396C29.6998 37.3996 30.6598 39.5896 30.7198 42.8196C32.2598 41.2396 33.8698 39.8596 35.4998 38.3596C34.7598 37.9996 34.2098 37.3596 33.6098 36.7996C31.9498 35.2496 30.1198 35.5596 28.0298 34.6396H28.0398Z" fill="#1E3200"/><path d="M33.7 23.3398L20.5 36.3098L26.91 38.3098L26.82 46.9098L40.01 33.9398L33.7 23.3398Z" stroke="#1E3200" stroke-linecap="round" stroke-linejoin="round"/><path d="M41.6099 26.54L51.6999 41.97L45.1099 42.94L43.2399 51.01L33.1499 35.58L41.6099 26.54Z" fill="#B1BAC2"/><path d="M42.9799 36.96C41.3499 38.78 39.6599 40.57 38.6499 44.03C37.3899 42.37 36.2699 40.36 35.1899 38.58L42.9899 36.97L42.9799 36.96Z" fill="#1E3200"/><path d="M41.6099 26.54L51.6999 41.97L45.1099 42.94L43.2399 51.01L33.1499 35.58L41.6099 26.54Z" stroke="#1E3200" stroke-linecap="round" stroke-linejoin="round"/><path d="M33.6001 18.9898L36.2101 18.6798H36.2901C40.4001 18.3598 44.2701 22.4098 45.0001 27.9098C45.7301 33.3398 43.1301 38.1998 39.1601 39.0198H39.0901L35.6401 39.4498L33.6001 18.9898Z" fill="#497B00"/><path d="M35.9838 39.4203C40.201 38.8314 42.9825 33.7913 42.1965 28.1629C41.4105 22.5345 37.3546 18.4492 33.1374 19.0381C28.9202 19.6271 26.1387 24.6672 26.9247 30.2956C27.7107 35.924 31.7666 40.0093 35.9838 39.4203Z" fill="#99CC33"/><path d="M35.9838 39.4203C40.201 38.8314 42.9825 33.7913 42.1965 28.1629C41.4105 22.5345 37.3546 18.4492 33.1374 19.0381C28.9202 19.6271 26.1387 24.6672 26.9247 30.2956C27.7107 35.924 31.7666 40.0093 35.9838 39.4203Z" stroke="#1E3100" stroke-linecap="round" stroke-linejoin="round"/><path d="M33.6001 18.9898L36.2101 18.6798H36.2901C40.4001 18.3598 44.2701 22.4098 45.0001 27.9098C45.7301 33.3398 43.1301 38.1998 39.1601 39.0198H39.0901L35.6401 39.4498" stroke="#1E3100" stroke-linecap="round" stroke-linejoin="round"/><path d="M37.6999 25.1701L31.1499 23.3301V32.8401C31.1499 33.3201 31.4499 33.7501 31.9099 33.9001L33.2299 34.3501C33.5199 34.4501 33.7799 34.6401 33.9499 34.8901L34.4199 35.5901L34.7499 35.3301C35.0899 35.0601 35.5299 34.9701 35.9499 35.0801L36.7299 35.2801C37.2199 35.4101 37.6999 35.0401 37.6999 34.5401V25.1601V25.1701Z" stroke="#497B00" stroke-linecap="round" stroke-linejoin="round"/><path d="M37.6999 30.6095L31.1499 28.7695" stroke="#497B00" stroke-linecap="round" stroke-linejoin="round"/><path d="M34.4302 24.4004V35.2804" stroke="#497B00" stroke-linecap="round" stroke-linejoin="round"/></svg>