<svg fill="none" viewBox="0 0 56 56" xmlns="http://www.w3.org/2000/svg"><path opacity="0.2" d="M54.7301 44.8604C54.7301 44.0704 54.2001 43.3803 53.4401 43.1703L33.7801 37.8104C31.4801 37.2104 29.0601 37.2104 26.7601 37.8104L9.78014 42.5103C9.26014 42.6403 8.89014 43.1104 8.89014 43.6504C8.89014 44.1804 9.24014 44.6503 9.75014 44.8003L29.8301 50.0604C30.4501 50.2204 31.0901 50.3003 31.7301 50.3003H38.2201C38.4901 50.3003 38.7501 50.2704 39.0101 50.2004L53.4101 46.5604C54.1901 46.3604 54.7301 45.6604 54.7301 44.8604Z" fill="black"/><path d="M49.6099 44.3595C49.8199 44.0795 49.9399 43.7495 49.9499 43.3995C49.9599 42.5295 49.9499 40.9995 49.6099 40.9095L25.5699 36.8595C25.5699 36.8595 25.4999 36.8495 25.4699 36.8395C24.4399 36.5795 23.3599 36.5795 22.3299 36.8395C22.2699 36.8495 22.2199 36.8695 22.1599 36.8695L4.33991 39.1495C4.01991 39.2395 4.07991 40.7295 4.10991 41.5395C4.11991 41.8595 4.22991 42.1695 4.40991 42.4295C4.63991 42.7695 4.98991 43.0095 5.37991 43.1095L28.5199 49.1595C29.5899 49.4395 30.7099 49.4395 31.7799 49.1595L48.7299 44.9395C49.0799 44.8495 49.3899 44.6495 49.6099 44.3595Z" fill="#99CC33"/><path d="M4.1001 39.3604V41.4804C4.1001 41.8304 4.2101 42.1704 4.4101 42.4504C4.6401 42.7804 4.9801 43.0104 5.3601 43.1104L28.5101 49.1604C29.5801 49.4404 30.7001 49.4404 31.7701 49.1604L48.7301 44.9304C49.0801 44.8404 49.3801 44.6404 49.6001 44.3604C49.8101 44.0804 49.9301 43.7404 49.9301 43.3904V41.2104" stroke="#1E3300" stroke-linecap="round" stroke-linejoin="round"/><path d="M49.26 40.3499L25.5 34.1299C24.43 33.8499 23.3 33.8499 22.22 34.1299L4.75002 38.4999C3.86002 38.7299 3.86002 39.9999 4.75002 40.2299L28.49 46.4299C29.56 46.7099 30.68 46.7099 31.75 46.4299L49.24 42.0699C50.13 41.8399 50.13 40.5699 49.24 40.3399L49.26 40.3499Z" fill="#D9EEA8"/><path d="M27.59 41.3999L21.92 39.9099C21.66 39.8399 21.39 39.8399 21.14 39.9099L16.97 40.9499C16.76 41.0099 16.76 41.3099 16.97 41.3599L22.64 42.8399C22.9 42.9099 23.16 42.9099 23.42 42.8399L27.6 41.7999C27.81 41.7399 27.81 41.4399 27.6 41.3899L27.59 41.3999Z" fill="white"/><path d="M27.59 41.3999L21.92 39.9099C21.66 39.8399 21.39 39.8399 21.14 39.9099L16.97 40.9499C16.76 41.0099 16.76 41.3099 16.97 41.3599L22.64 42.8399C22.9 42.9099 23.16 42.9099 23.42 42.8399L27.6 41.7999C27.81 41.7399 27.81 41.4399 27.6 41.3899L27.59 41.3999Z" stroke="#1E3300" stroke-linecap="round" stroke-linejoin="round"/><path d="M38.7901 42.3003L18.3101 37.0303" stroke="#1E3300" stroke-linecap="round" stroke-linejoin="round"/><path d="M43.57 41.2095L22.79 35.7695" stroke="#1E3300" stroke-linecap="round" stroke-linejoin="round"/><path d="M49.26 40.3499L25.5 34.1299C24.43 33.8499 23.3 33.8499 22.22 34.1299L4.75002 38.4999C3.86002 38.7299 3.86002 39.9999 4.75002 40.2299L28.49 46.4299C29.56 46.7099 30.68 46.7099 31.75 46.4299L49.24 42.0699C50.13 41.8399 50.13 40.5699 49.24 40.3399L49.26 40.3499Z" stroke="#1E3300" stroke-linecap="round" stroke-linejoin="round"/><path d="M26.3601 11.6395L23.6801 31.5095C23.4901 32.6495 24.2001 33.7395 25.3101 34.0295L49.7001 40.4095C50.6601 40.6595 51.6301 40.0295 51.8001 39.0495L54.4801 19.1795C54.6701 18.0395 53.9601 16.9495 52.8501 16.6595L28.4601 10.2795C27.5001 10.0295 26.5301 10.6595 26.3601 11.6395Z" fill="white"/><path d="M48.2901 32.7703L43.5601 31.5303" stroke="#CAD1D7" stroke-miterlimit="10" stroke-linecap="round"/><path d="M47.9301 35.5804L41.3301 33.8604" stroke="#CAD1D7" stroke-miterlimit="10" stroke-linecap="round"/><path d="M26.3601 11.6395L23.6801 31.5095C23.4901 32.6495 24.2001 33.7395 25.3101 34.0295L49.7001 40.4095C50.6601 40.6595 51.6301 40.0295 51.8001 39.0495L54.4801 19.1795C54.6701 18.0395 53.9601 16.9495 52.8501 16.6595L28.4601 10.2795C27.5001 10.0295 26.5301 10.6595 26.3601 11.6395Z" stroke="#1E3300" stroke-linecap="round" stroke-linejoin="round"/><path d="M30.8198 28.7599L35.5798 23.8999L38.4898 29.3399L45.2998 21.1299" stroke="#99CC33" stroke-width="1.5" stroke-linecap="round" stroke-linejoin="round"/><path d="M46.2 23.6295L46.7 19.8495C46.73 19.6195 46.51 19.4395 46.29 19.5295L42.64 20.9095C42.42 20.9895 42.37 21.2895 42.56 21.4395L45.71 23.8395C45.9 23.9795 46.17 23.8695 46.2 23.6395V23.6295Z" fill="#99CC33"/><path d="M19.1199 34.7901C18.3999 35.2701 13.8599 35.9801 13.1099 36.4101C16.0099 37.2901 19.6299 37.7101 21.4199 37.3601C22.1699 37.2101 22.2799 37.0201 22.3199 36.6701C22.9499 36.8801 23.3999 37.4801 23.8199 36.9701C25.2099 37.8501 27.4599 38.0901 29.4899 38.7901C29.8699 38.9201 29.5599 38.3601 29.7599 38.0201C29.9599 37.6801 29.9199 37.2101 29.6599 36.9101C29.5299 36.7701 29.3699 36.6701 29.2099 36.5801C27.7399 35.7201 26.2799 34.8501 24.8099 33.9901C24.7299 33.9401 24.5799 33.9501 24.6099 34.0401C23.6599 33.5001 24.5599 34.6701 23.5699 34.2101L19.1299 34.7901H19.1199Z" fill="#1E3300"/><path d="M19.7302 19.9298L14.5502 15.2498C12.7602 13.8598 9.43016 15.1498 7.11016 18.1298C4.80016 21.1098 4.38016 24.6598 6.17016 26.0498L11.3502 30.7298L19.7302 19.9298Z" fill="#B3BCC4"/><path d="M11.4101 28.0903C12.3801 29.0903 13.2601 30.1903 14.0201 31.3603C12.9601 31.6103 11.7801 31.2503 11.0401 30.4503C10.5401 29.9003 10.2601 29.1703 10.2401 28.4303C10.2401 28.2103 10.2001 27.5603 10.4501 27.4703C10.7401 27.3603 11.2401 27.9203 11.4001 28.0903H11.4101Z" fill="#1E3300"/><path d="M20.8799 22.9102C21.2499 21.8902 20.8099 20.6602 19.9299 20.0202C19.5199 19.7202 19.0299 19.5302 18.5299 19.4702C18.1399 19.4202 17.3599 19.3502 17.0399 19.6402C16.6999 19.9402 17.6599 20.5802 17.8899 20.7702C18.3199 21.1402 18.7699 21.5002 19.2299 21.8302C19.7599 22.2202 20.3199 22.5802 20.8799 22.9102Z" fill="#1E3300"/><path d="M10.4702 27.44C12.3602 28.65 13.6202 30.61 14.9002 32.45C16.1802 34.29 17.6702 36.14 19.7602 36.97C20.6302 37.31 21.6502 37.45 22.4802 37.02C24.8202 37.65 25.7102 36.4 25.7102 36.4C25.7102 36.4 27.2202 36.75 27.7502 35.93C28.1802 36.71 28.6002 37.48 29.0302 38.26C29.1802 38.54 29.3502 38.83 29.6502 38.96C30.1102 39.16 30.6602 38.79 30.8302 38.31C31.0002 37.83 30.8902 37.31 30.7502 36.83C30.0402 34.35 28.7102 31.97 26.7002 30.35C27.2802 29.43 27.1202 28.15 26.5402 27.22C25.9602 26.29 25.2402 25.59 24.4002 24.89C23.2002 23.89 21.4402 23.38 20.0702 22.48C19.4102 22.04 18.4702 21.36 17.9202 20.78C17.5702 20.42 17.1002 19.65 16.5802 19.69C16.0602 19.73 16.1002 19.82 15.6502 20.09C15.1202 20.4 14.5402 20.74 14.0702 21.14C13.1202 21.95 12.3902 22.47 11.7702 23.55C11.4302 24.15 11.1402 24.78 10.9202 25.43C10.8502 25.64 10.2802 27.32 10.4702 27.44Z" fill="white"/><path d="M20.9901 22.8903C21.0701 21.6403 20.6201 20.5603 19.8701 19.9803C18.0601 18.5803 14.7101 19.8803 12.3801 22.8803C10.0501 25.8803 9.63014 29.4503 11.4301 30.8503C12.0801 31.3503 13.1101 31.5603 14.0501 31.4103" stroke="#1E3300" stroke-linecap="round" stroke-linejoin="round"/><path d="M19.8702 19.9801L14.6602 15.2801C12.8502 13.8801 9.50018 15.1801 7.17018 18.1801C4.84018 21.1801 4.42018 24.7501 6.22018 26.1501L11.4302 30.8501" stroke="#1E3300" stroke-linecap="round" stroke-linejoin="round"/><path d="M16.7202 19.7002C19.4602 22.5702 20.9002 22.8102 23.0202 23.9902C25.4102 25.3202 27.8202 27.4902 26.7202 30.3402" stroke="#1E3300" stroke-linecap="round" stroke-linejoin="round"/><path d="M23.5798 27.6104C25.1998 28.9504 26.8298 30.2904 28.1698 31.9104C29.5098 33.5304 30.5498 35.4504 30.8098 37.5404C30.8698 38.0604 30.8098 38.7104 30.3398 38.9304C29.9998 39.0804 29.5898 38.9304 29.3298 38.6604C29.0698 38.3904 28.9298 38.0404 28.7698 37.7104C27.7398 35.4504 25.4698 33.0504 23.3198 31.8004" stroke="#1E3300" stroke-linecap="round" stroke-linejoin="round"/><path d="M27.7601 36.05C26.6701 36.64 25.3001 36.46 24.2001 35.88C23.1001 35.3 22.2301 34.4 21.3701 33.5" stroke="#1E3300" stroke-linecap="round" stroke-linejoin="round"/><path d="M25.7102 36.3896C24.9902 37.2296 23.7802 37.2896 22.7302 36.9396C21.6802 36.5896 20.8102 35.8596 19.9702 35.1396" stroke="#1E3300" stroke-linecap="round" stroke-linejoin="round"/><path d="M22.7402 36.9497C21.0902 37.9997 18.9702 36.8997 17.5602 35.6697C16.1502 34.4397 15.1702 32.8197 14.1202 31.2797C13.0702 29.7397 12.0902 28.3197 10.4502 27.4297" stroke="#1E3300" stroke-linecap="round" stroke-linejoin="round"/><path d="M29.4399 18.1299L34.1799 19.3699" stroke="#CAD1D7" stroke-miterlimit="10" stroke-linecap="round"/><path d="M29.8101 15.3105L36.4001 17.0405" stroke="#CAD1D7" stroke-miterlimit="10" stroke-linecap="round"/></svg>