<svg fill="none" viewBox="0 0 56 56" xmlns="http://www.w3.org/2000/svg"><path opacity="0.2" d="M29.9902 47.5004C23.3202 46.4804 16.6602 45.1104 10.4002 42.6104C8.61021 41.8904 6.61021 40.7704 6.38021 38.8604C6.19021 37.2804 7.39021 35.8004 8.84021 35.1604C10.2902 34.5204 12.5402 34.3804 14.1302 34.3504C22.3802 34.2104 28.9702 35.4804 36.6102 37.1604C42.5002 38.4504 51.0302 40.4904 54.1802 44.0004C56.8702 47.0004 52.9302 48.7604 51.0302 49.0904C47.7902 49.6404 33.7402 48.0804 29.9802 47.5004H29.9902Z" fill="black"/><path d="M25.9399 21.1707V23.5207L27.4599 23.0807L27.5099 20.9307L26.5599 21.2207L25.9399 21.1707Z" fill="#B2BBC3"/><path d="M22.4697 3.79055L24.6297 3.25055L24.7397 3.22055C25.0197 3.16055 25.3097 3.17055 25.6097 3.24055L33.3797 5.27055C34.9697 5.69055 36.0897 7.13055 36.0897 8.77055V30.2806C36.0897 31.1506 35.5197 31.9006 34.7497 32.1105L32.4697 32.6805L22.4697 3.79055Z" fill="#99CC33"/><path d="M35.9898 27.4507L34.0498 27.9307" stroke="#497D17" stroke-linecap="round" stroke-linejoin="round"/><path d="M35.9898 10.4204L34.0498 10.9004" stroke="#497D17" stroke-linecap="round" stroke-linejoin="round"/><path d="M21.1499 5.61059V27.1206C21.1499 28.7706 22.2599 30.2106 23.8599 30.6206L31.6299 32.6506C32.8399 32.9706 34.0299 32.0506 34.0299 30.8006V9.30059C34.0299 7.65059 32.9199 6.21059 31.3199 5.80059L23.5499 3.77059C22.3399 3.45059 21.1499 4.37059 21.1499 5.62059V5.61059Z" fill="white"/><path d="M21.1499 5.61059V27.1206C21.1499 28.7706 22.2599 30.2106 23.8599 30.6206L31.6299 32.6506C32.8399 32.9706 34.0299 32.0506 34.0299 30.8006V9.30059C34.0299 7.65059 32.9199 6.21059 31.3199 5.80059L23.5499 3.77059C22.3399 3.45059 21.1499 4.37059 21.1499 5.62059V5.61059Z" stroke="#1E3300" stroke-linecap="round" stroke-linejoin="round"/><path d="M22.4697 3.79055L24.6297 3.25055L24.7397 3.22055C25.0197 3.16055 25.3097 3.17055 25.6097 3.24055L33.3797 5.27055C34.9697 5.69055 36.0897 7.13055 36.0897 8.77055V30.2806C36.0897 31.1506 35.5197 31.9005 34.7497 32.1105L32.4697 32.6805" stroke="#1E3300" stroke-linecap="round" stroke-linejoin="round"/><path d="M29.6498 7.49046C29.6498 7.77046 29.3398 8.04046 29.0898 7.98046L25.3298 6.96046C25.0298 6.88046 24.8398 6.61046 24.8398 6.26046C24.8398 5.97046 25.1498 5.70046 25.3998 5.77046L29.1598 6.79046C29.4698 6.87046 29.6598 7.15046 29.6498 7.50046V7.49046Z" fill="#1E3300"/><path d="M23.3301 14.1103V20.6904C23.3301 21.7804 24.0701 22.7304 25.1201 23.0104L30.2601 24.3504C31.0601 24.5604 31.8501 23.9503 31.8501 23.1303V16.5503C31.8501 15.4603 31.1101 14.5103 30.0601 14.2303L24.9201 12.8904C24.1201 12.6804 23.3301 13.2903 23.3301 14.1103Z" fill="#99CC33"/><path d="M16.0101 44.7908C12.8001 43.8308 9.32009 42.3608 6.28009 40.9608C5.48009 40.5908 4.98009 40.0408 4.57009 39.2608C4.26009 38.6808 4.10009 37.7608 4.20009 37.1108C4.37009 35.9208 4.68009 35.1408 5.19009 34.0608C5.78009 32.8108 6.76009 29.9408 7.72009 28.9508C9.19009 27.4408 9.60009 26.6908 11.6701 26.2808C13.7401 25.8708 15.9401 25.6308 17.9801 25.2808C21.1501 26.7608 18.7501 30.4508 18.6701 32.3108C19.6301 31.4708 20.7401 30.7908 21.9201 30.3108C22.0701 30.2508 22.2301 30.1908 22.3801 30.2408C22.6801 30.3408 22.6901 30.7508 22.6701 31.0608C22.6001 31.9908 22.6801 32.9208 22.9201 33.8308C23.0001 34.1308 23.1401 34.4708 23.4501 34.5108C23.6401 34.5408 23.8201 34.4308 23.9801 34.3308C24.8001 33.8108 25.6101 33.2908 26.4301 32.7708C26.8901 32.4808 27.3501 32.1808 27.8801 32.0808C28.4101 31.9808 29.0201 32.1108 29.3401 32.5408C29.6301 32.9308 29.6301 33.4608 29.7101 33.9408C29.8001 34.4208 30.1001 34.9608 30.5901 34.9808C30.7901 34.9808 30.9701 34.9108 31.1501 34.8308C34.0001 33.5608 36.6601 31.8708 39.0101 29.8208C39.2101 29.6508 39.4201 29.4708 39.6701 29.4308C39.9001 29.4008 40.1301 29.4908 40.3401 29.5808C42.1501 30.3508 44.2301 31.0108 46.0401 31.7808C47.5901 32.4408 48.9401 33.2408 50.0601 34.5008C51.5201 36.1408 51.8001 38.9208 52.1201 41.0908C52.4001 42.9608 52.4901 45.0908 51.6601 46.7908C50.5701 49.0308 48.3001 49.7108 45.8301 49.9408C44.2201 50.0908 42.6001 49.9408 40.9901 49.7608C36.6501 49.2808 32.1101 48.7208 27.8101 47.9608C23.5401 47.2008 20.1701 46.0308 16.0101 44.7908Z" fill="#B1BAC2"/><path d="M21.1898 31.6406C20.9098 33.3206 21.2098 34.1206 21.8298 35.7106C18.5398 37.5306 16.7098 42.8906 16.0098 44.8006C18.0298 45.9206 21.4398 46.4606 23.4498 46.7906C24.1098 44.6206 24.7598 39.1306 24.3998 36.9006C25.5098 35.7806 26.4898 34.5806 27.4598 33.3306C26.8898 32.1806 26.0098 31.1506 24.8798 30.5506C24.2698 30.2306 22.3098 31.4006 21.1898 31.6506V31.6406Z" fill="#99CC33"/><path d="M23.0097 28.7305L25.1097 30.5705C25.0097 29.9905 21.0497 31.0305 18.3297 34.5905C17.8897 34.0905 16.3897 30.0105 17.6597 26.0905C17.9197 25.2905 19.2897 23.3905 19.2897 23.3905C19.2897 23.3905 21.1797 21.8305 21.1297 21.9905C20.4697 24.4805 22.9997 28.7305 22.9997 28.7305H23.0097Z" fill="white"/><path d="M25.26 30.5705C27.15 32.7605 28.45 35.1605 29.02 37.9605L33.02 36.2805L35.51 34.6605L37.98 32.4205L39.14 30.8605L39.81 29.2605C38.67 27.8305 37.46 26.6405 36.15 25.7705L34.84 27.3405L32.9 28.9405L30.62 30.0605C28.87 30.4705 27.08 30.6305 25.25 30.5805L25.26 30.5705Z" fill="white"/><path d="M21.1499 22.5605C20.8399 26.6005 24.0499 29.9405 25.1199 30.5705C27.5699 30.8205 30.0699 30.4205 32.2699 29.3005C33.0899 28.8805 33.8599 28.3505 34.5199 27.7005C34.9099 27.3205 35.7399 26.4505 36.2099 25.6505" stroke="#1E3300" stroke-linecap="round" stroke-linejoin="round"/><path d="M25.1196 30.5604C27.5796 32.5804 28.3396 35.1104 29.0296 37.9604C33.0296 36.9504 38.9896 32.8604 39.8196 29.2604C38.6596 27.8104 37.5896 26.5704 36.2096 25.6304" stroke="#1E3300" stroke-linecap="round" stroke-linejoin="round"/><path d="M25.1197 30.5608C20.7797 30.9008 19.1697 33.6108 18.2197 34.7308C17.6797 33.6108 16.2797 29.1908 17.9797 25.2808" stroke="#1E3300" stroke-linecap="round" stroke-linejoin="round"/><path d="M39.7199 29.2607C41.9799 30.2807 43.9699 30.9907 46.0399 31.7807C47.1299 32.1907 48.2199 32.6607 49.0899 33.4207C50.7099 34.8307 51.4399 37.0107 51.8099 39.1207C52.0399 40.4407 52.2299 41.8307 52.3899 43.1807C52.7999 46.7607 49.9599 49.9007 46.3499 49.8607C32.4199 49.7107 19.0099 46.8607 6.19986 40.8207C4.54986 40.0407 3.75986 38.1307 4.36986 36.4107C5.08986 34.3807 6.45986 30.9507 6.92986 30.1507C8.24986 27.8807 9.44986 27.1107 10.9199 26.5407C12.8999 25.7607 15.6899 25.4907 17.9799 25.2807C17.9799 25.2807 19.0399 23.0107 21.1499 21.9907" stroke="#1E3300" stroke-linecap="round" stroke-linejoin="round"/><path d="M21.15 31.8604C21.1 33.1604 21.34 34.4804 21.84 35.6804C22.01 35.9704 23.54 36.7603 24.52 36.7603C25.83 35.6503 26.4 34.7403 27.38 33.2803" stroke="#1E3300" stroke-linecap="round" stroke-linejoin="round"/><path d="M21.8499 35.6807C20.0699 36.7107 17.4999 40.1007 15.9399 44.5107" stroke="#1E3300" stroke-linecap="round" stroke-linejoin="round"/><path d="M24.3497 36.7607C24.7597 38.8407 24.4897 42.5507 23.4497 46.7907" stroke="#1E3300" stroke-linecap="round" stroke-linejoin="round"/><path d="M39.9199 45.8607C40.2099 42.9007 41.1599 40.0007 42.6599 37.4307" stroke="#1E3300" stroke-linecap="round" stroke-linejoin="round"/><path d="M7.91992 14.2607L17.3999 15.0407" stroke="#B2BAC2" stroke-linecap="round" stroke-linejoin="round"/><path d="M13.4097 21.4707L17.7397 19.4707" stroke="#B2BAC2" stroke-linecap="round" stroke-linejoin="round"/><path d="M12.6597 7.92041L17.4297 10.4104" stroke="#B2BAC2" stroke-linecap="round" stroke-linejoin="round"/><path d="M49.8199 18.9805L39.9399 17.2305" stroke="#B2BAC2" stroke-linecap="round" stroke-linejoin="round"/><path d="M44.1001 23.9306L39.6001 21.8506" stroke="#B2BAC2" stroke-linecap="round" stroke-linejoin="round"/><path d="M44.8799 9.80078L39.9199 12.4008" stroke="#B2BAC2" stroke-linecap="round" stroke-linejoin="round"/></svg>