<svg fill="none" viewBox="0 0 56 56" xmlns="http://www.w3.org/2000/svg"><path opacity="0.2" d="M54.9901 48.83C54.9901 48.33 54.6601 47.89 54.1801 47.75L24.9201 39.24C19.9001 37.93 14.6301 37.94 9.61009 39.26L8.05009 39.58C7.48009 39.73 7.09009 40.18 7.09009 40.77C7.09009 41.36 7.49009 41.93 8.05009 42.08L40.7301 51.53C41.2101 51.66 41.7101 51.72 42.2101 51.72H46.2501C46.7501 51.72 47.2501 51.66 47.7301 51.53L54.1401 49.91C54.6401 49.78 54.9901 49.34 54.9901 48.82V48.83Z" fill="black"/><path d="M51.1 44.9802V47.2902C51.03 48.0002 50.58 48.6802 49.73 48.9202L43.73 50.5702C42.15 51.0102 40.47 51.0102 38.89 50.5702L4.64999 40.5802C3.77999 40.3402 3.30999 39.6402 3.23999 38.9002V36.4902L51.1 44.9702V44.9802Z" fill="#99CC33"/><path d="M17.7599 33.6801C14.4799 32.7601 11.0099 32.7701 7.73992 33.6901L4.64992 34.5401C2.75992 35.0701 2.75992 37.7501 4.64992 38.2801L38.8899 48.2601C40.4699 48.7001 42.1499 48.7001 43.7299 48.2601L49.7299 46.6101C51.5699 46.0901 51.5599 43.4901 49.7299 42.9801L17.7699 33.6801H17.7599Z" fill="#D9EEA8"/><path d="M17.7599 33.6801C14.4799 32.7601 11.0099 32.7701 7.73992 33.6901L4.64992 34.5401C2.75992 35.0701 2.75992 37.7501 4.64992 38.2801L38.8899 48.2601C40.4699 48.7001 42.1499 48.7001 43.7299 48.2601L49.7299 46.6101C51.5699 46.0901 51.5599 43.4901 49.7299 42.9801L17.7699 33.6801H17.7599Z" stroke="#1E3300" stroke-linecap="round" stroke-linejoin="round"/><path d="M51.1 44.9802V47.2902C51.03 48.0002 50.58 48.6802 49.73 48.9202L43.73 50.5702C42.15 51.0102 40.47 51.0102 38.89 50.5702L4.64999 40.5802C3.77999 40.3402 3.30999 39.6402 3.23999 38.9002V36.4902" stroke="#1E3300" stroke-linecap="round" stroke-linejoin="round"/><path d="M6.14989 35.72C6.14989 36.05 6.33989 36.37 6.72989 36.48L11.3999 37.79C12.4399 38.08 13.5399 38.08 14.5899 37.79L19.2499 36.48C19.6599 36.37 19.8499 36 19.8199 35.66V10.04L6.13989 10.02V35.72H6.14989Z" fill="#99CC33"/><path d="M16.3798 10.04C16.2198 12.25 16.0498 14.45 15.8598 16.65C15.6998 19.01 15.5198 21.36 15.3498 23.7C15.1298 26.89 14.7698 30.79 14.2698 34.33C14.0198 36.1 13.8498 37.53 12.2998 37.96C13.0598 38.05 13.8398 37.99 14.5898 37.78L19.2498 36.47C19.6598 36.36 19.8498 35.99 19.8198 35.65V10.04H16.3698H16.3798Z" fill="#1E3300"/><path d="M6.71983 9.25002L11.3598 7.94002C12.3998 7.65002 13.5098 7.64002 14.5498 7.94002L19.2598 9.25002C20.0298 9.47002 20.0298 10.56 19.2598 10.77L14.5898 12.08C13.5498 12.37 12.4398 12.37 11.3998 12.08L6.71983 10.77C5.94983 10.55 5.94983 9.46002 6.71983 9.25002Z" fill="#99CC33"/><path d="M19.2599 9.26014L15.2699 8.14014C15.2499 8.77014 15.1999 10.4801 13.8199 11.7201C13.6099 11.9501 13.3799 12.1401 13.1399 12.3101C13.6299 12.3001 14.1199 12.2301 14.5999 12.1001L19.2699 10.7901C20.0399 10.5701 20.0399 9.48014 19.2699 9.27014L19.2599 9.26014Z" fill="#1E3300"/><path d="M6.71983 9.25002L11.3598 7.94002C12.3998 7.65002 13.5098 7.64002 14.5498 7.94002L19.2598 9.25002C20.0298 9.47002 20.0298 10.56 19.2598 10.77L14.5898 12.08C13.5498 12.37 12.4398 12.37 11.3998 12.08L6.71983 10.77C5.94983 10.55 5.94983 9.46002 6.71983 9.25002Z" stroke="#1E3300" stroke-linecap="round" stroke-linejoin="round"/><path d="M19.8399 10.04L19.8199 35.62V35.65C19.8499 36 19.6599 36.36 19.2499 36.48L14.5899 37.79C13.5499 38.08 12.4499 38.08 11.3999 37.79L6.7299 36.48C6.3199 36.36 6.1299 36 6.1599 35.65V35.62L6.1499 10.02" stroke="#1E3300" stroke-linecap="round" stroke-linejoin="round"/><path d="M15.48 38.4101C15.48 38.7401 15.67 39.0601 16.06 39.1701L20.73 40.4801C21.77 40.7701 22.87 40.7701 23.92 40.4801L28.58 39.1701C28.99 39.0601 29.18 38.6901 29.15 38.3501V4.61009L15.47 4.59009V38.4101H15.48Z" fill="#B0BAC2"/><path d="M26.8899 23.0702C25.6699 23.4202 24.7999 24.4902 24.7099 25.7502C24.6899 26.0302 24.6699 26.2802 24.6599 26.5002C24.4399 29.6902 24.0799 33.5902 23.5799 37.1302C23.3299 38.9002 23.1599 40.3302 21.6099 40.7602C22.3699 40.8502 23.1499 40.7902 23.8999 40.5802L28.5599 39.2702C28.9699 39.1602 29.1599 38.7902 29.1299 38.4502V22.4202L26.8899 23.0602V23.0702Z" fill="#1E3300"/><path d="M16.0399 3.83009L20.6799 2.52009C21.7199 2.23009 22.8299 2.22009 23.8699 2.52009L28.5799 3.83009C29.3499 4.05009 29.3499 5.14009 28.5799 5.35009L23.9099 6.66009C22.8699 6.95009 21.7599 6.95009 20.7199 6.66009L16.0399 5.35009C15.2699 5.13009 15.2699 4.04009 16.0399 3.83009Z" fill="#B0BAC2"/><path d="M16.0399 3.83009L20.6799 2.52009C21.7199 2.23009 22.8299 2.22009 23.8699 2.52009L28.5799 3.83009C29.3499 4.05009 29.3499 5.14009 28.5799 5.35009L23.9099 6.66009C22.8699 6.95009 21.7599 6.95009 20.7199 6.66009L16.0399 5.35009C15.2699 5.13009 15.2699 4.04009 16.0399 3.83009Z" stroke="#1E3300" stroke-linecap="round" stroke-linejoin="round"/><path d="M29.16 4.61009L29.14 38.3101V38.3401C29.17 38.6901 28.98 39.0501 28.57 39.1701L23.91 40.4801C22.87 40.7701 21.77 40.7701 20.72 40.4801L16.05 39.1701C15.64 39.0501 15.45 38.6901 15.48 38.3401V38.3101L15.47 4.59009" stroke="#1E3300" stroke-linecap="round" stroke-linejoin="round"/><path d="M24.8899 41.1602C24.8899 41.4902 25.0799 41.8102 25.4699 41.9202L30.1399 43.2302C31.1799 43.5202 32.2799 43.5202 33.3299 43.2302L37.9899 41.9202C38.3999 41.8102 38.5899 41.4402 38.5599 41.1002V23.9402L24.8799 23.9202V41.1602H24.8899Z" fill="#99CC33"/><path d="M35.3898 25.0602C35.0498 25.0602 34.7198 25.0202 34.3998 24.9602C34.2998 26.3902 34.1898 27.8202 34.0898 29.2502C33.8698 32.4402 33.5098 36.3402 33.0098 39.8802C32.7598 41.6502 32.5898 43.0802 31.0398 43.5102C31.7998 43.6002 32.5798 43.5402 33.3298 43.3302L37.9898 42.0202C38.3998 41.9102 38.5898 41.5402 38.5598 41.2002V23.9802C37.6398 24.6502 36.5298 25.0502 35.3898 25.0502V25.0602Z" fill="#1E3300"/><path d="M25.4498 23.1502L30.0898 21.8402C31.1298 21.5502 32.2398 21.5402 33.2798 21.8402L37.9898 23.1502C38.7598 23.3702 38.7598 24.4602 37.9898 24.6702L33.3198 25.9802C32.2798 26.2702 31.1698 26.2702 30.1298 25.9802L25.4498 24.6702C24.6798 24.4502 24.6798 23.3602 25.4498 23.1502Z" fill="#99CC33"/><path d="M37.9898 23.1501L34.1798 22.0901C34.1198 22.5701 33.9798 23.0401 33.7498 23.4701C33.5298 24.1401 33.1598 24.7301 32.6298 25.2201C32.2398 25.6401 31.7898 25.9601 31.2898 26.1801C31.9698 26.2301 32.6598 26.1701 33.3298 25.9801L37.9998 24.6701C38.7698 24.4501 38.7698 23.3601 37.9998 23.1501H37.9898Z" fill="#1E3300"/><path d="M25.4498 23.1502L30.0898 21.8402C31.1298 21.5502 32.2398 21.5402 33.2798 21.8402L37.9898 23.1502C38.7598 23.3702 38.7598 24.4602 37.9898 24.6702L33.3198 25.9802C32.2798 26.2702 31.1698 26.2702 30.1298 25.9802L25.4498 24.6702C24.6798 24.4502 24.6798 23.3602 25.4498 23.1502Z" stroke="#1E3300" stroke-linecap="round" stroke-linejoin="round"/><path d="M38.5699 23.9402L38.5499 41.0602V41.0902C38.5799 41.4402 38.3899 41.8002 37.9799 41.9202L33.3199 43.2302C32.2799 43.5202 31.1799 43.5202 30.1299 43.2302L25.4599 41.9202C25.0499 41.8002 24.8599 41.4402 24.8899 41.0902V41.0602L24.8799 23.9102" stroke="#1E3300" stroke-linecap="round" stroke-linejoin="round"/><path d="M34.29 43.8002C34.29 44.1302 34.48 44.4502 34.86 44.5602L39.53 45.9002C40.57 46.2002 41.67 46.2102 42.72 45.9202L47.39 44.6402C47.8 44.5302 47.99 44.1702 47.97 43.8202L48.04 17.5602L34.34 17.4502L34.3 43.7902L34.29 43.8002Z" fill="#B0BAC2"/><path d="M34.9199 16.6901L39.5699 15.4101C40.6199 15.1201 41.7199 15.1301 42.7599 15.4301L47.4599 16.7801C48.2299 17.0001 48.2199 18.0901 47.4599 18.3001L42.7799 19.5801C41.7299 19.8701 40.6299 19.8601 39.5899 19.5601L34.9199 18.2201C34.1499 18.0001 34.1599 16.9101 34.9199 16.7001V16.6901Z" fill="#B0BAC2"/><path d="M34.9199 16.6901L39.5699 15.4101C40.6199 15.1201 41.7199 15.1301 42.7599 15.4301L47.4599 16.7801C48.2299 17.0001 48.2199 18.0901 47.4599 18.3001L42.7799 19.5801C41.7299 19.8701 40.6299 19.8601 39.5899 19.5601L34.9199 18.2201C34.1499 18.0001 34.1599 16.9101 34.9199 16.7001V16.6901Z" stroke="#1E3300" stroke-linecap="round" stroke-linejoin="round"/><path d="M48.0299 17.5702L47.9599 43.8002V43.8302C47.9899 44.1802 47.7999 44.5402 47.3799 44.6502L42.7099 45.9302C41.6699 46.2202 40.5599 46.2102 39.5199 45.9102L34.8499 44.5702C34.4399 44.4502 34.2499 44.0902 34.2799 43.7402V43.7102L34.3199 17.4602" stroke="#1E3300" stroke-linecap="round" stroke-linejoin="round"/></svg>