<svg fill="none" viewBox="0 0 56 56" xmlns="http://www.w3.org/2000/svg"><path opacity="0.2" d="M31.393 51.7483C36.0247 51.1771 39.5992 49.2522 39.3768 47.4488C39.1544 45.6455 35.2194 44.6466 30.5876 45.2178C25.9559 45.7889 22.3814 47.7139 22.6038 49.5172C22.8262 51.3206 26.7612 52.3195 31.393 51.7483Z" fill="black"/><path d="M29.3597 49.5398C39.2897 48.0698 46.6497 39.5498 46.6497 29.5098V21.7098C39.5797 18.0098 34.9597 13.0798 31.7297 6.5498L26.6797 7.8098L29.3597 49.5398Z" fill="#99CC33"/><path d="M30.6904 26.4198C33.4104 25.6998 36.1504 25.0098 38.8204 24.1098C41.4104 23.2398 44.0904 22.6998 46.6604 21.8298V21.7098C39.5904 18.0098 34.9704 13.0798 31.7404 6.5498L26.6904 7.8098L27.9304 27.1798C28.8504 26.9198 29.7704 26.6598 30.6904 26.4198Z" fill="#497C00"/><path d="M11.7803 14.8803V23.6503C11.7803 34.1103 16.3703 44.0403 24.3303 50.8103C34.2603 49.3403 41.6203 40.8203 41.6203 30.7803V22.9803C34.5503 19.2803 29.9303 14.3503 26.7003 7.82031C21.6503 13.3603 17.0903 14.6503 11.7803 14.8903V14.8803Z" fill="#D9EEA8"/><path d="M16.6504 20.9607C17.6004 21.2907 18.7504 20.8507 19.2404 19.9707" stroke="white" stroke-linecap="round" stroke-linejoin="round"/><path d="M46.6502 21.71L41.6602 23.01" stroke="#1E3300" stroke-linecap="round" stroke-linejoin="round"/><path d="M11.7598 14.8803V23.6503C11.7598 34.1103 16.3498 44.0403 24.3098 50.8103C34.2398 49.3403 41.5998 40.8203 41.5998 30.7803V22.9803C34.5298 19.2803 29.9098 14.3503 26.6798 7.82031C21.6298 13.3603 17.0698 14.6503 11.7598 14.8903V14.8803Z" stroke="#1E3300" stroke-linecap="round" stroke-linejoin="round"/><path d="M29.3597 49.5398C39.2897 48.0698 46.6497 39.5498 46.6497 29.5098V21.7098C39.5797 18.0098 34.9597 13.0798 31.7297 6.5498L26.6797 7.8098" stroke="#1E3300" stroke-linecap="round" stroke-linejoin="round"/><path d="M30.1003 49.4199L26.8203 50.2799" stroke="#1E3300" stroke-linecap="round" stroke-linejoin="round"/><path d="M32.7702 31.0996C32.0402 33.3896 30.8002 35.2096 29.2002 36.2496" stroke="white" stroke-linecap="round" stroke-linejoin="round"/><path d="M21.9104 23.0596C21.4504 21.9496 20.7904 20.8896 19.8504 20.1396C18.9104 19.3896 17.6504 18.9796 16.4704 19.2296C15.3104 19.4796 14.3404 20.3596 13.7804 21.4096C12.9504 22.9996 12.9804 24.9496 13.2404 26.6296C13.5004 28.3096 14.0604 29.9896 14.8104 31.5496C16.0704 34.1396 17.4704 36.6396 18.8804 39.1496L20.8404 42.6496C21.3504 43.5696 22.6204 43.6996 23.3104 42.8996C24.7004 41.2996 26.0504 39.6696 27.3804 38.0196C28.8604 36.1696 30.3304 34.2096 30.9004 31.9096C31.6304 29.0196 30.4104 25.1796 28.3504 23.0296C27.6504 22.2996 27.2204 22.0396 26.2404 21.7596C24.7504 21.3396 22.9304 21.9196 21.8904 23.0596H21.9104Z" fill="white"/><path d="M21.9104 23.0596C21.4504 21.9496 20.7904 20.8896 19.8504 20.1396C18.9104 19.3896 17.6504 18.9796 16.4704 19.2296C15.3104 19.4796 14.3404 20.3596 13.7804 21.4096C12.9504 22.9996 12.9804 24.9496 13.2404 26.6296C13.5004 28.3096 14.0604 29.9896 14.8104 31.5496C16.0704 34.1396 17.4704 36.6396 18.8804 39.1496L20.8404 42.6496C21.3504 43.5696 22.6204 43.6996 23.3104 42.8996C24.7004 41.2996 26.0504 39.6696 27.3804 38.0196C28.8604 36.1696 30.3304 34.2096 30.9004 31.9096C31.6304 29.0196 30.4104 25.1796 28.3504 23.0296C27.6504 22.2996 27.2204 22.0396 26.2404 21.7596C24.7504 21.3396 22.9304 21.9196 21.8904 23.0596H21.9104Z" stroke="#1E3300" stroke-linecap="round" stroke-linejoin="round"/><path d="M26.9697 20.9895C26.5397 20.1295 25.9697 19.3295 25.2097 18.7295C24.2697 17.9795 23.0097 17.5695 21.8297 17.8195L16.4697 19.2295" stroke="#1E3300" stroke-linecap="round" stroke-linejoin="round"/><path d="M22.6699 43.3294L28.0099 41.9194C28.4199 41.8094 28.7999 41.5794 29.0799 41.2594C30.6199 39.5094 31.1299 38.6294 32.7499 36.5994C34.2299 34.7494 35.6999 32.7894 36.2699 30.4894C36.9999 27.5994 35.9199 23.6194 33.7199 21.6094C32.9899 20.9494 32.5699 20.6794 31.6099 20.3394C31.1899 20.1894 30.7299 20.1694 30.2699 20.1994C30.0199 20.2194 29.7699 20.2694 29.5199 20.3294H29.5099L24.1499 21.7394" stroke="#1E3300" stroke-linecap="round" stroke-linejoin="round"/><path d="M26.9704 20.9895C26.5404 20.1295 25.9704 19.3295 25.2104 18.7295C24.2704 17.9795 23.0104 17.5695 21.8304 17.8195L16.4704 19.2295L14.8604 25.7495L26.8104 26.4995L26.9604 20.9895H26.9704Z" fill="#497C00"/><path d="M15.6801 22.4497L14.8701 25.7497L26.8201 26.4997L26.9701 20.9897C26.8301 20.7097 26.6701 20.4397 26.5001 20.1797C22.9201 21.1797 19.2901 22.5797 15.6801 22.4497Z" fill="#1E3200"/><path d="M22.6702 43.3294L28.0102 41.9194C28.4202 41.8094 28.8002 41.5794 29.0802 41.2594C30.6202 39.5094 31.1302 38.6294 32.7502 36.5994C34.2302 34.7494 35.7002 32.7894 36.2702 30.4894C37.0002 27.5994 35.9202 23.6194 33.7202 21.6094C32.9902 20.9494 32.5702 20.6794 31.6102 20.3394C31.1902 20.1894 30.7302 20.1694 30.2702 20.1994C30.0202 20.2194 29.7702 20.2694 29.5202 20.3294H29.5102L24.1502 21.7394L22.6602 43.3094L22.6702 43.3294Z" fill="#99CC33"/><path d="M21.9104 23.0596C21.4504 21.9496 20.7904 20.8896 19.8504 20.1396C18.9104 19.3896 17.6504 18.9796 16.4704 19.2296C15.3104 19.4796 14.3404 20.3596 13.7804 21.4096C12.9504 22.9996 12.9804 24.9496 13.2404 26.6296C13.5004 28.3096 14.0604 29.9896 14.8104 31.5496C16.0704 34.1396 17.4704 36.6396 18.8804 39.1496L20.8404 42.6496C21.3504 43.5696 22.6204 43.6996 23.3104 42.8996C24.7004 41.2996 26.0504 39.6696 27.3804 38.0196C28.8604 36.1696 30.3304 34.2096 30.9004 31.9096C31.6304 29.0196 30.4104 25.1796 28.3504 23.0296C27.6504 22.2996 27.2204 22.0396 26.2404 21.7596C24.7504 21.3396 22.9304 21.9196 21.8904 23.0596H21.9104Z" fill="white"/><path d="M13.6602 28.3202L17.9402 29.4502L18.5802 33.9602L21.1702 26.2602L22.6702 36.2402L25.2902 25.4502L26.2302 31.6102L30.6502 32.7702" stroke="#B3BCC4" stroke-linecap="round" stroke-linejoin="round"/><path d="M21.9104 23.0596C21.4504 21.9496 20.7904 20.8896 19.8504 20.1396C18.9104 19.3896 17.6504 18.9796 16.4704 19.2296C15.3104 19.4796 14.3404 20.3596 13.7804 21.4096C12.9504 22.9996 12.9804 24.9496 13.2404 26.6296C13.5004 28.3096 14.0604 29.9896 14.8104 31.5496C16.0704 34.1396 17.4704 36.6396 18.8804 39.1496L20.8404 42.6496C21.3504 43.5696 22.6204 43.6996 23.3104 42.8996C24.7004 41.2996 26.0504 39.6696 27.3804 38.0196C28.8604 36.1696 30.3304 34.2096 30.9004 31.9096C31.6304 29.0196 30.4104 25.1796 28.3504 23.0296C27.6504 22.2996 27.2204 22.0396 26.2404 21.7596C24.7504 21.3396 22.9304 21.9196 21.8904 23.0596H21.9104Z" stroke="#1E3300" stroke-linecap="round" stroke-linejoin="round"/><path d="M26.9697 20.9895C26.5397 20.1295 25.9697 19.3295 25.2097 18.7295C24.2697 17.9795 23.0097 17.5695 21.8297 17.8195L16.4697 19.2295" stroke="#1E3300" stroke-linecap="round" stroke-linejoin="round"/><path d="M22.6699 43.3294L28.0099 41.9194C28.4199 41.8094 28.7999 41.5794 29.0799 41.2594C30.6199 39.5094 31.1299 38.6294 32.7499 36.5994C34.2299 34.7494 35.6999 32.7894 36.2699 30.4894C36.9999 27.5994 35.9199 23.6194 33.7199 21.6094C32.9899 20.9494 32.5699 20.6794 31.6099 20.3394C31.1899 20.1894 30.7299 20.1694 30.2699 20.1994C30.0199 20.2194 29.7699 20.2694 29.5199 20.3294H29.5099L24.1499 21.7394" stroke="#1E3300" stroke-linecap="round" stroke-linejoin="round"/></svg>