<svg fill="none" viewBox="0 0 56 56" xmlns="http://www.w3.org/2000/svg"><path opacity="0.2" d="M38.81 41.8499L25.77 38.6799C25.77 38.6799 25.7 38.6699 25.67 38.6699H18.82C18.76 38.6699 18.7 38.6799 18.65 38.7099L14.95 40.3199C14.63 40.4599 14.48 40.8199 14.59 41.1399L17.94 50.5399C18.1 50.8699 18.44 51.0799 18.8 51.0799L24.66 51.0499C24.92 51.0499 25.19 51.0199 25.44 50.9499L44.62 45.9299C44.99 45.8299 45.05 45.3299 44.72 45.1499L38.91 41.8999C38.91 41.8999 38.84 41.8699 38.8 41.8599L38.81 41.8499Z" fill="black"/><path d="M18.54 50.5101L41.53 37.5701L52.6 35.6401L18.54 50.5101Z" fill="#497C00"/><path d="M5.52979 15.8599L16.5698 27.0199L18.3098 50.6299L5.52979 15.8599Z" fill="#99CC33"/><path d="M16.5698 27.02L41.5298 37.57L18.3098 50.63L16.5698 27.02Z" fill="#99CC33"/><path d="M27.3098 16.7998L16.5698 27.0198L41.5298 37.5698L39.9998 21.7398L27.3098 16.7998Z" fill="#D9EEA8"/><path d="M40 21.7402L41.53 37.5702L52.88 35.5202L45.31 21.1602L40 21.7402Z" fill="#99CC33"/><path d="M21.8898 11.77L27.3098 16.8L16.5698 27.02L5.52979 15.86L21.8898 11.77Z" fill="#99CC33"/><path d="M21.8901 11.7698L27.4201 10.7998L39.1801 15.8598L45.3101 21.1598L40.0001 21.7398L27.3101 16.7998L21.8901 11.7698Z" fill="white"/><path d="M5.52979 15.8598L16.5698 27.0198L41.5298 37.5698L52.8798 35.5198L45.3098 21.1598L39.1798 15.8598L27.4198 10.7998L21.3798 11.7698L5.52979 15.8598Z" stroke="#1E3300" stroke-linecap="round" stroke-linejoin="round"/><path d="M21.8901 11.77L27.3101 16.8L40.0001 21.74L45.3101 21.16" stroke="#1E3300" stroke-linecap="round" stroke-linejoin="round"/><path d="M5.52979 15.8599L18.3098 50.6299L52.8798 35.5199" stroke="#1E3300" stroke-linecap="round" stroke-linejoin="round"/><path d="M16.5698 27.0198L18.3098 50.6298L41.5298 37.5698L39.9998 21.7398L27.3098 16.7998L16.5698 27.0198Z" stroke="#1E3300" stroke-linecap="round" stroke-linejoin="round"/></svg>