<svg fill="none" viewBox="0 0 56 56" xmlns="http://www.w3.org/2000/svg"><path opacity="0.2" d="M34.0199 49.7707L44.6499 46.9907C47.6099 46.2207 47.5999 42.0207 44.6499 41.2507L37.8899 39.4907C33.0799 38.2407 28.0199 38.2407 23.2099 39.5107L17.2999 40.9907C14.3499 41.7707 14.3499 45.9607 17.2999 46.7307L27.2999 49.7707C27.7599 49.8907 28.2399 49.9507 28.7199 49.9507H32.5899C33.0699 49.9507 33.5499 49.8907 34.0099 49.7707H34.0199Z" fill="black"/><path d="M21.9401 18.7104C21.0001 17.7104 19.7901 16.9604 18.4701 16.5804C17.6501 16.3404 16.7101 16.2604 16.0101 16.7504C15.5001 17.1004 15.2101 17.7004 15.1201 18.3104C15.0301 18.9204 15.1201 19.5404 15.2501 20.1404C15.5601 21.5704 15.9501 22.8304 16.6901 24.0904L21.9401 18.7104Z" fill="white"/><path d="M38.1201 42.8604C36.1501 43.9604 34.0601 44.5604 31.8101 44.7604C31.7601 45.7004 31.7201 46.6304 31.6701 47.5704C31.6501 47.9304 31.6301 48.3004 31.4601 48.6104C31.0701 49.3404 30.1201 49.6804 29.2901 49.7204C28.4601 49.7604 27.3401 49.7004 26.6401 49.2504C25.3801 48.4404 25.6001 46.5004 25.7601 45.0204C24.0501 44.7104 22.3701 44.1804 20.8001 43.4404C20.9301 44.1504 19.9001 46.1704 19.2001 46.3704C18.5001 46.5704 17.7501 46.4104 17.0601 46.1604C16.5801 45.9904 16.1001 45.7704 15.7901 45.3704C15.3501 44.7804 15.8501 42.6704 15.7901 41.9404C15.6701 40.2504 14.8501 38.7104 14.2201 37.1504C13.5101 35.4204 13.0601 33.5704 13.9901 31.8904C14.3201 31.2904 14.5901 31.5004 14.7901 30.9204C15.0601 30.1304 15.2301 28.5404 15.4401 27.6304C16.6501 22.2404 21.4401 18.1104 26.7801 16.6804C32.2501 15.2104 38.5801 16.4604 42.4901 20.5504C45.8001 24.0304 47.0401 29.3504 45.5901 33.9304C45.0601 35.6104 44.1901 37.1904 43.8501 38.9204C43.5601 40.3704 43.6501 42.2204 43.6801 44.3304C43.8601 46.1904 39.4301 47.0804 38.8501 45.2404L38.1101 42.8604H38.1201Z" fill="white"/><path d="M18.6001 42.2207C19.0601 42.7607 19.3001 43.4707 19.3801 44.1707C19.4601 44.8707 19.4101 45.5907 19.3501 46.3007C19.6401 46.0807 19.9201 45.9707 20.2201 45.7507C20.4201 44.9507 20.6101 44.2407 20.9101 43.4607L18.6001 42.2207Z" fill="#1E3300"/><path d="M17.2559 41.5503C19.2304 41.0028 20.2292 38.3888 19.4868 35.7118C18.7444 33.0348 16.542 31.3086 14.5675 31.8562C12.593 32.4038 11.5943 35.0178 12.3366 37.6947C13.079 40.3717 15.2815 42.0979 17.2559 41.5503Z" fill="#D9EEA8"/><path d="M17.2559 41.5503C19.2304 41.0028 20.2292 38.3888 19.4868 35.7118C18.7444 33.0348 16.542 31.3086 14.5675 31.8562C12.593 32.4038 11.5943 35.0178 12.3366 37.6947C13.079 40.3717 15.2815 42.0979 17.2559 41.5503Z" stroke="#1E3300" stroke-linecap="round" stroke-linejoin="round"/><path d="M13.8601 32.1706C15.2501 31.1406 15.0701 29.3106 15.4501 27.6206C16.6601 22.2306 21.4501 18.1006 26.7901 16.6706C32.2601 15.2006 38.5901 16.4506 42.5001 20.5406C45.8101 24.0206 47.0501 29.3406 45.6001 33.9206C45.0701 35.6006 44.2001 37.1806 43.8601 38.9106C43.5701 40.3606 43.6601 42.2106 43.6901 44.3206C43.8701 46.1806 39.4401 47.0706 38.8601 45.2306L38.1201 42.8506" stroke="#1E3300" stroke-linecap="round" stroke-linejoin="round"/><path d="M30.71 45.1009C33.89 44.7509 36.98 43.6709 39.68 41.9609" stroke="#1E3300" stroke-linecap="round" stroke-linejoin="round"/><path d="M31.84 45.0202L31.72 48.2502C31.72 50.1702 26.07 50.2202 25.9 48.2802C25.75 47.0402 25.7401 46.3402 25.6201 45.0202C25.6201 45.0202 24.24 45.1002 22.38 44.2602C20.52 43.4202 19.03 41.8402 16.55 41.6602" stroke="#1E3300" stroke-linecap="round" stroke-linejoin="round"/><path d="M15.8601 41.5811C15.8601 42.0511 15.3801 44.0511 15.3801 44.6011C15.2001 46.4611 19.6301 47.3511 20.2101 45.5111L20.9201 43.4711" stroke="#1E3300" stroke-linecap="round" stroke-linejoin="round"/><path d="M26.28 25.4204C27.22 24.4204 28.43 23.6704 29.75 23.2904C30.57 23.0504 31.51 22.9704 32.21 23.4604C32.72 23.8104 33.01 24.4104 33.1 25.0204C33.19 25.6304 33.1 26.2504 32.97 26.8504C32.66 28.2804 32.12 29.6604 31.38 30.9204" stroke="#1E3300" stroke-linecap="round" stroke-linejoin="round"/><path d="M21.9401 18.7104C21.0001 17.7104 19.7901 16.9604 18.4701 16.5804C17.6501 16.3404 16.7101 16.2604 16.0101 16.7504C15.5001 17.1004 15.2101 17.7004 15.1201 18.3104C15.0301 18.9204 15.1201 19.5404 15.2501 20.1404C15.5601 21.5704 15.9501 22.8304 16.6901 24.0904" stroke="#1E3300" stroke-linecap="round" stroke-linejoin="round"/><path d="M14.3695 37.6089C14.79 37.4923 15.0028 36.9361 14.8449 36.3667C14.6869 35.7972 14.2181 35.4301 13.7976 35.5467C13.3772 35.6633 13.1644 36.2194 13.3223 36.7889C13.4802 37.3584 13.9491 37.7255 14.3695 37.6089Z" fill="#497B00"/><path d="M17.2814 38.354C17.7018 38.2374 17.9146 37.6812 17.7567 37.1118C17.5988 36.5423 17.1299 36.1752 16.7095 36.2918C16.2891 36.4084 16.0763 36.9646 16.2342 37.534C16.3921 38.1035 16.861 38.4706 17.2814 38.354Z" fill="#497B00"/><path d="M18.8895 29.0621C19.1198 28.2606 18.8289 27.4736 18.2397 27.3043C17.6505 27.135 16.9861 27.6476 16.7558 28.4491C16.5256 29.2506 16.8165 30.0376 17.4057 30.2069C17.9949 30.3762 18.6592 29.8637 18.8895 29.0621Z" fill="#1E3300"/><path d="M25.2674 31.4752C25.4977 30.6737 25.2068 29.8867 24.6176 29.7174C24.0284 29.5481 23.3641 30.0607 23.1338 30.8622C22.9035 31.6637 23.1944 32.4507 23.7836 32.62C24.3728 32.7893 25.0372 32.2767 25.2674 31.4752Z" fill="#1E3300"/><path d="M34.6599 19.7509C31.3699 19.7709 28.5399 20.0609 24.7999 22.7409C24.3199 23.0809 23.7499 23.2709 23.1699 23.1209C22.6299 22.9809 22.4999 22.2909 22.9299 21.9509C25.8399 19.6809 29.5199 18.3709 33.2099 18.3909C33.7399 18.3909 34.2899 18.4209 34.7999 18.5709C34.9799 18.6209 35.17 18.7009 35.31 18.8309C35.45 18.9609 35.5199 19.1709 35.4599 19.3609C35.3599 19.6309 34.94 19.7509 34.65 19.7509H34.6599Z" fill="#1E3300" stroke="#1E3300" stroke-linecap="round" stroke-linejoin="round"/><path d="M30.5701 45.3102C31.0401 45.6302 31.1601 45.8302 31.2601 46.1802C31.5101 47.0102 31.4501 47.9102 31.4901 48.7402C31.5901 47.5002 31.6801 46.2602 31.7801 45.0202C31.7801 44.9902 31.7801 44.9602 31.8001 44.9402C31.8201 44.9202 31.8301 44.9902 31.8101 44.9702L30.5701 45.3102Z" fill="#1E3300"/><path d="M39.8401 42.1709C39.5601 42.4109 38.8001 43.6909 39.1601 45.4009C39.0001 45.1409 38.8001 44.9109 38.6901 44.6209C38.6401 44.4709 38.6001 43.8809 38.5501 43.7409C38.4401 43.4309 38.2601 43.1409 38.1501 42.8309L39.8401 42.1709Z" fill="#1E3300"/><mask id="mask0_2365_20143" style="mask-type:luminance" maskUnits="userSpaceOnUse" x="19" y="4" width="19" height="19"><path d="M23.1701 22.1203C23.7401 22.2703 24.2901 22.6203 24.7701 22.2703C28.5001 19.6003 31.3401 19.3003 34.6301 19.2803C34.9201 19.2803 35.3601 18.6303 35.4601 18.3503L37.4901 8.13031L28.5201 4.07031L21.5701 6.19031L19.8101 12.4403L20.5401 16.6203L23.1701 22.1103V22.1203Z" fill="white"/></mask><g mask="url(#mask0_2365_20143)"><path d="M31.0201 7.0903L29.1801 6.6003H29.1201C26.2101 5.9403 23.0301 8.5103 21.9401 12.4403C20.8601 16.3203 22.2201 20.1203 24.9901 21.1203L25.0401 21.1403L27.4701 21.7903L31.0201 7.0903Z" fill="#99CC33"/><path d="M34.6568 15.9357C35.774 11.907 34.2724 7.97343 31.3027 7.14987C28.333 6.32631 25.0199 8.92462 23.9026 12.9534C22.7854 16.9821 24.287 20.9157 27.2567 21.7392C30.2264 22.5628 33.5395 19.9645 34.6568 15.9357Z" fill="#99CC33"/><path d="M34.6568 15.9357C35.774 11.907 34.2724 7.97343 31.3027 7.14987C28.333 6.32631 25.0199 8.92462 23.9026 12.9534C22.7854 16.9821 24.287 20.9157 27.2567 21.7392C30.2264 22.5628 33.5395 19.9645 34.6568 15.9357Z" stroke="#1E3300" stroke-linecap="round" stroke-linejoin="round"/><path d="M31.0201 7.0903L29.1801 6.6003H29.1201C26.2101 5.9403 23.0301 8.5103 21.9401 12.4403C20.8601 16.3203 22.2201 20.1203 24.9901 21.1203L25.0401 21.1403L27.4701 21.7903" stroke="#1E3300" stroke-linecap="round" stroke-linejoin="round"/></g><path d="M35.4699 19.3604C35.3699 19.6304 34.9499 19.7504 34.6599 19.7504C31.3699 19.7704 28.5399 20.0604 24.7999 22.7404C24.3199 23.0804 23.7499 23.2704 23.1699 23.1204" stroke="#1E3300" stroke-linecap="round" stroke-linejoin="round"/><path d="M42.4001 20.0905C43.7901 19.3605 45.0401 18.3005 45.1501 16.7205C45.2001 15.9605 44.9401 15.0605 44.2501 14.7805C43.5801 14.5105 42.8001 15.0105 42.5801 15.6905C42.3601 16.3705 42.5601 17.1605 42.9401 17.8005C43.3801 18.5605 44.0901 19.2005 44.9301 19.3205C45.7801 19.4405 46.6301 19.0005 47.1201 18.3005C47.6101 17.6005 47.7701 16.6905 47.6801 15.8105C47.5901 14.9305 47.2601 14.0905 46.8501 13.3105" stroke="#1E3300" stroke-linecap="round" stroke-linejoin="round"/></svg>