<svg fill="none" viewBox="0 0 56 56" xmlns="http://www.w3.org/2000/svg" aria-hidden="true"><path d="M17.1199 30.5901C17.0999 31.3501 17.0499 31.8801 17.1399 32.6401C17.1899 33.1101 17.5099 33.8401 17.7299 34.2501C18.1399 35.0101 19.0499 35.4701 19.8999 35.3501C20.7499 35.2301 21.4999 34.5301 21.6699 33.6801C21.8599 34.3201 22.2099 34.9101 22.6299 35.4301C23.0499 35.9501 23.6299 36.3501 24.2799 36.4801C24.9299 36.6101 25.6599 36.4301 26.1299 35.9501C25.5799 35.1301 24.8799 34.4301 24.1899 33.7301C23.3399 32.8701 22.4899 32.0201 21.6399 31.1601L17.1199 30.5801V30.5901Z" fill="white"></path><path opacity="0.2" d="M44.541 53.2009C49.365 52.3486 52.936 49.7353 52.5171 47.3641C52.0981 44.9929 47.8478 43.7616 43.0238 44.6139C38.1997 45.4663 34.6287 48.0795 35.0477 50.4507C35.4666 52.822 39.7169 54.0533 44.541 53.2009Z" fill="black"></path><path d="M31.9402 45.4802L35.3302 51.2102C37.1602 53.8102 42.1602 53.4602 46.4902 50.4102C50.8202 47.3602 52.8502 42.7802 51.0102 40.1802L47.6202 34.4502L31.9302 45.4902L31.9402 45.4802Z" fill="#B1BBC3"></path><path d="M34.5701 47.2204C37.2901 47.2404 40.0101 46.4804 42.3301 45.0704C44.6501 43.6604 46.5801 41.5904 47.8201 39.1704C45.6001 36.6504 44.4801 33.4204 43.5801 30.1804C42.6801 26.9404 41.9701 23.6104 40.4301 20.6204C38.8901 17.6304 36.3401 14.9604 33.0701 14.1904C32.7501 15.4004 32.0301 16.4504 31.3401 17.4904C28.1301 22.3404 25.3701 27.4904 23.1001 32.8504C23.7201 33.2204 24.3801 33.7104 24.9101 34.2004C25.4801 34.7304 25.9301 35.3704 26.4401 35.9604C27.7901 37.5004 29.5501 38.6404 30.9401 40.1404C32.6201 41.9504 34.2501 44.7604 34.5601 47.2104L34.5701 47.2204Z" fill="white"></path><path d="M46.4601 37.9707C45.5701 36.2207 44.8501 34.3907 44.3101 32.5107C45.8301 32.6107 47.2701 33.5807 47.9301 34.9607C48.3801 35.9007 48.4501 37.0007 48.1701 37.9907C48.0901 38.2807 47.8701 39.1707 47.4901 39.2007C47.0601 39.2307 46.6201 38.2807 46.4701 37.9807L46.4601 37.9707Z" fill="#1E3100"></path><path d="M31.6302 41.0207C30.7102 42.2407 30.8001 44.0607 31.7102 45.2907C32.1301 45.8707 32.7202 46.3107 33.3602 46.6107C33.8602 46.8407 34.8802 47.2507 35.4302 47.0007C36.0102 46.7407 34.9801 45.4907 34.7601 45.1307C34.3401 44.4507 33.8802 43.7907 33.4002 43.1507C32.8402 42.4107 32.2502 41.7007 31.6302 41.0107V41.0207Z" fill="#1E3100"></path><path d="M31.4699 40.9904C30.8499 42.6404 31.0099 44.2604 31.7799 45.3504C33.6299 47.9704 38.6599 47.6104 43.0199 44.5404C47.3799 41.4704 49.4199 36.8604 47.5799 34.2304C46.9099 33.2804 45.6199 32.5804 44.2999 32.4004" stroke="#1E3100" stroke-linecap="round" stroke-linejoin="round"></path><path d="M31.77 45.3602L35.18 51.1302C37.03 53.7502 42.06 53.3902 46.42 50.3202C50.78 47.2502 52.82 42.6402 50.98 40.0102L47.57 34.2402" stroke="#1E3100" stroke-linecap="round" stroke-linejoin="round"></path><path d="M47.49 39.2501C45.66 37.3801 44.92 35.0801 44.15 32.5801C43.38 30.0801 42.13 21.9901 38.81 18.0001C37.79 16.7801 36.18 15.5301 34.74 14.8501C33.59 14.3101 32.26 14.3901 31.01 14.5801C29.13 14.8701 27.29 15.3901 25.54 16.1401C23.67 16.9401 21.87 18.0201 20.54 19.5601C18.3 22.1601 17.65 25.7501 17.34 29.1701C17.21 30.5901 17.13 32.0701 17.6 33.4201C18.07 34.7701 19.16 35.3501 20.33 35.0301C21.58 34.6801 21.84 33.3301 21.83 31.7201" stroke="#1E3100" stroke-linecap="round" stroke-linejoin="round"></path><path d="M21.8099 31.71C21.8099 32.41 21.7799 32.66 21.8799 33.34C22.0299 34.32 22.6399 35.37 23.4699 35.92C24.2999 36.47 25.4699 36.51 26.2599 35.9" stroke="#1E3100" stroke-linecap="round" stroke-linejoin="round"></path><path d="M3.45996 5.90041V24.2304C3.45996 25.7904 4.50996 27.1604 6.01996 27.5504L31.17 34.1304C32.47 34.4704 33.74 33.4904 33.74 32.1404V13.8204C33.74 12.2604 32.69 10.8904 31.18 10.5004L6.02996 3.92041C4.72996 3.58041 3.45996 4.56041 3.45996 5.91041V5.90041Z" fill="#99CC33"></path><path d="M3.45996 5.90041V24.2304C3.45996 25.7904 4.50996 27.1604 6.01996 27.5504L31.17 34.1304C32.47 34.4704 33.74 33.4904 33.74 32.1404V13.8204C33.74 12.2604 32.69 10.8904 31.18 10.5004L6.02996 3.92041C4.72996 3.58041 3.45996 4.56041 3.45996 5.91041V5.90041Z" stroke="#1E3100" stroke-linecap="round" stroke-linejoin="round"></path><path d="M7.25 4.04004V11.49L16.79 13.98V6.54004L7.25 4.04004Z" fill="#1E3100"></path><path d="M11.1 24.5601L7.5 23.6201" stroke="#497900" stroke-linecap="round" stroke-linejoin="round"></path><path d="M21.1198 27.1707L14.5898 25.4707" stroke="#497900" stroke-linecap="round" stroke-linejoin="round"></path><path d="M17.8602 22.22L7.4502 19.5" stroke="#497900" stroke-linecap="round" stroke-linejoin="round"></path><path d="M22 17.55V21.94C22 22.8 22.58 23.55 23.41 23.77L27.14 24.75C27.92 24.95 28.68 24.37 28.68 23.56V19.17C28.68 18.31 28.1 17.56 27.27 17.34L23.54 16.36C22.76 16.16 22 16.74 22 17.55Z" fill="white"></path><path d="M22 17.55V21.94C22 22.8 22.58 23.55 23.41 23.77L27.14 24.75C27.92 24.95 28.68 24.37 28.68 23.56V19.17C28.68 18.31 28.1 17.56 27.27 17.34L23.54 16.36C22.76 16.16 22 16.74 22 17.55Z" stroke="#1E3100" stroke-linecap="round" stroke-linejoin="round"></path><path d="M35.89 47.0301C33.4 42.0501 31.56 41.1301 29.21 38.6801C26.99 36.3701 24.19 33.9601 21.86 31.7501C21.19 31.1101 20.51 30.4701 19.92 29.7501C19.65 29.4201 19.39 29.0501 19.3 28.6301C19.14 27.8401 19.66 27.0101 20.39 26.6501C21.12 26.2901 21.98 26.3201 22.76 26.5301C25.94 27.4001 27.8 30.9001 30.92 31.9901C32.23 32.4401 33.64 32.4301 35.02 32.4101L35.88 47.0301H35.89Z" fill="white"></path><path d="M35.89 47.0301C33.4 42.0501 31.56 41.1301 29.21 38.6801C26.99 36.3701 24.19 33.9601 21.86 31.7501C21.19 31.1101 20.51 30.4701 19.92 29.7501C19.65 29.4201 19.39 29.0501 19.3 28.6301C19.14 27.8401 19.66 27.0101 20.39 26.6501C21.12 26.2901 21.98 26.3201 22.76 26.5301C25.94 27.4001 27.8 30.9001 30.92 31.9901C32.23 32.4401 33.64 32.4301 35.02 32.4101" stroke="#1E3100" stroke-linecap="round" stroke-linejoin="round"></path><path d="M23.6401 33.3906C24.0301 33.7506 24.3701 34.1906 24.5001 34.7106C24.6301 35.2306 24.5001 35.8306 24.0701 36.1506C24.3301 35.9906 24.6501 36.2306 24.9501 36.2906C25.1501 36.3306 25.3501 36.2906 25.5401 36.2406C25.8901 36.1506 26.2301 36.0306 26.5601 35.8806C26.1001 35.9006 25.7601 35.4806 25.4601 35.1306C25.0901 34.7006 24.6601 34.3106 24.1901 33.9806" fill="#1E3100"></path><path d="M17.3501 30.71C18.4101 31.09 19.5001 31.49 20.3401 32.24C20.9101 32.74 21.3601 33.43 21.3601 34.19C21.7601 33.38 21.9401 32.51 21.8501 31.61C20.3201 31.35 18.8701 30.98 17.3501 30.72V30.71Z" fill="#1E3100"></path><path d="M34.0002 32.2701C34.0002 32.2701 34.4402 20.9801 35.6402 15.5101C35.1902 14.9501 34.5802 14.6001 33.8902 14.3701C33.7802 17.8901 33.6602 32.2701 33.6602 32.2701H34.0002Z" fill="#1E3100"></path></svg>