<svg fill="none" viewBox="0 0 56 56" xmlns="http://www.w3.org/2000/svg" aria-hidden="true"><path opacity="0.2" d="M36.5999 37.9101C44.7199 37.2201 51.8699 39.8101 52.1399 42.9701C52.4099 46.1301 45.7099 48.0101 37.8899 49.3601C30.0699 50.7101 23.7799 47.7301 23.5099 44.5701C23.2399 41.4101 28.4899 38.6001 36.6099 37.9101H36.5999Z" fill="black"></path><path opacity="0.2" d="M20.9653 50.5136C24.9766 50.2387 28.1294 48.5732 28.0075 46.7935C27.8855 45.0138 24.5349 43.7939 20.5237 44.0687C16.5125 44.3436 13.3596 46.0091 13.4816 47.7888C13.6035 49.5686 16.9541 50.7885 20.9653 50.5136Z" fill="black"></path><path opacity="0.2" d="M14.6157 46.3476C18.627 46.0727 21.7798 44.4072 21.6579 42.6275C21.5359 40.8478 18.1853 39.6278 14.1741 39.9027C10.1629 40.1776 7.00999 41.8431 7.13195 43.6228C7.2539 45.4025 10.6045 46.6225 14.6157 46.3476Z" fill="black"></path><path d="M41.6395 12.0101C41.2395 12.1201 39.9095 12.3501 39.6295 12.6701C39.0995 13.2901 39.2695 14.1501 38.9695 14.8801C38.6595 15.6501 37.8395 16.2101 37.0495 16.3901C36.2595 16.5701 35.4695 16.4401 34.7395 16.2501C34.0095 16.0601 33.2895 15.8101 32.5195 15.7401C31.6495 15.6701 30.7395 15.9501 29.8395 16.0001C28.9395 16.0501 28.0195 15.8601 27.3695 15.3501C26.7195 14.8401 26.4795 13.7901 27.0495 13.0101C27.3895 12.5301 27.9495 12.2501 28.3195 11.8001C28.7295 11.3101 28.8995 10.6701 29.3395 10.2101C29.7295 9.81011 30.2695 9.59011 30.7895 9.53011C31.3095 9.47011 31.6495 9.47011 32.1295 9.61011C32.7495 9.78011 32.8695 9.96011 33.6295 9.98011C34.1695 9.99011 35.4595 9.46011 35.9895 9.56011C38.7395 10.0801 39.1795 9.52011 40.4195 9.44011C41.3595 9.38011 42.4095 9.13011 42.7295 10.0901C43.1095 11.2101 42.3395 11.8401 41.6195 12.0301L41.6395 12.0101Z" fill="#99CC33"></path><path d="M50.0298 46.12C50.8798 45.9 51.3498 45 51.0498 44.18C50.6598 43.14 49.6298 42.04 49.3998 40.86C48.5798 36.66 48.7998 33.3 48.3098 29.43C48.1298 28.94 47.7198 26.58 47.5198 26.1C46.2098 23.38 46.0198 22.28 43.6398 20.41C42.8898 19.82 40.0798 18.28 40.0798 18.28C40.0798 18.28 40.1698 17.33 40.7298 16.18C41.3698 14.87 42.3698 14.42 42.6898 11.75C41.7398 12.14 40.2198 11.7 39.6298 12.79C39.0398 13.89 38.9998 15.31 37.9298 15.98C37.1298 16.48 36.1698 16.54 35.3398 16.37C32.5998 15.81 30.1098 15.97 27.4998 15.77C28.2098 17.03 28.9198 18.28 29.6398 19.54C23.4998 22.12 20.7698 32.1 21.0498 38.82C21.1198 40.54 21.4298 42.14 22.1698 43.48C24.3098 47.37 27.8098 49.19 32.7198 49.84C34.9198 50.13 36.8098 50.06 38.6898 49.75C40.0698 49.52 41.4198 49.12 42.7198 48.59C45.0898 47.63 47.5498 46.78 50.0398 46.12H50.0298Z" fill="#D8ECA3"></path><path d="M38.2296 9.79003C38.9596 9.76003 39.6996 9.52003 40.4396 9.42003C41.1796 9.32003 41.9596 9.37003 42.4496 9.83003C42.9396 10.29 42.9196 11.28 42.2796 11.75C41.5996 12.24 40.6796 11.91 39.9896 12.39C39.1596 12.97 39.3596 14.18 38.8996 15.07C38.3696 16.11 37.0396 16.53 35.9696 16.45C34.8996 16.37 33.9396 15.92 32.8696 15.83C31.9196 15.75 30.9196 15.95 29.9396 16C28.9596 16.05 27.9396 15.94 27.2796 15.33C26.6196 14.72 26.4996 13.49 27.2496 12.74C27.5496 12.44 27.9496 12.25 28.2496 11.94C28.7596 11.43 28.9096 10.67 29.4196 10.15C30.2896 9.26003 31.6296 9.51003 32.6696 9.81003C33.8096 10.14 34.4296 9.89003 35.5696 9.61003C36.5796 9.36003 37.1796 9.84003 38.2296 9.80003V9.79003Z" stroke="#1E3300" stroke-linecap="round" stroke-linejoin="round"></path><path d="M40.0701 18.2695C44.8901 20.7195 47.6201 23.4995 48.4401 30.4395C48.4401 30.4395 49.0201 39.5895 49.6401 41.6495C49.9601 42.7295 50.3401 43.2295 50.7201 43.7895C51.0001 44.1895 51.1301 44.5895 51.0701 45.0695C50.9601 45.9895 49.8201 46.3095 48.9101 46.4995C44.8501 47.3495 41.3601 49.5495 37.2301 49.9395C33.3401 50.2995 29.7801 49.7795 26.5701 48.1195C24.0601 46.8295 22.2801 44.8695 21.4601 42.1195C20.7901 39.8595 20.8401 36.2195 21.3401 33.7095C21.7801 31.4995 23.2901 22.4695 29.4501 19.4795" stroke="#1E3300" stroke-linecap="round" stroke-linejoin="round"></path><path d="M32.3997 42.9178C35.9707 42.2147 38.1701 38.1128 37.3122 33.7561C36.4543 29.3994 32.864 26.4376 29.293 27.1408C25.722 27.844 23.5226 31.9459 24.3805 36.3026C25.2384 40.6593 28.8288 43.621 32.3997 42.9178Z" fill="white"></path><path d="M32.3997 42.9178C35.9707 42.2147 38.1701 38.1128 37.3122 33.7561C36.4543 29.3994 32.864 26.4376 29.293 27.1408C25.722 27.844 23.5226 31.9459 24.3805 36.3026C25.2384 40.6593 28.8288 43.621 32.3997 42.9178Z" stroke="#1E3300" stroke-linecap="round" stroke-linejoin="round"></path><path d="M26.9199 14.83C27.6199 16.09 28.5599 17.52 29.1899 18.81C29.5999 19.66 30.0099 20.53 30.6899 21.18C31.3499 21.81 32.2099 22.2 33.0999 22.43C34.3499 22.76 35.7099 22.82 36.9399 22.4C38.1699 21.98 39.2599 21.07 39.7199 19.86C40.1299 18.78 40.0299 17.54 40.5399 16.5C40.8199 15.93 41.2699 15.46 41.6299 14.94C42.4799 13.72 42.8499 12.17 42.7799 10.5" stroke="#1E3300" stroke-linecap="round" stroke-linejoin="round"></path><path d="M26.8203 30.9004L28.0403 31.2304L27.8203 34.0204L29.8903 31.7204L31.2503 32.0804L28.9103 34.5104L30.9303 38.5104L29.4203 38.1104L27.7803 34.6104L27.5403 37.6104L26.3203 37.2804L26.8303 30.9004H26.8203Z" fill="#1E3200"></path><path d="M30.9696 36.2098C31.0896 34.7598 31.9596 34.0198 33.2096 34.3598C34.4596 34.6998 35.0596 35.5998 34.9796 36.6498L33.7896 36.3298C33.7896 35.7898 33.5496 35.4098 33.1296 35.2998C32.6096 35.1598 32.2296 35.6398 32.1696 36.5098C32.1096 37.3798 32.3896 38.0798 32.8996 38.2098C33.3296 38.3298 33.6296 38.0598 33.6996 37.5698L34.8997 37.8898C34.8197 38.9398 33.9796 39.4698 32.8396 39.1598C31.5996 38.8298 30.8696 37.6498 30.9796 36.2098H30.9696ZM31.8896 32.2598L32.8596 32.5198L33.3096 33.3098L33.8596 32.7798L34.8096 33.0298L33.9196 33.9998L32.5896 33.6498L31.8896 32.2598Z" fill="#1E3200"></path><path d="M25.1602 23.5003C26.8002 21.8603 29.4202 21.2703 31.6002 22.0603C30.6802 21.4703 29.9402 20.5303 29.4902 19.5303C27.7902 20.4603 26.1102 21.8103 25.1602 23.5003Z" fill="#1E3200"></path><path d="M38.5498 21.6895C39.5298 21.0095 40.7498 20.6795 41.9298 20.7695C43.1098 20.8595 44.2698 21.3795 45.1298 22.1995C44.8198 21.4395 44.1498 20.9195 43.4698 20.4595C42.3998 19.7395 41.2798 19.0895 40.1598 18.4395C39.9498 19.6095 39.3698 20.8195 38.5498 21.6795V21.6895Z" fill="#1E3200"></path><path d="M42.9799 23.6398C43.2599 23.9398 43.5299 24.2798 43.6499 24.6698C43.7699 25.0598 43.7299 25.5398 43.4499 25.8398C43.1499 26.1598 42.6499 26.2298 42.2399 26.0998C41.8299 25.9698 41.4699 25.6898 41.1699 25.3698C40.2199 24.3998 39.3799 21.5098 39.3799 21.5098C39.3799 21.5098 42.2099 22.7998 42.9899 23.6298L42.9799 23.6398Z" stroke="#1E3300" stroke-linecap="round" stroke-linejoin="round"></path><path d="M39.3996 25.8099C39.2996 26.2099 39.1696 26.6199 38.9096 26.9399C38.6496 27.2599 38.2296 27.4799 37.8196 27.4099C37.3896 27.3399 37.0596 26.9599 36.9296 26.5399C36.7996 26.1199 36.8496 25.6699 36.9396 25.2499C37.2196 23.9199 39.1696 21.6299 39.1696 21.6299C39.1696 21.6299 39.6596 24.6999 39.3996 25.8099Z" stroke="#1E3300" stroke-linecap="round" stroke-linejoin="round"></path><path d="M17.8803 40.3496V43.0496C17.8803 44.6296 15.2803 45.8996 12.0803 45.8996C8.87027 45.8996 6.28027 44.6196 6.28027 43.0496V40.3496H17.8903H17.8803Z" fill="#B2BBC3"></path><path d="M17.8803 40.3496V43.0496C17.8803 44.6296 15.2803 45.8996 12.0803 45.8996C8.87027 45.8996 6.28027 44.6196 6.28027 43.0496V40.3496" stroke="#1E3300" stroke-linecap="round" stroke-linejoin="round"></path><path d="M12.0803 43.2C15.2835 43.2 17.8803 41.924 17.8803 40.35C17.8803 38.776 15.2835 37.5 12.0803 37.5C8.87702 37.5 6.28027 38.776 6.28027 40.35C6.28027 41.924 8.87702 43.2 12.0803 43.2Z" fill="white"></path><path d="M12.0803 43.2C15.2835 43.2 17.8803 41.924 17.8803 40.35C17.8803 38.776 15.2835 37.5 12.0803 37.5C8.87702 37.5 6.28027 38.776 6.28027 40.35C6.28027 41.924 8.87702 43.2 12.0803 43.2Z" stroke="#1E3300" stroke-linecap="round" stroke-linejoin="round"></path><path d="M17.8803 37.6504V40.3504C17.8803 41.9304 15.2803 43.2004 12.0803 43.2004C8.87027 43.2004 6.28027 41.9204 6.28027 40.3504V37.6504H17.8903H17.8803Z" fill="#B2BBC3"></path><path d="M17.8803 37.6504V40.3504C17.8803 41.9304 15.2803 43.2004 12.0803 43.2004C8.87027 43.2004 6.28027 41.9204 6.28027 40.3504V37.6504" stroke="#1E3300" stroke-linecap="round" stroke-linejoin="round"></path><path d="M12.0803 40.4998C15.2835 40.4998 17.8803 39.2238 17.8803 37.6498C17.8803 36.0758 15.2835 34.7998 12.0803 34.7998C8.87702 34.7998 6.28027 36.0758 6.28027 37.6498C6.28027 39.2238 8.87702 40.4998 12.0803 40.4998Z" fill="white"></path><path d="M12.0803 40.4998C15.2835 40.4998 17.8803 39.2238 17.8803 37.6498C17.8803 36.0758 15.2835 34.7998 12.0803 34.7998C8.87702 34.7998 6.28027 36.0758 6.28027 37.6498C6.28027 39.2238 8.87702 40.4998 12.0803 40.4998Z" stroke="#1E3300" stroke-linecap="round" stroke-linejoin="round"></path><path d="M17.8803 34.96V37.66C17.8803 39.24 15.2803 40.51 12.0803 40.51C8.87027 40.51 6.28027 39.23 6.28027 37.66V34.96H17.8903H17.8803Z" fill="#B2BBC3"></path><path d="M17.8803 34.96V37.66C17.8803 39.24 15.2803 40.51 12.0803 40.51C8.87027 40.51 6.28027 39.23 6.28027 37.66V34.96" stroke="#1E3300" stroke-linecap="round" stroke-linejoin="round"></path><path d="M12.0803 37.8104C15.2835 37.8104 17.8803 36.5344 17.8803 34.9604C17.8803 33.3863 15.2835 32.1104 12.0803 32.1104C8.87702 32.1104 6.28027 33.3863 6.28027 34.9604C6.28027 36.5344 8.87702 37.8104 12.0803 37.8104Z" fill="white"></path><path d="M12.0803 37.8104C15.2835 37.8104 17.8803 36.5344 17.8803 34.9604C17.8803 33.3863 15.2835 32.1104 12.0803 32.1104C8.87702 32.1104 6.28027 33.3863 6.28027 34.9604C6.28027 36.5344 8.87702 37.8104 12.0803 37.8104Z" stroke="#1E3300" stroke-linecap="round" stroke-linejoin="round"></path><path d="M17.8803 32.2598V34.9598C17.8803 36.5398 15.2803 37.8098 12.0803 37.8098C8.87027 37.8098 6.28027 36.5298 6.28027 34.9598V32.2598H17.8903H17.8803Z" fill="#B2BBC3"></path><path d="M17.8803 32.2598V34.9598C17.8803 36.5398 15.2803 37.8098 12.0803 37.8098C8.87027 37.8098 6.28027 36.5298 6.28027 34.9598V32.2598" stroke="#1E3300" stroke-linecap="round" stroke-linejoin="round"></path><path d="M12.0803 35.1102C15.2835 35.1102 17.8803 33.8342 17.8803 32.2602C17.8803 30.6861 15.2835 29.4102 12.0803 29.4102C8.87702 29.4102 6.28027 30.6861 6.28027 32.2602C6.28027 33.8342 8.87702 35.1102 12.0803 35.1102Z" fill="white"></path><path d="M12.0803 35.1102C15.2835 35.1102 17.8803 33.8342 17.8803 32.2602C17.8803 30.6861 15.2835 29.4102 12.0803 29.4102C8.87702 29.4102 6.28027 30.6861 6.28027 32.2602C6.28027 33.8342 8.87702 35.1102 12.0803 35.1102Z" stroke="#1E3300" stroke-linecap="round" stroke-linejoin="round"></path><path d="M17.8803 29.5605V32.2605C17.8803 33.8405 15.2803 35.1105 12.0803 35.1105C8.87027 35.1105 6.28027 33.8305 6.28027 32.2605V29.5605H17.8903H17.8803Z" fill="#B2BBC3"></path><path d="M17.8803 29.5605V32.2605C17.8803 33.8405 15.2803 35.1105 12.0803 35.1105C8.87027 35.1105 6.28027 33.8305 6.28027 32.2605V29.5605" stroke="#1E3300" stroke-linecap="round" stroke-linejoin="round"></path><path d="M12.0803 32.41C15.2835 32.41 17.8803 31.134 17.8803 29.56C17.8803 27.9859 15.2835 26.71 12.0803 26.71C8.87702 26.71 6.28027 27.9859 6.28027 29.56C6.28027 31.134 8.87702 32.41 12.0803 32.41Z" fill="white"></path><path d="M12.0803 32.41C15.2835 32.41 17.8803 31.134 17.8803 29.56C17.8803 27.9859 15.2835 26.71 12.0803 26.71C8.87702 26.71 6.28027 27.9859 6.28027 29.56C6.28027 31.134 8.87702 32.41 12.0803 32.41Z" stroke="#1E3300" stroke-linecap="round" stroke-linejoin="round"></path><path d="M20.8803 25.8604V28.5604C20.8803 30.1404 18.2803 31.4104 15.0803 31.4104C11.8703 31.4104 9.28027 30.1304 9.28027 28.5604V25.8604H20.8903H20.8803Z" fill="#B2BBC3"></path><path d="M20.8803 25.8604V28.5604C20.8803 30.1404 18.2803 31.4104 15.0803 31.4104C11.8703 31.4104 9.28027 30.1304 9.28027 28.5604V25.8604" stroke="#1E3300" stroke-linecap="round" stroke-linejoin="round"></path><path d="M15.0803 28.7098C18.2835 28.7098 20.8803 27.4338 20.8803 25.8598C20.8803 24.2858 18.2835 23.0098 15.0803 23.0098C11.877 23.0098 9.28027 24.2858 9.28027 25.8598C9.28027 27.4338 11.877 28.7098 15.0803 28.7098Z" fill="white"></path><path d="M15.0803 28.7098C18.2835 28.7098 20.8803 27.4338 20.8803 25.8598C20.8803 24.2858 18.2835 23.0098 15.0803 23.0098C11.877 23.0098 9.28027 24.2858 9.28027 25.8598C9.28027 27.4338 11.877 28.7098 15.0803 28.7098Z" stroke="#1E3300" stroke-linecap="round" stroke-linejoin="round"></path><path d="M20.8803 23.1602V25.8602C20.8803 27.4402 18.2803 28.7102 15.0803 28.7102C11.8703 28.7102 9.28027 27.4302 9.28027 25.8602V23.1602H20.8903H20.8803Z" fill="#B2BBC3"></path><path d="M20.8803 23.1602V25.8602C20.8803 27.4402 18.2803 28.7102 15.0803 28.7102C11.8703 28.7102 9.28027 27.4302 9.28027 25.8602V23.1602" stroke="#1E3300" stroke-linecap="round" stroke-linejoin="round"></path><path d="M15.0803 26.0105C18.2835 26.0105 20.8803 24.7346 20.8803 23.1605C20.8803 21.5865 18.2835 20.3105 15.0803 20.3105C11.877 20.3105 9.28027 21.5865 9.28027 23.1605C9.28027 24.7346 11.877 26.0105 15.0803 26.0105Z" fill="white"></path><path d="M15.0803 26.0105C18.2835 26.0105 20.8803 24.7346 20.8803 23.1605C20.8803 21.5865 18.2835 20.3105 15.0803 20.3105C11.877 20.3105 9.28027 21.5865 9.28027 23.1605C9.28027 24.7346 11.877 26.0105 15.0803 26.0105Z" stroke="#1E3300" stroke-linecap="round" stroke-linejoin="round"></path><path d="M25.35 44.6602V47.3602C25.35 48.9402 22.75 50.2102 19.55 50.2102C16.34 50.2102 13.75 48.9302 13.75 47.3602V44.6602H25.36H25.35Z" fill="#B2BBC3"></path><path d="M25.35 44.6602V47.3602C25.35 48.9402 22.75 50.2102 19.55 50.2102C16.34 50.2102 13.75 48.9302 13.75 47.3602V44.6602" stroke="#1E3300" stroke-linecap="round" stroke-linejoin="round"></path><path d="M19.5402 47.5105C22.7435 47.5105 25.3402 46.2346 25.3402 44.6605C25.3402 43.0865 22.7435 41.8105 19.5402 41.8105C16.337 41.8105 13.7402 43.0865 13.7402 44.6605C13.7402 46.2346 16.337 47.5105 19.5402 47.5105Z" fill="white"></path><path d="M19.5402 47.5105C22.7435 47.5105 25.3402 46.2346 25.3402 44.6605C25.3402 43.0865 22.7435 41.8105 19.5402 41.8105C16.337 41.8105 13.7402 43.0865 13.7402 44.6605C13.7402 46.2346 16.337 47.5105 19.5402 47.5105Z" stroke="#1E3300" stroke-linecap="round" stroke-linejoin="round"></path><path d="M25.35 42V44.7C25.35 46.28 22.75 47.55 19.55 47.55C16.34 47.55 13.75 46.27 13.75 44.7V42H25.36H25.35Z" fill="#B2BBC3"></path><path d="M25.35 42V44.7C25.35 46.28 22.75 47.55 19.55 47.55C16.34 47.55 13.75 46.27 13.75 44.7V42" stroke="#1E3300" stroke-linecap="round" stroke-linejoin="round"></path><path d="M19.5402 44.8504C22.7435 44.8504 25.3402 43.5744 25.3402 42.0004C25.3402 40.4264 22.7435 39.1504 19.5402 39.1504C16.337 39.1504 13.7402 40.4264 13.7402 42.0004C13.7402 43.5744 16.337 44.8504 19.5402 44.8504Z" fill="white"></path><path d="M19.5402 44.8504C22.7435 44.8504 25.3402 43.5744 25.3402 42.0004C25.3402 40.4264 22.7435 39.1504 19.5402 39.1504C16.337 39.1504 13.7402 40.4264 13.7402 42.0004C13.7402 43.5744 16.337 44.8504 19.5402 44.8504Z" stroke="#1E3300" stroke-linecap="round" stroke-linejoin="round"></path><path d="M25.35 39.3496V42.0496C25.35 43.6296 22.75 44.8996 19.55 44.8996C16.34 44.8996 13.75 43.6196 13.75 42.0496V39.3496H25.36H25.35Z" fill="#B2BBC3"></path><path d="M25.35 39.3496V42.0496C25.35 43.6296 22.75 44.8996 19.55 44.8996C16.34 44.8996 13.75 43.6196 13.75 42.0496V39.3496" stroke="#1E3300" stroke-linecap="round" stroke-linejoin="round"></path><path d="M19.5402 42.2C22.7435 42.2 25.3402 40.924 25.3402 39.35C25.3402 37.776 22.7435 36.5 19.5402 36.5C16.337 36.5 13.7402 37.776 13.7402 39.35C13.7402 40.924 16.337 42.2 19.5402 42.2Z" fill="white"></path><path d="M19.5402 42.2C22.7435 42.2 25.3402 40.924 25.3402 39.35C25.3402 37.776 22.7435 36.5 19.5402 36.5C16.337 36.5 13.7402 37.776 13.7402 39.35C13.7402 40.924 16.337 42.2 19.5402 42.2Z" stroke="#1E3300" stroke-linecap="round" stroke-linejoin="round"></path></svg>