<svg fill="none" viewBox="0 0 56 56" xmlns="http://www.w3.org/2000/svg" aria-hidden="true"><path opacity="0.2" d="M27.7101 50.9801C28.1601 51.1001 28.6201 51.1601 29.0801 51.1601H33.4301C33.7101 51.1601 33.9901 51.1201 34.2601 51.0501L54.4401 45.7701C55.0701 45.6001 55.0801 44.7001 54.4401 44.5301L33.0801 38.8701C32.2601 38.6501 31.4001 38.6501 30.5801 38.8701L8.01012 44.7901C7.49012 44.9301 7.49012 45.6701 8.01012 45.8101L27.7101 50.9801Z" fill="black"></path><path d="M29.3301 7.80004L33.1801 6.79004L37.0701 7.80004L33.2001 8.81004L29.3301 7.80004Z" fill="#B2BBC3"></path><path d="M29.3301 7.80005L33.2001 8.81005V19.86L29.3301 18.85V7.80005Z" fill="white"></path><path d="M33.2002 8.81005L37.0702 7.80005V18.85L33.2002 19.86V8.81005Z" fill="#1E3200"></path><path d="M29.3301 7.80004L33.1801 6.79004L37.0701 7.80004L33.2001 8.81004L29.3301 7.80004Z" stroke="#1E3300" stroke-linecap="round" stroke-linejoin="round"></path><path d="M33.2002 8.81006V19.8601" stroke="#1E3300" stroke-linecap="round" stroke-linejoin="round"></path><path d="M37.0698 7.80005V18.85" stroke="#1E3300" stroke-linecap="round" stroke-linejoin="round"></path><path d="M29.3301 7.80005V18.85" stroke="#1E3300" stroke-linecap="round" stroke-linejoin="round"></path><path d="M6.16016 44.94V42.84L27.8302 39.25L49.7202 44.94L27.9402 50.64L6.16016 44.94Z" fill="white"></path><path d="M6.16016 41.7801L27.8302 36.0901L49.7202 41.7801L27.9402 47.4801L6.16016 41.7801Z" fill="white"></path><path d="M49.7199 23.2501V44.9401L27.9399 50.6401V28.9401L40.4699 17.1401L49.7199 23.2501Z" fill="#B2BBC3"></path><path d="M12 24.77V46.51L27.94 50.68V28.94L12 24.77Z" fill="#D8ECA3"></path><path d="M12 31.99V43.41L21.78 45.87V34.44L12 31.99Z" fill="white"></path><path d="M24.54 12.97L40.47 17.14L27.94 28.94L12 24.77L24.54 12.97Z" fill="#99CC33"></path><path d="M12.0002 31.99L21.7802 34.44V45.87L6.16016 41.78V44.94L27.9402 50.64" stroke="#1E3300" stroke-linecap="round" stroke-linejoin="round"></path><path d="M6.16016 41.78L11.8902 40.28" stroke="#1E3300" stroke-linecap="round" stroke-linejoin="round"></path><path d="M12 24.77L24.54 12.97L40.47 17.14L49.72 23.25V44.94L27.94 50.64V28.94L12 24.77ZM12 24.77V46.41" stroke="#1E3300" stroke-linecap="round" stroke-linejoin="round"></path><path d="M27.9399 28.9401L40.4699 17.1401" stroke="#1E3300" stroke-linecap="round" stroke-linejoin="round"></path><path d="M30.8599 44.51L33.5499 43.81L33.5799 37.71L30.8799 38.41L30.8599 44.51Z" stroke="#1E3300" stroke-linecap="round" stroke-linejoin="round"></path><path d="M35.8701 43.1901L38.5701 42.4901L38.5901 36.3901L35.8901 37.0901L35.8701 43.1901Z" stroke="#1E3300" stroke-linecap="round" stroke-linejoin="round"></path><path d="M30.8599 44.6899L33.5499 43.9899L33.5799 37.3999L30.8799 38.0999L30.8599 44.6899Z" fill="#1E3200"></path><path d="M35.8701 43.3701L38.5701 42.6701L38.5901 36.0801L35.8901 36.7801L35.8701 43.3701Z" fill="#1E3200"></path><path d="M41.8799 35.6399V46.7599L46.5399 45.5499V34.4399L41.8799 35.6399Z" fill="#1E3200"></path><path d="M37.0698 32.0901L44.4998 30.1401L49.5298 33.8301L42.0498 35.7801L37.0698 32.0901Z" fill="white"></path><path d="M37.0698 32.0901L44.4998 30.1401L49.5298 33.8301L42.0498 35.7801L37.0698 32.0901Z" stroke="#1E3300" stroke-linecap="round" stroke-linejoin="round"></path></svg>