<svg fill="none" viewBox="0 0 56 56" xmlns="http://www.w3.org/2000/svg" class="css-1jxvrpq e1ig6ntm0"><path opacity="0.2" d="M48.7198 49.6802H44.6598C37.4498 49.6402 30.8198 48.4502 25.8398 45.6402C24.4898 44.8802 23.2398 43.9802 22.8298 42.8902C22.4198 41.8002 23.1898 40.6102 24.7298 40.0002C26.6298 39.2402 28.8698 39.0702 31.2598 39.1902C33.6498 39.3102 36.4498 39.8602 38.7498 40.2502C43.2498 41.0102 47.7998 41.8402 51.7398 43.3802C52.6898 43.7502 53.6098 44.1702 54.2998 44.7202C54.9898 45.2702 55.0998 45.9102 54.9798 46.5902C54.7898 47.6902 54.0798 48.5802 52.4498 49.0402C51.2198 49.3902 50.0698 49.6702 48.7198 49.6702V49.6802Z" fill="black"></path><path opacity="0.2" d="M19.5998 44.9503C15.1498 44.3503 10.7098 43.5203 6.50976 41.9303C5.30976 41.4803 3.96976 40.7503 3.78976 39.4803C3.64976 38.4303 4.42976 37.4303 5.38976 36.9903C6.34976 36.5503 7.83976 36.4303 8.89976 36.3903C14.3798 36.2003 18.7798 36.9703 23.8898 37.9903C27.8198 38.7803 33.5198 40.0303 35.6598 42.3303C37.4798 44.2903 34.8798 45.5103 33.6298 45.7503C31.4798 46.1603 22.1198 45.2803 19.6098 44.9403L19.5998 44.9503Z" fill="black"></path><path d="M12.0701 24.7305C10.7901 25.1105 9.39014 25.1005 8.08014 25.3605C6.75014 25.6205 6.26014 26.5105 5.32014 27.4805C4.70014 28.1105 4.07014 31.3505 4.07014 31.3505L3.39014 38.6605L3.84014 40.2105C3.84014 40.2105 4.57014 41.1705 5.08014 41.4105C7.03014 42.3105 11.5601 43.3705 13.6201 43.9905C16.2901 44.7805 17.4501 44.5005 20.1901 44.9905C22.9501 45.4805 26.8901 45.0005 29.6801 45.3105C30.7101 45.4205 32.3001 44.8405 33.1301 44.2505C34.4301 43.3205 34.1201 37.9405 34.1201 37.9405C34.1201 37.9405 34.2801 35.7705 34.1001 34.5705C33.8901 33.1805 33.6501 31.7005 32.7101 30.6405C31.9901 29.8305 30.9601 29.3805 29.9601 28.9605C28.8001 28.4705 27.6301 27.9805 26.4701 27.4805C26.3301 27.4205 26.1901 27.3605 26.0401 27.3805C24.3901 28.8505 23.4001 29.5305 21.8701 30.1405C20.6301 30.6405 19.3201 30.9905 17.9801 30.9705C16.6501 30.9505 15.4601 30.6505 14.5401 29.6805C13.0801 28.1305 13.0301 26.0705 13.0301 26.0705C13.0301 26.0705 12.2201 25.4105 12.0501 24.7305H12.0701Z" fill="#B1BAC2"></path><path d="M11.6101 11.53C11.3701 12.02 11.1401 12.54 11.1601 13.09C11.1801 13.46 11.3101 13.82 11.3501 14.19C11.4201 14.91 11.1101 15.6 10.9701 16.31C10.7501 17.4 10.9301 18.53 11.1101 19.63C11.3301 20.97 11.5501 22.31 11.7701 23.65C11.9701 24.88 12.3001 25.16 13.1001 26.11C13.3501 26.41 13.1001 26.76 13.2801 27.32C13.8901 29.34 15.1901 30.53 16.1701 30.7C17.7001 30.96 19.9801 30.79 21.2901 30.33C22.4401 29.93 24.7601 29.25 25.2501 28.13C25.2801 28.06 25.9301 27.46 25.9301 27.39C25.9301 27.27 23.6401 25.6 23.5801 25.5C22.7901 24.22 22.4701 22.56 22.8301 21.08C23.1401 21.08 23.4301 21.17 23.7601 21.11C24.0901 21.05 24.3901 20.93 24.6601 20.76C25.2001 20.42 25.6401 19.9 25.8801 19.31C26.2101 18.48 26.2301 17.54 26.0201 16.67C25.8301 15.88 25.4601 15.15 25.2601 14.36C24.9801 13.23 25.0901 12.04 25.0201 10.87C24.9501 9.70004 24.6401 8.47004 23.7501 7.71004C22.9201 7.00004 21.7601 6.85004 20.6601 6.86004C19.5601 6.87004 18.4601 7.01004 17.4001 6.75004C16.4301 6.51004 15.3601 5.96004 14.5001 6.48004C14.2201 6.65004 14.0001 6.92004 13.8101 7.19004C12.8901 8.51004 12.3101 10.1 11.6101 11.54V11.53Z" fill="white"></path><path d="M12.1301 24.7197C10.6601 24.8597 8.8701 25.0297 7.6001 25.5297C6.6601 25.8997 5.7301 26.3097 5.0401 27.8497C4.2301 29.6497 3.4601 33.8197 3.3901 38.4897C3.3701 39.6997 4.0101 40.8397 5.0901 41.4197C6.3001 42.0697 7.6601 42.4497 9.0301 42.8597C15.9101 44.8797 24.0101 45.7397 31.3201 45.1097C32.7401 44.9897 33.8701 43.8397 33.9501 42.4097C34.1101 39.6497 34.2101 35.5897 34.0501 34.0997C33.9501 33.1897 33.5401 32.1597 33.0701 31.3697C32.4301 30.2997 31.3301 29.5997 30.2301 29.0297C29.1301 28.4597 27.4201 27.7797 26.2401 27.3897" stroke="#1E3405" stroke-linecap="round" stroke-linejoin="round"></path><path d="M13.6698 7.93959C14.1798 8.23959 14.6698 8.77959 15.1698 9.08959C15.5398 9.31959 16.0098 9.47959 16.4398 9.60959C19.2698 10.4396 19.9198 9.80959 21.6798 9.83959C22.6198 9.85959 23.3198 10.6996 23.1698 11.6196C23.0498 12.3596 22.9498 13.1096 22.8698 13.8596C22.8498 14.0696 22.8298 14.2896 22.8498 14.5096C22.8698 14.6896 22.9198 14.8696 22.9598 15.0596C23.1298 15.8196 23.1398 16.6096 23.0898 17.3896C23.1498 17.3896 23.2098 17.3696 23.2598 17.3696C23.4198 17.3696 23.5698 17.3796 23.7298 17.3796C23.7498 17.3096 23.7598 17.2396 23.7698 17.1596C23.8598 16.7496 23.9798 16.3296 24.2598 16.0196C24.5398 15.7096 25.0198 15.5296 25.3898 15.7196C25.6298 15.8396 25.7898 16.0696 25.9398 16.2896C26.4098 15.2796 26.8798 14.2996 27.1698 13.2196C27.4598 12.1496 27.5898 11.0096 27.3698 9.90959C27.2598 9.36959 27.0698 8.83959 26.8098 8.35959C26.3498 7.51959 25.6598 6.78959 24.8098 6.34959C24.4498 6.15959 24.0598 6.01959 23.6698 5.88959C22.8198 5.59959 21.9498 5.32959 21.0798 5.08959C21.2198 4.92959 21.3498 4.73959 21.4998 4.57959C20.9598 4.31959 20.3698 4.18959 19.7898 4.08959C19.2598 3.99959 18.7298 3.91959 18.1998 3.85959C18.2998 3.64959 18.3798 3.41959 18.4798 3.20959C17.7198 3.10959 16.9598 3.22959 16.2098 3.37959C15.7898 3.45959 15.3598 3.55959 14.9698 3.72959C13.7098 4.29959 12.8298 5.51959 12.9098 6.89959C12.0698 7.43959 11.4998 8.34959 11.1698 9.28959C10.8398 10.2296 10.8898 11.3396 11.3598 12.2196C11.9598 10.5596 12.6198 9.36959 13.6598 7.93959H13.6698Z" fill="#61666B"></path><path d="M12.92 6.88988C12.08 7.42988 11.51 8.33988 11.18 9.27988C10.85 10.2199 10.9 11.3299 11.37 12.2099C11.97 10.5499 12.63 9.35988 13.67 7.92988L12.92 6.87988V6.88988Z" fill="#1E3405"></path><path d="M19.58 25.1202C18.76 25.6802 17.86 26.1202 16.92 26.4402C15.92 26.7702 14.79 26.9502 13.83 26.5102C12.81 26.0502 12.18 24.9902 11.88 23.9202C11.58 22.8502 11.54 21.7202 11.34 20.6202C11.1 19.3102 10.64 17.9902 10.9 16.6902C11.06 15.8902 11.5 15.1302 11.4 14.3202C11.35 13.9102 11.16 13.5202 11.15 13.1002C11.15 12.7502 11.27 12.4202 11.4 12.0902C12.04 10.4702 12.71 9.3902 13.7 7.9502C14.67 8.7602 15.68 9.4602 16.85 9.8002C17.75 10.0602 18.68 10.1102 19.61 10.0602C20.66 10.0002 21.04 9.8002 21.69 9.8202C22.63 9.8502 23.33 10.6902 23.19 11.6202C23.09 12.2802 23 12.9402 22.9 13.6102C22.84 14.0602 22.84 14.5302 22.95 14.9802C23.08 15.4902 23.1 16.0202 23.08 16.5402C23.07 16.9202 23.05 17.2902 23.03 17.6702L23.7 17.7202C23.76 17.4002 23.83 17.0802 23.91 16.7702C24.06 16.2202 24.39 15.6102 25.01 15.6202C25.29 15.6202 25.55 15.7702 25.72 15.9802C26.08 16.4102 26.11 16.9802 26.09 17.5202C26.06 18.4602 25.89 19.4402 25.33 20.1902C24.77 20.9402 23.75 21.4202 22.86 21.1102C22.76 22.1702 22.86 23.3002 23.11 24.3302C23.46 25.7802 25.09 26.9302 26.48 27.4702" stroke="#1E3405" stroke-linecap="round" stroke-linejoin="round"></path><path d="M14.7799 15.3799C14.6599 16.5799 13.7999 17.5399 13.2599 18.6099C13.0699 18.9799 12.9399 19.4799 13.2399 19.7599C13.4099 19.9199 13.6599 19.9499 13.8899 19.9599C14.4799 19.9799 15.0799 19.9199 15.6499 19.7599" stroke="#1E3405" stroke-linecap="round" stroke-linejoin="round"></path><path d="M11.3602 12.1898C10.9402 11.2998 10.8802 10.2398 11.1902 9.29982C11.5002 8.35982 12.1802 7.25982 13.0502 6.79982C12.9202 5.97982 13.2902 5.28982 13.8402 4.66982C14.3902 4.04982 15.1402 3.62982 15.9402 3.38982C16.7802 3.13982 17.6802 3.06982 18.5502 3.19982C18.4302 3.40982 18.3402 3.62982 18.2202 3.83982C19.4002 3.87982 20.4802 4.13982 21.5802 4.52982C21.4102 4.69982 21.2502 4.91982 21.0802 5.09982C21.7302 5.23982 24.9202 6.07982 25.9302 7.12982C26.2502 7.45982 26.5102 7.84982 26.7302 8.24982C26.9602 8.65982 27.1502 9.07982 27.2802 9.52982C27.6002 10.6498 27.5102 11.8598 27.2202 12.9898C26.9302 14.1198 26.4302 15.1898 25.9302 16.2398" stroke="#1E3405" stroke-linecap="round" stroke-linejoin="round"></path><path d="M16.9601 14.2602C17.0501 14.3302 17.1802 14.3402 17.2902 14.3502C17.8702 14.4102 18.4401 14.4602 19.0101 14.5902C19.5801 14.7202 20.1301 14.9502 20.5601 15.3402C20.6601 15.4302 20.8001 15.5402 20.9301 15.4802C21.0501 15.4202 21.0401 15.2502 21.0101 15.1302C20.8501 14.5402 20.3901 14.0602 19.8501 13.7802C19.3101 13.5002 18.6901 13.4002 18.0801 13.3702C17.7701 13.3602 17.3001 13.3402 17.0301 13.5302C16.8101 13.6802 16.7301 14.1002 16.9701 14.2702L16.9601 14.2602Z" fill="#1E3304"></path><path d="M11.4902 12.0002C12.0302 12.0102 12.5802 12.0302 13.1102 12.1802C13.6402 12.3302 14.1402 12.6102 14.4502 13.0602C14.5402 13.1902 14.6102 13.3802 14.5102 13.5002C14.4502 13.5802 14.3402 13.6002 14.2502 13.6002C13.9302 13.6102 13.6302 13.4802 13.3302 13.3702C12.6602 13.1402 11.9402 13.0802 11.2402 13.1902L11.5002 11.9902L11.4902 12.0002Z" fill="#1E3304"></path><path d="M18.9976 16.8235C19.0433 16.3896 18.8399 16.0125 18.5433 15.9813C18.2467 15.9501 17.9692 16.2765 17.9235 16.7104C17.8779 17.1443 18.0813 17.5214 18.3779 17.5526C18.6744 17.5839 18.9519 17.2574 18.9976 16.8235Z" fill="#1E3304"></path><path d="M13.4414 15.7288C13.4871 15.2949 13.2837 14.9178 12.9871 14.8866C12.6905 14.8554 12.4131 15.1818 12.3674 15.6157C12.3217 16.0496 12.5251 16.4267 12.8217 16.4579C13.1183 16.4891 13.3958 16.1627 13.4414 15.7288Z" fill="#1E3304"></path><path d="M13.7598 8.01957C13.6798 7.94957 13.2098 7.53957 13.0498 6.80957" stroke="#1E3405" stroke-linecap="round" stroke-linejoin="round"></path><path d="M26.2202 37.9295C26.4102 36.0295 27.0102 34.1695 27.9802 32.5195" stroke="#1E3405" stroke-linecap="round" stroke-linejoin="round"></path><path d="M20.1499 44.6704C20.7699 38.4804 23.2799 32.4904 27.2499 27.6904C30.1199 27.8604 32.5699 30.3704 33.4399 33.1004C34.3099 35.8304 34.0599 38.7904 33.7399 41.6404C33.6599 42.3104 33.5799 43.0104 33.2199 43.5904C32.5499 44.6804 31.1399 45.0204 29.8799 45.1904C26.5499 45.6404 23.4599 45.2204 20.1499 44.6704Z" fill="#1E3405"></path><path d="M25.33 45.9001C23.19 45.0101 23.15 43.9001 22.91 43.4301C22.73 43.0801 23.13 39.3901 23.19 39.0001C23.29 38.2801 24.94 32.7501 25.25 32.1001C25.61 31.3501 25.99 30.3401 26.37 29.6101C26.75 28.8801 27.71 27.8701 28.95 27.6301C30.19 27.3901 31.36 27.1701 32.74 27.0301C34.65 27.9201 35.49 26.1501 35.45 27.2601C36.03 26.7601 34.4 30.3401 35.11 30.0501C35.2 30.0101 35.29 29.9801 35.38 30.0101C35.56 30.0701 35.57 30.3101 35.55 30.5001C35.51 31.0601 35.55 31.6201 35.7 32.1601C35.75 32.3401 35.83 32.5401 36.02 32.5701C36.13 32.5901 36.24 32.5201 36.34 32.4601C36.83 32.1501 37.32 31.8401 37.81 31.5201C38.08 31.3501 38.36 31.1701 38.68 31.1101C39 31.0501 39.37 31.1301 39.56 31.3901C39.74 31.6301 39.73 31.9401 39.78 32.2301C39.83 32.5201 40.01 32.8401 40.31 32.8501C40.43 32.8501 40.54 32.8101 40.65 32.7601C42.36 32.0001 43.96 30.9801 45.37 29.7501C45.49 29.6501 45.61 29.5401 45.77 29.5201C45.91 29.5001 46.04 29.5601 46.17 29.6101C47.26 30.0701 48.34 30.5301 49.43 30.9901C50.36 31.3801 51.33 31.8001 52 32.5601C52.87 33.5501 52.9 35.6301 53.09 36.9301C53.26 38.0501 53.35 45.0701 52.85 46.0901C52.2 47.4301 51.45 48.1901 50.12 48.8801C48.94 49.4901 45.13 49.3801 44.17 49.2801C41.56 48.9901 38.43 48.9301 35.85 48.4701C33.29 48.0201 28.27 47.1301 25.32 45.9001H25.33Z" fill="#B1BAC2"></path><path d="M35.37 27.65C33.79 29.24 32.91 31.3799 32.07 33.4599C32.04 33.5399 32.01 33.62 32.01 33.7C32.01 33.8 32.08 33.8799 32.13 33.9599C32.62 34.58 33.34 34.98 34.07 35.29C36.08 36.14 38.32 36.4299 40.48 36.1199C40.63 36.0999 40.77 36.08 40.9 36C41.07 35.9 41.18 35.72 41.28 35.54C42.42 33.56 43.75 31.6799 45.25 29.9599C44.48 29.5399 43.76 28.99 43.29 28.24C42.82 27.49 42.64 26.5399 42.95 25.7199C43.14 25.2099 43.51 24.78 43.83 24.34C45.12 22.6 45.88 20.49 45.99 18.33C46.1 16.17 44.83 14.16 43.29 12.64C41.75 11.12 39.81 10.0699 37.77 9.36995C36.73 9.00995 35.63 8.73995 34.54 8.85995C33.73 8.94995 32.96 9.24995 32.24 9.62995C31.75 9.88995 31.26 10.2 30.91 10.63C30.6 11.02 30.42 11.4799 30.29 11.9599C29.89 13.3899 29.95 14.9099 29.8 16.3899C29.59 18.5199 28.99 20.7499 29.8 22.7199C30.5 24.4399 32.14 25.6 33.81 26.41C34.41 26.7 35.09 27.0199 35.35 27.6399L35.37 27.65Z" fill="white"></path><path d="M33.2198 34.8002C35.5298 36.2502 38.4298 36.7102 41.0698 36.0602C40.1098 37.5302 36.7198 46.8402 36.1698 48.5102C33.4498 47.9002 32.0598 47.9202 29.4098 47.0402C29.3498 47.0202 30.6198 38.5302 30.5798 38.4802C30.5398 38.4302 30.5398 38.3602 30.5398 38.3002C30.5398 37.5002 30.8698 36.7502 31.1998 36.0302C31.3698 35.6602 31.3898 35.1702 31.5498 34.8002C31.6098 34.6402 31.9798 33.9202 32.0998 33.9102C32.2298 33.9102 32.4998 34.2702 32.5998 34.3602C32.7898 34.5202 32.9998 34.6602 33.2198 34.8002Z" fill="#D8EEAB"></path><path d="M45.8002 29.4103C47.1602 30.0203 48.3502 30.4503 49.5902 30.9203C50.2402 31.1703 50.9002 31.4503 51.4202 31.9103C52.3902 32.7603 52.8302 34.0603 53.0502 35.3303C53.1502 35.9103 53.0302 41.8203 52.9902 45.0903C52.9702 46.5903 52.2202 47.5803 50.9802 48.4203C50.1702 48.9703 49.3002 49.1203 48.2302 49.2103C44.4302 49.5203 31.6802 48.8203 24.4602 45.4203C23.7902 45.1103 23.2602 44.3303 23.0402 43.6303C22.8202 42.9303 22.8102 42.1803 22.8302 41.4403C22.8802 39.5803 24.3302 33.2603 26.1002 29.9603C26.8402 28.5703 27.6102 28.1403 28.4902 27.7903C29.6802 27.3203 31.3502 27.1603 32.7302 27.0303" stroke="#1E3405" stroke-linecap="round" stroke-linejoin="round"></path><path d="M45.8002 29.4102C43.9602 31.3302 43.1402 32.7202 42.1702 34.1802C40.9302 36.0402 38.5502 41.4902 36.1602 48.5102" stroke="#1E3405" stroke-linecap="round" stroke-linejoin="round"></path><path d="M29.3999 47.0401C29.8299 38.1301 32.7899 31.6101 34.0099 29.4801C34.2199 29.1101 34.3999 28.7501 34.6799 28.4401C34.9999 28.0801 35.3899 27.7601 35.6199 27.3401C35.8599 26.9001 35.8199 26.5701 35.8599 26.0801" stroke="#1E3405" stroke-linecap="round" stroke-linejoin="round"></path><path d="M32.1299 33.96C32.9099 34.93 34.4199 35.66 36.0299 36.07C37.6399 36.48 39.4999 36.46 40.9899 36.05" stroke="#1E3405" stroke-linecap="round" stroke-linejoin="round"></path><path d="M35.6899 26.0096L35.5299 27.0696C35.5199 27.1396 35.5099 27.2096 35.4599 27.2596C35.3999 27.3196 35.2999 27.3196 35.2199 27.3196C34.0799 27.3096 32.9399 27.2796 31.8299 27.0396C30.7199 26.7996 29.6299 26.3496 28.7999 25.5696C27.7099 24.5496 27.1399 22.9996 27.3099 21.5196C27.4699 20.1496 28.2099 18.9196 28.6199 17.6096C28.8199 16.9896 28.9399 16.3396 28.9799 15.6896C29.0399 14.7996 28.9599 13.9096 28.9799 13.0096C28.9999 12.1096 29.1099 11.1996 29.5299 10.4196C29.9499 9.63964 30.7199 8.98964 31.6099 8.91964C31.9899 7.33964 33.3299 6.18964 34.9299 5.91964C35.9499 5.74964 37.0799 5.78964 38.0999 5.93964C39.4299 6.13964 40.7899 6.22964 42.0699 6.63964C43.3499 7.04964 44.5899 7.81964 45.2099 9.00964C45.6699 9.89964 45.7599 10.9296 45.8799 11.9296C46.2999 15.4196 47.2999 18.8296 48.8299 21.9896C49.0299 22.4096 49.2499 22.8396 49.3199 23.2996C49.4299 24.0096 49.1799 24.7596 48.7299 25.3296C48.2799 25.8996 47.6399 26.2996 46.9699 26.5496C47.0999 26.0096 47.0099 25.5496 46.8999 25.0096C46.6899 25.8496 45.9699 26.4896 45.1699 26.8096C44.3699 27.1296 43.4799 27.1696 42.6199 27.1696C41.8399 27.1696 41.0499 27.1396 40.2699 27.0796C39.8899 26.4096 39.5599 25.6696 39.5599 24.8996C39.5599 24.5496 39.6399 24.1996 39.7499 23.8596C40.2299 22.4196 41.2699 21.1596 42.5999 20.4296C43.1399 20.7596 43.8199 20.6996 44.3499 20.3496C44.8799 19.9996 45.2299 19.4196 45.3999 18.8096C45.4899 18.4896 45.5399 18.1596 45.5399 17.8296C45.5399 17.5296 45.5099 17.2296 45.3899 16.9596C45.1699 16.4396 44.6499 16.0696 44.0899 16.0196C43.5299 15.9696 42.9599 16.2796 42.6599 16.7596C39.0199 16.0796 35.6799 13.8596 33.7399 10.7096C33.6299 11.3796 33.6399 12.0796 33.7599 12.7496C33.0999 12.1696 32.0599 11.9196 31.7699 11.0896C31.8699 11.8196 31.7399 12.5796 31.3899 13.2296C31.1499 13.6796 30.7899 14.1396 30.8499 14.6496C30.8799 14.8696 30.9799 15.0596 31.0399 15.2696C31.3799 16.3596 30.6999 17.4896 30.6799 18.6296C30.6799 19.1196 30.7799 19.5996 30.8899 20.0796C31.0399 20.7196 31.1899 21.3496 31.3399 21.9896C31.4899 22.6096 31.6299 23.2496 31.9299 23.8196C32.6099 25.1396 34.1799 26.0596 35.6699 25.9996L35.6899 26.0096Z" fill="#61666B"></path><path d="M45.1999 30.0305C44.0799 29.3705 43.0799 28.3005 42.8599 27.2305" stroke="#1E3405" stroke-linecap="round" stroke-linejoin="round"></path><path d="M35.4398 27.3097C34.8398 27.4797 32.0398 27.1797 31.0298 26.8597C30.0198 26.5397 29.0498 25.9797 28.3698 25.1697C27.4798 24.1197 27.1098 22.6597 27.3498 21.2997C27.5498 20.1697 28.1298 19.1497 28.4598 18.0497C28.9898 16.2897 28.8398 14.4097 28.9798 12.5797C29.0398 11.7497 29.1698 10.8997 29.5898 10.1797C30.0098 9.45971 30.8498 8.98971 31.6798 9.01971C31.7198 7.80971 32.6498 6.75971 33.7498 6.26971C34.8498 5.77971 36.1098 5.75971 37.3198 5.85971C38.3298 5.93971 39.3498 6.20971 40.3598 6.26971C40.8998 6.29971 41.4298 6.35971 41.9398 6.51971C42.4498 6.67971 42.9898 6.90971 43.4598 7.21971C44.7398 8.06971 45.5598 9.49971 45.8698 10.9997C46.0398 11.8097 46.0698 12.6397 46.1598 13.4697C46.4698 16.3097 47.5098 19.0197 48.7298 21.5997C48.9798 22.1397 49.2498 22.6797 49.3198 23.2797C49.4798 24.7397 48.4198 26.0297 47.0098 26.4697C47.1498 25.8597 47.1798 25.3397 47.0098 24.7397C46.8598 25.7297 46.0098 26.4997 45.0698 26.8397C44.1298 27.1797 43.1098 27.1697 42.1098 27.1597C41.4998 27.1597 41.2298 27.1597 40.3398 27.0297C39.5698 25.9797 39.5098 24.5097 39.9898 23.2997C40.4698 22.0897 41.5298 21.1397 42.6198 20.4197C42.9398 20.7197 43.4398 20.7797 43.8598 20.6397C44.2798 20.4997 44.6198 20.1997 44.8898 19.8497C45.3398 19.2597 45.5998 18.5197 45.6098 17.7797C45.6098 17.4597 45.5798 17.1297 45.4298 16.8497C45.1798 16.3397 44.5998 16.0297 44.0298 16.0497C43.4598 16.0697 42.9698 16.3697 42.6698 16.8597C39.0298 16.1697 35.6798 13.8897 33.7698 10.7197C33.6298 11.4497 33.6098 12.1497 33.7698 12.8697C32.9298 12.4797 32.2298 11.8297 31.7698 11.0197C31.9298 11.8297 31.6898 12.5997 31.3398 13.3497C31.1698 13.7197 30.9298 14.0797 30.9098 14.4897C30.8898 14.9697 31.1698 15.4097 31.2498 15.8797C31.4398 16.9597 30.5898 18.0097 30.7198 19.1097C30.7798 19.5697 30.9998 19.9897 31.1298 20.4297C31.2798 20.9197 31.3098 21.4397 31.4098 21.9497C31.5298 22.5997 31.7498 23.2297 32.0498 23.8097C32.4898 24.6497 33.1398 25.4097 34.0098 25.7997C34.9298 26.2197 36.0098 26.1697 36.9698 25.8697C37.9298 25.5697 38.7998 25.0297 39.6398 24.4697" stroke="#1E3405" stroke-linecap="round" stroke-linejoin="round"></path><path d="M34.9 15.4902C34.9 16.3802 34.57 17.2602 33.97 17.9102C33.77 18.1302 33.54 18.3202 33.38 18.5702C33.22 18.8202 33.14 19.1402 33.27 19.4102C33.42 19.7202 33.79 19.8402 34.14 19.8702C34.46 19.8902 34.79 19.8502 35.1 19.7502" stroke="#1E3405" stroke-linecap="round" stroke-linejoin="round"></path><path d="M37.921 15.9573C37.9238 15.5266 37.6887 15.1758 37.396 15.1739C37.1033 15.172 36.8638 15.5197 36.861 15.9505C36.8582 16.3813 37.0932 16.732 37.3859 16.7339C37.6787 16.7358 37.9182 16.3881 37.921 15.9573Z" fill="#1E3405"></path><path d="M33.1636 16.2749C33.1755 15.8443 32.9479 15.4887 32.6553 15.4806C32.3627 15.4725 32.1159 15.8151 32.104 16.2457C32.0921 16.6763 32.3197 17.0319 32.6123 17.04C32.9049 17.0481 33.1517 16.7055 33.1636 16.2749Z" fill="#1E3405"></path><path d="M34.3398 28.8496C35.1598 27.8396 36.5098 27.4696 37.5998 26.7696C38.4398 26.2196 39.1398 25.4496 39.5998 24.5596C38.4398 25.4196 37.0498 25.8996 35.6198 26.0396C35.6298 27.1096 35.1798 28.1896 34.3398 28.8496Z" fill="#1E3405"></path><path d="M46.04 40.21C45.6 43.09 45.23 46.23 44.96 49.13" stroke="#1E3405" stroke-linecap="round" stroke-linejoin="round"></path><path d="M42.3398 49.1096C42.7198 48.9596 44.7998 46.0696 45.3298 43.8896C45.0998 45.5796 45.0198 47.5596 44.9498 49.2696L42.3398 49.1196V49.1096Z" fill="#1E3405"></path><path d="M13.1001 26.1104C13.2101 27.8504 13.9101 29.7004 15.4601 30.5004C16.5201 31.0404 18.4101 31.0604 19.5801 30.8304C22.0501 30.3504 24.2901 29.1804 26.0601 27.3804" stroke="#1E3405" stroke-linecap="round" stroke-linejoin="round"></path><path d="M42.3398 49.1096C42.7198 48.9596 44.7998 46.0696 45.3298 43.8896C45.0998 45.5796 45.0198 47.5596 44.9498 49.2696L42.3398 49.1196V49.1096Z" fill="#1E3405"></path><path d="M34.04 22.3596C35.23 22.5396 36.49 22.1796 37.39 21.3896" stroke="#1E3405" stroke-linecap="round" stroke-linejoin="round"></path><path d="M13.8301 22.63C14.5101 22.77 15.2201 22.77 15.8801 22.6C16.5401 22.43 17.1701 22.06 17.6301 21.54" stroke="#1E3405" stroke-linecap="round" stroke-linejoin="round"></path></svg>