<svg fill="none" viewBox="0 0 56 56" xmlns="http://www.w3.org/2000/svg"><g clip-path="url(#clip0_2365_20199)"><path opacity="0.2" d="M54.11 44.25C54.11 43.46 53.58 42.77 52.82 42.56L33.16 37.2C30.86 36.6 28.44 36.6 26.14 37.2L9.16002 41.9C8.64002 42.03 8.27002 42.5 8.27002 43.04C8.27002 43.57 8.62002 44.04 9.13002 44.19L29.21 49.45C29.83 49.61 30.47 49.69 31.11 49.69H37.6C37.87 49.69 38.13 49.66 38.39 49.59L52.79 45.95C53.57 45.75 54.11 45.05 54.11 44.25Z" fill="black"></path><path d="M50.8598 43.8207C51.0798 43.5307 51.2098 43.1807 51.2098 42.8107C51.2198 41.9007 51.2098 40.2807 50.8498 40.1907L25.4898 35.9107C25.4898 35.9107 25.4198 35.9007 25.3798 35.8907C24.2898 35.6107 23.1498 35.6107 22.0598 35.8907C21.9998 35.9007 21.9398 35.9207 21.8798 35.9207L3.07977 38.3307C2.73977 38.4207 2.79977 40.0007 2.82977 40.8507C2.83977 41.1907 2.94977 41.5207 3.14977 41.7907C3.39977 42.1507 3.75977 42.4007 4.16977 42.5107L28.5798 48.8907C29.7098 49.1907 30.8998 49.1807 32.0198 48.8907L49.9098 44.4307C50.2798 44.3407 50.6098 44.1207 50.8398 43.8207H50.8598Z" fill="#99CC33"></path><path d="M2.83984 38.541V40.771C2.83984 41.141 2.94984 41.501 3.16984 41.801C3.40984 42.141 3.76984 42.391 4.16984 42.501L28.5898 48.881C29.7198 49.181 30.9098 49.171 32.0298 48.881L49.9198 44.421C50.2898 44.331 50.6098 44.121 50.8398 43.821C51.0698 43.531 51.1898 43.171 51.1898 42.801V40.501" stroke="#1E3300" stroke-linecap="round" stroke-linejoin="round"></path><path d="M50.5 39.5907L25.43 33.0307C24.3 32.7307 23.1 32.7307 21.97 33.0307L3.53996 37.6507C2.59996 37.9007 2.59996 39.2307 3.53996 39.4707L28.59 46.0207C29.72 46.3207 30.91 46.3107 32.03 46.0207L50.49 41.4207C51.43 41.1707 51.43 39.8407 50.49 39.6007L50.5 39.5907Z" fill="#D9EEA8"></path><path d="M50.5 39.5907L25.43 33.0307C24.3 32.7307 23.1 32.7307 21.97 33.0307L3.53996 37.6507C2.59996 37.9007 2.59996 39.2307 3.53996 39.4707L28.59 46.0207C29.72 46.3207 30.91 46.3107 32.03 46.0207L50.49 41.4207C51.43 41.1707 51.43 39.8407 50.49 39.6007L50.5 39.5907Z" stroke="#1E3300" stroke-linecap="round" stroke-linejoin="round"></path><path d="M35.3095 42.3908L16.0195 37.3408" stroke="#1E3300" stroke-linecap="round" stroke-linejoin="round"></path><path d="M41.4297 41.111L20.9497 35.751" stroke="#1E3300" stroke-linecap="round" stroke-linejoin="round"></path><path d="M43.6396 38.7904L26.7496 34.3704C26.4296 34.2904 26.1696 34.0404 26.0696 33.7304L25.8896 33.1504L46.6396 38.5904L45.3596 38.8504C44.7896 38.9704 44.1996 38.9504 43.6297 38.8004L43.6396 38.7904Z" fill="#1E3300" stroke="#1E3300" stroke-linecap="round" stroke-linejoin="round"></path><path d="M16.87 8.01045L21.24 29.9505C21.45 31.2005 22.55 32.4105 23.78 32.7205L50.61 39.6004C51.67 39.8704 52.42 39.1705 52.24 38.0905L47.87 16.1504C47.66 14.9004 46.56 13.6904 45.33 13.3804L18.5 6.50045C17.44 6.23045 16.69 6.93045 16.87 8.01045Z" fill="white"></path><path d="M38.6701 20.8505L22.6001 16.7305" stroke="#B2BBC3" stroke-miterlimit="10" stroke-linecap="round"></path><path d="M40.0402 26.3309L23.9702 22.2109" stroke="#B2BBC3" stroke-miterlimit="10" stroke-linecap="round"></path><path d="M41.4299 32.0604L25.3599 27.9404" stroke="#B2BBC3" stroke-miterlimit="10" stroke-linecap="round"></path><path d="M43.2397 19.9407C44.1797 20.6107 44.6397 21.9107 44.2597 22.8407C43.8797 23.7707 42.8097 23.9807 41.8697 23.3007C40.9297 22.6207 40.4697 21.3307 40.8497 20.4007C41.2297 19.4707 42.2997 19.2607 43.2397 19.9407Z" fill="#497E17"></path><path d="M44.7202 25.3909C45.6602 26.0609 46.1202 27.3609 45.7402 28.2909C45.3602 29.2209 44.2902 29.4309 43.3502 28.7509C42.4102 28.0809 41.9502 26.7809 42.3302 25.8509C42.7102 24.9209 43.7802 24.7109 44.7202 25.3909Z" fill="#99CC33"></path><path d="M46.2002 30.9202C47.1402 31.5902 47.6002 32.8902 47.2202 33.8202C46.8402 34.7502 45.7702 34.9602 44.8302 34.2802C43.8902 33.6102 43.4302 32.3102 43.8102 31.3802C44.1902 30.4502 45.2602 30.2402 46.2002 30.9202Z" fill="#D9EEA8"></path><path d="M16.87 8.01045L21.24 29.9505C21.45 31.2005 22.55 32.4105 23.78 32.7205L50.61 39.6004C51.67 39.8704 52.42 39.1705 52.24 38.0905L47.87 16.1504C47.66 14.9004 46.56 13.6904 45.33 13.3804L18.5 6.50045C17.44 6.23045 16.69 6.93045 16.87 8.01045Z" stroke="#1E3300" stroke-linecap="round" stroke-linejoin="round"></path><path d="M27.7497 12.7703L26.9097 8.58027L20.9897 7.03027L21.8297 11.2203L27.7497 12.7703Z" fill="#1E3300"></path></g><defs><clipPath id="clip0_2365_20199"><rect width="56" height="56" fill="white"></rect></clipPath></defs></svg>