<svg fill="none" viewBox="0 0 56 56" xmlns="http://www.w3.org/2000/svg" class="css-1jxvrpq e1ig6ntm0"><path opacity="0.2" d="M53.0402 41.82C53.0402 39.35 48.1702 37.35 42.1602 37.35C36.1502 37.35 31.2802 39.35 31.2802 41.82C31.2802 42.23 31.4202 42.63 31.6702 43.01L26.2802 44.05C25.6002 44.18 25.2302 43.76 25.4502 43.11C25.6702 42.46 26.4102 41.83 27.0902 41.7L29.7402 41.19C30.1802 41.11 30.6502 40.7 30.8002 40.28C30.9402 39.86 30.7102 39.59 30.2702 39.67L27.6002 40.19C26.0402 40.49 24.3602 41.94 23.8502 43.43C23.3402 44.92 24.1802 45.88 25.7402 45.58L32.8902 44.16C33.3902 44.49 34.0002 44.8 34.6902 45.07C34.4302 45.44 34.2902 45.83 34.3402 46.22C34.5102 47.89 37.7002 48.92 41.4502 48.53C44.5402 48.21 47.0502 47.02 47.7402 45.68C50.9302 44.9 53.0602 43.47 53.0602 41.84L53.0402 41.82Z" fill="black"/><path opacity="0.2" d="M26.4602 36.7L5.77023 42.1199C4.98023 42.3299 4.98023 43.4199 5.77023 43.6199L15.0802 46.08C15.3402 46.15 15.6102 46.18 15.8802 46.18H18.6202C18.7302 46.18 18.8402 46.1699 18.9502 46.1399L40.9702 40.3699C41.3102 40.2799 41.3102 39.81 40.9702 39.72L29.4202 36.7C28.4502 36.45 27.4302 36.45 26.4602 36.7Z" fill="black"/><path d="M5.18018 32.21L27.0302 26.54L37.0702 29.15L15.1702 34.82L5.18018 32.21Z" fill="white"/><path d="M12.3301 31.7001L28.1301 27.55L32.7601 28.75L16.9401 32.91L12.3301 31.7001Z" fill="#99CC33"/><path d="M37.0699 29.15V39.92L15.1699 45.59V34.82L37.0699 29.15Z" fill="#D9EEA8"/><path d="M5.18018 32.21V42.97L15.1702 45.59V34.82L5.18018 32.21Z" fill="white"/><path d="M5.18018 32.21L27.0302 26.54L37.0702 29.15L15.1702 34.82L5.18018 32.21Z" stroke="#1E3300" stroke-linecap="round" stroke-linejoin="round"/><path d="M37.0702 32.74L15.1702 38.41L5.18018 35.79" stroke="#1E3300" stroke-linecap="round" stroke-linejoin="round"/><path d="M37.0702 36.3199L15.1702 41.9899L5.18018 39.3799" stroke="#1E3300" stroke-linecap="round" stroke-linejoin="round"/><path d="M37.0699 29.15V39.92L15.1699 45.59V34.82L37.0699 29.15Z" stroke="#1E3300" stroke-linecap="round" stroke-linejoin="round"/><path d="M5.18018 32.21V42.97L15.1702 45.59V34.82L5.18018 32.21Z" stroke="#1E3300" stroke-linecap="round" stroke-linejoin="round"/><path d="M19.9199 28.4L29.8899 30.99C29.9199 31.12 29.8899 41.76 29.8899 41.76L23.0799 43.53C23.0799 43.53 23.1099 32.89 23.0799 32.76L13.1099 30.16L19.9199 28.39V28.4Z" fill="#B2BBC3"/><path d="M20.6001 44.28C21.3101 42.53 21.4901 41.28 21.5901 39.39C21.6201 38.81 21.6101 38.92 21.6301 38.76C21.7201 37.91 22.1501 37.14 22.9701 36.9L23.1901 36.85C23.1501 40.44 23.0901 40.07 23.0501 43.65L20.6001 44.29V44.28Z" fill="#1E3300"/><path d="M23.0799 32.76L13.1099 30.17L19.9199 28.4L29.8899 30.99L23.0799 32.76Z" fill="white"/><path d="M19.9199 28.4L29.8899 30.99C29.9199 31.12 29.8899 41.76 29.8899 41.76L23.0799 43.53C23.0799 43.53 23.1099 32.89 23.0799 32.76L13.1099 30.16L19.9199 28.39V28.4Z" stroke="#1E3300" stroke-linecap="round" stroke-linejoin="round"/><path d="M23.0801 32.76L29.8901 30.99" stroke="#1E3300" stroke-linecap="round" stroke-linejoin="round"/><path d="M48.6601 40.12V42.82C48.6601 44.4 46.0601 45.67 42.8601 45.67C39.6501 45.67 37.0601 44.39 37.0601 42.82V40.12H48.6701H48.6601Z" fill="#B2BBC3"/><path d="M48.6601 40.12V42.82C48.6601 44.4 46.0601 45.67 42.8601 45.67C39.6501 45.67 37.0601 44.39 37.0601 42.82V40.12" stroke="#1E3300" stroke-linecap="round" stroke-linejoin="round"/><path d="M42.8498 42.97C46.0531 42.97 48.6498 41.694 48.6498 40.12C48.6498 38.546 46.0531 37.27 42.8498 37.27C39.6466 37.27 37.0498 38.546 37.0498 40.12C37.0498 41.694 39.6466 42.97 42.8498 42.97Z" fill="white"/><path d="M42.8498 42.97C46.0531 42.97 48.6498 41.694 48.6498 40.12C48.6498 38.546 46.0531 37.27 42.8498 37.27C39.6466 37.27 37.0498 38.546 37.0498 40.12C37.0498 41.694 39.6466 42.97 42.8498 42.97Z" stroke="#1E3300" stroke-linecap="round" stroke-linejoin="round"/><path d="M48.6601 37.42V40.12C48.6601 41.7 46.0601 42.97 42.8601 42.97C39.6501 42.97 37.0601 41.69 37.0601 40.12V37.42H48.6701H48.6601Z" fill="#B2BBC3"/><path d="M48.6601 37.42V40.12C48.6601 41.7 46.0601 42.97 42.8601 42.97C39.6501 42.97 37.0601 41.69 37.0601 40.12V37.42" stroke="#1E3300" stroke-linecap="round" stroke-linejoin="round"/><path d="M42.8498 40.2699C46.0531 40.2699 48.6498 38.994 48.6498 37.4199C48.6498 35.8459 46.0531 34.5699 42.8498 34.5699C39.6466 34.5699 37.0498 35.8459 37.0498 37.4199C37.0498 38.994 39.6466 40.2699 42.8498 40.2699Z" fill="white"/><path d="M42.8498 40.2699C46.0531 40.2699 48.6498 38.994 48.6498 37.4199C48.6498 35.8459 46.0531 34.5699 42.8498 34.5699C39.6466 34.5699 37.0498 35.8459 37.0498 37.4199C37.0498 38.994 39.6466 40.2699 42.8498 40.2699Z" stroke="#1E3300" stroke-linecap="round" stroke-linejoin="round"/><path d="M48.6601 34.72V37.42C48.6601 39 46.0601 40.27 42.8601 40.27C39.6501 40.27 37.0601 38.99 37.0601 37.42V34.72H48.6701H48.6601Z" fill="#B2BBC3"/><path d="M48.6601 34.72V37.42C48.6601 39 46.0601 40.27 42.8601 40.27C39.6501 40.27 37.0601 38.99 37.0601 37.42V34.72" stroke="#1E3300" stroke-linecap="round" stroke-linejoin="round"/><path d="M42.8498 37.57C46.0531 37.57 48.6498 36.294 48.6498 34.72C48.6498 33.146 46.0531 31.87 42.8498 31.87C39.6466 31.87 37.0498 33.146 37.0498 34.72C37.0498 36.294 39.6466 37.57 42.8498 37.57Z" fill="white"/><path d="M42.8498 37.57C46.0531 37.57 48.6498 36.294 48.6498 34.72C48.6498 33.146 46.0531 31.87 42.8498 31.87C39.6466 31.87 37.0498 33.146 37.0498 34.72C37.0498 36.294 39.6466 37.57 42.8498 37.57Z" stroke="#1E3300" stroke-linecap="round" stroke-linejoin="round"/><path d="M48.6601 32.02V34.72C48.6601 36.3 46.0601 37.57 42.8601 37.57C39.6501 37.57 37.0601 36.29 37.0601 34.72V32.02H48.6701H48.6601Z" fill="#B2BBC3"/><path d="M48.6601 32.02V34.72C48.6601 36.3 46.0601 37.57 42.8601 37.57C39.6501 37.57 37.0601 36.29 37.0601 34.72V32.02" stroke="#1E3300" stroke-linecap="round" stroke-linejoin="round"/><path d="M42.8498 34.87C46.0531 34.87 48.6498 33.5941 48.6498 32.02C48.6498 30.446 46.0531 29.17 42.8498 29.17C39.6466 29.17 37.0498 30.446 37.0498 32.02C37.0498 33.5941 39.6466 34.87 42.8498 34.87Z" fill="white"/><path d="M42.8498 34.87C46.0531 34.87 48.6498 33.5941 48.6498 32.02C48.6498 30.446 46.0531 29.17 42.8498 29.17C39.6466 29.17 37.0498 30.446 37.0498 32.02C37.0498 33.5941 39.6466 34.87 42.8498 34.87Z" stroke="#1E3300" stroke-linecap="round" stroke-linejoin="round"/><path d="M48.6601 29.3199V32.0199C48.6601 33.5999 46.0601 34.8699 42.8601 34.8699C39.6501 34.8699 37.0601 33.5899 37.0601 32.0199V29.3199H48.6701H48.6601Z" fill="#B2BBC3"/><path d="M48.6601 29.3199V32.0199C48.6601 33.5999 46.0601 34.8699 42.8601 34.8699C39.6501 34.8699 37.0601 33.5899 37.0601 32.0199V29.3199" stroke="#1E3300" stroke-linecap="round" stroke-linejoin="round"/><path d="M42.8498 32.17C46.0531 32.17 48.6498 30.894 48.6498 29.32C48.6498 27.746 46.0531 26.47 42.8498 26.47C39.6466 26.47 37.0498 27.746 37.0498 29.32C37.0498 30.894 39.6466 32.17 42.8498 32.17Z" fill="white"/><path d="M42.8498 32.17C46.0531 32.17 48.6498 30.894 48.6498 29.32C48.6498 27.746 46.0531 26.47 42.8498 26.47C39.6466 26.47 37.0498 27.746 37.0498 29.32C37.0498 30.894 39.6466 32.17 42.8498 32.17Z" stroke="#1E3300" stroke-linecap="round" stroke-linejoin="round"/><path d="M51.6601 25.62V28.32C51.6601 29.9 49.0601 31.17 45.8601 31.17C42.6501 31.17 40.0601 29.89 40.0601 28.32V25.62H51.6701H51.6601Z" fill="#B2BBC3"/><path d="M51.6601 25.62V28.32C51.6601 29.9 49.0601 31.17 45.8601 31.17C42.6501 31.17 40.0601 29.89 40.0601 28.32V25.62" stroke="#1E3300" stroke-linecap="round" stroke-linejoin="round"/><path d="M45.8498 28.47C49.0531 28.47 51.6498 27.194 51.6498 25.62C51.6498 24.046 49.0531 22.77 45.8498 22.77C42.6466 22.77 40.0498 24.046 40.0498 25.62C40.0498 27.194 42.6466 28.47 45.8498 28.47Z" fill="white"/><path d="M45.8498 28.47C49.0531 28.47 51.6498 27.194 51.6498 25.62C51.6498 24.046 49.0531 22.77 45.8498 22.77C42.6466 22.77 40.0498 24.046 40.0498 25.62C40.0498 27.194 42.6466 28.47 45.8498 28.47Z" stroke="#1E3300" stroke-linecap="round" stroke-linejoin="round"/><path d="M51.6601 22.92V25.62C51.6601 27.2 49.0601 28.47 45.8601 28.47C42.6501 28.47 40.0601 27.19 40.0601 25.62V22.92H51.6701H51.6601Z" fill="#B2BBC3"/><path d="M51.6601 22.92V25.62C51.6601 27.2 49.0601 28.47 45.8601 28.47C42.6501 28.47 40.0601 27.19 40.0601 25.62V22.92" stroke="#1E3300" stroke-linecap="round" stroke-linejoin="round"/><path d="M45.8498 25.7699C49.0531 25.7699 51.6498 24.494 51.6498 22.9199C51.6498 21.3459 49.0531 20.0699 45.8498 20.0699C42.6466 20.0699 40.0498 21.3459 40.0498 22.9199C40.0498 24.494 42.6466 25.7699 45.8498 25.7699Z" fill="white"/><path d="M45.8498 25.7699C49.0531 25.7699 51.6498 24.494 51.6498 22.9199C51.6498 21.3459 49.0531 20.0699 45.8498 20.0699C42.6466 20.0699 40.0498 21.3459 40.0498 22.9199C40.0498 24.494 42.6466 25.7699 45.8498 25.7699Z" stroke="#1E3300" stroke-linecap="round" stroke-linejoin="round"/><path d="M41.4701 44.5V47.2C41.4701 48.78 38.8701 50.05 35.6701 50.05C32.4601 50.05 29.8701 48.77 29.8701 47.2V44.5H41.4801H41.4701Z" fill="#B2BBC3"/><path d="M41.4701 44.5V47.2C41.4701 48.78 38.8701 50.05 35.6701 50.05C32.4601 50.05 29.8701 48.77 29.8701 47.2V44.5" stroke="#1E3300" stroke-linecap="round" stroke-linejoin="round"/><path d="M35.6701 47.35C38.8734 47.35 41.4701 46.074 41.4701 44.5C41.4701 42.926 38.8734 41.65 35.6701 41.65C32.4669 41.65 29.8701 42.926 29.8701 44.5C29.8701 46.074 32.4669 47.35 35.6701 47.35Z" fill="white"/><path d="M35.6701 47.35C38.8734 47.35 41.4701 46.074 41.4701 44.5C41.4701 42.926 38.8734 41.65 35.6701 41.65C32.4669 41.65 29.8701 42.926 29.8701 44.5C29.8701 46.074 32.4669 47.35 35.6701 47.35Z" stroke="#1E3300" stroke-linecap="round" stroke-linejoin="round"/><path d="M41.4701 41.85V44.55C41.4701 46.13 38.8701 47.4 35.6701 47.4C32.4601 47.4 29.8701 46.12 29.8701 44.55V41.85H41.4801H41.4701Z" fill="#B2BBC3"/><path d="M41.4701 41.85V44.55C41.4701 46.13 38.8701 47.4 35.6701 47.4C32.4601 47.4 29.8701 46.12 29.8701 44.55V41.85" stroke="#1E3300" stroke-linecap="round" stroke-linejoin="round"/><path d="M35.6701 44.7C38.8734 44.7 41.4701 43.424 41.4701 41.85C41.4701 40.276 38.8734 39 35.6701 39C32.4669 39 29.8701 40.276 29.8701 41.85C29.8701 43.424 32.4669 44.7 35.6701 44.7Z" fill="white"/><path d="M35.6701 44.7C38.8734 44.7 41.4701 43.424 41.4701 41.85C41.4701 40.276 38.8734 39 35.6701 39C32.4669 39 29.8701 40.276 29.8701 41.85C29.8701 43.424 32.4669 44.7 35.6701 44.7Z" stroke="#1E3300" stroke-linecap="round" stroke-linejoin="round"/><path d="M41.4701 39.1899V41.8899C41.4701 43.4699 38.8701 44.7399 35.6701 44.7399C32.4601 44.7399 29.8701 43.4599 29.8701 41.8899V39.1899H41.4801H41.4701Z" fill="#B2BBC3"/><path d="M41.4701 39.1899V41.8899C41.4701 43.4699 38.8701 44.7399 35.6701 44.7399C32.4601 44.7399 29.8701 43.4599 29.8701 41.8899V39.1899" stroke="#1E3300" stroke-linecap="round" stroke-linejoin="round"/><path d="M35.6701 42.04C38.8734 42.04 41.4701 40.764 41.4701 39.19C41.4701 37.616 38.8734 36.34 35.6701 36.34C32.4669 36.34 29.8701 37.616 29.8701 39.19C29.8701 40.764 32.4669 42.04 35.6701 42.04Z" fill="white"/><path d="M35.6701 42.04C38.8734 42.04 41.4701 40.764 41.4701 39.19C41.4701 37.616 38.8734 36.34 35.6701 36.34C32.4669 36.34 29.8701 37.616 29.8701 39.19C29.8701 40.764 32.4669 42.04 35.6701 42.04Z" stroke="#1E3300" stroke-linecap="round" stroke-linejoin="round"/><path d="M29.8502 16.21V41.86C29.8502 43.91 28.1902 45.57 26.1402 45.57C24.0902 45.57 22.4302 43.91 22.4302 41.86V38.35C22.4302 37.77 22.9002 37.31 23.4702 37.31C24.0502 37.31 24.5102 37.78 24.5102 38.35V41.83C24.5102 42.72 25.2302 43.45 26.1302 43.45C27.0202 43.45 27.7502 42.73 27.7502 41.83V16.22H29.8402L29.8502 16.21Z" fill="#B2BBC3"/><path d="M29.8502 16.21V41.86C29.8502 43.91 28.1902 45.57 26.1402 45.57C24.0902 45.57 22.4302 43.91 22.4302 41.86V38.35C22.4302 37.77 22.9002 37.31 23.4702 37.31C24.0502 37.31 24.5102 37.78 24.5102 38.35V41.83C24.5102 42.72 25.2302 43.45 26.1302 43.45C27.0202 43.45 27.7502 42.73 27.7502 41.83V16.22H29.8402L29.8502 16.21Z" stroke="#1E3300" stroke-linecap="round" stroke-linejoin="round"/><path d="M27.71 29.8L27.85 32.93C28.18 31.76 28.95 30.72 29.97 30.06V24.97H27.76L27.71 29.8Z" fill="#1E3200"/><path d="M38.4699 18.47C40.9099 21.28 42.8899 24.46 44.7899 27.66C45.5899 24.9 47.4799 22.47 49.9499 21C49.8799 21.04 46.8599 18.33 46.5299 18.09C45.3299 17.19 44.0799 16.37 42.7799 15.63C40.1499 14.13 37.3399 12.96 34.4099 12.19C32.8199 11.77 31.0799 11.33 29.4399 11.3C29.5199 11.93 30.9599 12.3 31.4399 12.57C32.3299 13.07 33.1899 13.63 34.0099 14.25C35.6499 15.49 37.1299 16.92 38.4799 18.48L38.4699 18.47Z" fill="#D8ECA3"/><path d="M21.7002 30.76C25.9102 28.63 31.2102 28.84 35.2302 31.3C35.0202 31.18 34.9402 29.64 34.8902 29.36C34.7602 28.68 34.6302 27.99 34.4902 27.31C34.2102 25.98 33.9002 24.67 33.5602 23.36C32.8502 20.7 31.9902 18.08 30.9002 15.55C30.2902 14.13 29.5902 12.76 28.8502 11.4C28.5302 11.78 28.3202 12.44 28.0702 12.9C27.7502 13.5 27.4402 14.1 27.1402 14.71C26.5302 15.94 25.9602 17.19 25.4302 18.46C24.3702 21 23.4802 23.61 22.7602 26.26C22.3602 27.75 22.0102 29.25 21.7202 30.76H21.7002Z" fill="white"/><path d="M8.1201 21.01C10.0001 22.24 11.4301 24.15 12.0801 26.3C14.9401 22.3 17.8601 18.23 21.8401 15.33C23.1501 14.38 24.5601 13.57 25.9601 12.76C26.2001 12.62 28.0301 11.79 27.1401 11.5C26.8701 11.41 26.3001 11.61 26.0201 11.66C25.6301 11.72 25.2401 11.8 24.8501 11.87C23.3101 12.18 21.7901 12.61 20.3101 13.15C17.3601 14.22 14.5701 15.71 12.0501 17.57C11.3401 18.09 10.6601 18.64 9.9901 19.22C9.6501 19.51 9.3201 19.81 9.0001 20.12C8.8601 20.26 8.2701 21.01 8.1001 21.01H8.1201Z" fill="#D8ECA3"/><path d="M29.1599 11.77C32.0899 17.88 34.0899 24.44 35.0699 31.14C37.6399 28.56 41.2599 27.38 44.8799 27.78C43.0899 24.39 40.9399 21.18 38.3299 18.37C35.7199 15.56 32.6099 13.43 29.1499 11.76L29.1599 11.77Z" fill="#99CC33"/><path d="M12.04 26.7C15.58 26.7 19.11 28.07 21.71 30.46C21.57 30.34 22.05 28.8 22.1 28.57C22.24 27.93 22.39 27.29 22.56 26.66C22.89 25.38 23.25 24.11 23.66 22.85C24.47 20.35 25.44 17.89 26.57 15.51C26.89 14.84 27.21 14.18 27.55 13.52C27.84 12.96 28.38 12.29 28.51 11.69C28.11 11.59 27.25 12.22 26.89 12.4C26.22 12.75 25.57 13.11 24.92 13.5C23.62 14.28 22.38 15.14 21.19 16.07C18.82 17.93 16.68 20.09 14.84 22.47C13.81 23.81 12.87 25.22 12.04 26.69V26.7Z" fill="#99CC33"/><path d="M14.1801 12.73C13.5301 13.19 12.9201 13.72 12.4501 14.36C11.3201 15.9 11.0901 17.97 9.89014 19.45C10.7101 18.44 12.0501 17.61 13.1101 16.87C14.2701 16.06 15.4901 15.33 16.7501 14.69C19.2401 13.42 21.8901 12.48 24.6201 11.9C26.0001 11.61 27.4401 11.58 28.8101 11.3C25.0001 10.31 21.2701 9.62999 17.4401 11.01C16.2801 11.43 15.1801 12 14.1801 12.72V12.73Z" fill="#99CC33"/><path d="M46.63 16.9401C46.21 16.1401 45.94 15.3001 45.78 14.4301C45.65 14.3601 45.52 14.3001 45.39 14.2301C44.68 13.8301 44.02 13.3501 43.41 12.8201C42.03 12.2201 41.3 11.8101 40.03 10.7301C36.51 9.73006 33.05 10.3801 29.54 11.2901C30.91 11.5701 32.35 11.6001 33.73 11.8901C36.46 12.4601 39.12 13.4001 41.6 14.6801C42.86 15.3201 44.08 16.0501 45.24 16.8601C45.85 17.2801 46.55 17.7401 47.19 18.2401C46.97 17.8201 46.78 17.3901 46.63 16.9301V16.9401Z" fill="#99CC33"/><path d="M45.7802 14.64C46.1602 17.22 48.0502 19.27 50.0002 21.11C47.4602 22.38 45.5502 24.94 44.9002 27.7C41.3402 27.33 37.6202 28.62 35.2302 31.27C31.2802 28.73 25.8002 28.62 21.6902 30.89C19.4902 27.97 15.6802 26.36 12.0502 26.8C11.8602 24.37 10.1002 22.12 7.91016 21.03C10.0702 19.38 11.4102 17.08 12.2202 14.47C16.9102 10.63 22.9102 8.12005 28.9802 8.15005C35.0502 8.18005 41.1202 10.75 45.7802 14.64Z" stroke="#1E3300" stroke-linecap="round" stroke-linejoin="round"/><path d="M21.6898 30.88C22.8498 23.99 25.3498 17.45 28.8398 11.39C21.7798 14.37 15.6098 20 12.0498 26.79" stroke="#1E3300" stroke-linecap="round" stroke-linejoin="round"/><path d="M28.7302 11.4301C20.8802 11.5901 13.6002 16.0601 7.91016 21.0301" stroke="#1E3300" stroke-linecap="round" stroke-linejoin="round"/><path d="M28.7302 11.34C25.4802 10.41 22.0302 9.92003 18.7002 10.44" stroke="#1E3300" stroke-linecap="round" stroke-linejoin="round"/><path d="M35.2301 31.27C34.0701 24.38 32.3101 17.46 28.8301 11.39C35.8901 14.37 41.3501 20.9 44.9001 27.69" stroke="#1E3300" stroke-linecap="round" stroke-linejoin="round"/><path d="M28.9302 11.4301C36.7802 11.5901 44.0702 15.1401 50.0002 21.1101" stroke="#1E3300" stroke-linecap="round" stroke-linejoin="round"/><path d="M28.9302 11.34C32.1802 10.41 35.9802 10.03 39.3202 10.55" stroke="#1E3300" stroke-linecap="round" stroke-linejoin="round"/><path d="M27.1998 10.88C27.7598 10.99 28.3598 11.43 28.9298 11.43C29.5698 11.43 30.1698 10.97 30.7998 10.84C33.1398 10.36 36.4098 10.26 38.7898 10.32C38.5198 10.32 37.3998 9.68002 37.1398 9.57002C36.7598 9.40002 36.1598 9.41002 35.7698 9.27002C35.0098 8.99002 34.2298 8.76002 33.4398 8.57002C31.8598 8.20002 30.2298 8.02002 28.6098 8.02002C26.9898 8.02002 25.3998 8.22002 23.8298 8.59002C23.0398 8.78002 22.2598 9.02002 21.4998 9.30002C21.0498 9.47002 19.3398 10.31 19.3398 10.31C19.3398 10.31 22.9698 10.34 23.9898 10.44C25.0098 10.54 26.1298 10.68 27.1898 10.88H27.1998Z" fill="#1E3200"/><path d="M29.97 6.17004V11.05C29.97 11.35 29.46 11.59 28.84 11.59C28.22 11.59 27.71 11.35 27.71 11.05V6.17004" fill="white"/><path d="M29.97 6.17004V11.05C29.97 11.35 29.46 11.59 28.84 11.59C28.22 11.59 27.71 11.35 27.71 11.05V6.17004" stroke="#1E3300" stroke-linecap="round" stroke-linejoin="round"/><path d="M28.84 6.71C29.464 6.71 29.97 6.46824 29.97 6.17C29.97 5.87177 29.464 5.63 28.84 5.63C28.2159 5.63 27.71 5.87177 27.71 6.17C27.71 6.46824 28.2159 6.71 28.84 6.71Z" fill="#1E3300" stroke="#1E3300" stroke-linecap="round" stroke-linejoin="round"/><path d="M30.0102 29.32C29.9002 29.76 29.8902 30.22 29.9802 30.66C30.6402 30.66 31.3102 30.55 31.9202 30.31C31.3402 29.92 30.7302 29.57 30.1002 29.26" fill="#1E3200"/></svg>