<svg fill="none" viewBox="0 0 56 56" xmlns="http://www.w3.org/2000/svg" class="css-1jxvrpq e1ig6ntm0"><path opacity="0.2" d="M45.6468 40.8468C48.8426 40.6278 51.346 39.1773 51.2384 37.607C51.1308 36.0366 48.4529 34.9411 45.2571 35.1601C42.0614 35.3791 39.5579 36.8296 39.6655 38.4C39.7731 39.9703 42.451 41.0658 45.6468 40.8468Z" fill="black"/><path opacity="0.2" d="M17.5467 40.4689C20.7425 40.2499 23.2459 38.7994 23.1383 37.229C23.0307 35.6587 20.3528 34.5632 17.157 34.7822C13.9613 35.0012 11.4578 36.4517 11.5654 38.022C11.673 39.5924 14.351 40.6879 17.5467 40.4689Z" fill="black"/><path opacity="0.2" d="M9.03021 43.72C7.05021 45.02 7.16021 46.94 9.28021 48.01C11.4002 49.08 14.7202 48.88 16.7102 47.58C18.7002 46.28 18.5802 44.36 16.4602 43.29C14.3402 42.22 11.0202 42.42 9.03021 43.72Z" fill="black"/><path opacity="0.2" d="M54.9698 47.0302C54.9698 46.0402 54.2998 45.1702 53.3498 44.9202L24.3898 37.2502C22.3698 36.7102 20.2398 36.6902 18.2098 37.2002L10.3898 39.2102C8.73977 39.6302 8.72977 41.9602 10.3698 42.4002L40.1298 50.2602C40.6798 50.4102 41.2398 50.4802 41.7998 50.4902L47.5198 50.5302C47.7498 50.5302 47.9898 50.5002 48.2098 50.4502L53.3298 49.1402C54.2998 48.8902 54.9698 48.0202 54.9698 47.0302Z" fill="black"/><path d="M19.56 32.2197V34.9197C19.56 36.4997 16.96 37.7697 13.76 37.7697C10.55 37.7697 7.95996 36.4897 7.95996 34.9197V32.2197H19.57H19.56Z" fill="#B2BBC3"/><path d="M19.56 32.2197V34.9197C19.56 36.4997 16.96 37.7697 13.76 37.7697C10.55 37.7697 7.95996 36.4897 7.95996 34.9197V32.2197" stroke="#1E3300" stroke-linecap="round" stroke-linejoin="round"/><path d="M13.76 35.0701C16.9632 35.0701 19.56 33.7941 19.56 32.2201C19.56 30.6461 16.9632 29.3701 13.76 29.3701C10.5567 29.3701 7.95996 30.6461 7.95996 32.2201C7.95996 33.7941 10.5567 35.0701 13.76 35.0701Z" fill="white"/><path d="M13.76 35.0701C16.9632 35.0701 19.56 33.7941 19.56 32.2201C19.56 30.6461 16.9632 29.3701 13.76 29.3701C10.5567 29.3701 7.95996 30.6461 7.95996 32.2201C7.95996 33.7941 10.5567 35.0701 13.76 35.0701Z" stroke="#1E3300" stroke-linecap="round" stroke-linejoin="round"/><path d="M19.56 29.5195V32.2195C19.56 33.7995 16.96 35.0695 13.76 35.0695C10.55 35.0695 7.95996 33.7895 7.95996 32.2195V29.5195H19.57H19.56Z" fill="#B2BBC3"/><path d="M19.56 29.5195V32.2195C19.56 33.7995 16.96 35.0695 13.76 35.0695C10.55 35.0695 7.95996 33.7895 7.95996 32.2195V29.5195" stroke="#1E3300" stroke-linecap="round" stroke-linejoin="round"/><path d="M13.76 32.3699C16.9632 32.3699 19.56 31.0939 19.56 29.5199C19.56 27.9459 16.9632 26.6699 13.76 26.6699C10.5567 26.6699 7.95996 27.9459 7.95996 29.5199C7.95996 31.0939 10.5567 32.3699 13.76 32.3699Z" fill="white"/><path d="M13.76 32.3699C16.9632 32.3699 19.56 31.0939 19.56 29.5199C19.56 27.9459 16.9632 26.6699 13.76 26.6699C10.5567 26.6699 7.95996 27.9459 7.95996 29.5199C7.95996 31.0939 10.5567 32.3699 13.76 32.3699Z" stroke="#1E3300" stroke-linecap="round" stroke-linejoin="round"/><path d="M19.56 26.8203V29.5203C19.56 31.1003 16.96 32.3703 13.76 32.3703C10.55 32.3703 7.95996 31.0903 7.95996 29.5203V26.8203H19.57H19.56Z" fill="#B2BBC3"/><path d="M19.56 26.8203V29.5203C19.56 31.1003 16.96 32.3703 13.76 32.3703C10.55 32.3703 7.95996 31.0903 7.95996 29.5203V26.8203" stroke="#1E3300" stroke-linecap="round" stroke-linejoin="round"/><path d="M13.76 29.6697C16.9632 29.6697 19.56 28.3937 19.56 26.8197C19.56 25.2457 16.9632 23.9697 13.76 23.9697C10.5567 23.9697 7.95996 25.2457 7.95996 26.8197C7.95996 28.3937 10.5567 29.6697 13.76 29.6697Z" fill="white"/><path d="M13.76 29.6697C16.9632 29.6697 19.56 28.3937 19.56 26.8197C19.56 25.2457 16.9632 23.9697 13.76 23.9697C10.5567 23.9697 7.95996 25.2457 7.95996 26.8197C7.95996 28.3937 10.5567 29.6697 13.76 29.6697Z" stroke="#1E3300" stroke-linecap="round" stroke-linejoin="round"/><path d="M19.56 24.1201V26.8201C19.56 28.4001 16.96 29.6701 13.76 29.6701C10.55 29.6701 7.95996 28.3901 7.95996 26.8201V24.1201H19.57H19.56Z" fill="#B2BBC3"/><path d="M19.56 24.1201V26.8201C19.56 28.4001 16.96 29.6701 13.76 29.6701C10.55 29.6701 7.95996 28.3901 7.95996 26.8201V24.1201" stroke="#1E3300" stroke-linecap="round" stroke-linejoin="round"/><path d="M13.76 26.9695C16.9632 26.9695 19.56 25.6935 19.56 24.1195C19.56 22.5455 16.9632 21.2695 13.76 21.2695C10.5567 21.2695 7.95996 22.5455 7.95996 24.1195C7.95996 25.6935 10.5567 26.9695 13.76 26.9695Z" fill="white"/><path d="M13.76 26.9695C16.9632 26.9695 19.56 25.6935 19.56 24.1195C19.56 22.5455 16.9632 21.2695 13.76 21.2695C10.5567 21.2695 7.95996 22.5455 7.95996 24.1195C7.95996 25.6935 10.5567 26.9695 13.76 26.9695Z" stroke="#1E3300" stroke-linecap="round" stroke-linejoin="round"/><path d="M19.56 21.4199V24.1199C19.56 25.6999 16.96 26.9699 13.76 26.9699C10.55 26.9699 7.95996 25.6899 7.95996 24.1199V21.4199H19.57H19.56Z" fill="#B2BBC3"/><path d="M19.56 21.4199V24.1199C19.56 25.6999 16.96 26.9699 13.76 26.9699C10.55 26.9699 7.95996 25.6899 7.95996 24.1199V21.4199" stroke="#1E3300" stroke-linecap="round" stroke-linejoin="round"/><path d="M13.76 24.2703C16.9632 24.2703 19.56 22.9943 19.56 21.4203C19.56 19.8463 16.9632 18.5703 13.76 18.5703C10.5567 18.5703 7.95996 19.8463 7.95996 21.4203C7.95996 22.9943 10.5567 24.2703 13.76 24.2703Z" fill="white"/><path d="M13.76 24.2703C16.9632 24.2703 19.56 22.9943 19.56 21.4203C19.56 19.8463 16.9632 18.5703 13.76 18.5703C10.5567 18.5703 7.95996 19.8463 7.95996 21.4203C7.95996 22.9943 10.5567 24.2703 13.76 24.2703Z" stroke="#1E3300" stroke-linecap="round" stroke-linejoin="round"/><path d="M19.56 18.7197V21.4197C19.56 22.9997 16.96 24.2697 13.76 24.2697C10.55 24.2697 7.95996 22.9897 7.95996 21.4197V18.7197H19.57H19.56Z" fill="#B2BBC3"/><path d="M19.56 18.7197V21.4197C19.56 22.9997 16.96 24.2697 13.76 24.2697C10.55 24.2697 7.95996 22.9897 7.95996 21.4197V18.7197" stroke="#1E3300" stroke-linecap="round" stroke-linejoin="round"/><path d="M13.76 21.5701C16.9632 21.5701 19.56 20.2941 19.56 18.7201C19.56 17.1461 16.9632 15.8701 13.76 15.8701C10.5567 15.8701 7.95996 17.1461 7.95996 18.7201C7.95996 20.2941 10.5567 21.5701 13.76 21.5701Z" fill="white"/><path d="M13.76 21.5701C16.9632 21.5701 19.56 20.2941 19.56 18.7201C19.56 17.1461 16.9632 15.8701 13.76 15.8701C10.5567 15.8701 7.95996 17.1461 7.95996 18.7201C7.95996 20.2941 10.5567 21.5701 13.76 21.5701Z" stroke="#1E3300" stroke-linecap="round" stroke-linejoin="round"/><path d="M19.56 16.0195V18.7195C19.56 20.2995 16.96 21.5695 13.76 21.5695C10.55 21.5695 7.95996 20.2895 7.95996 18.7195V16.0195H19.57H19.56Z" fill="#B2BBC3"/><path d="M19.56 16.0195V18.7195C19.56 20.2995 16.96 21.5695 13.76 21.5695C10.55 21.5695 7.95996 20.2895 7.95996 18.7195V16.0195" stroke="#1E3300" stroke-linecap="round" stroke-linejoin="round"/><path d="M13.76 18.8699C16.9632 18.8699 19.56 17.5939 19.56 16.0199C19.56 14.4459 16.9632 13.1699 13.76 13.1699C10.5567 13.1699 7.95996 14.4459 7.95996 16.0199C7.95996 17.5939 10.5567 18.8699 13.76 18.8699Z" fill="white"/><path d="M13.76 18.8699C16.9632 18.8699 19.56 17.5939 19.56 16.0199C19.56 14.4459 16.9632 13.1699 13.76 13.1699C10.5567 13.1699 7.95996 14.4459 7.95996 16.0199C7.95996 17.5939 10.5567 18.8699 13.76 18.8699Z" stroke="#1E3300" stroke-linecap="round" stroke-linejoin="round"/><path d="M48.7299 33.8496V36.5496C48.7299 38.1296 46.1299 39.3996 42.9299 39.3996C39.7199 39.3996 37.1299 38.1196 37.1299 36.5496V33.8496H48.7399H48.7299Z" fill="#B2BBC3"/><path d="M48.7299 33.8496V36.5496C48.7299 38.1296 46.1299 39.3996 42.9299 39.3996C39.7199 39.3996 37.1299 38.1196 37.1299 36.5496V33.8496" stroke="#1E3300" stroke-linecap="round" stroke-linejoin="round"/><path d="M42.9201 36.7C46.1234 36.7 48.7201 35.424 48.7201 33.85C48.7201 32.276 46.1234 31 42.9201 31C39.7169 31 37.1201 32.276 37.1201 33.85C37.1201 35.424 39.7169 36.7 42.9201 36.7Z" fill="white"/><path d="M42.9201 36.7C46.1234 36.7 48.7201 35.424 48.7201 33.85C48.7201 32.276 46.1234 31 42.9201 31C39.7169 31 37.1201 32.276 37.1201 33.85C37.1201 35.424 39.7169 36.7 42.9201 36.7Z" stroke="#1E3300" stroke-linecap="round" stroke-linejoin="round"/><path d="M48.7299 31.1504V33.8504C48.7299 35.4304 46.1299 36.7004 42.9299 36.7004C39.7199 36.7004 37.1299 35.4204 37.1299 33.8504V31.1504H48.7399H48.7299Z" fill="#B2BBC3"/><path d="M48.7299 31.1504V33.8504C48.7299 35.4304 46.1299 36.7004 42.9299 36.7004C39.7199 36.7004 37.1299 35.4204 37.1299 33.8504V31.1504" stroke="#1E3300" stroke-linecap="round" stroke-linejoin="round"/><path d="M42.9201 33.9998C46.1234 33.9998 48.7201 32.7238 48.7201 31.1498C48.7201 29.5758 46.1234 28.2998 42.9201 28.2998C39.7169 28.2998 37.1201 29.5758 37.1201 31.1498C37.1201 32.7238 39.7169 33.9998 42.9201 33.9998Z" fill="white"/><path d="M42.9201 33.9998C46.1234 33.9998 48.7201 32.7238 48.7201 31.1498C48.7201 29.5758 46.1234 28.2998 42.9201 28.2998C39.7169 28.2998 37.1201 29.5758 37.1201 31.1498C37.1201 32.7238 39.7169 33.9998 42.9201 33.9998Z" stroke="#1E3300" stroke-linecap="round" stroke-linejoin="round"/><path d="M48.7299 28.4502V31.1502C48.7299 32.7302 46.1299 34.0002 42.9299 34.0002C39.7199 34.0002 37.1299 32.7202 37.1299 31.1502V28.4502H48.7399H48.7299Z" fill="#B2BBC3"/><path d="M48.7299 28.4502V31.1502C48.7299 32.7302 46.1299 34.0002 42.9299 34.0002C39.7199 34.0002 37.1299 32.7202 37.1299 31.1502V28.4502" stroke="#1E3300" stroke-linecap="round" stroke-linejoin="round"/><path d="M42.9201 31.2996C46.1234 31.2996 48.7201 30.0236 48.7201 28.4496C48.7201 26.8756 46.1234 25.5996 42.9201 25.5996C39.7169 25.5996 37.1201 26.8756 37.1201 28.4496C37.1201 30.0236 39.7169 31.2996 42.9201 31.2996Z" fill="white"/><path d="M42.9201 31.2996C46.1234 31.2996 48.7201 30.0236 48.7201 28.4496C48.7201 26.8756 46.1234 25.5996 42.9201 25.5996C39.7169 25.5996 37.1201 26.8756 37.1201 28.4496C37.1201 30.0236 39.7169 31.2996 42.9201 31.2996Z" stroke="#1E3300" stroke-linecap="round" stroke-linejoin="round"/><path d="M48.7299 25.75V28.45C48.7299 30.03 46.1299 31.3 42.9299 31.3C39.7199 31.3 37.1299 30.02 37.1299 28.45V25.75H48.7399H48.7299Z" fill="#B2BBC3"/><path d="M48.7299 25.75V28.45C48.7299 30.03 46.1299 31.3 42.9299 31.3C39.7199 31.3 37.1299 30.02 37.1299 28.45V25.75" stroke="#1E3300" stroke-linecap="round" stroke-linejoin="round"/><path d="M42.9201 28.6004C46.1234 28.6004 48.7201 27.3244 48.7201 25.7504C48.7201 24.1764 46.1234 22.9004 42.9201 22.9004C39.7169 22.9004 37.1201 24.1764 37.1201 25.7504C37.1201 27.3244 39.7169 28.6004 42.9201 28.6004Z" fill="white"/><path d="M42.9201 28.6004C46.1234 28.6004 48.7201 27.3244 48.7201 25.7504C48.7201 24.1764 46.1234 22.9004 42.9201 22.9004C39.7169 22.9004 37.1201 24.1764 37.1201 25.7504C37.1201 27.3244 39.7169 28.6004 42.9201 28.6004Z" stroke="#1E3300" stroke-linecap="round" stroke-linejoin="round"/><path d="M48.7299 23.0498V25.7498C48.7299 27.3298 46.1299 28.5998 42.9299 28.5998C39.7199 28.5998 37.1299 27.3198 37.1299 25.7498V23.0498H48.7399H48.7299Z" fill="#B2BBC3"/><path d="M48.7299 23.0498V25.7498C48.7299 27.3298 46.1299 28.5998 42.9299 28.5998C39.7199 28.5998 37.1299 27.3198 37.1299 25.7498V23.0498" stroke="#1E3300" stroke-linecap="round" stroke-linejoin="round"/><path d="M42.9201 25.9002C46.1234 25.9002 48.7201 24.6242 48.7201 23.0502C48.7201 21.4762 46.1234 20.2002 42.9201 20.2002C39.7169 20.2002 37.1201 21.4762 37.1201 23.0502C37.1201 24.6242 39.7169 25.9002 42.9201 25.9002Z" fill="white"/><path d="M42.9201 25.9002C46.1234 25.9002 48.7201 24.6242 48.7201 23.0502C48.7201 21.4762 46.1234 20.2002 42.9201 20.2002C39.7169 20.2002 37.1201 21.4762 37.1201 23.0502C37.1201 24.6242 39.7169 25.9002 42.9201 25.9002Z" stroke="#1E3300" stroke-linecap="round" stroke-linejoin="round"/><path d="M50.7299 19.3496V22.0496C50.7299 23.6296 48.1299 24.8996 44.9299 24.8996C41.7199 24.8996 39.1299 23.6196 39.1299 22.0496V19.3496H50.7399H50.7299Z" fill="#B2BBC3"/><path d="M50.7299 19.3496V22.0496C50.7299 23.6296 48.1299 24.8996 44.9299 24.8996C41.7199 24.8996 39.1299 23.6196 39.1299 22.0496V19.3496" stroke="#1E3300" stroke-linecap="round" stroke-linejoin="round"/><path d="M44.9201 22.2C48.1234 22.2 50.7201 20.924 50.7201 19.35C50.7201 17.776 48.1234 16.5 44.9201 16.5C41.7169 16.5 39.1201 17.776 39.1201 19.35C39.1201 20.924 41.7169 22.2 44.9201 22.2Z" fill="white"/><path d="M44.9201 22.2C48.1234 22.2 50.7201 20.924 50.7201 19.35C50.7201 17.776 48.1234 16.5 44.9201 16.5C41.7169 16.5 39.1201 17.776 39.1201 19.35C39.1201 20.924 41.7169 22.2 44.9201 22.2Z" stroke="#1E3300" stroke-linecap="round" stroke-linejoin="round"/><path d="M50.7299 16.6504V19.3504C50.7299 20.9304 48.1299 22.2004 44.9299 22.2004C41.7199 22.2004 39.1299 20.9204 39.1299 19.3504V16.6504H50.7399H50.7299Z" fill="#B2BBC3"/><path d="M50.7299 16.6504V19.3504C50.7299 20.9304 48.1299 22.2004 44.9299 22.2004C41.7199 22.2004 39.1299 20.9204 39.1299 19.3504V16.6504" stroke="#1E3300" stroke-linecap="round" stroke-linejoin="round"/><path d="M44.9201 19.4998C48.1234 19.4998 50.7201 18.2238 50.7201 16.6498C50.7201 15.0758 48.1234 13.7998 44.9201 13.7998C41.7169 13.7998 39.1201 15.0758 39.1201 16.6498C39.1201 18.2238 41.7169 19.4998 44.9201 19.4998Z" fill="white"/><path d="M44.9201 19.4998C48.1234 19.4998 50.7201 18.2238 50.7201 16.6498C50.7201 15.0758 48.1234 13.7998 44.9201 13.7998C41.7169 13.7998 39.1201 15.0758 39.1201 16.6498C39.1201 18.2238 41.7169 19.4998 44.9201 19.4998Z" stroke="#1E3300" stroke-linecap="round" stroke-linejoin="round"/><path d="M41.2 26.5905C40.49 25.2105 40.04 23.7505 39.74 22.6305C39.65 22.6205 39.59 22.6005 39.52 22.5605C39.74 23.8405 39.92 25.1405 40.08 26.4305L41.2 26.6005V26.5905Z" fill="#1E3300"/><path d="M15.8002 39.8696C13.7502 39.3296 21.2502 20.3596 21.2502 20.3596L25.2802 13.0296L32.5002 11.1696C33.6802 11.0296 34.9302 11.6196 35.4802 12.8696L48.9302 43.5396C49.7002 45.2996 48.6502 47.1496 47.0202 47.6096L40.5602 49.2896L38.9802 49.0296L15.8002 39.8696Z" fill="#B3BCC4"/><path d="M29.5801 16.4602L36.1401 14.7402" stroke="white" stroke-linecap="round" stroke-linejoin="round"/><path d="M41.29 43.26L47.85 41.54" stroke="white" stroke-linecap="round" stroke-linejoin="round"/><path d="M8.8998 41.6601L38.5398 49.4101C40.9498 50.0401 43.0298 47.6101 42.0198 45.3301L28.5698 14.6601C27.6798 12.6201 24.9098 12.3301 23.6098 14.1401L7.2198 36.9901C5.9898 38.7101 6.8598 41.1301 8.9098 41.6701L8.8998 41.6601Z" fill="#C22348"/><path d="M10.13 33.0303C10.52 33.1003 10.92 33.1603 11.31 33.2303C12.26 33.3903 13.24 33.5603 14.05 34.0703C15.7 35.1103 16.04 37.5803 16.74 39.2703C17.53 41.1803 19.49 44.4403 19.49 44.4403L8.71 41.4903C6.86 40.9803 6.08 38.8003 7.18 37.2303L10.14 33.0303H10.13Z" fill="#1E3200"/><path d="M8.8998 41.6601L38.5398 49.4101C40.9498 50.0401 43.0298 47.6101 42.0198 45.3301L28.5698 14.6601C27.6798 12.6201 24.9098 12.3301 23.6098 14.1401L7.2198 36.9901C5.9898 38.7101 6.8598 41.1301 8.9098 41.6701L8.8998 41.6601Z" stroke="#1E3300" stroke-linecap="round" stroke-linejoin="round"/><path d="M40.0498 49.4203L46.6098 47.7103C46.8698 47.6403 47.1398 47.5603 47.3898 47.4703C48.7898 46.8403 49.6198 45.1503 48.9198 43.5403L35.4698 12.8703C34.8398 11.4303 33.2798 10.8703 31.9598 11.2903L25.2798 13.0303" stroke="#1E3300" stroke-linecap="round" stroke-linejoin="round"/><path d="M30.7701 29.8905C30.0001 28.8405 28.6701 28.4805 27.8001 29.0805L24.7001 31.2205L21.9701 27.5005C21.2001 26.4505 19.8701 26.0905 19.0001 26.6905C18.1301 27.2905 18.0401 28.6305 18.8101 29.6805L21.5401 33.4005L18.4401 35.5405C17.5701 36.1405 17.4801 37.4805 18.2501 38.5305C18.6901 39.1305 19.3201 39.5105 19.9401 39.6005C20.4001 39.6705 20.8501 39.5905 21.2201 39.3305L24.3201 37.1905L27.0501 40.9105C27.4901 41.5105 28.1201 41.8905 28.7401 41.9805C29.2001 42.0505 29.6501 41.9705 30.0201 41.7105C30.8901 41.1105 30.9801 39.7705 30.2101 38.7205L27.4801 35.0005L30.5801 32.8605C31.4501 32.2605 31.5401 30.9205 30.7701 29.8705V29.8905Z" fill="white"/><path d="M16.7099 42.6504V45.3504C16.7099 46.9304 14.1099 48.2004 10.9099 48.2004C7.69986 48.2004 5.10986 46.9204 5.10986 45.3504V42.6504H16.7199H16.7099Z" fill="#B2BBC3"/><path d="M16.7099 42.6504V45.3504C16.7099 46.9304 14.1099 48.2004 10.9099 48.2004C7.69986 48.2004 5.10986 46.9204 5.10986 45.3504V42.6504" stroke="#1E3300" stroke-linecap="round" stroke-linejoin="round"/><path d="M10.9099 45.4998C14.1131 45.4998 16.7099 44.2238 16.7099 42.6498C16.7099 41.0758 14.1131 39.7998 10.9099 39.7998C7.70661 39.7998 5.10986 41.0758 5.10986 42.6498C5.10986 44.2238 7.70661 45.4998 10.9099 45.4998Z" fill="white"/><path d="M10.9099 45.4998C14.1131 45.4998 16.7099 44.2238 16.7099 42.6498C16.7099 41.0758 14.1131 39.7998 10.9099 39.7998C7.70661 39.7998 5.10986 41.0758 5.10986 42.6498C5.10986 44.2238 7.70661 45.4998 10.9099 45.4998Z" stroke="#1E3300" stroke-linecap="round" stroke-linejoin="round"/><path d="M16.7099 39.9902V42.6902C16.7099 44.2702 14.1099 45.5402 10.9099 45.5402C7.69986 45.5402 5.10986 44.2602 5.10986 42.6902V39.9902H16.7199H16.7099Z" fill="#B2BBC3"/><path d="M16.7099 39.9902V42.6902C16.7099 44.2702 14.1099 45.5402 10.9099 45.5402C7.69986 45.5402 5.10986 44.2602 5.10986 42.6902V39.9902" stroke="#1E3300" stroke-linecap="round" stroke-linejoin="round"/><path d="M10.9099 42.8396C14.1131 42.8396 16.7099 41.5637 16.7099 39.9897C16.7099 38.4156 14.1131 37.1396 10.9099 37.1396C7.70661 37.1396 5.10986 38.4156 5.10986 39.9897C5.10986 41.5637 7.70661 42.8396 10.9099 42.8396Z" fill="white"/><path d="M10.9099 42.8396C14.1131 42.8396 16.7099 41.5637 16.7099 39.9897C16.7099 38.4156 14.1131 37.1396 10.9099 37.1396C7.70661 37.1396 5.10986 38.4156 5.10986 39.9897C5.10986 41.5637 7.70661 42.8396 10.9099 42.8396Z" stroke="#1E3300" stroke-linecap="round" stroke-linejoin="round"/><path d="M14.7099 36.3398V39.0398C14.7099 40.6198 12.1099 41.8898 8.90986 41.8898C5.69986 41.8898 3.10986 40.6098 3.10986 39.0398V36.3398H14.7199H14.7099Z" fill="#B2BBC3"/><path d="M14.7099 36.3398V39.0398C14.7099 40.6198 12.1099 41.8898 8.90986 41.8898C5.69986 41.8898 3.10986 40.6098 3.10986 39.0398V36.3398" stroke="#1E3300" stroke-linecap="round" stroke-linejoin="round"/><path d="M8.90986 39.1902C12.1131 39.1902 14.7099 37.9142 14.7099 36.3402C14.7099 34.7662 12.1131 33.4902 8.90986 33.4902C5.70661 33.4902 3.10986 34.7662 3.10986 36.3402C3.10986 37.9142 5.70661 39.1902 8.90986 39.1902Z" fill="white"/><path d="M8.90986 39.1902C12.1131 39.1902 14.7099 37.9142 14.7099 36.3402C14.7099 34.7662 12.1131 33.4902 8.90986 33.4902C5.70661 33.4902 3.10986 34.7662 3.10986 36.3402C3.10986 37.9142 5.70661 39.1902 8.90986 39.1902Z" stroke="#1E3300" stroke-linecap="round" stroke-linejoin="round"/></svg>