<svg fill="none" viewBox="0 0 56 56" xmlns="http://www.w3.org/2000/svg" class="css-1jxvrpq e1ig6ntm0"><path opacity="0.2" d="M48.055 40.7406C51.7539 40.5137 54.6847 39.226 54.6012 37.8645C54.5177 36.5029 51.4515 35.583 47.7526 35.8099C44.0537 36.0368 41.1229 37.3245 41.2064 38.6861C41.2899 40.0477 44.3562 40.9675 48.055 40.7406Z" fill="black"/><path opacity="0.2" d="M11.7179 39.4711C15.4192 39.2888 18.3653 38.0364 18.2982 36.674C18.2311 35.3115 15.1762 34.3547 11.4748 34.5371C7.77348 34.7194 4.82736 35.9717 4.89447 37.3342C4.96158 38.6967 8.01652 39.6534 11.7179 39.4711Z" fill="black"/><path opacity="0.2" d="M23.8599 37.7495L9.40994 42.5795C8.19994 42.8995 8.19994 44.6095 9.40994 44.9295L33.5999 51.3895C33.9999 51.4995 34.4199 51.5495 34.8299 51.5495H39.0299C39.1999 51.5495 39.3699 51.5295 39.5399 51.4795L53.9999 46.6495C54.8999 46.4995 55.5699 45.2895 54.3699 44.6695L28.3999 37.7495C26.9099 37.3595 25.3499 37.3595 23.8599 37.7495Z" fill="black"/><path opacity="0.2" d="M13.8626 52.5619C17.5615 52.335 20.4924 51.0473 20.4088 49.6857C20.3253 48.3242 17.2591 47.4043 13.5602 47.6312C9.86133 47.8581 6.9305 49.1458 7.01401 50.5074C7.09753 51.8689 10.1638 52.7888 13.8626 52.5619Z" fill="black"/><path d="M16.4701 33.7002V36.4002C16.4701 37.9802 13.8701 39.2502 10.6701 39.2502C7.46012 39.2502 4.87012 37.9702 4.87012 36.4002V33.7002H16.4801H16.4701Z" fill="#B3BCC4"/><path d="M16.4701 33.7002V36.4002C16.4701 37.9802 13.8701 39.2502 10.6701 39.2502C7.46012 39.2502 4.87012 37.9702 4.87012 36.4002V33.7002" stroke="#1E3300" stroke-linecap="round" stroke-linejoin="round"/><path d="M10.6599 36.5496C13.8631 36.5496 16.4599 35.2736 16.4599 33.6996C16.4599 32.1256 13.8631 30.8496 10.6599 30.8496C7.45661 30.8496 4.85986 32.1256 4.85986 33.6996C4.85986 35.2736 7.45661 36.5496 10.6599 36.5496Z" fill="white"/><path d="M10.6599 36.5496C13.8631 36.5496 16.4599 35.2736 16.4599 33.6996C16.4599 32.1256 13.8631 30.8496 10.6599 30.8496C7.45661 30.8496 4.85986 32.1256 4.85986 33.6996C4.85986 35.2736 7.45661 36.5496 10.6599 36.5496Z" stroke="#1E3300" stroke-linecap="round" stroke-linejoin="round"/><path d="M16.4701 31V33.7C16.4701 35.28 13.8701 36.55 10.6701 36.55C7.47012 36.55 4.87012 35.27 4.87012 33.7V31H16.4801H16.4701Z" fill="#B3BCC4"/><path d="M16.4701 31V33.7C16.4701 35.28 13.8701 36.55 10.6701 36.55C7.47012 36.55 4.87012 35.27 4.87012 33.7V31" stroke="#1E3300" stroke-linecap="round" stroke-linejoin="round"/><path d="M10.6599 33.8504C13.8631 33.8504 16.4599 32.5744 16.4599 31.0004C16.4599 29.4264 13.8631 28.1504 10.6599 28.1504C7.45661 28.1504 4.85986 29.4264 4.85986 31.0004C4.85986 32.5744 7.45661 33.8504 10.6599 33.8504Z" fill="white"/><path d="M10.6599 33.8504C13.8631 33.8504 16.4599 32.5744 16.4599 31.0004C16.4599 29.4264 13.8631 28.1504 10.6599 28.1504C7.45661 28.1504 4.85986 29.4264 4.85986 31.0004C4.85986 32.5744 7.45661 33.8504 10.6599 33.8504Z" stroke="#1E3300" stroke-linecap="round" stroke-linejoin="round"/><path d="M16.4701 28.2998V30.9998C16.4701 32.5798 13.8701 33.8498 10.6701 33.8498C7.46012 33.8498 4.87012 32.5698 4.87012 30.9998V28.2998H16.4801H16.4701Z" fill="#B3BCC4"/><path d="M16.4701 28.2998V30.9998C16.4701 32.5798 13.8701 33.8498 10.6701 33.8498C7.46012 33.8498 4.87012 32.5698 4.87012 30.9998V28.2998" stroke="#1E3300" stroke-linecap="round" stroke-linejoin="round"/><path d="M10.6599 31.1502C13.8631 31.1502 16.4599 29.8742 16.4599 28.3002C16.4599 26.7262 13.8631 25.4502 10.6599 25.4502C7.45661 25.4502 4.85986 26.7262 4.85986 28.3002C4.85986 29.8742 7.45661 31.1502 10.6599 31.1502Z" fill="white"/><path d="M10.6599 31.1502C13.8631 31.1502 16.4599 29.8742 16.4599 28.3002C16.4599 26.7262 13.8631 25.4502 10.6599 25.4502C7.45661 25.4502 4.85986 26.7262 4.85986 28.3002C4.85986 29.8742 7.45661 31.1502 10.6599 31.1502Z" stroke="#1E3300" stroke-linecap="round" stroke-linejoin="round"/><path d="M16.4701 25.5996V28.2996C16.4701 29.8796 13.8701 31.1496 10.6701 31.1496C7.46012 31.1496 4.87012 29.8696 4.87012 28.2996V25.5996H16.4801H16.4701Z" fill="#B3BCC4"/><path d="M16.4701 25.5996V28.2996C16.4701 29.8796 13.8701 31.1496 10.6701 31.1496C7.46012 31.1496 4.87012 29.8696 4.87012 28.2996V25.5996" stroke="#1E3300" stroke-linecap="round" stroke-linejoin="round"/><path d="M10.6599 28.45C13.8631 28.45 16.4599 27.174 16.4599 25.6C16.4599 24.026 13.8631 22.75 10.6599 22.75C7.45661 22.75 4.85986 24.026 4.85986 25.6C4.85986 27.174 7.45661 28.45 10.6599 28.45Z" fill="white"/><path d="M10.6599 28.45C13.8631 28.45 16.4599 27.174 16.4599 25.6C16.4599 24.026 13.8631 22.75 10.6599 22.75C7.45661 22.75 4.85986 24.026 4.85986 25.6C4.85986 27.174 7.45661 28.45 10.6599 28.45Z" stroke="#1E3300" stroke-linecap="round" stroke-linejoin="round"/><path d="M16.4701 22.9004V25.6004C16.4701 27.1804 13.8701 28.4504 10.6701 28.4504C7.47012 28.4504 4.87012 27.1704 4.87012 25.6004V22.9004H16.4801H16.4701Z" fill="#B3BCC4"/><path d="M16.4701 22.9004V25.6004C16.4701 27.1804 13.8701 28.4504 10.6701 28.4504C7.47012 28.4504 4.87012 27.1704 4.87012 25.6004V22.9004" stroke="#1E3300" stroke-linecap="round" stroke-linejoin="round"/><path d="M10.6599 25.7498C13.8631 25.7498 16.4599 24.4738 16.4599 22.8998C16.4599 21.3258 13.8631 20.0498 10.6599 20.0498C7.45661 20.0498 4.85986 21.3258 4.85986 22.8998C4.85986 24.4738 7.45661 25.7498 10.6599 25.7498Z" fill="white"/><path d="M10.6599 25.7498C13.8631 25.7498 16.4599 24.4738 16.4599 22.8998C16.4599 21.3258 13.8631 20.0498 10.6599 20.0498C7.45661 20.0498 4.85986 21.3258 4.85986 22.8998C4.85986 24.4738 7.45661 25.7498 10.6599 25.7498Z" stroke="#1E3300" stroke-linecap="round" stroke-linejoin="round"/><path d="M14.4701 19.2002V21.9002C14.4701 23.4802 11.8701 24.7502 8.67012 24.7502C5.46012 24.7502 2.87012 23.4702 2.87012 21.9002V19.2002H14.4801H14.4701Z" fill="#B3BCC4"/><path d="M14.4701 19.2002V21.9002C14.4701 23.4802 11.8701 24.7502 8.67012 24.7502C5.46012 24.7502 2.87012 23.4702 2.87012 21.9002V19.2002" stroke="#1E3300" stroke-linecap="round" stroke-linejoin="round"/><path d="M8.65986 22.0496C11.8631 22.0496 14.4599 20.7736 14.4599 19.1996C14.4599 17.6256 11.8631 16.3496 8.65986 16.3496C5.45661 16.3496 2.85986 17.6256 2.85986 19.1996C2.85986 20.7736 5.45661 22.0496 8.65986 22.0496Z" fill="white"/><path d="M8.65986 22.0496C11.8631 22.0496 14.4599 20.7736 14.4599 19.1996C14.4599 17.6256 11.8631 16.3496 8.65986 16.3496C5.45661 16.3496 2.85986 17.6256 2.85986 19.1996C2.85986 20.7736 5.45661 22.0496 8.65986 22.0496Z" stroke="#1E3300" stroke-linecap="round" stroke-linejoin="round"/><path d="M14.4701 16.5V19.2C14.4701 20.78 11.8701 22.05 8.67012 22.05C5.47012 22.05 2.87012 20.77 2.87012 19.2V16.5H14.4801H14.4701Z" fill="#B3BCC4"/><path d="M14.4701 16.5V19.2C14.4701 20.78 11.8701 22.05 8.67012 22.05C5.47012 22.05 2.87012 20.77 2.87012 19.2V16.5" stroke="#1E3300" stroke-linecap="round" stroke-linejoin="round"/><path d="M8.65986 19.3504C11.8631 19.3504 14.4599 18.0744 14.4599 16.5004C14.4599 14.9264 11.8631 13.6504 8.65986 13.6504C5.45661 13.6504 2.85986 14.9264 2.85986 16.5004C2.85986 18.0744 5.45661 19.3504 8.65986 19.3504Z" fill="white"/><path d="M8.65986 19.3504C11.8631 19.3504 14.4599 18.0744 14.4599 16.5004C14.4599 14.9264 11.8631 13.6504 8.65986 13.6504C5.45661 13.6504 2.85986 14.9264 2.85986 16.5004C2.85986 18.0744 5.45661 19.3504 8.65986 19.3504Z" stroke="#1E3300" stroke-linecap="round" stroke-linejoin="round"/><path d="M52.9599 34.6396V37.3396C52.9599 38.9196 50.3599 40.1896 47.1599 40.1896C43.9599 40.1896 41.3599 38.9096 41.3599 37.3396V34.6396H52.9699H52.9599Z" fill="#B3BCC4"/><path d="M52.9599 34.6396V37.3396C52.9599 38.9196 50.3599 40.1896 47.1599 40.1896C43.9599 40.1896 41.3599 38.9096 41.3599 37.3396V34.6396" stroke="#1E3300" stroke-linecap="round" stroke-linejoin="round"/><path d="M47.1599 37.49C50.3631 37.49 52.9599 36.214 52.9599 34.64C52.9599 33.066 50.3631 31.79 47.1599 31.79C43.9566 31.79 41.3599 33.066 41.3599 34.64C41.3599 36.214 43.9566 37.49 47.1599 37.49Z" fill="white"/><path d="M47.1599 37.49C50.3631 37.49 52.9599 36.214 52.9599 34.64C52.9599 33.066 50.3631 31.79 47.1599 31.79C43.9566 31.79 41.3599 33.066 41.3599 34.64C41.3599 36.214 43.9566 37.49 47.1599 37.49Z" stroke="#1E3300" stroke-linecap="round" stroke-linejoin="round"/><path d="M52.9599 31.9805V34.6805C52.9599 36.2605 50.3599 37.5305 47.1599 37.5305C43.9499 37.5305 41.3599 36.2505 41.3599 34.6805V31.9805H52.9699H52.9599Z" fill="#B3BCC4"/><path d="M52.9599 31.9805V34.6805C52.9599 36.2605 50.3599 37.5305 47.1599 37.5305C43.9499 37.5305 41.3599 36.2505 41.3599 34.6805V31.9805" stroke="#1E3300" stroke-linecap="round" stroke-linejoin="round"/><path d="M47.1599 34.8299C50.3631 34.8299 52.9599 33.5539 52.9599 31.9799C52.9599 30.4059 50.3631 29.1299 47.1599 29.1299C43.9566 29.1299 41.3599 30.4059 41.3599 31.9799C41.3599 33.5539 43.9566 34.8299 47.1599 34.8299Z" fill="white"/><path d="M47.1599 34.8299C50.3631 34.8299 52.9599 33.5539 52.9599 31.9799C52.9599 30.4059 50.3631 29.1299 47.1599 29.1299C43.9566 29.1299 41.3599 30.4059 41.3599 31.9799C41.3599 33.5539 43.9566 34.8299 47.1599 34.8299Z" stroke="#1E3300" stroke-linecap="round" stroke-linejoin="round"/><path d="M52.9599 29.3301V32.0301C52.9599 33.6101 50.3599 34.8801 47.1599 34.8801C43.9599 34.8801 41.3599 33.6001 41.3599 32.0301V29.3301H52.9699H52.9599Z" fill="#B3BCC4"/><path d="M52.9599 29.3301V32.0301C52.9599 33.6101 50.3599 34.8801 47.1599 34.8801C43.9599 34.8801 41.3599 33.6001 41.3599 32.0301V29.3301" stroke="#1E3300" stroke-linecap="round" stroke-linejoin="round"/><path d="M47.1599 32.1805C50.3631 32.1805 52.9599 30.9045 52.9599 29.3305C52.9599 27.7565 50.3631 26.4805 47.1599 26.4805C43.9566 26.4805 41.3599 27.7565 41.3599 29.3305C41.3599 30.9045 43.9566 32.1805 47.1599 32.1805Z" fill="white"/><path d="M47.1599 32.1805C50.3631 32.1805 52.9599 30.9045 52.9599 29.3305C52.9599 27.7565 50.3631 26.4805 47.1599 26.4805C43.9566 26.4805 41.3599 27.7565 41.3599 29.3305C41.3599 30.9045 43.9566 32.1805 47.1599 32.1805Z" stroke="#1E3300" stroke-linecap="round" stroke-linejoin="round"/><path d="M42.4899 22.9104L50.2099 44.3004C50.6199 45.4404 49.5899 46.5704 48.4099 46.2704L37.6499 43.4904L42.4899 22.9004V22.9104Z" fill="#99CC33"/><path d="M42.4899 22.9102L50.2099 44.3002C50.6199 45.4402 49.5899 46.5702 48.4099 46.2702L37.6499 43.4902" stroke="#1E3300" stroke-linecap="round" stroke-linejoin="round"/><path d="M37.6602 43.4902L44.8402 29.4202L42.4902 22.9102L37.6602 43.4902Z" fill="#1E3300"/><path d="M18.0099 11.5497L10.6399 42.8897C10.3699 44.0397 11.0699 45.1997 12.2099 45.4997L33.5999 51.0897C34.7699 51.3997 35.9599 50.6797 36.2299 49.4997L43.5999 18.1597C43.8699 17.0097 43.1699 15.8497 42.0299 15.5497L20.6399 9.95975C19.4699 9.64975 18.2799 10.3697 18.0099 11.5497Z" fill="#D9EEA8"/><path d="M19.65 15.2896L13.76 40.3296C13.56 41.1996 14.08 42.0696 14.94 42.2896L32.69 46.9296C33.54 47.1496 34.41 46.6296 34.61 45.7696L40.5 20.7296C40.7 19.8596 40.18 18.9896 39.32 18.7696L21.57 14.1296C20.72 13.9096 19.85 14.4296 19.65 15.2896Z" fill="#B3BCC4"/><path d="M20.3302 31.1696C26.7402 28.4796 33.2302 26.0496 39.7902 23.7496L40.5002 20.7296C40.7002 19.8596 40.1802 18.9896 39.3202 18.7696L21.5702 14.1296C20.7202 13.9096 19.8502 14.4296 19.6502 15.2896L15.4502 33.2196C17.0802 32.5296 18.7102 31.8496 20.3402 31.1696H20.3302Z" fill="#1E3300"/><path d="M18.0099 11.5497L10.6399 42.8897C10.3699 44.0397 11.0699 45.1997 12.2099 45.4997L33.5999 51.0897C34.7699 51.3997 35.9599 50.6797 36.2299 49.4997L43.5999 18.1597C43.8699 17.0097 43.1699 15.8497 42.0299 15.5497L20.6399 9.95975C19.4699 9.64975 18.2799 10.3697 18.0099 11.5497Z" stroke="#1E3300" stroke-linecap="round" stroke-linejoin="round"/><path d="M17.5402 15.8999L11.6502 40.9399C11.4502 41.8099 11.9702 42.6799 12.8302 42.8999L30.5802 47.5399C31.4302 47.7599 32.3002 47.2399 32.5002 46.3799L38.3902 21.3399C38.5902 20.4699 38.0702 19.5999 37.2102 19.3799L19.4602 14.7399C18.6102 14.5199 17.7402 15.0399 17.5402 15.8999Z" fill="white"/><path d="M17.5402 15.8999L11.6502 40.9399C11.4502 41.8099 11.9702 42.6799 12.8302 42.8999L30.5802 47.5399C31.4302 47.7599 32.3002 47.2399 32.5002 46.3799L38.3902 21.3399C38.5902 20.4699 38.0702 19.5999 37.2102 19.3799L19.4602 14.7399C18.6102 14.5199 17.7402 15.0399 17.5402 15.8999Z" stroke="#1E3300" stroke-linecap="round" stroke-linejoin="round"/><path d="M18.6001 14.7603L20.8301 14.1203C21.0701 14.0703 21.3201 14.0703 21.5701 14.1303L39.3201 18.7703C40.1801 18.9903 40.7001 19.8603 40.5001 20.7303L34.6101 45.7703C34.5001 46.2603 34.2301 46.6603 33.7501 46.8303L31.3601 47.5403" stroke="#1E3300" stroke-linecap="round" stroke-linejoin="round"/><path d="M27.9898 11.7702C27.6898 10.2902 26.8298 9.14018 25.5798 8.80018C23.5698 8.24018 21.3298 10.0002 20.5698 12.7302C19.9998 14.7702 20.4298 16.7802 21.5298 17.8902" stroke="#61666B" stroke-linecap="round" stroke-linejoin="round"/><path d="M29.1799 12.2002L27.1299 11.6602" stroke="#1E3300" stroke-linecap="round" stroke-linejoin="round"/><path d="M34.5201 13.5397C34.2201 12.0597 33.3601 10.9097 32.1101 10.5697C30.1001 10.0097 27.8601 11.7697 27.1001 14.4997C26.5301 16.5397 26.9601 18.5497 28.0601 19.6597" stroke="#61666B" stroke-linecap="round" stroke-linejoin="round"/><path d="M35.9201 13.96L33.3501 13.29" stroke="#1E3300" stroke-linecap="round" stroke-linejoin="round"/><path d="M40.9502 15.2702C40.6502 13.7902 39.7902 12.6402 38.5402 12.3002C36.5302 11.7402 34.2902 13.5002 33.5302 16.2302C32.9602 18.2702 33.3902 20.2802 34.4902 21.3902" stroke="#61666B" stroke-linecap="round" stroke-linejoin="round"/><path d="M42.0298 15.5599L39.5898 14.9199" stroke="#1E3300" stroke-linecap="round" stroke-linejoin="round"/><path d="M34.93 26.7101C34.84 27.6401 34.09 28.4101 33.26 28.4201C32.43 28.4301 31.84 27.6801 31.93 26.7501C32.02 25.8201 32.77 25.0501 33.6 25.0401C34.43 25.0301 35.02 25.7801 34.93 26.7101Z" fill="#B3BCC4"/><path d="M28.2 24.9797C28.11 25.9097 27.36 26.6797 26.53 26.6897C25.7 26.6997 25.11 25.9497 25.2 25.0197C25.29 24.0897 26.04 23.3197 26.87 23.3097C27.7 23.2997 28.29 24.0497 28.2 24.9797Z" fill="#B3BCC4"/><path d="M21.4202 23.2404C21.3302 24.1704 20.5802 24.9404 19.7502 24.9504C18.9202 24.9604 18.3302 24.2104 18.4202 23.2804C18.5102 22.3504 19.2602 21.5804 20.0902 21.5704C20.9202 21.5604 21.5102 22.3104 21.4202 23.2404Z" fill="#B3BCC4"/><path d="M33.3401 33.4699C33.2501 34.3999 32.5001 35.1699 31.6701 35.1799C30.8401 35.1899 30.2501 34.4399 30.3401 33.5099C30.4301 32.5799 31.1801 31.8099 32.0101 31.7999C32.8401 31.7899 33.4301 32.5399 33.3401 33.4699Z" fill="#B3BCC4"/><path d="M26.6098 31.6102C26.5898 32.5502 25.9098 33.3702 25.0898 33.4502C24.2698 33.5302 23.6098 32.8302 23.6298 31.8902C23.6498 30.9502 24.3298 30.1302 25.1498 30.0502C25.9698 29.9702 26.6298 30.6702 26.6098 31.6102Z" fill="#99CC33"/><path d="M28.2599 31.4604C28.2299 33.4404 26.7899 35.1704 25.0599 35.3404C23.3199 35.5104 21.9399 34.0404 21.9799 32.0604C22.0099 30.0804 23.4499 28.3504 25.1799 28.1804C26.9199 28.0104 28.2999 29.4804 28.2599 31.4604Z" stroke="#1E3300" stroke-linecap="round" stroke-linejoin="round"/><path d="M31.76 40.2297C31.67 41.1597 30.92 41.9297 30.09 41.9397C29.26 41.9497 28.67 41.1997 28.76 40.2697C28.85 39.3397 29.6 38.5697 30.43 38.5597C31.26 38.5497 31.85 39.2997 31.76 40.2297Z" fill="#B3BCC4"/><path d="M25.0301 38.4904C24.9401 39.4204 24.1901 40.1904 23.3601 40.2004C22.5301 40.2104 21.9401 39.4604 22.0301 38.5304C22.1201 37.6004 22.8701 36.8304 23.7001 36.8204C24.5301 36.8104 25.1201 37.5604 25.0301 38.4904Z" fill="#B3BCC4"/><path d="M18.2498 36.7599C18.1598 37.6899 17.4098 38.4599 16.5798 38.4699C15.7498 38.4799 15.1598 37.7299 15.2498 36.7999C15.3398 35.8699 16.0898 35.0999 16.9198 35.0899C17.7498 35.0799 18.3398 35.8299 18.2498 36.7599Z" fill="#B3BCC4"/><path d="M19.8098 30.0002C19.7198 30.9302 18.9698 31.7002 18.1398 31.7102C17.3098 31.7202 16.7198 30.9702 16.8098 30.0402C16.8998 29.1102 17.6498 28.3402 18.4798 28.3302C19.3098 28.3202 19.8998 29.0702 19.8098 30.0002Z" fill="#B3BCC4"/><path d="M18.1098 46.4697V49.1697C18.1098 50.7497 15.5098 52.0197 12.3098 52.0197C9.09977 52.0197 6.50977 50.7397 6.50977 49.1697V46.4697H18.1198H18.1098Z" fill="#B3BCC4"/><path d="M18.1098 46.4697V49.1697C18.1098 50.7497 15.5098 52.0197 12.3098 52.0197C9.09977 52.0197 6.50977 50.7397 6.50977 49.1697V46.4697" stroke="#1E3300" stroke-linecap="round" stroke-linejoin="round"/><path d="M12.3 49.3201C15.5033 49.3201 18.1 48.0441 18.1 46.4701C18.1 44.8961 15.5033 43.6201 12.3 43.6201C9.09675 43.6201 6.5 44.8961 6.5 46.4701C6.5 48.0441 9.09675 49.3201 12.3 49.3201Z" fill="white"/><path d="M12.3 49.3201C15.5033 49.3201 18.1 48.0441 18.1 46.4701C18.1 44.8961 15.5033 43.6201 12.3 43.6201C9.09675 43.6201 6.5 44.8961 6.5 46.4701C6.5 48.0441 9.09675 49.3201 12.3 49.3201Z" stroke="#1E3300" stroke-linecap="round" stroke-linejoin="round"/><path d="M18.1098 43.8096V46.5096C18.1098 48.0896 15.5098 49.3596 12.3098 49.3596C9.09977 49.3596 6.50977 48.0796 6.50977 46.5096V43.8096H18.1198H18.1098Z" fill="#B3BCC4"/><path d="M18.1098 43.8096V46.5096C18.1098 48.0896 15.5098 49.3596 12.3098 49.3596C9.09977 49.3596 6.50977 48.0796 6.50977 46.5096V43.8096" stroke="#1E3300" stroke-linecap="round" stroke-linejoin="round"/><path d="M12.3 46.66C15.5033 46.66 18.1 45.384 18.1 43.81C18.1 42.236 15.5033 40.96 12.3 40.96C9.09675 40.96 6.5 42.236 6.5 43.81C6.5 45.384 9.09675 46.66 12.3 46.66Z" fill="white"/><path d="M12.3 46.66C15.5033 46.66 18.1 45.384 18.1 43.81C18.1 42.236 15.5033 40.96 12.3 40.96C9.09675 40.96 6.5 42.236 6.5 43.81C6.5 45.384 9.09675 46.66 12.3 46.66Z" stroke="#1E3300" stroke-linecap="round" stroke-linejoin="round"/></svg>