<svg fill="none" viewBox="0 0 56 56" xmlns="http://www.w3.org/2000/svg" class="css-1jxvrpq e1ig6ntm0"><path opacity="0.2" d="M12.6465 46.0445C15.8147 45.5716 18.2448 44.2627 18.0744 43.1211C17.904 41.9795 15.1976 41.4374 12.0294 41.9103C8.86126 42.3832 6.43112 43.6921 6.60153 44.8337C6.77194 45.9753 9.47838 46.5174 12.6465 46.0445Z" fill="black"/><path opacity="0.2" d="M34.4798 24.2404L7.64977 31.2704C6.62977 31.5404 6.62977 32.9904 7.64977 33.2504L19.7198 36.4004C20.0598 36.4904 20.4098 36.5304 20.7598 36.5304H24.3098C24.4598 36.5304 24.5998 36.5104 24.7398 36.4704L53.2998 28.9804C53.7398 28.8704 53.7398 28.2504 53.2998 28.1304L38.3198 24.2104C37.0598 23.8804 35.7398 23.8804 34.4798 24.2104V24.2404Z" fill="black"/><path opacity="0.2" d="M45.5931 45.7573C48.7852 45.4898 51.2948 44.3405 51.1984 43.1902C51.102 42.04 48.4362 41.3244 45.2441 41.5918C42.052 41.8593 39.5425 43.0086 39.6389 44.1589C39.7353 45.3091 42.4011 46.0247 45.5931 45.7573Z" fill="black"/><path opacity="0.2" d="M37.6371 50.5053C40.8292 50.2378 43.3387 49.0885 43.2423 47.9383C43.1459 46.788 40.4801 46.0724 37.288 46.3399C34.096 46.6074 31.5864 47.7567 31.6828 48.9069C31.7792 50.0572 34.445 50.7728 37.6371 50.5053Z" fill="black"/><path d="M6.49023 17.9303L35.9802 10.2803L49.5402 13.8103L19.9802 21.4603L6.49023 17.9303Z" fill="white"/><path d="M16.1401 17.2499L35.4801 12.1699L41.6601 13.8099L22.3601 18.8699L16.1401 17.2499Z" fill="#97CA33"/><path d="M49.54 13.8096V28.3396L19.98 35.9896V21.4596L49.54 13.8096Z" fill="#D8EEAB"/><path d="M6.49023 17.9297V32.4597L19.9802 35.9897V21.4597L6.49023 17.9297Z" fill="white"/><path d="M6.49023 17.9303L35.9802 10.2803L49.5402 13.8103L19.9802 21.4603L6.49023 17.9303Z" stroke="#1E3405" stroke-linecap="round" stroke-linejoin="round"/><path d="M49.5402 18.6504L19.9802 26.3004L6.49023 22.7704" stroke="#1E3405" stroke-linecap="round" stroke-linejoin="round"/><path d="M49.5402 23.4902L19.9802 31.1402L6.49023 27.6102" stroke="#1E3405" stroke-linecap="round" stroke-linejoin="round"/><path d="M49.54 13.8096V28.3396L19.98 35.9896V21.4596L49.54 13.8096Z" stroke="#1E3405" stroke-linecap="round" stroke-linejoin="round"/><path d="M6.49023 17.9297V32.4597L19.9802 35.9897V21.4597L6.49023 17.9297Z" stroke="#1E3405" stroke-linecap="round" stroke-linejoin="round"/><path d="M26.3902 12.79L39.8502 16.29C39.8902 16.46 39.8502 30.82 39.8502 30.82L30.6602 33.21C30.6602 33.21 30.7002 18.85 30.6602 18.68L17.2002 15.18L26.4002 12.79H26.3902Z" fill="#B1BAC2"/><path d="M30.6499 18.68L17.1899 15.18L26.3899 12.79L39.8399 16.29L30.6499 18.68Z" fill="white"/><path d="M26.3902 12.79L39.8502 16.29C39.8902 16.46 39.8502 30.82 39.8502 30.82L30.6602 33.21C30.6602 33.21 30.7002 18.85 30.6602 18.68L17.2002 15.18L26.4002 12.79H26.3902Z" stroke="#1E3405" stroke-linecap="round" stroke-linejoin="round"/><path d="M30.6499 18.68L39.8399 16.29" stroke="#1E3405" stroke-linecap="round" stroke-linejoin="round"/><path d="M48.6601 40.1201V42.8201C48.6601 44.4001 46.0601 45.6701 42.8601 45.6701C39.6501 45.6701 37.0601 44.3901 37.0601 42.8201V40.1201H48.6701H48.6601Z" fill="#B1BAC2"/><path d="M48.6601 40.1201V42.8201C48.6601 44.4001 46.0601 45.6701 42.8601 45.6701C39.6501 45.6701 37.0601 44.3901 37.0601 42.8201V40.1201" stroke="#1E3405" stroke-linecap="round" stroke-linejoin="round"/><path d="M42.8498 42.9695C46.0531 42.9695 48.6498 41.6935 48.6498 40.1195C48.6498 38.5455 46.0531 37.2695 42.8498 37.2695C39.6466 37.2695 37.0498 38.5455 37.0498 40.1195C37.0498 41.6935 39.6466 42.9695 42.8498 42.9695Z" fill="white"/><path d="M42.8498 42.9695C46.0531 42.9695 48.6498 41.6935 48.6498 40.1195C48.6498 38.5455 46.0531 37.2695 42.8498 37.2695C39.6466 37.2695 37.0498 38.5455 37.0498 40.1195C37.0498 41.6935 39.6466 42.9695 42.8498 42.9695Z" stroke="#1E3405" stroke-linecap="round" stroke-linejoin="round"/><path d="M48.6601 37.4199V40.1199C48.6601 41.6999 46.0601 42.9699 42.8601 42.9699C39.6501 42.9699 37.0601 41.6899 37.0601 40.1199V37.4199H48.6701H48.6601Z" fill="#B1BAC2"/><path d="M48.6601 37.4199V40.1199C48.6601 41.6999 46.0601 42.9699 42.8601 42.9699C39.6501 42.9699 37.0601 41.6899 37.0601 40.1199V37.4199" stroke="#1E3405" stroke-linecap="round" stroke-linejoin="round"/><path d="M42.8498 40.2703C46.0531 40.2703 48.6498 38.9943 48.6498 37.4203C48.6498 35.8463 46.0531 34.5703 42.8498 34.5703C39.6466 34.5703 37.0498 35.8463 37.0498 37.4203C37.0498 38.9943 39.6466 40.2703 42.8498 40.2703Z" fill="white"/><path d="M42.8498 40.2703C46.0531 40.2703 48.6498 38.9943 48.6498 37.4203C48.6498 35.8463 46.0531 34.5703 42.8498 34.5703C39.6466 34.5703 37.0498 35.8463 37.0498 37.4203C37.0498 38.9943 39.6466 40.2703 42.8498 40.2703Z" stroke="#1E3405" stroke-linecap="round" stroke-linejoin="round"/><path d="M48.6601 34.7197V37.4197C48.6601 38.9997 46.0601 40.2697 42.8601 40.2697C39.6601 40.2697 37.0601 38.9897 37.0601 37.4197V34.7197H48.6701H48.6601Z" fill="#B1BAC2"/><path d="M48.6601 34.7197V37.4197C48.6601 38.9997 46.0601 40.2697 42.8601 40.2697C39.6601 40.2697 37.0601 38.9897 37.0601 37.4197V34.7197" stroke="#1E3405" stroke-linecap="round" stroke-linejoin="round"/><path d="M42.8498 37.5701C46.0531 37.5701 48.6498 36.2941 48.6498 34.7201C48.6498 33.1461 46.0531 31.8701 42.8498 31.8701C39.6466 31.8701 37.0498 33.1461 37.0498 34.7201C37.0498 36.2941 39.6466 37.5701 42.8498 37.5701Z" fill="white"/><path d="M42.8498 37.5701C46.0531 37.5701 48.6498 36.2941 48.6498 34.7201C48.6498 33.1461 46.0531 31.8701 42.8498 31.8701C39.6466 31.8701 37.0498 33.1461 37.0498 34.7201C37.0498 36.2941 39.6466 37.5701 42.8498 37.5701Z" stroke="#1E3405" stroke-linecap="round" stroke-linejoin="round"/><path d="M48.6601 32.0195V34.7195C48.6601 36.2995 46.0601 37.5695 42.8601 37.5695C39.6501 37.5695 37.0601 36.2895 37.0601 34.7195V32.0195H48.6701H48.6601Z" fill="#B1BAC2"/><path d="M48.6601 32.0195V34.7195C48.6601 36.2995 46.0601 37.5695 42.8601 37.5695C39.6501 37.5695 37.0601 36.2895 37.0601 34.7195V32.0195" stroke="#1E3405" stroke-linecap="round" stroke-linejoin="round"/><path d="M42.8498 34.8699C46.0531 34.8699 48.6498 33.5939 48.6498 32.0199C48.6498 30.4459 46.0531 29.1699 42.8498 29.1699C39.6466 29.1699 37.0498 30.4459 37.0498 32.0199C37.0498 33.5939 39.6466 34.8699 42.8498 34.8699Z" fill="white"/><path d="M42.8498 34.8699C46.0531 34.8699 48.6498 33.5939 48.6498 32.0199C48.6498 30.4459 46.0531 29.1699 42.8498 29.1699C39.6466 29.1699 37.0498 30.4459 37.0498 32.0199C37.0498 33.5939 39.6466 34.8699 42.8498 34.8699Z" stroke="#1E3405" stroke-linecap="round" stroke-linejoin="round"/><path d="M48.6601 29.3203V32.0203C48.6601 33.6003 46.0601 34.8703 42.8601 34.8703C39.6601 34.8703 37.0601 33.5903 37.0601 32.0203V29.3203H48.6701H48.6601Z" fill="#B1BAC2"/><path d="M48.6601 29.3203V32.0203C48.6601 33.6003 46.0601 34.8703 42.8601 34.8703C39.6601 34.8703 37.0601 33.5903 37.0601 32.0203V29.3203" stroke="#1E3405" stroke-linecap="round" stroke-linejoin="round"/><path d="M42.8498 32.1697C46.0531 32.1697 48.6498 30.8937 48.6498 29.3197C48.6498 27.7457 46.0531 26.4697 42.8498 26.4697C39.6466 26.4697 37.0498 27.7457 37.0498 29.3197C37.0498 30.8937 39.6466 32.1697 42.8498 32.1697Z" fill="white"/><path d="M42.8498 32.1697C46.0531 32.1697 48.6498 30.8937 48.6498 29.3197C48.6498 27.7457 46.0531 26.4697 42.8498 26.4697C39.6466 26.4697 37.0498 27.7457 37.0498 29.3197C37.0498 30.8937 39.6466 32.1697 42.8498 32.1697Z" stroke="#1E3405" stroke-linecap="round" stroke-linejoin="round"/><path d="M51.6601 25.6201V28.3201C51.6601 29.9001 49.0601 31.1701 45.8601 31.1701C42.6501 31.1701 40.0601 29.8901 40.0601 28.3201V25.6201H51.6701H51.6601Z" fill="#B1BAC2"/><path d="M51.6601 25.6201V28.3201C51.6601 29.9001 49.0601 31.1701 45.8601 31.1701C42.6501 31.1701 40.0601 29.8901 40.0601 28.3201V25.6201" stroke="#1E3405" stroke-linecap="round" stroke-linejoin="round"/><path d="M45.8498 28.4695C49.0531 28.4695 51.6498 27.1935 51.6498 25.6195C51.6498 24.0455 49.0531 22.7695 45.8498 22.7695C42.6466 22.7695 40.0498 24.0455 40.0498 25.6195C40.0498 27.1935 42.6466 28.4695 45.8498 28.4695Z" fill="white"/><path d="M45.8498 28.4695C49.0531 28.4695 51.6498 27.1935 51.6498 25.6195C51.6498 24.0455 49.0531 22.7695 45.8498 22.7695C42.6466 22.7695 40.0498 24.0455 40.0498 25.6195C40.0498 27.1935 42.6466 28.4695 45.8498 28.4695Z" stroke="#1E3405" stroke-linecap="round" stroke-linejoin="round"/><path d="M51.6601 22.9199V25.6199C51.6601 27.1999 49.0601 28.4699 45.8601 28.4699C42.6601 28.4699 40.0601 27.1899 40.0601 25.6199V22.9199H51.6701H51.6601Z" fill="#B1BAC2"/><path d="M51.6601 22.9199V25.6199C51.6601 27.1999 49.0601 28.4699 45.8601 28.4699C42.6601 28.4699 40.0601 27.1899 40.0601 25.6199V22.9199" stroke="#1E3405" stroke-linecap="round" stroke-linejoin="round"/><path d="M45.8498 25.7703C49.0531 25.7703 51.6498 24.4943 51.6498 22.9203C51.6498 21.3463 49.0531 20.0703 45.8498 20.0703C42.6466 20.0703 40.0498 21.3463 40.0498 22.9203C40.0498 24.4943 42.6466 25.7703 45.8498 25.7703Z" fill="white"/><path d="M45.8498 25.7703C49.0531 25.7703 51.6498 24.4943 51.6498 22.9203C51.6498 21.3463 49.0531 20.0703 45.8498 20.0703C42.6466 20.0703 40.0498 21.3463 40.0498 22.9203C40.0498 24.4943 42.6466 25.7703 45.8498 25.7703Z" stroke="#1E3405" stroke-linecap="round" stroke-linejoin="round"/><path d="M41.4701 44.5V47.2C41.4701 48.78 38.8701 50.05 35.6701 50.05C32.4601 50.05 29.8701 48.77 29.8701 47.2V44.5H41.4801H41.4701Z" fill="#B1BAC2"/><path d="M41.4701 44.5V47.2C41.4701 48.78 38.8701 50.05 35.6701 50.05C32.4601 50.05 29.8701 48.77 29.8701 47.2V44.5" stroke="#1E3405" stroke-linecap="round" stroke-linejoin="round"/><path d="M35.6701 47.3504C38.8734 47.3504 41.4701 46.0744 41.4701 44.5004C41.4701 42.9264 38.8734 41.6504 35.6701 41.6504C32.4669 41.6504 29.8701 42.9264 29.8701 44.5004C29.8701 46.0744 32.4669 47.3504 35.6701 47.3504Z" fill="white"/><path d="M35.6701 47.3504C38.8734 47.3504 41.4701 46.0744 41.4701 44.5004C41.4701 42.9264 38.8734 41.6504 35.6701 41.6504C32.4669 41.6504 29.8701 42.9264 29.8701 44.5004C29.8701 46.0744 32.4669 47.3504 35.6701 47.3504Z" stroke="#1E3405" stroke-linecap="round" stroke-linejoin="round"/><path d="M41.4701 41.8496V44.5496C41.4701 46.1296 38.8701 47.3996 35.6701 47.3996C32.4701 47.3996 29.8701 46.1196 29.8701 44.5496V41.8496H41.4801H41.4701Z" fill="#B1BAC2"/><path d="M41.4701 41.8496V44.5496C41.4701 46.1296 38.8701 47.3996 35.6701 47.3996C32.4701 47.3996 29.8701 46.1196 29.8701 44.5496V41.8496" stroke="#1E3405" stroke-linecap="round" stroke-linejoin="round"/><path d="M35.6701 44.7C38.8734 44.7 41.4701 43.424 41.4701 41.85C41.4701 40.276 38.8734 39 35.6701 39C32.4669 39 29.8701 40.276 29.8701 41.85C29.8701 43.424 32.4669 44.7 35.6701 44.7Z" fill="white"/><path d="M35.6701 44.7C38.8734 44.7 41.4701 43.424 41.4701 41.85C41.4701 40.276 38.8734 39 35.6701 39C32.4669 39 29.8701 40.276 29.8701 41.85C29.8701 43.424 32.4669 44.7 35.6701 44.7Z" stroke="#1E3405" stroke-linecap="round" stroke-linejoin="round"/><path d="M41.4701 39.1904V41.8904C41.4701 43.4704 38.8701 44.7404 35.6701 44.7404C32.4601 44.7404 29.8701 43.4604 29.8701 41.8904V39.1904H41.4801H41.4701Z" fill="#B1BAC2"/><path d="M41.4701 39.1904V41.8904C41.4701 43.4704 38.8701 44.7404 35.6701 44.7404C32.4601 44.7404 29.8701 43.4604 29.8701 41.8904V39.1904" stroke="#1E3405" stroke-linecap="round" stroke-linejoin="round"/><path d="M35.6701 42.0398C38.8734 42.0398 41.4701 40.7639 41.4701 39.1898C41.4701 37.6158 38.8734 36.3398 35.6701 36.3398C32.4669 36.3398 29.8701 37.6158 29.8701 39.1898C29.8701 40.7639 32.4669 42.0398 35.6701 42.0398Z" fill="white"/><path d="M35.6701 42.0398C38.8734 42.0398 41.4701 40.7639 41.4701 39.1898C41.4701 37.6158 38.8734 36.3398 35.6701 36.3398C32.4669 36.3398 29.8701 37.6158 29.8701 39.1898C29.8701 40.7639 32.4669 42.0398 35.6701 42.0398Z" stroke="#1E3405" stroke-linecap="round" stroke-linejoin="round"/><path d="M16.14 40.1396V42.8396C16.14 44.4196 13.54 45.6896 10.34 45.6896C7.14004 45.6896 4.54004 44.4096 4.54004 42.8396V40.1396H16.15H16.14Z" fill="#B1BAC2"/><path d="M16.14 40.1396V42.8396C16.14 44.4196 13.54 45.6896 10.34 45.6896C7.14004 45.6896 4.54004 44.4096 4.54004 42.8396V40.1396" stroke="#1E3405" stroke-linecap="round" stroke-linejoin="round"/><path d="M10.34 42.99C13.5433 42.99 16.14 41.714 16.14 40.14C16.14 38.566 13.5433 37.29 10.34 37.29C7.13679 37.29 4.54004 38.566 4.54004 40.14C4.54004 41.714 7.13679 42.99 10.34 42.99Z" fill="white"/><path d="M10.34 42.99C13.5433 42.99 16.14 41.714 16.14 40.14C16.14 38.566 13.5433 37.29 10.34 37.29C7.13679 37.29 4.54004 38.566 4.54004 40.14C4.54004 41.714 7.13679 42.99 10.34 42.99Z" stroke="#1E3405" stroke-linecap="round" stroke-linejoin="round"/><path d="M16.14 37.4902V40.1902C16.14 41.7702 13.54 43.0402 10.34 43.0402C7.13004 43.0402 4.54004 41.7602 4.54004 40.1902V37.4902H16.15H16.14Z" fill="#B1BAC2"/><path d="M16.14 37.4902V40.1902C16.14 41.7702 13.54 43.0402 10.34 43.0402C7.13004 43.0402 4.54004 41.7602 4.54004 40.1902V37.4902" stroke="#1E3405" stroke-linecap="round" stroke-linejoin="round"/><path d="M10.34 40.3396C13.5433 40.3396 16.14 39.0637 16.14 37.4897C16.14 35.9156 13.5433 34.6396 10.34 34.6396C7.13679 34.6396 4.54004 35.9156 4.54004 37.4897C4.54004 39.0637 7.13679 40.3396 10.34 40.3396Z" fill="white"/><path d="M10.34 40.3396C13.5433 40.3396 16.14 39.0637 16.14 37.4897C16.14 35.9156 13.5433 34.6396 10.34 34.6396C7.13679 34.6396 4.54004 35.9156 4.54004 37.4897C4.54004 39.0637 7.13679 40.3396 10.34 40.3396Z" stroke="#1E3405" stroke-linecap="round" stroke-linejoin="round"/><path d="M16.14 34.8301V37.5301C16.14 39.1101 13.54 40.3801 10.34 40.3801C7.13004 40.3801 4.54004 39.1001 4.54004 37.5301V34.8301H16.15H16.14Z" fill="#B1BAC2"/><path d="M16.14 34.8301V37.5301C16.14 39.1101 13.54 40.3801 10.34 40.3801C7.13004 40.3801 4.54004 39.1001 4.54004 37.5301V34.8301" stroke="#1E3405" stroke-linecap="round" stroke-linejoin="round"/><path d="M10.34 37.6805C13.5433 37.6805 16.14 36.4045 16.14 34.8305C16.14 33.2565 13.5433 31.9805 10.34 31.9805C7.13679 31.9805 4.54004 33.2565 4.54004 34.8305C4.54004 36.4045 7.13679 37.6805 10.34 37.6805Z" fill="white"/><path d="M10.34 37.6805C13.5433 37.6805 16.14 36.4045 16.14 34.8305C16.14 33.2565 13.5433 31.9805 10.34 31.9805C7.13679 31.9805 4.54004 33.2565 4.54004 34.8305C4.54004 36.4045 7.13679 37.6805 10.34 37.6805Z" stroke="#1E3405" stroke-linecap="round" stroke-linejoin="round"/><path d="M16.14 32.1299V34.8299C16.14 36.4099 13.54 37.6799 10.34 37.6799C7.13004 37.6799 4.54004 36.3999 4.54004 34.8299V32.1299H16.15H16.14Z" fill="#B1BAC2"/><path d="M16.14 32.1299V34.8299C16.14 36.4099 13.54 37.6799 10.34 37.6799C7.13004 37.6799 4.54004 36.3999 4.54004 34.8299V32.1299" stroke="#1E3405" stroke-linecap="round" stroke-linejoin="round"/><path d="M10.34 34.9803C13.5433 34.9803 16.14 33.7043 16.14 32.1303C16.14 30.5563 13.5433 29.2803 10.34 29.2803C7.13679 29.2803 4.54004 30.5563 4.54004 32.1303C4.54004 33.7043 7.13679 34.9803 10.34 34.9803Z" fill="white"/><path d="M10.34 34.9803C13.5433 34.9803 16.14 33.7043 16.14 32.1303C16.14 30.5563 13.5433 29.2803 10.34 29.2803C7.13679 29.2803 4.54004 30.5563 4.54004 32.1303C4.54004 33.7043 7.13679 34.9803 10.34 34.9803Z" stroke="#1E3405" stroke-linecap="round" stroke-linejoin="round"/><path d="M16.14 29.4297V32.1297C16.14 33.7097 13.54 34.9797 10.34 34.9797C7.13004 34.9797 4.54004 33.6997 4.54004 32.1297V29.4297H16.15H16.14Z" fill="#B1BAC2"/><path d="M16.14 29.4297V32.1297C16.14 33.7097 13.54 34.9797 10.34 34.9797C7.13004 34.9797 4.54004 33.6997 4.54004 32.1297V29.4297" stroke="#1E3405" stroke-linecap="round" stroke-linejoin="round"/><path d="M10.34 32.2801C13.5433 32.2801 16.14 31.0041 16.14 29.4301C16.14 27.8561 13.5433 26.5801 10.34 26.5801C7.13679 26.5801 4.54004 27.8561 4.54004 29.4301C4.54004 31.0041 7.13679 32.2801 10.34 32.2801Z" fill="white"/><path d="M10.34 32.2801C13.5433 32.2801 16.14 31.0041 16.14 29.4301C16.14 27.8561 13.5433 26.5801 10.34 26.5801C7.13679 26.5801 4.54004 27.8561 4.54004 29.4301C4.54004 31.0041 7.13679 32.2801 10.34 32.2801Z" stroke="#1E3405" stroke-linecap="round" stroke-linejoin="round"/></svg>