<svg fill="none" viewBox="0 0 56 56" xmlns="http://www.w3.org/2000/svg"><path opacity="0.2" d="M52.3199 48.1104L35.4699 43.5104C33.5299 43.0004 31.4999 43.0004 29.5599 43.5104L12.7099 48.0104C11.8899 48.2404 11.8999 49.4104 12.7299 49.6304L27.5099 53.7704C28.0299 53.9104 28.5699 53.9804 29.1099 53.9804H34.5799C34.7999 53.9804 35.0299 53.9504 35.2399 53.8904L52.3199 49.4204C52.9899 49.2404 52.9899 48.2904 52.3199 48.1204V48.1104Z" fill="black"></path><path d="M28.3799 51.3896V53.5196L46.3299 48.4896V46.3496L28.3799 51.3896Z" fill="#D9EEA8"></path><path d="M10.4399 46.3496V48.4896L28.3799 53.5196V51.3896L10.4399 46.3496Z" fill="white"></path><path d="M10.4399 46.3503L28.2999 41.3203L46.3299 46.3503L28.3799 51.3903L10.4399 46.3503Z" fill="#99CC33"></path><path d="M21.4398 49.4396C23.5798 47.8996 26.2298 47.0896 28.8598 47.1796C31.1998 47.2596 33.5098 48.0596 35.4198 49.4096L38.0898 48.6596C37.5198 47.7596 37.1698 46.6896 37.1198 45.5596C37.0898 44.9696 37.1798 44.3896 37.3498 43.8396L28.2898 41.3096L19.3798 43.8196C19.5598 44.3696 19.6798 44.9496 19.6998 45.5596C19.7498 46.6996 19.3898 47.7796 18.7798 48.6896L21.4298 49.4296L21.4398 49.4396Z" fill="#D9EEA8"></path><path d="M10.4399 46.3503L28.2999 41.3203L46.3299 46.3503L28.3799 51.3903L10.4399 46.3503Z" stroke="#1E3300" stroke-linecap="round" stroke-linejoin="round"></path><path d="M46.3299 46.3496V48.4896L28.3799 53.5196L10.4399 48.4896V46.3496" stroke="#1E3300" stroke-linecap="round" stroke-linejoin="round"></path><path d="M28.3799 51.5195V53.5195" stroke="#1E3300" stroke-linecap="round" stroke-linejoin="round"></path><path d="M30.1398 9.01039H30.8998V7.22039C30.8998 5.80039 29.7498 4.65039 28.3298 4.65039C26.9098 4.65039 25.7598 5.80039 25.7598 7.22039V9.01039H26.5498H30.1498H30.1398Z" fill="#B3BCC4"></path><path d="M25.8501 7.05957H30.7101" stroke="#1E3300" stroke-linecap="round" stroke-linejoin="round"></path><path d="M30.1398 9.01039H30.8998V7.22039C30.8998 5.80039 29.7498 4.65039 28.3298 4.65039C26.9098 4.65039 25.7598 5.80039 25.7598 7.22039V9.01039H26.5498" stroke="#1E3300" stroke-linecap="round" stroke-linejoin="round"></path><path d="M28.3301 4.54047V2.48047" stroke="#1E3300" stroke-linecap="round" stroke-linejoin="round"></path><path d="M26.4999 9.73C26.4599 10.31 26.3799 10.9 26.3399 11.48C25.9899 16.23 25.4999 20 24.9399 23.71C24.2399 28.38 23.3099 31.57 21.9099 35.31C20.3799 39.37 17.9199 42.25 14.4199 46.06C15.2599 46.31 15.8099 46.42 16.6099 46.65C17.8599 45.21 18.9799 43.94 20.6399 43.56C22.3099 43.18 24.1599 43.78 25.2899 45.05C26.4199 46.32 26.6099 48.45 26.5499 49.84L28.3799 50.4L28.3499 9H26.5499L26.5099 9.72L26.4999 9.73Z" fill="#B3BCC4"></path><path d="M30.2599 9.73C30.2999 10.31 30.3799 10.9 30.4199 11.48C30.7699 16.23 31.2599 20 31.8199 23.71C32.5199 28.38 33.4499 31.57 34.8499 35.31C36.3799 39.37 38.8399 42.25 42.3399 46.06C41.4999 46.31 40.9499 46.42 40.1499 46.65C38.8999 45.21 37.7799 43.94 36.1199 43.56C34.4599 43.18 32.5999 43.78 31.4699 45.05C30.3399 46.33 30.1499 48.45 30.2099 49.84L28.3799 50.4L28.4099 9H30.2099L30.2499 9.72L30.2599 9.73Z" fill="#61666B"></path><path d="M26.4999 9.73C26.4599 10.31 26.3799 10.9 26.3399 11.48C25.9899 16.23 25.4999 20 24.9399 23.71C24.2399 28.38 23.3099 31.57 21.9099 35.31C20.3799 39.37 17.9199 42.25 14.4199 46.06C15.2599 46.31 15.8099 46.42 16.6099 46.65C17.8599 45.21 18.9799 43.94 20.6399 43.56C22.3099 43.18 24.1599 43.78 25.2899 45.05C26.4199 46.32 26.6099 48.45 26.5499 49.84L28.3799 50.4L28.3499 9H26.5499L26.5099 9.72L26.4999 9.73Z" stroke="#1E3300" stroke-linecap="round" stroke-linejoin="round"></path><path d="M20.6099 38.1504L28.3399 40.4904" stroke="#1E3300" stroke-linecap="round" stroke-linejoin="round"></path><path d="M23.6099 30.2305L28.3099 31.6505" stroke="#1E3300" stroke-linecap="round" stroke-linejoin="round"></path><path d="M25.5601 19.8398L28.2301 20.5798" stroke="#1E3300" stroke-linecap="round" stroke-linejoin="round"></path><path d="M30.2201 9.72976C30.2601 10.3098 30.3401 10.8998 30.3801 11.4798C30.7301 16.2298 31.2201 19.9998 31.7801 23.7098C32.4801 28.3798 33.4101 31.5698 34.8101 35.3098C36.3401 39.3698 38.8401 42.2298 42.3501 46.0398C41.5601 46.2698 40.7801 46.4898 40.1101 46.6498C38.8601 45.2098 37.7401 43.9398 36.0801 43.5598C34.4201 43.1798 32.5601 43.7798 31.4301 45.0498C30.3001 46.3298 30.1101 48.4498 30.1701 49.8398L28.3701 50.3998V9.00977H30.1701L30.2101 9.72976H30.2201Z" stroke="#1E3300" stroke-linecap="round" stroke-linejoin="round"></path><path d="M36.1101 38.1504L28.3701 40.4904" stroke="#1E3300" stroke-linecap="round" stroke-linejoin="round"></path><path d="M33.1102 30.2305L28.4102 31.6505" stroke="#1E3300" stroke-linecap="round" stroke-linejoin="round"></path><path d="M31.1602 19.8398L28.4902 20.5798" stroke="#1E3300" stroke-linecap="round" stroke-linejoin="round"></path><path d="M36.9902 29.4305C39.1702 25.1605 42.0902 21.2705 45.5702 17.9805" stroke="#B3BCC4" stroke-linecap="round" stroke-linejoin="round"></path><path d="M34.3799 13.8496C35.7599 11.5796 37.8199 8.39965 39.8999 6.88965" stroke="#B3BCC4" stroke-linecap="round" stroke-linejoin="round"></path><path d="M11.8599 14.1797C16.7099 16.8697 20.2399 21.8297 21.1799 27.2897" stroke="#B3BCC4" stroke-linecap="round" stroke-linejoin="round"></path><path d="M35.2798 4.63965C36.1698 4.73965 37.0498 5.03965 37.8098 5.51965" stroke="#B3BCC4" stroke-linecap="round" stroke-linejoin="round"></path><path d="M40.1699 1.86035C40.4299 2.65035 40.5499 3.50035 40.5099 4.34035" stroke="#B3BCC4" stroke-linecap="round" stroke-linejoin="round"></path><path d="M42.3501 6.34011C43.4601 6.14011 44.6501 6.41011 45.5801 7.06011" stroke="#B3BCC4" stroke-linecap="round" stroke-linejoin="round"></path><path d="M41.0498 8.69043C41.3098 9.38043 41.4298 10.1304 41.3998 10.8704" stroke="#B3BCC4" stroke-linecap="round" stroke-linejoin="round"></path><path d="M40.5698 15.9101C41.6498 15.6201 42.8398 15.7801 43.7998 16.3501" stroke="#B3BCC4" stroke-linecap="round" stroke-linejoin="round"></path><path d="M46.2301 15.5103C46.4301 14.5203 46.3001 13.4803 45.8701 12.5703" stroke="#B3BCC4" stroke-linecap="round" stroke-linejoin="round"></path><path d="M47.5098 17.2695C48.6998 17.4295 49.7798 18.2095 50.2998 19.2895" stroke="#B3BCC4" stroke-linecap="round" stroke-linejoin="round"></path><path d="M46.6602 19.6201C47.2802 20.8501 47.4802 22.2801 47.2102 23.6301" stroke="#B3BCC4" stroke-linecap="round" stroke-linejoin="round"></path><path d="M48.27 15.2703C49.12 14.6103 50.15 14.1803 51.21 14.0303" stroke="#B3BCC4" stroke-linecap="round" stroke-linejoin="round"></path><path d="M9.38994 15.2598C8.09994 15.6498 7.03994 16.7398 6.68994 18.0398" stroke="#B3BCC4" stroke-linecap="round" stroke-linejoin="round"></path><path d="M6.62988 12.0401C7.90988 11.8501 9.24988 12.1601 10.3199 12.8901" stroke="#B3BCC4" stroke-linecap="round" stroke-linejoin="round"></path><path d="M12.3999 11.8597C12.5599 10.4997 13.3299 9.22973 14.4699 8.46973" stroke="#B3BCC4" stroke-linecap="round" stroke-linejoin="round"></path><path d="M14.21 12.8604C15.54 12.1704 17.17 12.0804 18.57 12.6404" stroke="#B3BCC4" stroke-linecap="round" stroke-linejoin="round"></path><path d="M11.1698 16.54C10.9998 17.72 11.1998 18.95 11.7398 20.01" stroke="#B3BCC4" stroke-linecap="round" stroke-linejoin="round"></path></svg>