<svg fill="none" viewBox="0 0 56 56" xmlns="http://www.w3.org/2000/svg"><path opacity="0.2" d="M52.5101 45.2998C52.5501 44.7598 52.2001 44.2598 51.6701 44.1198L36.4701 39.9898L29.8601 38.0798C29.6001 38.0098 29.3301 37.9998 29.0701 38.0498L20.6501 39.8398L7.31009 42.9898C5.49009 43.4198 5.46009 45.9898 7.27009 46.4698L24.9601 51.1198C25.4301 51.2498 25.9201 51.3198 26.4101 51.3198L30.8001 51.3698C31.2501 51.3698 31.7001 51.3198 32.1401 51.2098L51.6601 46.3298C52.1401 46.2098 52.4901 45.7998 52.5201 45.3098L52.5101 45.2998Z" fill="black"></path><path d="M34.23 10.5998L38.08 9.58984L41.97 10.5998L38.1 11.6098L34.23 10.5998Z" fill="#B1BAC2"></path><path d="M34.23 10.6001L38.1 11.6101V22.6501L34.23 21.6401V10.6001Z" fill="white"></path><path d="M38.1001 11.6101L41.9701 10.6001V21.6401L38.1001 22.6501V11.6101Z" fill="#1E3304"></path><path d="M34.23 10.5998L38.08 9.58984L41.97 10.5998L38.1 11.6098L34.23 10.5998Z" stroke="#1E3405" stroke-linecap="round" stroke-linejoin="round"></path><path d="M38.1001 11.6099V22.6499" stroke="#1E3405" stroke-linecap="round" stroke-linejoin="round"></path><path d="M41.9702 10.6001V21.6401" stroke="#1E3405" stroke-linecap="round" stroke-linejoin="round"></path><path d="M34.23 10.6001V21.6401" stroke="#1E3405" stroke-linecap="round" stroke-linejoin="round"></path><path d="M3.16016 44.94V42.84L24.8302 39.25L46.7202 44.94L24.9402 50.64L3.16016 44.94Z" fill="white"></path><path d="M3.16016 41.7798L24.8302 36.0898L46.7202 41.7798L24.9402 47.4798L3.16016 41.7798Z" fill="white"></path><path d="M46.7199 23.2501V44.9401L24.9399 50.6401V28.9401L37.4699 17.1401L46.7199 23.2501Z" fill="#B1BAC2"></path><path d="M9 24.77V46.51L24.94 50.68V28.94L9 24.77Z" fill="#D7ECA6"></path><path d="M9 31.9902V43.4102L18.78 45.8702V34.4402L9 31.9902Z" fill="white"></path><path d="M21.54 12.9702L37.47 17.1402L24.94 28.9402L9 24.7702L21.54 12.9702Z" fill="#97CA33"></path><path d="M9.00016 31.9902L18.7802 34.4402V45.8702L3.16016 41.7802V44.9402L24.9402 50.6402" stroke="#1E3405" stroke-linecap="round" stroke-linejoin="round"></path><path d="M3.16016 41.7798L8.89016 40.2798" stroke="#1E3405" stroke-linecap="round" stroke-linejoin="round"></path><path d="M9 24.7702L21.54 12.9702L37.47 17.1402L46.72 23.2502V44.9402L24.94 50.6402V28.9402L9 24.7702ZM9 24.7702V46.4102" stroke="#1E3405" stroke-linecap="round" stroke-linejoin="round"></path><path d="M24.9399 28.9401L37.4699 17.1401" stroke="#1E3405" stroke-linecap="round" stroke-linejoin="round"></path><path d="M27.8599 44.51L30.5499 43.81L30.5799 37.71L27.8799 38.41L27.8599 44.51Z" stroke="#1E3405" stroke-linecap="round" stroke-linejoin="round"></path><path d="M32.8701 43.1901L35.5701 42.4901L35.5901 36.3901L32.8901 37.0901L32.8701 43.1901Z" stroke="#1E3405" stroke-linecap="round" stroke-linejoin="round"></path><path d="M27.8599 44.6899L30.5499 43.9899L30.5799 37.3999L27.8799 38.0999L27.8599 44.6899Z" fill="#1E3304"></path><path d="M32.8701 43.3701L35.5701 42.6701L35.5901 36.0801L32.8901 36.7801L32.8701 43.3701Z" fill="#1E3304"></path><path d="M38.8799 35.6399V46.7599L43.5399 45.5499V34.4399L38.8799 35.6399Z" fill="#1E3304"></path><path d="M34.0698 32.0901L41.4998 30.1401L46.5298 33.8301L39.0498 35.7801L34.0698 32.0901Z" fill="white"></path><path d="M34.0698 32.0901L41.4998 30.1401L46.5298 33.8301L39.0498 35.7801L34.0698 32.0901Z" stroke="#1E3405" stroke-linecap="round" stroke-linejoin="round"></path><path d="M28.1199 22.2802L17.8399 19.6102C17.5899 19.5402 17.4999 19.2202 17.6899 19.0402C18.0099 18.7302 18.4699 18.6102 18.8999 18.7202L29.1799 21.3902C29.4299 21.4602 29.5199 21.7802 29.3299 21.9602C29.0099 22.2702 28.5499 22.3902 28.1199 22.2802Z" fill="#1E3100" stroke="#1E3100" stroke-linecap="round" stroke-linejoin="round"></path><mask id="mask0_2337_1783" style="mask-type:luminance" maskUnits="userSpaceOnUse" x="15" y="5" width="18" height="18"><path d="M28.96 22.2902C28.42 22.4302 27.8 22.2902 27.27 22.1302C23.64 21.0702 21.07 20.6702 18.03 19.7302C17.77 19.6502 17.46 19.0102 17.37 18.7502L15.46 9.49016L23.92 5.66016L30.47 7.66016L32.13 13.5502L31.44 17.4902L28.96 22.2902Z" fill="white"></path></mask><g mask="url(#mask0_2337_1783)"><path d="M21.5698 8.50014L23.2998 8.04014H23.3498C26.0998 7.42014 29.0998 9.84014 30.1198 13.5501C31.1398 17.2101 29.8498 20.7901 27.2498 21.7401L27.1998 21.7601L24.9098 22.3701L21.5598 8.51014L21.5698 8.50014Z" fill="#B1BAC2"></path><path d="M25.1146 22.2969C27.914 21.5205 29.3302 17.8151 28.2779 14.0205C27.2256 10.2259 24.1032 7.77918 21.3038 8.55551C18.5044 9.33184 17.0882 13.0373 18.1405 16.8319C19.1928 20.6264 22.3153 23.0732 25.1146 22.2969Z" fill="white"></path><path d="M25.1146 22.2969C27.914 21.5205 29.3302 17.8151 28.2779 14.0205C27.2256 10.2259 24.1032 7.77918 21.3038 8.55551C18.5044 9.33184 17.0882 13.0373 18.1405 16.8319C19.1928 20.6264 22.3153 23.0732 25.1146 22.2969Z" stroke="#1E3100" stroke-linecap="round" stroke-linejoin="round"></path><path d="M21.5698 8.50014L23.2998 8.04014H23.3498C26.0998 7.42014 29.0998 9.84014 30.1198 13.5501C31.1398 17.2101 29.8498 20.7901 27.2498 21.7401L27.1998 21.7601L24.9098 22.3701" stroke="#1E3100" stroke-linecap="round" stroke-linejoin="round"></path><path d="M27.8399 22.2802L16.8499 19.4202" stroke="#1E3100" stroke-linecap="round" stroke-linejoin="round"></path></g><path d="M27.5902 22.1399C24.2002 21.1499 21.7902 20.7699 18.9502 19.8999" stroke="#1E3100" stroke-linecap="round" stroke-linejoin="round"></path></svg>