<svg fill="none" viewBox="0 0 56 56" xmlns="http://www.w3.org/2000/svg"><path opacity="0.2" d="M48.9302 46.31L32.1802 41.34C30.2502 40.79 28.2202 40.75 26.2702 41.21L9.32021 45.61C8.49021 45.82 8.48021 46.99 9.30021 47.23L24.0002 51.42C24.5202 51.57 25.0602 51.65 25.6002 51.66L31.0702 51.78C31.2902 51.78 31.5202 51.76 31.7302 51.71L48.9002 47.61C49.5702 47.45 49.6002 46.5 48.9302 46.31Z" fill="black"></path><path d="M18.3701 7.2203L22.5501 6.0503L22.7601 6.0003C23.3701 5.8903 24.0101 5.9103 24.6601 6.0903L49.8301 13.1503C52.0201 13.7603 53.5401 15.7603 53.5401 18.0403V22.5803C53.5401 24.5003 52.2801 26.0603 50.6101 26.6003L50.4901 26.6303L46.3101 27.8003L18.3701 7.2203Z" fill="#61666B"></path><path d="M15.0898 11.3402V15.8802C15.0898 18.1602 16.5998 20.1502 18.7998 20.7702L43.9698 27.8302C46.6698 28.5902 49.3398 26.5602 49.3398 23.7602V19.2202C49.3398 16.9402 47.8298 14.9502 45.6298 14.3302L20.4598 7.27017C17.7598 6.51017 15.0898 8.54017 15.0898 11.3402Z" fill="#B3BCC4"></path><path d="M42.31 21.27C40.95 22.69 40.02 24.52 39.66 26.45C39.39 26.35 39.03 26.38 38.74 26.4C33.02 24.28 26.78 22.85 20.98 20.96C20.98 18.93 22.41 16.34 23.96 15.04C24.01 15.06 24.07 15.08 24.12 15.1L42.3 21.28L42.31 21.27Z" fill="#1E3300"></path><path d="M15.0898 11.3402V15.8802C15.0898 18.1602 16.5998 20.1502 18.7998 20.7702L43.9698 27.8302C46.6698 28.5902 49.3398 26.5602 49.3398 23.7602V19.2202C49.3398 16.9402 47.8298 14.9502 45.6298 14.3302L20.4598 7.27017C17.7598 6.51017 15.0898 8.54017 15.0898 11.3402Z" stroke="#1E3300" stroke-linecap="round" stroke-linejoin="round"></path><path d="M20.5398 13.2399L43.9198 19.7999C44.3498 19.9199 44.6498 20.3199 44.6498 20.7699V21.1299C44.6498 21.6299 44.1698 21.9999 43.6798 21.8599L20.2998 15.2999C19.8698 15.1799 19.5698 14.7799 19.5698 14.3299V13.9699C19.5698 13.4699 20.0498 13.0999 20.5398 13.2399Z" fill="#1E3300" stroke="#1E3300" stroke-linecap="round" stroke-linejoin="round"></path><path d="M18.3701 7.2203L22.5501 6.0503L22.7601 6.0003C23.3701 5.8903 24.0101 5.9103 24.6601 6.0903L49.8301 13.1503C52.0201 13.7603 53.5401 15.7603 53.5401 18.0403V22.5803C53.5401 24.5003 52.2801 26.0603 50.6101 26.6003L50.4901 26.6303L46.3101 27.8003" stroke="#1E3300" stroke-linecap="round" stroke-linejoin="round"></path><path d="M44.2398 20.7304C38.1898 20.7104 37.4198 32.5604 36.0998 38.4604C34.7198 44.6504 30.1698 48.3504 24.2698 51.0004L3.7998 45.1304C9.7998 42.8704 14.0098 38.0804 15.6298 32.5904C17.3498 26.7804 17.7098 14.8404 23.7698 14.8604L44.2398 20.7304Z" fill="white"></path><path d="M32.6301 41.1401C33.1701 40.0701 33.5901 38.9101 33.8701 37.6401C35.1901 31.7301 35.9501 19.8901 42.0101 19.9101L25.5701 15.5801C19.5201 15.5601 19.1501 27.5101 17.4301 33.3101C17.1001 34.4401 16.6501 35.5301 16.1001 36.5801L32.6301 41.1401Z" fill="#99CC33"></path><path d="M13.8599 36.8204C17.3599 35.9704 21.3799 34.4004 24.3299 32.3104C24.4899 32.2004 24.4299 31.9804 24.2499 31.9104C23.4599 31.6204 22.6199 31.4404 21.8999 31.2104C26.2999 26.3304 30.8899 22.3104 36.0799 18.2804C33.4899 17.3004 30.6599 16.5504 27.9199 16.1504C23.5999 19.9504 16.5299 29.0104 16.5299 29.0104C16.5299 29.0104 15.7699 33.6604 13.8599 36.8204Z" fill="#1E3300"></path><path d="M44.2398 20.7304C38.1898 20.7104 37.4198 32.5604 36.0998 38.4604C34.7198 44.6504 30.1698 48.3504 24.2698 51.0004L3.7998 45.1304C9.7998 42.8704 14.0098 38.0804 15.6298 32.5904C17.3498 26.7804 17.7098 14.8404 23.7698 14.8604L44.2398 20.7304Z" stroke="#1E3300" stroke-linecap="round" stroke-linejoin="round"></path><path d="M36.5002 18.44L20.5002 31.15L24.1802 32.11L13.6802 34.03C12.3002 34.28 10.9702 33.88 10.6602 33.11L8.4502 27.7L12.1002 28.72L28.0602 16.04" fill="#99CC33"></path><path d="M13.48 32.3499L30.31 19.1299" stroke="#497D00" stroke-linecap="round" stroke-linejoin="round"></path><path d="M17.1801 31.75L13.3901 32.44L12.5801 30.46" stroke="#497D00" stroke-linecap="round" stroke-linejoin="round"></path><path d="M28.0402 16.04L12.0802 28.72L8.43018 27.7L10.6402 33.11C10.9502 33.88 12.2802 34.28 13.6602 34.03L24.1602 32.11L20.5702 31.08L36.4802 18.44" stroke="#1E3300" stroke-linecap="round" stroke-linejoin="round"></path><path d="M36.5002 18.44L20.5002 31.15L24.1802 32.11L13.6802 34.03C12.3002 34.28 10.9702 33.88 10.6602 33.11L8.4502 27.7L12.1002 28.72L28.0602 16.04L36.5202 18.43L36.5002 18.44Z" fill="#99CC33"></path><path d="M28.0402 16.04L12.0802 28.72L8.43018 27.7L10.6402 33.11C10.9502 33.88 12.2802 34.28 13.6602 34.03L24.1602 32.11L20.5702 31.08L36.4802 18.44L28.0202 16.05L28.0402 16.04Z" stroke="#1E3300" stroke-linecap="round" stroke-linejoin="round"></path></svg>