<svg fill="none" viewBox="0 0 56 56" xmlns="http://www.w3.org/2000/svg" aria-label=""><path opacity="0.2" d="M17.956 45.9293L12.2754 47.4695C11.4964 47.6739 11.4964 48.7798 12.2754 48.9842L22.6763 51.7887C22.9368 51.8577 23.2024 51.8909 23.4706 51.8909H26.1807C26.2905 51.8909 26.4029 51.8756 26.5102 51.8475L32.1984 50.3098C32.7782 50.2153 33.2124 49.4363 32.436 49.0302L20.8857 45.9319C19.9254 45.6816 18.9164 45.6816 17.956 45.9319V45.9293Z" fill="black"></path><path opacity="0.2" d="M50.6937 36.7279C50.6937 36.0204 50.2212 35.3997 49.5367 35.2158L31.9508 30.4267C29.8921 29.8877 27.7312 29.8877 25.6725 30.4267L10.4825 34.6335C10.0177 34.751 9.68816 35.1699 9.68561 35.6501C9.6805 36.1277 9.99722 36.5466 10.457 36.6769L28.4183 41.3792C28.9751 41.5248 29.5473 41.5989 30.122 41.5989H35.9303C36.1678 41.5989 36.4054 41.5682 36.6353 41.5095L49.5137 38.2528C50.211 38.0766 50.6963 37.4508 50.6963 36.7331L50.6937 36.7279Z" fill="black"></path><path d="M45.7845 36.5083C45.9736 36.2631 46.0808 35.9617 46.0834 35.65C46.0936 34.8761 46.0834 33.507 45.7769 33.4253L24.2856 29.8009C24.255 29.7958 24.2243 29.7881 24.1937 29.7804C23.2716 29.548 22.3061 29.5454 21.384 29.7753C21.3329 29.7881 21.2818 29.7983 21.2308 29.8034L5.30005 31.8442C5.01142 31.9209 5.06506 33.2542 5.0906 33.9821C5.10082 34.2682 5.19532 34.5466 5.3588 34.7816L5.36646 34.7918C5.5759 35.0881 5.88241 35.3001 6.22979 35.3921L26.9139 40.7968C27.8718 41.0471 28.8756 41.0471 29.8334 40.7968L44.9876 37.0217C45.3018 36.9425 45.5802 36.7611 45.7769 36.5057L45.7845 36.5083Z" fill="#99CC33"></path><path d="M13.6445 35.0811L13.8565 35.5945C14.0251 36.0031 14.3776 36.3096 14.8067 36.422L19.5244 37.6481C19.8871 37.7426 20.2753 37.6889 20.5971 37.4974L21.3481 37.0529" stroke="#3B6600" stroke-linecap="round" stroke-linejoin="round"></path><path d="M5.10059 32.0391V33.9317C5.10059 34.2434 5.19765 34.5473 5.37644 34.8027C5.58078 35.0939 5.88218 35.3034 6.227 35.3928L26.9188 40.8001C27.8766 41.0504 28.8804 41.0504 29.8383 40.8001L45.0002 37.0224C45.3092 36.9457 45.5851 36.7669 45.7792 36.5141C45.9708 36.2663 46.0755 35.9624 46.0755 35.6482V33.6993" stroke="#1E3300" stroke-linecap="round" stroke-linejoin="round"></path><path d="M45.4805 32.9247L24.2421 27.3616C23.2817 27.1112 22.2728 27.1112 21.3124 27.3616L5.69587 31.2721C4.90151 31.4815 4.90151 32.6105 5.69587 32.8174L26.9215 38.3652C27.8793 38.6155 28.8831 38.6155 29.841 38.3652L45.4805 34.4674C46.2749 34.2605 46.2749 33.129 45.4805 32.9221V32.9247Z" fill="#D9EEA8"></path><path d="M45.4805 32.9247L24.2421 27.3616C23.2817 27.1112 22.2728 27.1112 21.3124 27.3616L5.69587 31.2721C4.90151 31.4815 4.90151 32.6105 5.69587 32.8174L26.9215 38.3652C27.8793 38.6155 28.8831 38.6155 29.841 38.3652L45.4805 34.4674C46.2749 34.2605 46.2749 33.129 45.4805 32.9221V32.9247Z" stroke="#1E3300" stroke-linecap="round" stroke-linejoin="round"></path><path d="M41.4933 36.8303V36.8558C41.4678 37.0014 41.3605 37.1266 41.2277 37.1598L39.6236 37.5787C39.4346 37.6272 39.2814 37.4765 39.312 37.2722V37.2466C39.3376 37.1011 39.4448 36.9759 39.5777 36.9427L41.1817 36.5238C41.3707 36.4753 41.524 36.626 41.4933 36.8303Z" fill="#497800"></path><path d="M44.612 36.0237V36.0492C44.5864 36.1948 44.4792 36.32 44.3463 36.3532L42.7423 36.7721C42.5533 36.8206 42.4 36.6699 42.4307 36.4655V36.44C42.4562 36.2944 42.5635 36.1693 42.6963 36.136L44.3004 35.7172C44.4894 35.6686 44.6426 35.8193 44.612 36.0237Z" fill="#497800"></path><path d="M27.0209 33.9664L20.6711 32.3036C20.3851 32.2295 20.0811 32.2295 19.795 32.3036L15.1259 33.4734C14.8884 33.5347 14.8884 33.8745 15.1259 33.9358L21.4706 35.5934C21.7567 35.6675 22.0581 35.6675 22.3442 35.5934L27.0184 34.4287C27.2559 34.3674 27.2559 34.0303 27.0184 33.9664H27.0209Z" fill="white"></path><path d="M18.0659 34.6881L20.2906 34.1338" stroke="#C9D0D6" stroke-miterlimit="10" stroke-linecap="round"></path><path d="M24.0377 35.0804L16.5461 33.1162" stroke="#C9D0D6" stroke-miterlimit="10" stroke-linecap="round"></path><path d="M27.0209 33.9664L20.6711 32.3036C20.3851 32.2295 20.0811 32.2295 19.795 32.3036L15.1259 33.4734C14.8884 33.5347 14.8884 33.8745 15.1259 33.9358L21.4706 35.5934C21.7567 35.6675 22.0581 35.6675 22.3442 35.5934L27.0184 34.4287C27.2559 34.3674 27.2559 34.0303 27.0184 33.9664H27.0209Z" stroke="#1E3300" stroke-linecap="round" stroke-linejoin="round"></path><path d="M36.3669 35.0814L16.1655 29.7891" stroke="#1E3300" stroke-linecap="round" stroke-linejoin="round"></path><path d="M39.3068 34.631L18.2268 29.1113" stroke="#1E3300" stroke-linecap="round" stroke-linejoin="round"></path><path d="M41.7794 34.0621L20.6636 28.5322" stroke="#1E3300" stroke-linecap="round" stroke-linejoin="round"></path><path d="M39.6748 32.2509L25.3609 28.5013C25.0902 28.4297 24.873 28.2254 24.7888 27.9572L24.6355 27.4668L42.2214 32.0721L41.1384 32.2917C40.6531 32.3913 40.1524 32.376 39.6748 32.2509Z" fill="#1E3300" stroke="#1E3300" stroke-linecap="round" stroke-linejoin="round"></path><path d="M25.0007 7.26034L22.6023 25.0224C22.4312 26.039 23.0646 27.0147 24.0608 27.2753L45.8637 32.9763C46.7244 33.2011 47.5903 32.6391 47.7385 31.763L50.1369 14.0009C50.308 12.9844 49.6746 12.0087 48.6784 11.7481L26.8755 6.04964C26.0148 5.82487 25.1489 6.3868 25.0007 7.2629V7.26034Z" fill="white"></path><path d="M31.8229 12.2423L32.3082 8.71746L27.8383 7.55273L27.353 11.0776L31.8229 12.2423Z" fill="#1E3300"></path><path d="M46.6655 31.0473L48.9388 14.0234C49.0282 13.487 48.6962 12.9685 48.1674 12.8306L26.8447 7.25469C26.4923 7.16273 26.1372 7.39261 26.0785 7.7502L23.7822 24.9069" stroke="#C9D0D6" stroke-miterlimit="10" stroke-linecap="round"></path><path d="M25.0007 7.26034L22.6023 25.0224C22.4312 26.039 23.0646 27.0147 24.0608 27.2753L45.8637 32.9763C46.7244 33.2011 47.5903 32.6391 47.7385 31.763L50.1369 14.0009C50.308 12.9844 49.6746 12.0087 48.6784 11.7481L26.8755 6.04964C26.0148 5.82487 25.1489 6.3868 25.0007 7.2629V7.26034Z" stroke="#1E3300" stroke-linecap="round" stroke-linejoin="round"></path><path d="M27.067 36.6342L28.1296 36.3558C28.2905 36.3124 28.459 36.3124 28.62 36.3558L29.6978 36.6368C29.8485 36.6751 29.8485 36.8896 29.6978 36.928L28.6276 37.2064C28.4667 37.2472 28.2981 37.2472 28.1372 37.2064L27.0644 36.9254C26.9137 36.8871 26.9137 36.6725 27.0644 36.6342H27.067Z" stroke="#99CC33" stroke-linecap="round" stroke-linejoin="round"></path><path d="M30.5 16.3492L29.8257 21.4653C30.2293 21.5138 30.6124 21.6083 30.9776 21.7411L31.6673 16.505C31.7056 16.2061 31.5166 15.9277 31.2228 15.8562C30.8831 15.7719 30.5434 16.0043 30.4974 16.3517L30.5 16.3492Z" fill="#99CC33"></path><path d="M32.8806 14.6242L31.9585 21.9472C32.3621 21.9957 32.7452 22.0902 33.1105 22.223L34.0504 14.7774C34.0887 14.4786 33.8997 14.2002 33.606 14.1287C33.2663 14.0444 32.9265 14.2768 32.8806 14.6242Z" fill="#B3BCC4"></path><path d="M34.7271 17.5923L34.0527 22.7084C34.4563 22.757 34.8394 22.8515 35.2047 22.9843L35.8943 17.7481C35.9326 17.4493 35.7436 17.1709 35.4499 17.0994C35.1102 17.0151 34.7705 17.2475 34.7245 17.5949L34.7271 17.5923Z" fill="#99CC33"></path><path d="M37.1076 15.8664L36.1855 23.1893C36.5891 23.2379 36.9722 23.3324 37.3375 23.4652L38.2775 16.0196C38.3158 15.7208 38.1268 15.4424 37.833 15.3708C37.4933 15.2866 37.1536 15.519 37.1076 15.8664Z" fill="#B3BCC4"></path><path d="M39.0949 16.6587L38.1958 23.642C38.5994 23.6905 38.9825 23.785 39.3478 23.9179L40.2622 16.8145C40.3005 16.5157 40.1115 16.2373 39.8177 16.1658C39.478 16.0815 39.1383 16.3139 39.0923 16.6613L39.0949 16.6587Z" fill="#99CC33"></path><path d="M41.4753 14.9331L40.3259 24.1233C40.7295 24.1718 41.1126 24.2663 41.4779 24.3991L42.6426 15.089C42.6809 14.7901 42.4919 14.5117 42.1982 14.4402C41.8585 14.3559 41.5188 14.5883 41.4728 14.9357L41.4753 14.9331Z" fill="#B3BCC4"></path><path d="M28.8372 21.2041L42.4129 24.7187" stroke="#1E3300" stroke-linecap="round" stroke-linejoin="round"></path><path d="M34.9902 25.6378C35.2354 26.4705 34.9263 27.3338 34.298 27.5663C33.6696 27.7987 32.9621 27.3134 32.7169 26.4807C32.4717 25.648 32.7808 24.7847 33.4091 24.5523C34.0374 24.3198 34.745 24.8051 34.9902 25.6378Z" fill="#99CC33"></path><path d="M27.9382 23.837C28.1834 24.6697 27.8743 25.533 27.246 25.7655C26.6176 25.9979 25.9101 25.5126 25.6649 24.6799C25.4197 23.8473 25.7288 22.9839 26.3571 22.7515C26.9854 22.5191 27.693 23.0044 27.9382 23.837Z" fill="#D9EEA8"></path><path d="M41.5166 29.5503C42.1502 29.3861 42.4837 28.5578 42.2614 27.7003C42.0391 26.8427 41.3453 26.2806 40.7117 26.4448C40.0781 26.6091 39.7446 27.4374 39.9669 28.2949C40.1891 29.1525 40.883 29.7146 41.5166 29.5503Z" fill="#497E17"></path><path d="M31.4092 24.9482L28.7502 24.2637" stroke="#C9D0D6" stroke-linecap="round" stroke-linejoin="round"></path><path d="M30.2215 25.8569L28.7502 25.4814" stroke="#C9D0D6" stroke-linecap="round" stroke-linejoin="round"></path><path d="M38.5636 26.7415L35.9021 26.0596" stroke="#C9D0D6" stroke-linecap="round" stroke-linejoin="round"></path><path d="M37.3759 27.6524L35.9021 27.2744" stroke="#C9D0D6" stroke-linecap="round" stroke-linejoin="round"></path><path d="M45.7157 28.6957L43.0542 28.0137" stroke="#C9D0D6" stroke-linecap="round" stroke-linejoin="round"></path><path d="M44.5254 29.6085L43.0542 29.2305" stroke="#C9D0D6" stroke-linecap="round" stroke-linejoin="round"></path><path d="M20.9726 26.4982L11.5858 46.6817C11.1235 47.6753 11.6752 48.8426 12.7327 49.121L22.0684 51.5628C23.3557 51.9 24.6967 51.2665 25.2586 50.0609L34.6454 29.8774C35.1077 28.8838 34.556 27.7165 33.4986 27.4381L24.1628 24.9963C22.8755 24.6591 21.5345 25.2926 20.9726 26.4982Z" fill="#99CC33"></path><path d="M32.3135 31.042L33.4169 32.3319" stroke="#3B6600" stroke-linecap="round" stroke-linejoin="round"></path><path d="M31.9968 33.5374C32.1296 33.545 32.2113 33.7341 32.1449 33.8771L31.1743 35.9843C31.1207 36.0993 31.0262 36.1682 30.9189 36.1682H30.9138C30.7784 36.1682 30.6916 35.9741 30.7605 35.8285L31.7311 33.7213C31.7873 33.6012 31.887 33.5323 31.9968 33.5374Z" fill="#497A17"></path><path d="M30.3798 37.051C30.5127 37.0587 30.5944 37.2477 30.528 37.3908L29.5574 39.498C29.5037 39.6129 29.4092 39.6819 29.302 39.6819H29.2969C29.1615 39.6819 29.0746 39.4878 29.1436 39.3422L30.1142 37.235C30.1704 37.1149 30.27 37.0459 30.3798 37.051Z" fill="#497A17"></path><path d="M24.6226 47.5273L25.7975 48.9015" stroke="#3B6600" stroke-linecap="round" stroke-linejoin="round"></path><path d="M19.7978 25.1163L10.411 45.2998C9.94871 46.2934 10.5004 47.4607 11.5579 47.7391L20.8936 50.181C22.1809 50.5181 23.5219 49.8847 24.0838 48.6791L33.4706 28.4956C33.9329 27.502 33.3812 26.3347 32.3237 26.0563L22.988 23.6145C21.7007 23.2773 20.3597 23.9108 19.7978 25.1163Z" fill="white"></path><path d="M22.1655 25.0918L21.9841 25.526L23.2331 25.8683L23.4171 25.4315L22.1655 25.0918Z" stroke="#B3BCC4" stroke-linecap="round" stroke-linejoin="round"></path><path d="M22.9267 25.3311L22.4695 25.6581L22.0225 25.4997L22.2166 25.1523L22.9267 25.3311Z" fill="#B3BCC4"></path><path d="M29.9712 27.6077L30.0631 27.3906" stroke="#B3BCC4" stroke-linecap="round" stroke-linejoin="round"></path><path d="M30.6226 27.804L30.8065 27.3672" stroke="#B3BCC4" stroke-linecap="round" stroke-linejoin="round"></path><path d="M31.2712 28.0008L31.6186 27.1758" stroke="#B3BCC4" stroke-linecap="round" stroke-linejoin="round"></path><path d="M26.2598 36.9879C26.035 39.4298 23.7387 41.7158 21.1283 42.0913C18.5179 42.4668 16.5818 40.7937 16.8066 38.3519C17.0313 35.9101 19.3276 33.624 21.938 33.2486C24.5484 32.8705 26.4845 34.5461 26.2598 36.9879Z" fill="#99CC33"></path><path d="M19.7978 25.1163L10.411 45.2998C9.94871 46.2934 10.5004 47.4607 11.5579 47.7391L20.8936 50.181C22.1809 50.5181 23.5219 49.8847 24.0838 48.6791L33.4706 28.4956C33.9329 27.502 33.3812 26.3347 32.3237 26.0563L22.988 23.6145C21.7007 23.2773 20.3597 23.9108 19.7978 25.1163Z" stroke="#1E3300" stroke-linecap="round" stroke-linejoin="round"></path><path d="M24.5485 25.876C24.4106 26.1698 24.5715 26.5171 24.8831 26.6065L28.0453 27.4545C28.3492 27.5388 28.6685 27.3932 28.8013 27.1072C28.9392 26.8134 28.7783 26.466 28.4667 26.3766L25.3046 25.5286C25.0006 25.4444 24.6813 25.5899 24.5485 25.876Z" fill="#1E3300"></path><path d="M10.6741 47.1872L11.9614 48.6891L12.0431 48.7657C12.0917 48.8066 12.1428 48.8449 12.1964 48.8807C12.3548 48.9879 12.5335 49.0697 12.7328 49.1208L22.0685 51.5626C23.3558 51.8998 24.6968 51.2663 25.2587 50.0607L34.6455 29.8772C34.8064 29.5298 34.8447 29.1595 34.7809 28.8147C34.7374 28.5822 34.6276 28.3677 34.4871 28.1761L34.3186 27.9488C34.293 27.9156 34.2675 27.8824 34.2419 27.8517L33.1513 26.5439" stroke="#1E3300" stroke-linecap="round" stroke-linejoin="round"></path><path d="M19.7056 36.211L20.4948 39.1381L27.5624 35.8125" stroke="#1E3300" stroke-linecap="round" stroke-linejoin="round"></path><path d="M14.8781 27.2011C14.7606 22.7669 16.6149 18.3175 19.846 15.2754" stroke="#B1BAC2" stroke-miterlimit="10" stroke-linecap="round"></path><path d="M12.02 21.3114C13.0826 16.867 15.9076 12.8671 19.744 10.3818" stroke="#B1BAC2" stroke-miterlimit="10" stroke-linecap="round"></path></svg>