<svg fill="none" viewBox="0 0 56 56" xmlns="http://www.w3.org/2000/svg" aria-label="Dešník" class="css-1jxvrpq e1ig6ntm0"><path opacity="0.2" d="M42.0899 38.79C36.0799 38.79 31.2099 40.79 31.2099 43.26C31.2099 43.67 31.3499 44.07 31.5999 44.45L26.2099 45.49C25.5299 45.62 25.1599 45.2 25.3799 44.55C25.5999 43.9 26.3399 43.27 27.0199 43.14L29.6699 42.63C30.1099 42.55 30.5799 42.14 30.7299 41.72C30.8699 41.3 30.6399 41.03 30.1999 41.11L27.5299 41.63C25.9699 41.93 24.2899 43.38 23.7799 44.87C23.2699 46.36 24.1099 47.32 25.6699 47.02L32.8199 45.6C34.7399 46.88 38.1699 47.73 42.0999 47.73C48.1099 47.73 52.9799 45.73 52.9799 43.26C52.9799 40.79 48.1099 38.79 42.0999 38.79H42.0899Z" fill="black"></path><path d="M28.65 17.24V42.89C28.65 44.94 26.99 46.6 24.94 46.6C22.89 46.6 21.23 44.94 21.23 42.89V39.38C21.23 38.8 21.7 38.34 22.27 38.34C22.85 38.34 23.31 38.81 23.31 39.38V42.86C23.31 43.75 24.03 44.48 24.93 44.48C25.82 44.48 26.55 43.76 26.55 42.86V17.25H28.64L28.65 17.24Z" fill="#B2BBC3"></path><path d="M28.65 17.24V42.89C28.65 44.94 26.99 46.6 24.94 46.6C22.89 46.6 21.23 44.94 21.23 42.89V39.38C21.23 38.8 21.7 38.34 22.27 38.34C22.85 38.34 23.31 38.81 23.31 39.38V42.86C23.31 43.75 24.03 44.48 24.93 44.48C25.82 44.48 26.55 43.76 26.55 42.86V17.25H28.64L28.65 17.24Z" stroke="#1E3300" stroke-linecap="round" stroke-linejoin="round"></path><path d="M26.5098 30.84L26.6498 33.97C26.9798 32.8 27.7498 31.76 28.7698 31.1V26.01H26.5598L26.5098 30.84Z" fill="#1E3200"></path><path d="M38.4298 17.13C41.1698 20.3 43.3998 23.87 45.5398 27.47C46.4398 24.36 48.5598 21.63 51.3498 19.98C51.2698 20.03 47.8698 16.98 47.4998 16.7C46.1498 15.69 44.7398 14.76 43.2798 13.93C40.3198 12.24 37.1498 10.93 33.8598 10.06C32.0698 9.59005 30.1098 9.09005 28.2598 9.05005C28.3498 9.75005 29.9698 10.17 30.5198 10.47C31.5198 11.03 32.4898 11.67 33.4098 12.36C35.2598 13.75 36.9298 15.37 38.4398 17.11L38.4298 17.13Z" fill="#D8ECA3"></path><path d="M19.55 30.96C24.28 28.56 30.25 28.8 34.78 31.57C34.55 31.43 34.45 29.7 34.39 29.38C34.25 28.61 34.09 27.84 33.93 27.08C33.62 25.59 33.27 24.1 32.88 22.63C32.09 19.64 31.11 16.68 29.88 13.84C29.19 12.24 28.4 10.7 27.57 9.17004C27.21 9.59004 26.97 10.34 26.69 10.85C26.33 11.52 25.98 12.2 25.64 12.88C24.95 14.27 24.31 15.68 23.71 17.1C22.52 19.96 21.51 22.89 20.71 25.88C20.26 27.55 19.87 29.24 19.54 30.95L19.55 30.96Z" fill="white"></path><path d="M4.26 19.9901C6.38 21.3701 7.99 23.5201 8.72 25.9401C11.93 21.4401 15.23 16.8501 19.7 13.6001C21.17 12.5301 22.76 11.6201 24.34 10.7101C24.61 10.5501 26.67 9.62005 25.67 9.29005C25.37 9.19005 24.72 9.42005 24.41 9.47005C23.97 9.54005 23.53 9.62005 23.09 9.71005C21.36 10.0601 19.65 10.5401 17.98 11.1501C14.66 12.3501 11.52 14.0301 8.68 16.1201C7.88 16.7101 7.11 17.3301 6.37 17.9801C5.99 18.3101 5.62 18.6501 5.26 18.9901C5.1 19.1401 4.44 19.9901 4.25 19.9901H4.26Z" fill="#D8ECA3"></path><path d="M27.9399 9.58997C31.2399 16.47 33.4899 23.84 34.5999 31.39C37.4899 28.49 41.5699 27.15 45.6399 27.61C43.6199 23.8 41.2099 20.18 38.2699 17.02C35.3399 13.86 31.8299 11.46 27.9399 9.58997Z" fill="#99CC33"></path><path d="M8.68018 26.4001C12.6602 26.4001 16.6302 27.9401 19.5702 30.6301C19.4202 30.4901 19.9502 28.7601 20.0102 28.5001C20.1702 27.7801 20.3402 27.0601 20.5202 26.3501C20.8902 24.9101 21.3002 23.4801 21.7602 22.0601C22.6702 19.2401 23.7702 16.4801 25.0302 13.8001C25.3802 13.0501 25.7502 12.3001 26.1302 11.5601C26.4502 10.9301 27.0602 10.1801 27.2102 9.50005C26.7602 9.39005 25.7902 10.0901 25.3902 10.3001C24.6402 10.6901 23.9002 11.1001 23.1802 11.5401C21.7202 12.4201 20.3202 13.3901 18.9802 14.4401C16.3102 16.5401 13.9102 18.9601 11.8302 21.6501C10.6702 23.1601 9.61018 24.7401 8.68018 26.4001Z" fill="#99CC33"></path><path d="M11.0802 10.6699C10.3502 11.1899 9.66023 11.7799 9.13023 12.5099C7.86023 14.2399 7.60023 16.5699 6.24023 18.2399C7.16023 17.0999 8.67023 16.1599 9.86023 15.3299C11.1702 14.4199 12.5402 13.5999 13.9502 12.8699C16.7502 11.4399 19.7402 10.3799 22.8102 9.72994C24.3702 9.39994 25.9902 9.36994 27.5302 9.04994C23.2502 7.92994 19.0402 7.16994 14.7302 8.72994C13.4302 9.19994 12.1802 9.84994 11.0602 10.6599L11.0802 10.6699Z" fill="#99CC33"></path><path d="M47.5999 15.42C47.1299 14.52 46.8199 13.58 46.6399 12.6C46.4899 12.53 46.3399 12.45 46.1999 12.37C45.3999 11.92 44.6599 11.38 43.9699 10.79C42.4099 10.11 41.5899 9.65003 40.1699 8.44003C36.2099 7.32003 32.3199 8.05003 28.3599 9.08003C29.8999 9.40003 31.5199 9.43003 33.0799 9.76003C36.1599 10.4 39.1399 11.46 41.9399 12.9C43.3599 13.63 44.7299 14.45 46.0299 15.36C46.7199 15.84 47.4999 16.35 48.2299 16.92C47.9899 16.45 47.7699 15.96 47.5999 15.45V15.42Z" fill="#99CC33"></path><path d="M46.65 12.82C47.08 15.72 49.2 18.03 51.4 20.1C48.55 21.53 46.39 24.41 45.66 27.51C41.66 27.1 37.47 28.54 34.78 31.53C30.33 28.67 24.17 28.55 19.54 31.1C17.06 27.82 12.77 26 8.69004 26.5C8.47004 23.76 6.50004 21.23 4.04004 20.01C6.47004 18.15 7.98004 15.56 8.89004 12.63C14.17 8.31 20.92 5.48 27.75 5.51C34.58 5.54 41.42 8.44 46.66 12.81L46.65 12.82Z" stroke="#1E3300" stroke-linecap="round" stroke-linejoin="round"></path><path d="M19.5399 31.1C20.8399 23.34 23.6599 15.98 27.5799 9.16003C19.6399 12.51 12.6899 18.85 8.68994 26.5" stroke="#1E3300" stroke-linecap="round" stroke-linejoin="round"></path><path d="M27.47 9.20996C18.64 9.38996 10.44 14.42 4.04004 20.01" stroke="#1E3300" stroke-linecap="round" stroke-linejoin="round"></path><path d="M27.4702 9.11004C23.8202 8.06004 19.9302 7.51004 16.1802 8.10004" stroke="#1E3300" stroke-linecap="round" stroke-linejoin="round"></path><path d="M34.7801 31.53C33.4801 23.77 31.5001 15.98 27.5801 9.16003C35.5201 12.51 41.6701 19.87 45.6601 27.51" stroke="#1E3300" stroke-linecap="round" stroke-linejoin="round"></path><path d="M27.6899 9.20996C36.5199 9.38996 44.7299 13.38 51.3999 20.1" stroke="#1E3300" stroke-linecap="round" stroke-linejoin="round"></path><path d="M27.6899 9.11002C31.3399 8.06002 35.6299 7.64002 39.3799 8.23002" stroke="#1E3300" stroke-linecap="round" stroke-linejoin="round"></path><path d="M25.7399 8.59C26.3699 8.71 27.0499 9.2 27.6899 9.21C28.4099 9.21 29.0799 8.69 29.7899 8.54C32.4199 8 36.0999 7.89 38.7899 7.96C38.4899 7.96 37.2299 7.24 36.9399 7.12C36.5099 6.93 35.8299 6.94 35.3899 6.78C34.5299 6.47001 33.6599 6.2 32.7699 6C30.9899 5.58 29.1599 5.38 27.3399 5.38C25.5199 5.38 23.7199 5.6 21.9599 6.02C21.0699 6.23 20.1999 6.50001 19.3399 6.82C18.8399 7.01 16.8999 7.96 16.8999 7.96C16.8999 7.96 20.9799 7.99001 22.1299 8.10001C23.2799 8.21001 24.5399 8.37 25.7299 8.59H25.7399Z" fill="#1E3200"></path><path d="M28.7698 3.68005V8.56005C28.7698 8.86005 28.2598 9.10005 27.6398 9.10005C27.0198 9.10005 26.5098 8.86005 26.5098 8.56005V3.68005" fill="white"></path><path d="M28.7698 3.68005V8.56005C28.7698 8.86005 28.2598 9.10005 27.6398 9.10005C27.0198 9.10005 26.5098 8.86005 26.5098 8.56005V3.68005" stroke="#1E3300" stroke-linecap="round" stroke-linejoin="round"></path><path d="M27.6398 4.22001C28.2638 4.22001 28.7698 3.97825 28.7698 3.68001C28.7698 3.38178 28.2638 3.14001 27.6398 3.14001C27.0157 3.14001 26.5098 3.38178 26.5098 3.68001C26.5098 3.97825 27.0157 4.22001 27.6398 4.22001Z" fill="#1E3300" stroke="#1E3300" stroke-linecap="round" stroke-linejoin="round"></path></svg>