<svg fill="none" viewBox="0 0 56 56" xmlns="http://www.w3.org/2000/svg" class="css-1jxvrpq e1ig6ntm0"><path opacity="0.2" d="M20.9996 42.5798L12.0996 44.9898C10.8796 45.3098 10.8796 47.0398 12.0996 47.3598L28.2496 51.6298C28.6596 51.7398 29.0696 51.7898 29.4896 51.7898H33.7396C33.9096 51.7898 34.0896 51.7698 34.2496 51.7198L43.4596 49.0698C44.3696 48.9198 45.0496 47.6998 43.8296 47.0698L25.5796 42.5698C24.0796 42.1798 22.4996 42.1798 20.9896 42.5698L20.9996 42.5798Z" fill="black"></path><path d="M26.2299 9.43974L10.6199 43.0097C9.84985 44.6597 10.7699 46.5997 12.5299 47.0697L28.0599 51.1297C30.1999 51.6897 32.4298 50.6397 33.3699 48.6297L48.9799 15.0597C49.7499 13.4097 48.8298 11.4697 47.0699 10.9997L31.5399 6.93974C29.3999 6.37974 27.1699 7.42974 26.2299 9.43974Z" fill="#99CC33"></path><path d="M45.0801 16.9902L46.9201 19.1402" stroke="#497D00" stroke-linecap="round" stroke-linejoin="round"></path><path d="M32.2998 44.4102L34.2498 46.6902" stroke="#497D00" stroke-linecap="round" stroke-linejoin="round"></path><path d="M24.2699 7.13993L8.65989 40.7099C7.88989 42.3599 8.80989 44.2999 10.5699 44.7699L26.0999 48.8299C28.2399 49.3899 30.4699 48.3399 31.4099 46.3299L47.0199 12.7599C47.7899 11.1099 46.8699 9.16993 45.1099 8.69993L29.5799 4.63993C27.4399 4.07993 25.2099 5.12993 24.2699 7.13993Z" fill="white"></path><path d="M24.2699 7.13993L8.65989 40.7099C7.88989 42.3599 8.80989 44.2999 10.5699 44.7699L26.0999 48.8299C28.2399 49.3899 30.4699 48.3399 31.4099 46.3299L47.0199 12.7599C47.7899 11.1099 46.8699 9.16993 45.1099 8.69993L29.5799 4.63993C27.4399 4.07993 25.2099 5.12993 24.2699 7.13993Z" stroke="#1E3300" stroke-linecap="round" stroke-linejoin="round"></path><path d="M32.1696 8.39988C31.9396 8.88988 32.2096 9.46988 32.7296 9.60988L37.9896 11.0199C38.4896 11.1599 39.0296 10.9199 39.2496 10.4399C39.4796 9.94988 39.2096 9.36988 38.6896 9.22988L33.4296 7.81988C32.9296 7.67988 32.3896 7.91988 32.1696 8.39988Z" fill="#1E3300"></path><path d="M9.09961 43.84L11.2396 46.34L11.3796 46.47C11.4596 46.54 11.5496 46.6 11.6296 46.66C11.8896 46.84 12.1896 46.97 12.5196 47.06L28.0496 51.12C30.1896 51.68 32.4196 50.63 33.3596 48.62L48.9696 15.05C49.2396 14.47 49.2996 13.86 49.1896 13.28C49.1196 12.89 48.9296 12.54 48.6996 12.22L48.4196 11.84C48.3796 11.78 48.3396 11.73 48.2896 11.68L46.4796 9.5" stroke="#1E3300" stroke-linecap="round" stroke-linejoin="round"></path><path d="M33.4996 17.3203C33.1696 17.3203 32.7796 17.5203 32.5896 17.7903C31.6796 19.1003 29.6896 21.6703 29.4096 22.8703C28.9096 25.0403 31.9596 26.1403 31.2896 28.0603C31.1896 28.3403 30.0096 29.8503 29.7296 30.1703C29.0796 30.9203 26.2796 33.5103 25.4096 33.5703C23.8996 33.6703 22.7596 30.6303 20.4296 31.7003C19.7096 32.0303 16.2396 34.2103 15.7196 34.7003C14.5896 35.7703 16.0696 37.0603 16.9796 37.7903C20.6596 40.7303 24.9596 38.6703 28.3196 36.2903C32.2396 33.5203 38.5096 26.4603 36.9396 21.3103C36.6196 20.2603 34.6196 17.3203 33.4896 17.3203H33.4996Z" fill="#99CC33"></path></svg>