<svg fill="none" viewBox="0 0 56 56" xmlns="http://www.w3.org/2000/svg" aria-label="Snížení úroku" class="css-1jxvrpq e1ig6ntm0"><path opacity="0.2" d="M35.18 39.4699L8.34996 46.4999C7.32996 46.7699 7.32996 48.2199 8.34996 48.4799L20.42 51.6299C20.76 51.7199 21.11 51.7599 21.46 51.7599H25.01C25.16 51.7599 25.3 51.7399 25.44 51.6999L54 44.2099C54.44 44.0999 54.44 43.4799 54 43.3599L39.02 39.4399C37.76 39.1099 36.44 39.1099 35.18 39.4399V39.4699Z" fill="black"></path><path d="M6.49023 32.9403L35.9802 25.2803L49.5402 28.8103L19.9802 36.4603L6.49023 32.9403Z" fill="white"></path><path d="M16.1401 32.2499L35.4801 27.1699L41.6601 28.8099L22.3601 33.8699L16.1401 32.2499Z" fill="#98C917"></path><path d="M49.54 28.8096V43.3396L19.98 50.9896V36.4596L49.54 28.8096Z" fill="#D9EEA8"></path><path d="M6.49023 32.9404V47.4604L19.9802 50.9904V36.4604L6.49023 32.9404Z" fill="white"></path><path d="M6.49023 32.9403L35.9802 25.2803L49.5402 28.8103L19.9802 36.4603L6.49023 32.9403Z" stroke="#1E3300" stroke-linecap="round" stroke-linejoin="round"></path><path d="M49.5402 33.6504L19.9802 41.3004L6.49023 37.7704" stroke="#1E3300" stroke-linecap="round" stroke-linejoin="round"></path><path d="M49.5402 38.4902L19.9802 46.1402L6.49023 42.6102" stroke="#1E3300" stroke-linecap="round" stroke-linejoin="round"></path><path d="M49.54 28.8096V43.3396L19.98 50.9896V36.4596L49.54 28.8096Z" stroke="#1E3300" stroke-linecap="round" stroke-linejoin="round"></path><path d="M6.49023 32.9404V47.4604L19.9802 50.9904V36.4604L6.49023 32.9404Z" stroke="#1E3300" stroke-linecap="round" stroke-linejoin="round"></path><path d="M26.3902 27.79L39.8502 31.29C39.8902 31.46 39.8502 45.82 39.8502 45.82L30.6602 48.21C30.6602 48.21 30.7002 33.85 30.6602 33.68L17.2002 30.18L26.4002 27.79H26.3902Z" fill="#B2BBC3"></path><path d="M30.6499 33.68L17.1899 30.18L26.3899 27.79L39.8399 31.3L30.6499 33.68Z" fill="white"></path><path d="M21.8999 28.8099L28.1099 30.3099L27.1399 27.3799L21.8999 28.8099Z" fill="#1E3300"></path><path d="M26.3902 27.79L39.8502 31.29C39.8902 31.46 39.8502 45.82 39.8502 45.82L30.6602 48.21C30.6602 48.21 30.7002 33.85 30.6602 33.68L17.2002 30.18L26.4002 27.79H26.3902Z" stroke="#1E3300" stroke-linecap="round" stroke-linejoin="round"></path><path d="M30.6499 33.6798L39.8399 31.2998" stroke="#1E3300" stroke-linecap="round" stroke-linejoin="round"></path><path d="M32.31 5.66016V22.9902L35.53 22.0602L30.21 28.9402C29.51 29.8402 28.3 30.1302 27.46 29.5902L21.52 25.7802L24.77 24.9202V7.64016" fill="#99CC33"></path><path d="M28.6899 27.5096L28.8199 9.30957" stroke="#497C00" stroke-linecap="round" stroke-linejoin="round"></path><path d="M30.6198 25.1602L28.7098 27.6402L26.5298 26.2402" stroke="#497C00" stroke-linecap="round" stroke-linejoin="round"></path><path d="M24.77 7.64016V24.9202L21.52 25.7802L27.46 29.5902C28.3 30.1302 29.51 29.8502 30.21 28.9402L35.53 22.0602L32.31 22.8802V5.66016" stroke="#1E3300" stroke-linecap="round" stroke-linejoin="round"></path><path d="M32.31 5.66016V22.9902L35.53 22.0602L30.21 28.9402C29.51 29.8402 28.3 30.1302 27.46 29.5902L21.52 25.7802L24.77 24.9202V7.64016L32.31 5.66016Z" fill="#99CC33"></path><path d="M28.4902 27.4898L28.6102 9.2998" stroke="#497C00" stroke-linecap="round" stroke-linejoin="round"></path><path d="M30.4302 25.3604L28.4902 27.4904L26.7202 26.3704" stroke="#497C00" stroke-linecap="round" stroke-linejoin="round"></path><path d="M24.77 7.64016V24.9202L21.52 25.7802L27.46 29.5902C28.3 30.1302 29.51 29.8502 30.21 28.9402L35.53 22.0602L32.31 22.8802V5.66016L24.77 7.64016Z" stroke="#1E3300" stroke-linecap="round" stroke-linejoin="round"></path></svg>