<svg fill="none" viewBox="0 0 56 56" xmlns="http://www.w3.org/2000/svg" aria-label="rodina" class="css-1jxvrpq e1ig6ntm0"><path opacity="0.2" d="M30.2601 51.6505L27.6701 51.7505C23.0701 51.9005 18.8201 51.3005 15.5801 49.6205C14.7001 49.1705 13.8901 48.6205 13.6001 47.9405C13.3101 47.2605 13.7801 46.4805 14.7401 46.0505C15.9301 45.5205 17.3601 45.3605 18.8801 45.3805C20.4001 45.4005 22.2001 45.6805 23.6801 45.8805C26.5701 46.2605 29.4901 46.6805 32.0301 47.5705C32.6401 47.7805 33.2401 48.0305 33.7001 48.3605C34.1601 48.6905 34.2401 49.1005 34.1801 49.5405C34.0901 50.2405 33.6501 50.8305 32.6201 51.1605C31.8401 51.4105 31.1201 51.6205 30.2501 51.6505H30.2601Z" fill="black"></path><path opacity="0.2" d="M47.7799 49.5406H43.7199C36.5099 49.5006 29.8799 48.3106 24.8999 45.5006C23.5499 44.7406 22.2999 43.8406 21.8899 42.7506C21.4799 41.6606 22.2499 40.4706 23.7899 39.8606C25.6899 39.1006 27.9299 38.9306 30.3199 39.0506C32.7099 39.1706 35.5099 39.7206 37.8099 40.1106C42.3099 40.8706 46.8599 41.7006 50.7999 43.2406C51.7499 43.6106 52.6699 44.0306 53.3599 44.5806C54.0499 45.1306 54.1599 45.7706 54.0399 46.4506C53.8499 47.5506 53.1399 48.4406 51.5099 48.9006C50.2799 49.2506 49.1299 49.5306 47.7799 49.5306V49.5406Z" fill="black"></path><path opacity="0.2" d="M18.6598 44.8096C14.2098 44.2096 9.76982 43.3796 5.56982 41.7896C4.36982 41.3396 3.02982 40.6096 2.84982 39.3396C2.70982 38.2896 3.48982 37.2896 4.44982 36.8496C5.40982 36.4096 6.89982 36.2896 7.95982 36.2496C13.4398 36.0596 17.8398 36.8296 22.9498 37.8496C26.8798 38.6396 32.5798 39.8896 34.7198 42.1896C36.5398 44.1496 33.9398 45.3696 32.6898 45.6096C30.5398 46.0196 21.1798 45.1396 18.6698 44.7996L18.6598 44.8096Z" fill="black"></path><path d="M11.0701 24.7305C9.79014 25.1105 8.39014 25.1005 7.08014 25.3605C5.75014 25.6205 5.26014 26.5105 4.32014 27.4805C3.70014 28.1105 3.07014 31.3505 3.07014 31.3505L2.39014 38.6605L2.84014 40.2105C2.84014 40.2105 3.57014 41.1705 4.08014 41.4105C6.03014 42.3105 10.5601 43.3705 12.6201 43.9905C15.2901 44.7805 16.4501 44.5005 19.1901 44.9905C21.9501 45.4805 25.8901 45.0005 28.6801 45.3105C29.7101 45.4205 31.3001 44.8405 32.1301 44.2505C33.4301 43.3205 33.1201 37.9405 33.1201 37.9405C33.1201 37.9405 33.2801 35.7705 33.1001 34.5705C32.8901 33.1805 32.6501 31.7005 31.7101 30.6405C30.9901 29.8305 29.9601 29.3805 28.9601 28.9605C27.8001 28.4705 26.6301 27.9805 25.4701 27.4805C25.3301 27.4205 25.1901 27.3605 25.0401 27.3805C23.3901 28.8505 22.4001 29.5305 20.8701 30.1405C19.6301 30.6405 18.3201 30.9905 16.9801 30.9705C15.6501 30.9505 14.4601 30.6505 13.5401 29.6805C12.0801 28.1305 12.0301 26.0705 12.0301 26.0705C12.0301 26.0705 11.2201 25.4105 11.0501 24.7305H11.0701Z" fill="#B2BBC3"></path><path d="M10.6101 11.53C10.3701 12.02 10.1401 12.54 10.1601 13.09C10.1801 13.46 10.3101 13.82 10.3501 14.19C10.4201 14.91 10.1101 15.6 9.97015 16.31C9.75015 17.4 9.93015 18.53 10.1101 19.63C10.3301 20.97 10.5501 22.31 10.7701 23.65C10.9701 24.88 11.3001 25.16 12.1001 26.11C12.3501 26.41 12.1001 26.76 12.2801 27.32C12.8901 29.34 14.1901 30.53 15.1701 30.7C16.7001 30.96 18.9801 30.79 20.2901 30.33C21.4401 29.93 23.7601 29.25 24.2501 28.13C24.2801 28.06 24.9301 27.46 24.9301 27.39C24.9301 27.27 22.6401 25.6 22.5801 25.5C21.7901 24.22 21.4701 22.56 21.8301 21.08C22.1401 21.08 22.4301 21.17 22.7601 21.11C23.0901 21.05 23.3901 20.93 23.6601 20.76C24.2001 20.42 24.6401 19.9 24.8801 19.31C25.2101 18.48 25.2301 17.54 25.0201 16.67C24.8301 15.88 24.4601 15.15 24.2601 14.36C23.9801 13.23 24.0901 12.04 24.0201 10.87C23.9501 9.70004 23.6401 8.47004 22.7501 7.71004C21.9201 7.00004 20.7601 6.85004 19.6601 6.86004C18.5601 6.87004 17.4601 7.01004 16.4001 6.75004C15.4301 6.51004 14.3601 5.96004 13.5001 6.48004C13.2201 6.65004 13.0001 6.92004 12.8101 7.19004C11.8901 8.51004 11.3101 10.1 10.6101 11.54V11.53Z" fill="white"></path><path d="M11.1301 24.7197C9.6601 24.8597 7.8701 25.0297 6.6001 25.5297C5.6601 25.8997 4.7301 26.3097 4.0401 27.8497C3.2301 29.6497 2.4601 33.8197 2.3901 38.4897C2.3701 39.6997 3.0101 40.8397 4.0901 41.4197C5.3001 42.0697 6.6601 42.4497 8.0301 42.8597C14.9101 44.8797 23.0101 45.7397 30.3201 45.1097C31.7401 44.9897 32.8701 43.8397 32.9501 42.4097C33.1101 39.6497 33.2101 35.5897 33.0501 34.0997C32.9501 33.1897 32.5401 32.1597 32.0701 31.3697C31.4301 30.2997 30.3301 29.5997 29.2301 29.0297C28.1301 28.4597 26.4201 27.7797 25.2401 27.3897" stroke="#1E3300" stroke-linecap="round" stroke-linejoin="round"></path><path d="M10.3698 12.2106C10.9698 10.5506 11.6298 9.36056 12.6698 7.93056C13.1798 8.23056 13.6698 8.77056 14.1698 9.08056C14.5398 9.31056 15.0098 9.47056 15.4398 9.60056C18.2698 10.4306 18.9198 9.80056 20.6798 9.83056C21.6198 9.85056 22.3198 10.6906 22.1698 11.6106C22.0498 12.3506 21.9498 13.1006 21.8698 13.8506C21.8498 14.0606 21.8298 14.2806 21.8498 14.5006C21.8698 14.6806 21.9198 14.8606 21.9598 15.0506C22.2498 16.3106 22.0998 17.6206 21.9598 18.9106C22.1498 18.9806 22.3598 18.9606 22.5398 18.8706C22.5598 18.2806 22.6598 17.7306 22.7898 17.1606C22.8798 16.7506 22.9998 16.3306 23.2798 16.0206C23.5598 15.7106 24.0398 15.5306 24.4098 15.7206C24.6498 15.8406 24.8098 16.0706 24.9598 16.2906C25.4298 15.2806 25.8998 14.3006 26.1898 13.2206C26.4798 12.1406 26.6098 11.0106 26.3898 9.91056C26.2798 9.37056 26.0898 8.84056 25.8298 8.36056C25.3698 7.52056 24.6798 6.79056 23.8298 6.35056C23.4698 6.16056 23.0798 6.02056 22.6898 5.89056C21.8398 5.60056 20.9698 5.33056 20.0998 5.09056C20.2398 4.93056 20.3698 4.74056 20.5198 4.58056C19.9798 4.32056 19.3898 4.19056 18.8098 4.09056C18.2798 4.00056 17.7498 3.92056 17.2198 3.86056C17.3198 3.65056 17.3998 3.42056 17.4998 3.21056C16.7398 3.11056 15.9798 3.23056 15.2298 3.38056C14.8098 3.46056 14.3798 3.56056 13.9898 3.73056C12.7298 4.30056 11.8498 5.52056 11.9298 6.90056C11.0898 7.44056 10.5198 8.35056 10.1898 9.29056C9.85979 10.2306 9.90979 11.3406 10.3798 12.2206L10.3698 12.2106Z" fill="#61666B"></path><path d="M11.92 6.88988C11.08 7.42988 10.51 8.33988 10.18 9.27988C9.85003 10.2199 9.90003 11.3299 10.37 12.2099C10.97 10.5499 11.63 9.35988 12.67 7.92988L11.92 6.87988V6.88988Z" fill="#1E3300"></path><path d="M20.48 23.4795C19.24 24.8295 17.66 25.8595 15.92 26.4295C14.92 26.7595 13.79 26.9395 12.83 26.4995C11.81 26.0395 11.18 24.9795 10.88 23.9095C10.58 22.8395 10.54 21.7095 10.34 20.6095C10.1 19.2995 9.64 17.9795 9.9 16.6795C10.06 15.8795 10.5 15.1195 10.4 14.3095C10.35 13.8995 10.16 13.5095 10.15 13.0895C10.15 12.7395 10.27 12.4095 10.4 12.0795C11.04 10.4595 11.71 9.37945 12.7 7.93945C13.67 8.74945 14.68 9.44945 15.85 9.78945C16.75 10.0495 17.68 10.0995 18.61 10.0495C19.66 9.98945 20.04 9.78945 20.69 9.80945C21.63 9.83945 22.33 10.6795 22.19 11.6095C22.09 12.2695 22 12.9295 21.9 13.5995C21.84 14.0495 21.84 14.5195 21.95 14.9695C22.08 15.4795 22.1 16.0095 22.08 16.5295C22.05 17.3295 22.01 18.1195 21.94 18.9195C22.15 18.9995 22.4 18.9695 22.55 18.7995C22.62 18.1195 22.73 17.4295 22.91 16.7695C23.06 16.2195 23.39 15.6095 24.01 15.6195C24.29 15.6195 24.55 15.7695 24.72 15.9795C25.08 16.4095 25.11 16.9795 25.09 17.5195C25.06 18.4595 24.89 19.4395 24.33 20.1895C23.77 20.9395 22.75 21.4195 21.86 21.1095C21.76 22.1695 21.86 23.2995 22.11 24.3295" stroke="#1E3300" stroke-linecap="round" stroke-linejoin="round"></path><path d="M13.7799 15.3799C13.6599 16.5799 12.7999 17.5399 12.2599 18.6099C12.0699 18.9799 11.9399 19.4799 12.2399 19.7599C12.4099 19.9199 12.6599 19.9499 12.8899 19.9599C13.4799 19.9799 14.0799 19.9199 14.6499 19.7599" stroke="#1E3300" stroke-linecap="round" stroke-linejoin="round"></path><path d="M10.3602 12.1898C9.94017 11.2998 9.88017 10.2398 10.1902 9.29982C10.5002 8.35982 11.1802 7.25982 12.0502 6.79982C11.9202 5.97982 12.2902 5.28982 12.8402 4.66982C13.3902 4.04982 14.1402 3.62982 14.9402 3.38982C15.7802 3.13982 16.6802 3.06982 17.5502 3.19982C17.4302 3.40982 17.3402 3.62982 17.2202 3.83982C18.4002 3.87982 19.4802 4.13982 20.5802 4.52982C20.4102 4.69982 20.2502 4.91982 20.0802 5.09982C20.7302 5.23982 23.9202 6.07982 24.9302 7.12982C25.2502 7.45982 25.5102 7.84982 25.7302 8.24982C25.9602 8.65982 26.1502 9.07982 26.2802 9.52982C26.6002 10.6498 26.5102 11.8598 26.2202 12.9898C25.9302 14.1198 25.4302 15.1898 24.9302 16.2398" stroke="#1E3300" stroke-linecap="round" stroke-linejoin="round"></path><path d="M15.9601 14.2602C16.0501 14.3302 16.1801 14.3402 16.2901 14.3502C16.8701 14.4102 17.4401 14.4602 18.0101 14.5902C18.5801 14.7202 19.1301 14.9502 19.5601 15.3402C19.6601 15.4302 19.8001 15.5402 19.9301 15.4802C20.0501 15.4202 20.0401 15.2502 20.0101 15.1302C19.8501 14.5402 19.3901 14.0602 18.8501 13.7802C18.3101 13.5002 17.6901 13.4002 17.0801 13.3702C16.7701 13.3602 16.3001 13.3402 16.0301 13.5302C15.8101 13.6802 15.7301 14.1002 15.9701 14.2702L15.9601 14.2602Z" fill="#1E3200"></path><path d="M10.4902 12.0002C11.0302 12.0102 11.5802 12.0302 12.1102 12.1802C12.6402 12.3302 13.1402 12.6102 13.4502 13.0602C13.5402 13.1902 13.6102 13.3802 13.5102 13.5002C13.4502 13.5802 13.3402 13.6002 13.2502 13.6002C12.9302 13.6102 12.6302 13.4802 12.3302 13.3702C11.6602 13.1402 10.9402 13.0802 10.2402 13.1902L10.5002 11.9902L10.4902 12.0002Z" fill="#1E3200"></path><path d="M17.9927 16.8284C18.0384 16.3945 17.835 16.0174 17.5384 15.9862C17.2418 15.955 16.9643 16.2814 16.9187 16.7153C16.873 17.1492 17.0764 17.5263 17.373 17.5575C17.6696 17.5887 17.947 17.2623 17.9927 16.8284Z" fill="#1E3200"></path><path d="M12.4366 15.7337C12.4822 15.2998 12.2788 14.9227 11.9822 14.8915C11.6857 14.8602 11.4082 15.1867 11.3625 15.6206C11.3168 16.0545 11.5202 16.4316 11.8168 16.4628C12.1134 16.494 12.3909 16.1676 12.4366 15.7337Z" fill="#1E3200"></path><path d="M12.7598 8.02055C12.6798 7.95055 12.2098 7.54055 12.0498 6.81055" stroke="#1E3300" stroke-linecap="round" stroke-linejoin="round"></path><path d="M15.1602 28.9404C16.7902 28.3904 18.2402 26.3104 19.1902 24.6504C17.7102 25.7304 16.2602 26.4304 14.4702 26.8204L15.1502 28.9404H15.1602Z" fill="#1E3200"></path><path d="M25.2202 37.9295C25.4102 36.0295 26.0102 34.1695 26.9802 32.5195" stroke="#1E3300" stroke-linecap="round" stroke-linejoin="round"></path><path d="M24.33 45.9001C22.19 45.0101 22.15 43.9001 21.91 43.4301C21.73 43.0801 22.13 39.3901 22.19 39.0001C22.29 38.2801 23.94 32.7501 24.25 32.1001C24.61 31.3501 24.99 30.3401 25.37 29.6101C25.75 28.8801 26.71 27.8701 27.95 27.6301C29.19 27.3901 30.36 27.1701 31.74 27.0301C33.65 27.9201 34.49 26.1501 34.45 27.2601C35.03 26.7601 33.4 30.3401 34.11 30.0501C34.2 30.0101 34.29 29.9801 34.38 30.0101C34.56 30.0701 34.57 30.3101 34.55 30.5001C34.51 31.0601 34.55 31.6201 34.7 32.1601C34.75 32.3401 34.83 32.5401 35.02 32.5701C35.13 32.5901 35.24 32.5201 35.34 32.4601C35.83 32.1501 36.32 31.8401 36.81 31.5201C37.08 31.3501 37.36 31.1701 37.68 31.1101C38 31.0501 38.37 31.1301 38.56 31.3901C38.74 31.6301 38.73 31.9401 38.78 32.2301C38.83 32.5201 39.01 32.8401 39.31 32.8501C39.43 32.8501 39.54 32.8101 39.65 32.7601C41.36 32.0001 42.96 30.9801 44.37 29.7501C44.49 29.6501 44.61 29.5401 44.77 29.5201C44.91 29.5001 45.04 29.5601 45.17 29.6101C46.26 30.0701 47.34 30.5301 48.43 30.9901C49.36 31.3801 50.33 31.8001 51 32.5601C51.87 33.5501 51.9 35.6301 52.09 36.9301C52.26 38.0501 52.35 45.0701 51.85 46.0901C51.2 47.4301 50.45 48.1901 49.12 48.8801C47.94 49.4901 44.13 49.3801 43.17 49.2801C40.56 48.9901 37.43 48.9301 34.85 48.4701C32.29 48.0201 27.27 47.1301 24.32 45.9001H24.33Z" fill="#B2BBC3"></path><path d="M34.37 27.65C32.79 29.24 31.91 31.3799 31.07 33.4599C31.04 33.5399 31.01 33.62 31.01 33.7C31.01 33.8 31.08 33.8799 31.13 33.9599C31.62 34.58 32.34 34.98 33.07 35.29C35.08 36.14 37.32 36.4299 39.48 36.1199C39.63 36.0999 39.77 36.08 39.9 36C40.07 35.9 40.18 35.72 40.28 35.54C41.42 33.56 42.75 31.6799 44.25 29.9599C43.48 29.5399 42.76 28.99 42.29 28.24C41.82 27.49 41.64 26.5399 41.95 25.7199C42.14 25.2099 42.51 24.78 42.83 24.34C44.12 22.6 44.88 20.49 44.99 18.33C45.1 16.17 43.83 14.16 42.29 12.64C40.75 11.12 38.81 10.0699 36.77 9.36995C35.73 9.00995 34.63 8.73995 33.54 8.85995C32.73 8.94995 31.96 9.24995 31.24 9.62995C30.75 9.88995 30.26 10.2 29.91 10.63C29.6 11.02 29.42 11.4799 29.29 11.9599C28.89 13.3899 28.95 14.9099 28.8 16.3899C28.59 18.5199 27.99 20.7499 28.8 22.7199C29.5 24.4399 31.14 25.6 32.81 26.41C33.41 26.7 34.09 27.0199 34.35 27.6399L34.37 27.65Z" fill="white"></path><path d="M32.2198 34.8002C34.5298 36.2502 37.4298 36.7102 40.0698 36.0602C39.1098 37.5302 35.7198 46.8402 35.1698 48.5102C32.4498 47.9002 31.0598 47.9202 28.4098 47.0402C28.3498 47.0202 29.6198 38.5302 29.5798 38.4802C29.5398 38.4302 29.5398 38.3602 29.5398 38.3002C29.5398 37.5002 29.8698 36.7502 30.1998 36.0302C30.3698 35.6602 30.3898 35.1702 30.5498 34.8002C30.6098 34.6402 30.9798 33.9202 31.0998 33.9102C31.2298 33.9102 31.4998 34.2702 31.5998 34.3602C31.7898 34.5202 31.9998 34.6602 32.2198 34.8002Z" fill="#D9EEA8"></path><path d="M44.8002 29.4103C46.1602 30.0203 47.3502 30.4503 48.5902 30.9203C49.2402 31.1703 49.9002 31.4503 50.4202 31.9103C51.3902 32.7603 51.8302 34.0603 52.0502 35.3303C52.1502 35.9103 52.0302 41.8203 51.9902 45.0903C51.9702 46.5903 51.2202 47.5803 49.9802 48.4203C49.1702 48.9703 48.3002 49.1203 47.2302 49.2103C43.4302 49.5203 30.6802 48.8203 23.4602 45.4203C22.7902 45.1103 22.2602 44.3303 22.0402 43.6303C21.8202 42.9303 21.8102 42.1803 21.8302 41.4403C21.8802 39.5803 23.3302 33.2603 25.1002 29.9603C25.8402 28.5703 26.6102 28.1403 27.4902 27.7903C28.6802 27.3203 30.3502 27.1603 31.7302 27.0303" stroke="#1E3300" stroke-linecap="round" stroke-linejoin="round"></path><path d="M44.8002 29.4102C42.9602 31.3302 42.1402 32.7202 41.1702 34.1802C39.9302 36.0402 37.5502 41.4902 35.1602 48.5102" stroke="#1E3300" stroke-linecap="round" stroke-linejoin="round"></path><path d="M28.3999 47.0401C28.8299 38.1301 31.7899 31.6101 33.0099 29.4801C33.2199 29.1101 33.3999 28.7501 33.6799 28.4401C33.9999 28.0801 34.3899 27.7601 34.6199 27.3401C34.8599 26.9001 34.8199 26.5701 34.8599 26.0801" stroke="#1E3300" stroke-linecap="round" stroke-linejoin="round"></path><path d="M31.1299 33.96C31.9099 34.93 33.4199 35.66 35.0299 36.07C36.6399 36.48 38.4999 36.46 39.9899 36.05" stroke="#1E3300" stroke-linecap="round" stroke-linejoin="round"></path><path d="M34.6899 26.0096L34.5299 27.0696C34.5199 27.1396 34.5099 27.2096 34.4599 27.2596C34.3999 27.3196 34.2999 27.3196 34.2199 27.3196C33.0799 27.3096 31.9399 27.2796 30.8299 27.0396C29.7199 26.7996 28.6299 26.3496 27.7999 25.5696C26.7099 24.5496 26.1399 22.9996 26.3099 21.5196C26.4699 20.1496 27.2099 18.9196 27.6199 17.6096C27.8199 16.9896 27.9399 16.3396 27.9799 15.6896C28.0399 14.7996 27.9599 13.9096 27.9799 13.0096C27.9999 12.1096 28.1099 11.1996 28.5299 10.4196C28.9499 9.63964 29.7199 8.98964 30.6099 8.91964C30.9899 7.33964 32.3299 6.18964 33.9299 5.91964C34.9499 5.74964 36.0799 5.78964 37.0999 5.93964C38.4299 6.13964 39.7899 6.22964 41.0699 6.63964C42.3499 7.04964 43.5899 7.81964 44.2099 9.00964C44.6699 9.89964 44.7599 10.9296 44.8799 11.9296C45.2999 15.4196 46.2999 18.8296 47.8299 21.9896C48.0299 22.4096 48.2499 22.8396 48.3199 23.2996C48.4299 24.0096 48.1799 24.7596 47.7299 25.3296C47.2799 25.8996 46.6399 26.2996 45.9699 26.5496C46.0999 26.0096 46.0099 25.5496 45.8999 25.0096C45.6899 25.8496 44.9699 26.4896 44.1699 26.8096C43.3699 27.1296 42.4799 27.1696 41.6199 27.1696C40.8399 27.1696 40.0499 27.1396 39.2699 27.0796C38.8899 26.4096 38.5599 25.6696 38.5599 24.8996C38.5599 24.5496 38.6399 24.1996 38.7499 23.8596C39.2299 22.4196 40.2699 21.1596 41.5999 20.4296C42.1399 20.7596 42.8199 20.6996 43.3499 20.3496C43.8799 19.9996 44.2299 19.4196 44.3999 18.8096C44.4899 18.4896 44.5399 18.1596 44.5399 17.8296C44.5399 17.5296 44.5099 17.2296 44.3899 16.9596C44.1699 16.4396 43.6499 16.0696 43.0899 16.0196C42.5299 15.9696 41.9599 16.2796 41.6599 16.7596C38.0199 16.0796 34.6799 13.8596 32.7399 10.7096C32.6299 11.3796 32.6399 12.0796 32.7599 12.7496C32.0999 12.1696 31.0599 11.9196 30.7699 11.0896C30.8699 11.8196 30.7399 12.5796 30.3899 13.2296C30.1499 13.6796 29.7899 14.1396 29.8499 14.6496C29.8799 14.8696 29.9799 15.0596 30.0399 15.2696C30.3799 16.3596 29.6999 17.4896 29.6799 18.6296C29.6799 19.1196 29.7799 19.5996 29.8899 20.0796C30.0399 20.7196 30.1899 21.3496 30.3399 21.9896C30.4899 22.6096 30.6299 23.2496 30.9299 23.8196C31.6099 25.1396 33.1799 26.0596 34.6699 25.9996L34.6899 26.0096Z" fill="#61666B"></path><path d="M44.1999 30.0305C43.0799 29.3705 42.0799 28.3005 41.8599 27.2305" stroke="#1E3300" stroke-linecap="round" stroke-linejoin="round"></path><path d="M34.4398 27.3097C33.8398 27.4797 31.0398 27.1797 30.0298 26.8597C29.0198 26.5397 28.0498 25.9797 27.3698 25.1697C26.4798 24.1197 26.1098 22.6597 26.3498 21.2997C26.5498 20.1697 27.1298 19.1497 27.4598 18.0497C27.9898 16.2897 27.8398 14.4097 27.9798 12.5797C28.0398 11.7497 28.1698 10.8997 28.5898 10.1797C29.0098 9.45971 29.8498 8.98971 30.6798 9.01971C30.7198 7.80971 31.6498 6.75971 32.7498 6.26971C33.8498 5.77971 35.1098 5.75971 36.3198 5.85971C37.3298 5.93971 38.3498 6.20971 39.3598 6.26971C39.8998 6.29971 40.4298 6.35971 40.9398 6.51971C41.4498 6.67971 41.9898 6.90971 42.4598 7.21971C43.7398 8.06971 44.5598 9.49971 44.8698 10.9997C45.0398 11.8097 45.0698 12.6397 45.1598 13.4697C45.4698 16.3097 46.5098 19.0197 47.7298 21.5997C47.9798 22.1397 48.2498 22.6797 48.3198 23.2797C48.4798 24.7397 47.4198 26.0297 46.0098 26.4697C46.1498 25.8597 46.1798 25.3397 46.0098 24.7397C45.8598 25.7297 45.0098 26.4997 44.0698 26.8397C43.1298 27.1797 42.1098 27.1697 41.1098 27.1597C40.4998 27.1597 40.2298 27.1597 39.3398 27.0297C38.5698 25.9797 38.5098 24.5097 38.9898 23.2997C39.4698 22.0897 40.5298 21.1397 41.6198 20.4197C41.9398 20.7197 42.4398 20.7797 42.8598 20.6397C43.2798 20.4997 43.6198 20.1997 43.8898 19.8497C44.3398 19.2597 44.5998 18.5197 44.6098 17.7797C44.6098 17.4597 44.5798 17.1297 44.4298 16.8497C44.1798 16.3397 43.5998 16.0297 43.0298 16.0497C42.4598 16.0697 41.9698 16.3697 41.6698 16.8597C38.0298 16.1697 34.6798 13.8897 32.7698 10.7197C32.6298 11.4497 32.6098 12.1497 32.7698 12.8697C31.9298 12.4797 31.2298 11.8297 30.7698 11.0197C30.9298 11.8297 30.6898 12.5997 30.3398 13.3497C30.1698 13.7197 29.9298 14.0797 29.9098 14.4897C29.8898 14.9697 30.1698 15.4097 30.2498 15.8797C30.4398 16.9597 29.5898 18.0097 29.7198 19.1097C29.7798 19.5697 29.9998 19.9897 30.1298 20.4297C30.2798 20.9197 30.3098 21.4397 30.4098 21.9497C30.5298 22.5997 30.7498 23.2297 31.0498 23.8097C31.4898 24.6497 32.1398 25.4097 33.0098 25.7997C33.9298 26.2197 35.0098 26.1697 35.9698 25.8697C36.9298 25.5697 37.7998 25.0297 38.6398 24.4697" stroke="#1E3300" stroke-linecap="round" stroke-linejoin="round"></path><path d="M33.9 15.4902C33.9 16.3802 33.57 17.2602 32.97 17.9102C32.77 18.1302 32.54 18.3202 32.38 18.5702C32.22 18.8202 32.14 19.1402 32.27 19.4102C32.42 19.7202 32.79 19.8402 33.14 19.8702C33.46 19.8902 33.79 19.8502 34.1 19.7502" stroke="#1E3300" stroke-linecap="round" stroke-linejoin="round"></path><path d="M36.9249 15.9573C36.9277 15.5266 36.6926 15.1758 36.3999 15.1739C36.1072 15.172 35.8677 15.5197 35.8649 15.9505C35.8621 16.3813 36.0971 16.732 36.3899 16.7339C36.6826 16.7358 36.9221 16.3881 36.9249 15.9573Z" fill="#1E3300"></path><path d="M32.1661 16.2749C32.1779 15.8443 31.9504 15.4887 31.6578 15.4806C31.3652 15.4725 31.1183 15.8151 31.1065 16.2457C31.0946 16.6763 31.3222 17.0319 31.6148 17.04C31.9074 17.0481 32.1542 16.7055 32.1661 16.2749Z" fill="#1E3300"></path><path d="M33.3398 28.8505C34.1598 27.8405 35.5098 27.4705 36.5998 26.7705C37.4398 26.2205 38.1398 25.4505 38.5998 24.5605C37.4398 25.4205 36.0498 25.9005 34.6198 26.0405C34.6298 27.1105 34.1798 28.1905 33.3398 28.8505Z" fill="#1E3300"></path><path d="M45.04 40.21C44.6 43.09 44.23 46.23 43.96 49.13" stroke="#1E3300" stroke-linecap="round" stroke-linejoin="round"></path><path d="M41.3398 49.1096C41.7198 48.9596 43.7998 46.0696 44.3298 43.8896C44.0998 45.5796 44.0198 47.5596 43.9498 49.2696L41.3398 49.1196V49.1096Z" fill="#1E3300"></path><path d="M12.1001 26.1104C12.2101 27.8504 12.9101 29.7004 14.4601 30.5004C15.5201 31.0404 17.4101 31.0604 18.5801 30.8304C21.0501 30.3504 23.2901 29.1804 25.0601 27.3804" stroke="#1E3300" stroke-linecap="round" stroke-linejoin="round"></path><path d="M14.48 26.8203C14.96 27.8303 15.35 29.0203 14.76 29.6403" stroke="#1E3300" stroke-linecap="round" stroke-linejoin="round"></path><path d="M11.3702 27.3796C10.9902 27.9596 10.9902 28.7496 11.3202 29.3596C11.6502 29.9696 12.2902 30.3796 12.9702 30.4996C13.6502 30.6196 14.3702 30.4596 14.9702 30.1196C15.6702 30.6796 16.6302 30.8396 17.5202 30.8796C18.4102 30.9196 19.3002 30.7996 20.1902 30.7696C20.5502 30.7596 20.9602 30.7696 21.2202 31.0296C21.3302 31.1396 21.4002 31.2896 21.4602 31.4296C21.6602 31.9696 21.6502 32.5496 21.7602 33.1196C21.8702 33.6896 22.1202 34.2696 22.6402 34.5196C22.8002 34.0596 23.1502 33.6596 23.5802 33.4496C24.0102 33.2396 24.6202 33.3196 24.8802 33.7296C25.0302 33.9596 25.0502 34.2396 25.0402 34.5096C25.0002 35.3896 24.5702 36.2096 24.1502 36.9796C24.3302 37.3796 24.5602 37.8096 24.7502 38.2196C25.1102 37.3696 25.8302 36.8096 26.4302 36.1096C27.3202 35.0696 27.9302 33.7896 28.0802 32.4296C28.2302 31.0696 27.9102 29.6496 27.1102 28.5496C26.7902 28.0996 26.3902 27.7096 25.9802 27.3396C25.8002 27.1796 25.6202 27.0196 25.4202 26.8896C25.4502 26.3996 25.0602 25.8896 24.6702 25.5796C23.5702 24.6996 22.1102 24.3796 20.7102 24.4396C20.2602 24.4596 19.8102 24.5096 19.3802 24.6496C18.7802 24.8396 18.2402 25.1896 17.6402 25.3996C16.9002 25.6596 16.1102 25.6896 15.3202 25.7196C14.5302 25.7496 13.7402 25.7696 13.0002 26.0096C12.2602 26.2496 11.7902 26.7596 11.3602 27.4096L11.3702 27.3796Z" fill="#497C00"></path><path d="M18.3198 41.6198C18.7598 42.7098 19.0998 43.3898 19.3398 44.2398C21.5098 43.2998 24.1798 43.8798 26.1598 42.5898C25.8498 42.2998 25.7198 41.9398 25.5598 41.5398C25.1998 40.6398 24.9398 39.7098 24.7698 38.7498C24.7598 38.6698 24.7498 38.5698 24.8098 38.5098C25.3998 38.6998 25.9798 38.8898 26.5498 39.1298C26.9598 39.2998 27.3598 39.4898 27.6998 39.7698C28.9598 40.7898 29.0998 42.7398 30.3098 43.7998C30.7898 44.2198 31.4198 44.4798 31.7698 45.0198C32.1998 45.6698 32.0498 46.6398 31.4398 47.1298C31.6298 47.7698 32.1998 48.2898 32.2498 48.9598C32.2998 49.5598 31.9198 50.1298 31.4198 50.4698C30.9198 50.8098 30.3198 50.9498 29.7298 51.0798C27.3298 51.5998 24.8498 51.8998 22.4098 51.5898C21.6198 51.4898 20.8398 51.3198 20.0698 51.1498C17.6998 50.6298 15.2798 50.0398 13.2898 48.6598C12.5498 48.1498 11.8298 47.4398 11.7398 46.5398C11.6798 45.9298 11.9198 45.3398 12.1898 44.7898C12.8398 43.4798 13.6698 42.2598 14.6598 41.1898C15.3298 41.6498 17.4898 41.6798 18.2998 41.6298L18.3198 41.6198Z" fill="#99CC33"></path><path d="M13.6102 31.2898C13.5002 31.6898 13.5102 32.1198 13.5202 32.5398L13.7202 38.3898C13.7502 39.1798 13.7902 40.0098 14.2202 40.6598C14.6502 41.3098 15.4102 41.6798 16.1802 41.7898C16.9502 41.8998 17.7302 41.7898 18.4902 41.6298C18.5302 42.0598 19.5102 44.3898 19.5102 44.3898C19.5102 44.3898 19.9302 43.9998 20.8002 43.8298C22.4102 43.5298 25.1002 43.7098 26.1102 42.7398C26.1402 42.7098 24.9102 39.7498 24.9302 39.5498C24.9802 38.9698 24.6802 38.4398 24.7002 37.8798C24.7002 37.7398 24.4402 37.4098 24.3802 37.2598C24.3002 37.0398 24.2102 36.8498 24.3002 36.6398C24.5102 36.1598 24.7602 35.7098 24.9102 35.2098C25.0302 34.8098 25.1202 34.3698 25.0302 33.9598C24.9402 33.5498 24.6202 33.1598 24.2002 33.0998C23.8302 33.0498 23.4602 33.2598 23.2102 33.5398C23.0702 33.6998 22.9702 33.8698 22.8702 34.0498C22.8002 34.1698 22.7102 34.4798 22.5802 34.4998C22.2802 34.5498 21.9102 34.0098 21.8102 33.7898C21.6602 33.4498 21.6202 33.0698 21.6002 32.6898C21.5802 32.3098 21.5802 31.9398 21.4902 31.5698C21.4302 31.3198 21.3202 31.0798 21.1202 30.9198C20.9202 30.7698 20.6502 30.7298 20.4002 30.7098C19.4902 30.6498 18.5902 30.7698 17.6802 30.7698C16.7702 30.7698 15.8202 30.6198 15.0902 30.0898C14.6002 30.3698 14.0502 30.5298 13.4902 30.5398C13.4902 30.7498 13.5102 30.9598 13.5602 31.1598L13.6102 31.2698V31.2898Z" fill="white"></path><path d="M22.7202 34.58C22.8402 34.18 22.9902 33.76 23.3102 33.49C23.6302 33.22 24.0902 33.09 24.4702 33.26C24.9002 33.45 25.1202 33.96 25.1002 34.44C25.0802 34.92 24.7502 35.78 24.5402 36.21C24.2802 36.76 23.9402 37.29 23.4302 37.62" stroke="#1E3300" stroke-linecap="round" stroke-linejoin="round"></path><path d="M21.3998 39.5198C19.8098 40.7798 17.4098 42.7198 14.9998 41.3798C13.7398 40.6798 13.5398 38.8198 13.5998 36.3698C13.6198 34.9798 13.2298 32.8498 13.5198 30.8398" stroke="#1E3300" stroke-linecap="round" stroke-linejoin="round"></path><path d="M26.1101 42.5403C25.0301 40.7003 24.9301 40.3103 24.7201 38.1903C25.3301 36.9103 26.6201 36.0403 27.3001 34.7903C27.7501 33.9503 27.9201 32.9803 27.9701 32.0303C28.0201 31.1003 27.9501 30.1403 27.5901 29.2703C27.1801 28.2903 26.4101 27.4903 25.5301 26.9103C25.3601 26.1703 24.7901 25.5403 24.1401 25.1603C23.4901 24.7803 22.7401 24.5903 21.9801 24.4903C21.2401 24.3903 20.4701 24.3503 19.7401 24.5303C19.0801 24.6903 18.4801 25.0203 17.8401 25.2403C16.5301 25.7003 15.9201 25.7203 14.5401 25.7603C13.5601 25.7903 12.5201 25.9403 11.8101 26.6203C10.7101 27.6803 10.6701 30.0303 12.8601 30.5103C13.6301 30.6803 14.4401 30.4803 15.1201 30.0803C15.7701 30.6103 16.8001 30.7903 17.6401 30.8103C18.4801 30.8303 19.3201 30.7203 20.1701 30.7103C20.5801 30.7103 21.0301 30.7503 21.3001 31.0403C21.5601 31.3203 21.5901 31.7403 21.6101 32.1203C21.6401 32.5303 21.6901 32.9303 21.7601 33.3303C21.8101 33.6103 21.8701 33.8903 22.0301 34.1203C22.1901 34.3503 22.4401 34.5103 22.7201 34.5503" stroke="#1E3300" stroke-linecap="round" stroke-linejoin="round"></path><path d="M26.6998 41.3398C26.7998 42.0198 26.3198 42.6798 25.7198 43.0098C25.1198 43.3398 24.4098 43.4098 23.7198 43.4698C22.2198 43.5998 20.6998 43.6998 19.2998 44.2398C19.1498 43.3498 18.7698 42.4098 18.3198 41.6198" stroke="#1E3300" stroke-linecap="round" stroke-linejoin="round"></path><path d="M24.9302 38.6602C26.6802 38.8902 28.2902 40.0402 29.0702 41.6302C29.4502 42.4102 29.6702 43.3302 30.3302 43.8902C30.7002 44.2002 31.1702 44.3802 31.5102 44.7202C32.1202 45.3202 32.1502 46.4202 31.5602 47.0602" stroke="#1E3300" stroke-linecap="round" stroke-linejoin="round"></path><path d="M19.3 44.2402C18.33 43.7402 17.33 42.9902 17 41.9502" stroke="#1E3300" stroke-linecap="round" stroke-linejoin="round"></path><path d="M19.3002 44.2404C21.0602 44.3804 22.5702 45.0904 24.2702 45.1804C24.9502 45.2204 25.6402 45.1004 26.2702 44.8404C26.8002 44.6204 27.3102 44.3004 27.8802 44.2904C28.3702 44.6104 28.8002 44.8604 29.3002 45.1804C29.6102 45.3804 29.9202 45.5804 30.2002 45.8104C31.0802 46.5404 31.6302 47.5504 32.0902 48.6104C32.4202 49.3804 32.0902 50.2904 31.3202 50.6504C30.4402 51.0604 29.4202 51.2604 28.4802 51.3704C27.6202 51.4704 26.7502 51.5704 25.8802 51.6104C21.8902 51.8204 17.8602 50.9704 14.3002 49.1604C13.8502 48.9304 13.4202 48.6604 13.0102 48.3504C12.4902 47.9504 11.9502 47.4204 11.8002 46.7504C11.6602 46.1004 11.9102 45.4304 12.2102 44.8304C12.8402 43.5604 13.6702 42.4004 14.6702 41.4004" stroke="#1E3300" stroke-linecap="round" stroke-linejoin="round"></path><path d="M18.3443 34.4163C18.3471 33.9855 18.1121 33.6348 17.8194 33.6329C17.5267 33.631 17.2871 33.9787 17.2843 34.4095C17.2816 34.8402 17.5166 35.191 17.8093 35.1929C18.102 35.1948 18.3415 34.8471 18.3443 34.4163Z" fill="#1E3300"></path><path d="M14.9302 33.5303C15.2202 34.2703 15.0002 35.1103 14.6702 35.8403C14.5302 36.1403 14.3802 36.4403 14.3402 36.7703C14.3202 36.9503 14.3402 37.1503 14.4702 37.2903C14.6102 37.4403 14.8302 37.4803 15.0402 37.4703C15.3702 37.4503 15.6902 37.3103 15.9302 37.0803" stroke="#1E3300" stroke-linecap="round" stroke-linejoin="round"></path><path d="M19.2201 43.1399C19.2201 42.6999 19.4701 42.2999 19.7501 41.9699C20.0301 41.6399 20.3601 41.3399 20.6001 40.9699C20.8101 40.6499 20.9401 40.2899 20.9901 39.9199C20.1501 40.4599 19.2701 40.9599 18.3901 41.4199L19.2201 43.1399Z" fill="#1E3300"></path><path d="M24.7298 38.1401C24.4898 37.7501 24.2698 37.3301 24.2598 36.8701" stroke="#1E3300" stroke-linecap="round" stroke-linejoin="round"></path><path d="M41.3398 49.1096C41.7198 48.9596 43.7998 46.0696 44.3298 43.8896C44.0998 45.5796 44.0198 47.5596 43.9498 49.2696L41.3398 49.1196V49.1096Z" fill="#1E3300"></path><path d="M33.04 22.3596C34.23 22.5396 35.49 22.1796 36.39 21.3896" stroke="#1E3300" stroke-linecap="round" stroke-linejoin="round"></path><path d="M15.3101 39.2605C16.2501 39.3505 17.2301 38.8705 17.7301 38.0605" stroke="#1E3300" stroke-linecap="round" stroke-linejoin="round"></path><path d="M12.8301 22.63C13.5101 22.77 14.2201 22.77 14.8801 22.6C15.5401 22.43 16.1701 22.06 16.6301 21.54" stroke="#1E3300" stroke-linecap="round" stroke-linejoin="round"></path></svg>