<svg fill="none" viewBox="0 0 56 56" xmlns="http://www.w3.org/2000/svg" class="css-1jxvrpq e1ig6ntm0"><path opacity="0.2" d="M49.7598 51.21L45.2498 51.04C38.1798 51.17 31.6498 50.14 26.6998 47.45C25.3598 46.72 24.1098 45.85 23.6798 44.77C23.2498 43.69 23.9798 42.49 25.4698 41.84C27.3098 41.04 29.5098 40.81 31.8498 40.88C34.1898 40.95 36.9498 41.42 39.2198 41.76C43.6498 42.41 48.1398 43.14 52.0298 44.58C52.9698 44.93 53.8898 45.33 54.5798 45.86C55.2698 46.39 55.3898 47.03 55.2898 47.72C55.1298 48.82 54.4798 50.1 52.8898 50.6C51.6898 50.98 51.0698 51.19 49.7398 51.22L49.7598 51.21Z" fill="black"></path><path opacity="0.2" d="M20.1802 45.4095C15.7102 44.9695 11.2402 44.3095 6.99021 42.8695C5.78021 42.4595 4.41022 41.7895 4.19022 40.5195C4.01021 39.4795 4.75021 38.4495 5.69021 37.9795C6.63021 37.4995 8.12022 37.3295 9.17022 37.2495C14.6402 36.8595 19.0702 37.4695 24.2102 38.2995C28.1702 38.9495 33.9102 39.9895 36.1302 42.2095C38.0202 44.0995 35.4702 45.4195 34.2202 45.6995C32.0902 46.1895 22.7002 45.6495 20.1802 45.3995V45.4095Z" fill="black"></path><path d="M43.9602 9.81995C43.9302 9.05995 44.4602 8.33995 45.1702 8.04995C45.8802 7.75995 46.7102 7.89995 47.3602 8.28995C48.0102 8.67995 48.4802 9.32995 48.7802 10.03C49.1902 11 49.2702 12.16 48.7802 13.1C48.2902 14.04 47.1702 14.67 46.1502 14.4L43.9702 9.80995L43.9602 9.81995Z" fill="#61666B"></path><path d="M14.5101 30.4803C15.4301 31.4503 16.6101 31.7503 17.9501 31.7703C19.2801 31.7903 20.0801 31.5803 21.3101 31.0903C22.8401 30.4803 24.3501 29.6503 26.0001 28.1803C26.1501 28.1603 26.2901 28.2203 26.4301 28.2803C27.5901 28.7703 28.7601 29.2603 29.9201 29.7603C30.9201 30.1803 31.9501 30.6303 32.6701 31.4403C33.6101 32.4903 33.8501 33.9703 34.0601 35.3703C34.2401 36.5703 34.0801 38.7403 34.0801 38.7403C34.0801 38.7403 34.3801 44.1303 33.0901 45.0503C32.2601 45.6403 30.6701 46.2203 29.6401 46.1103C26.8501 45.8003 22.9101 46.2803 20.1501 45.7903C17.4101 45.3003 16.2501 45.5903 13.5801 44.7903C11.5201 44.1803 6.9901 43.1203 5.0401 42.2103C4.5301 41.9703 3.8001 41.0103 3.8001 41.0103L3.3501 39.4603L4.0301 32.1503C4.0301 32.1503 4.6701 28.9203 5.2801 28.2803C6.2201 27.3103 6.7101 26.4203 8.0401 26.1603C9.3501 25.9003 10.7501 25.9103 12.0301 25.5303C12.2001 26.2203 13.0101 26.8703 13.0101 26.8703L14.1601 27.5003L14.0901 28.1203L14.6401 29.0303L14.6601 30.0003L14.5101 30.4803Z" fill="#B1BAC2"></path><path d="M26.0299 28C21.0799 32.5 17.7899 38.79 16.9199 45.42C21.2399 45.9 25.4299 46.31 29.7599 45.97C30.8699 45.88 32.0599 45.71 32.8599 44.94C33.7499 44.09 33.9299 42.75 33.9899 41.53C34.0999 39.62 34.0699 37.71 33.8999 35.81C33.7799 34.45 33.5799 33.03 32.7999 31.9C32.0499 30.8 30.8499 30.09 29.6199 29.58C28.3899 29.07 27.1999 28.6 26.0099 28.01L26.0299 28Z" fill="#99CC33"></path><path d="M12.0001 35.8895C12.3801 33.2895 12.7701 30.4695 14.1401 28.1095V27.4895L12.9901 26.8595C12.9901 26.8595 12.1801 26.1995 12.0101 25.5195C10.7301 25.8995 9.33008 25.8895 8.02008 26.1495C6.69008 26.4095 5.61008 27.4795 5.26008 28.2695C4.91008 29.0595 4.01008 32.1395 4.01008 32.1395L3.33008 39.4495L3.78008 40.9995C3.78008 40.9995 4.51008 41.9595 5.02008 42.1995C6.40008 42.8395 9.05008 43.5495 11.2201 44.1295C11.2201 41.3695 11.6001 38.5495 11.9901 35.8895H12.0001Z" fill="#99CC33"></path><path d="M11.7201 24.4403C11.9201 25.6703 12.2501 25.9503 13.0501 26.9003C13.0901 26.9503 13.1101 26.9903 13.1301 27.0403C13.7401 27.1603 14.3401 27.3703 14.9001 27.7103C15.1001 27.7503 15.4401 27.8103 15.6601 27.8103C15.8601 27.8103 16.0701 27.7903 16.2701 27.7703C16.3401 27.7603 16.4301 27.7403 16.5401 27.7203C17.0401 27.5803 17.5501 27.4803 18.0501 27.3303C18.1701 27.3003 18.9301 27.0203 19.2701 26.9103C19.5801 26.7603 20.2601 26.4403 20.3601 26.3803C20.7601 26.1603 21.1301 25.9003 21.5301 25.6803C21.5501 25.6803 21.5501 25.6703 21.5701 25.6603C21.6301 25.6003 21.7001 25.5203 21.8101 25.4103C22.1301 25.0903 22.4901 24.8203 22.8701 24.5903C22.6601 23.6603 22.6301 22.6603 22.7701 21.8403C24.0001 22.2203 25.3401 21.2803 25.8201 20.0903C26.1501 19.2603 26.1701 18.3203 25.9601 17.4503C25.7701 16.6603 25.4001 15.9303 25.2001 15.1403C24.9201 14.0103 25.0301 12.8203 24.9601 11.6503C24.8901 10.4803 24.5801 9.25031 23.6901 8.49031C22.8601 7.78031 21.7001 7.63031 20.6001 7.64031C19.5101 7.64031 18.4001 7.79031 17.3401 7.53031C16.3701 7.29031 15.3001 6.74031 14.4401 7.26031C14.1601 7.43031 13.9401 7.70031 13.7501 7.97031C12.8301 9.29031 12.2501 10.8803 11.5501 12.3203C11.3101 12.8103 11.0801 13.3303 11.1001 13.8803C11.1201 14.2503 11.2501 14.6103 11.2901 14.9803C11.3601 15.7003 11.0501 16.3903 10.9101 17.1003C10.6901 18.1903 10.8701 19.3203 11.0501 20.4203C11.2701 21.7603 11.4901 23.1003 11.7101 24.4403H11.7201Z" fill="white"></path><path d="M14.74 29.2202C14.82 29.6502 14.53 30.1002 14.63 30.5302C14.73 30.9702 15.18 31.2202 15.6 31.3702C17.18 31.9402 18.94 31.8702 20.54 31.3902C22.14 30.9102 23.61 30.0302 24.94 29.0202C25.29 28.7502 25.64 28.4702 25.85 28.0902C26.06 27.7102 26.11 27.2002 25.85 26.8402C25.41 26.2202 24.31 26.2902 23.99 25.6002C23.88 25.3502 24.02 24.9002 23.98 24.6302C23.94 24.3602 23.64 24.2302 23.36 24.2202C23.16 24.2102 22.98 24.3502 22.83 24.4802C21.65 25.4702 20.3 26.2502 18.85 26.7802C18.13 27.0502 17.38 27.2502 16.63 27.4002C15.88 27.5502 14.85 27.3902 14.13 27.5002C13.14 27.6602 14.63 28.7302 14.73 29.2302L14.74 29.2202Z" fill="#B1BAC2"></path><path d="M23.8799 17.6897C23.9299 17.4697 23.8699 17.7197 23.9299 17.4997C24.0199 17.1897 24.1299 16.8697 24.3699 16.6597C24.5899 16.4597 24.9099 16.3897 25.1999 16.4597C25.4899 16.5297 25.7299 16.7497 25.8399 17.0197C26.4099 15.7797 26.9699 14.5397 27.2099 13.1897C27.4499 11.8497 27.3199 10.3897 26.5599 9.25968C26.8199 8.74968 26.6999 8.08968 26.4299 7.57968C26.1599 7.06968 25.6999 6.68968 25.2299 6.36968C23.9299 5.48968 22.3499 5.00968 20.7799 5.01968C19.2099 5.02968 17.6399 5.52968 16.3499 6.42968C15.3699 5.76968 13.9099 5.91968 12.8799 6.49968C11.8499 7.07968 11.1399 8.15968 10.8799 9.30968C10.6199 10.4597 10.9099 11.6597 11.3299 12.7597C11.5399 11.8397 12.2699 11.0497 13.1699 10.7597C13.5199 10.6497 13.8899 10.6097 14.2399 10.5097C14.5899 10.4097 14.9399 10.2197 15.1199 9.89968C16.8599 12.3797 19.7199 13.9797 22.7299 14.3197C22.8699 15.5897 23.0299 16.2497 23.0399 17.5197L23.8999 17.6797L23.8799 17.6897Z" fill="#61666B"></path><path d="M13.4699 20.7404C12.8599 21.0504 12.4399 21.7004 12.3999 22.3804C13.1299 22.4304 13.8399 22.4204 14.5399 22.2104C15.4499 22.6904 16.5199 22.8504 17.5299 22.6704C17.3699 22.1304 17.1399 21.5704 16.7199 21.2004C16.2999 20.8304 15.7299 20.5904 15.1699 20.6404C14.8699 20.6704 14.5699 20.7704 14.2699 20.8204C13.9699 20.8704 13.7299 20.9204 13.4699 20.7404Z" fill="#61666B"></path><path d="M12.07 25.5098C10.6 25.6498 8.81005 25.8198 7.54005 26.3198C6.60005 26.6898 5.67005 27.0998 4.98005 28.6398C4.17005 30.4398 3.40005 34.6098 3.33005 39.2798C3.31005 40.4898 3.95005 41.6298 5.03005 42.2098C6.24005 42.8598 7.60005 43.2398 8.97005 43.6498C15.85 45.6698 23.95 46.5298 31.26 45.8998C32.68 45.7798 33.81 44.6298 33.89 43.1998C34.05 40.4398 34.15 36.3798 33.99 34.8898C33.89 33.9798 33.48 32.9498 33.01 32.1598C32.37 31.0898 31.27 30.3898 30.17 29.8198C29.07 29.2498 27.22 28.4998 26.05 28.1098" stroke="#1E3405" stroke-linecap="round" stroke-linejoin="round"></path><path d="M22.7899 21.7599C23.6799 22.0699 24.7099 21.7499 25.2699 20.9899C25.8299 20.2299 25.9999 19.2599 26.0299 18.3199C26.0499 17.7799 26.0199 17.2199 25.6599 16.7799C25.4799 16.5699 25.2199 16.4199 24.9499 16.4199C24.3299 16.4199 24.0099 17.0199 23.8499 17.5699L23.0199 17.3399C23.0399 16.8199 23.0199 16.2799 22.8899 15.7799C22.7799 15.3299 22.7799 14.8699 22.8399 14.4099C19.7599 14.1499 16.8299 12.4499 15.1099 9.87988" stroke="#1E3405" stroke-linecap="round" stroke-linejoin="round"></path><path d="M17.2399 27.3499C16.2399 27.6799 14.7299 27.7299 13.7699 27.2999C12.7499 26.8399 12.1199 25.7799 11.8199 24.7099C11.5199 23.6399 11.4799 22.5099 11.2799 21.4099C11.0399 20.0999 10.5799 18.7799 10.8399 17.4799C10.9999 16.6799 11.4399 15.9199 11.3399 15.1099C11.2899 14.6999 11.0999 14.3099 11.0899 13.8899C11.0899 13.5399 11.2199 13.2099 11.3399 12.8799C12.3999 9.87988 14.1199 11.3099 15.1099 9.87988" stroke="#1E3405" stroke-linecap="round" stroke-linejoin="round"></path><path d="M22.7598 21.8496C22.6598 22.5596 22.6998 23.4596 22.7898 24.6296" stroke="#1E3405" stroke-linecap="round" stroke-linejoin="round"></path><path d="M14.7301 16.1699C14.6101 17.3699 13.7501 18.3299 13.2101 19.3999C13.0201 19.7699 12.8901 20.2699 13.1901 20.5499C13.3601 20.7099 13.6101 20.7399 13.8401 20.7499C14.4301 20.7699 15.0301 20.7099 15.6001 20.5499" stroke="#1E3405" stroke-linecap="round" stroke-linejoin="round"></path><path d="M25.88 17.0402C26.37 15.9802 26.87 14.9202 27.17 13.7902C27.47 12.6602 27.56 11.4502 27.23 10.3302C27.12 9.9302 26.96 9.4902 26.61 9.2602C26.84 8.4402 26.85 7.1502 24 5.7002" stroke="#1E3405" stroke-linecap="round" stroke-linejoin="round"></path><path d="M11.2999 12.98C10.8799 12.09 10.7299 10.44 10.9099 9.46998C11.2899 7.36998 12.5099 6.64998 13.1399 6.38998C14.5099 5.84998 15.5899 6.17998 16.3299 6.45998" stroke="#1E3405" stroke-linecap="round" stroke-linejoin="round"></path><path d="M16.9001 15.0503C16.9901 15.1203 17.1201 15.1303 17.2301 15.1403C17.8101 15.2003 18.3801 15.2503 18.9501 15.3803C19.5201 15.5103 20.0701 15.7403 20.5001 16.1303C20.6001 16.2203 20.7401 16.3303 20.8701 16.2703C20.9901 16.2103 20.9801 16.0403 20.9501 15.9203C20.7901 15.3303 20.3301 14.8503 19.7901 14.5703C19.2501 14.2903 18.6301 14.1903 18.0201 14.1603C17.7101 14.1503 17.2401 14.1303 16.9701 14.3203C16.7501 14.4703 16.6701 14.8903 16.9101 15.0603L16.9001 15.0503Z" fill="#1E3304"></path><path d="M11.4399 12.7903C11.9799 12.8003 12.5299 12.8203 13.0599 12.9703C13.5899 13.1203 14.0899 13.4003 14.3999 13.8503C14.4899 13.9803 14.5599 14.1703 14.4599 14.2903C14.3999 14.3703 14.2899 14.3903 14.1999 14.3903C13.8799 14.4003 13.5799 14.2703 13.2799 14.1603C12.6099 13.9303 11.8899 13.8703 11.1899 13.9803L11.4499 12.7803L11.4399 12.7903Z" fill="#1E3304"></path><path d="M18.9371 17.6262C18.9827 17.1923 18.7793 16.8153 18.4827 16.7841C18.1861 16.7528 17.9087 17.0793 17.863 17.5132C17.8173 17.9471 18.0207 18.3241 18.3173 18.3554C18.6139 18.3866 18.8914 18.0602 18.9371 17.6262Z" fill="#1E3304"></path><path d="M13.3809 16.5315C13.4266 16.0976 13.2232 15.7206 12.9266 15.6893C12.63 15.6581 12.3525 15.9845 12.3068 16.4184C12.2612 16.8524 12.4646 17.2294 12.7612 17.2606C13.0577 17.2919 13.3352 16.9654 13.3809 16.5315Z" fill="#1E3304"></path><path d="M26.1602 38.7196C26.3502 36.8196 26.9502 34.9596 27.9202 33.3096" stroke="#1E3405" stroke-linecap="round" stroke-linejoin="round"></path><path d="M29.0801 29.26C25.1901 28.94 21.0601 39.51 20.8701 45.8C23.6201 46.13 26.4901 46.27 29.6301 46.09C30.8801 46.02 32.2401 45.95 33.0801 45.03C34.1301 43.89 34.0601 42.87 34.0701 41.32C34.1401 35.65 34.2501 33.97 32.6701 31.42C31.9901 30.33 30.2001 29.88 29.0801 29.25V29.26Z" fill="#1E3405"></path><path d="M25.2802 48.2898C23.1402 47.3998 23.1002 46.2898 22.8602 45.8198C22.6802 45.4698 23.0802 41.7798 23.1402 41.3898C23.2402 40.6698 24.8902 35.1398 25.2002 34.4898C25.5602 33.7398 25.9402 32.7298 26.3202 31.9998C26.7002 31.2698 27.6602 30.2598 28.9002 30.0198C30.1402 29.7798 31.3102 29.5598 32.6902 29.4198C34.4002 29.4098 35.8102 29.2598 35.8102 29.2598C35.8102 29.2598 34.3502 32.7298 35.0602 32.4398C35.1502 32.3998 35.2402 32.3698 35.3302 32.3998C35.5102 32.4598 35.5202 32.6998 35.5002 32.8898C35.4602 33.4498 35.5002 34.0098 35.6502 34.5498C35.7002 34.7298 35.7802 34.9298 35.9702 34.9598C36.0802 34.9798 36.1902 34.9098 36.2902 34.8498C36.7802 34.5398 37.2702 34.2298 37.7602 33.9098C38.0302 33.7398 38.3102 33.5598 38.6302 33.4998C38.9502 33.4398 39.3202 33.5198 39.5102 33.7798C39.6902 34.0198 39.6802 34.3298 39.7302 34.6198C39.7802 34.9098 39.9602 35.2298 40.2602 35.2398C40.3802 35.2398 40.4902 35.1998 40.6002 35.1498C42.3102 34.3898 43.9102 33.3698 45.3202 32.1398C45.4402 32.0398 45.5602 31.9298 45.7202 31.9098C45.8602 31.8898 45.9902 31.9498 46.1202 31.9998C47.2102 32.4598 48.2902 32.9198 49.3802 33.3798C50.3102 33.7698 51.2802 34.1898 51.9502 34.9498C52.8202 35.9398 52.8502 38.0198 53.0402 39.3198C53.2102 40.4398 53.3002 47.4598 52.8002 48.4798C52.1502 49.8198 51.4002 50.5798 50.0702 51.2698C48.8902 51.8798 45.0802 51.7698 44.1202 51.6698C41.5102 51.3798 38.3802 51.3198 35.8002 50.8598C33.2402 50.4098 28.2202 49.5198 25.2702 48.2898H25.2802Z" fill="#99CC33"></path><path d="M35.8299 29.4003C34.2499 30.9903 32.8499 33.7703 32.0099 35.8503C31.9799 35.9303 31.9499 36.0103 31.9499 36.0903C31.9499 36.1903 32.0199 36.2703 32.0699 36.3503C32.5599 36.9703 33.2799 37.3703 34.0099 37.6803C36.0199 38.5303 38.2599 38.8203 40.4199 38.5103C40.5699 38.4903 40.7099 38.4703 40.8399 38.3903C41.0099 38.2903 41.1199 38.1103 41.2199 37.9303C42.3599 35.9503 44.2099 33.6303 45.7099 31.9103C44.9399 31.4903 44.2099 30.7803 43.7399 30.0403C43.2699 29.3003 43.1299 28.9603 42.8799 28.1203C42.7199 27.5603 42.7099 25.2403 42.7099 25.2403C42.7099 25.2403 45.8099 22.8903 45.9299 20.7303C46.0499 18.5703 44.7699 16.5603 43.2299 15.0403C41.6899 13.5203 39.7499 12.4703 37.7099 11.7703C36.6699 11.4103 35.5699 11.1403 34.4799 11.2603C33.6699 11.3503 32.8999 11.6503 32.1799 12.0303C31.6899 12.2903 31.1999 12.6003 30.8499 13.0303C30.5399 13.4203 30.3599 13.8803 30.2299 14.3603C29.8299 15.7903 29.8899 17.3103 29.7399 18.7903C29.6399 19.8503 30.5099 20.7703 30.7599 21.8003C31.0099 22.8303 31.1599 23.8803 31.4699 24.8903C31.7799 25.9003 32.2499 26.8903 33.0299 27.6103C33.8099 28.3303 34.9299 28.7203 35.9499 28.4503C35.9199 28.7303 35.8399 29.1403 35.7999 29.4103L35.8299 29.4003Z" fill="white"></path><path d="M33.1602 37.1898C35.4702 38.6398 38.3702 39.0998 41.0102 38.4498C40.0502 39.9198 36.6602 49.2298 36.1102 50.8998C33.3902 50.2898 32.0002 50.3098 29.3502 49.4298C29.2902 49.4098 30.5602 40.9198 30.5202 40.8698C30.4802 40.8198 30.4802 40.7498 30.4802 40.6898C30.4802 39.8898 30.8102 39.1398 31.1402 38.4198C31.3102 38.0498 31.3302 37.5598 31.4902 37.1898C31.5502 37.0298 31.9202 36.3098 32.0402 36.2998C32.1702 36.2998 32.4402 36.6598 32.5402 36.7498C32.7302 36.9098 32.9402 37.0498 33.1602 37.1898Z" fill="#D8EEAB"></path><path d="M45.7402 31.7998C47.1002 32.4098 48.2901 32.8398 49.5301 33.3098C50.1801 33.5598 50.8402 33.8398 51.3602 34.2998C52.3302 35.1498 52.7702 36.4498 52.9902 37.7198C53.0902 38.2998 52.9702 44.2098 52.9302 47.4798C52.9102 48.9798 52.1601 49.9698 50.9201 50.8098C50.1101 51.3598 49.2401 51.5098 48.1701 51.5998C44.3701 51.9098 31.6201 51.2098 24.4002 47.8098C23.7302 47.4998 23.2002 46.7198 22.9802 46.0198C22.7602 45.3198 22.7502 44.5698 22.7702 43.8298C22.8202 41.9698 24.2702 35.6498 26.0402 32.3498C26.7802 30.9598 27.5502 30.5298 28.4302 30.1798C29.6202 29.7098 31.2901 29.5498 32.6701 29.4198C33.6601 29.3298 34.6702 29.2998 35.6602 29.2598" stroke="#1E3405" stroke-linecap="round" stroke-linejoin="round"></path><path d="M45.7401 31.7998C43.9001 33.7198 43.0801 35.1098 42.1101 36.5698C40.8701 38.4298 38.4901 43.8798 36.1001 50.8998" stroke="#1E3405" stroke-linecap="round" stroke-linejoin="round"></path><path d="M29.3501 49.4297C29.7801 40.5197 32.7401 33.9997 33.9601 31.8697C34.1701 31.4997 34.3501 31.1397 34.6301 30.8297C34.9501 30.4697 35.3401 30.1497 35.5701 29.7297C35.8101 29.2897 35.7701 28.9597 35.8101 28.4697" stroke="#1E3405" stroke-linecap="round" stroke-linejoin="round"></path><path d="M32.0801 36.3496C32.8601 37.3196 34.3701 38.0496 35.9801 38.4596C37.5901 38.8696 39.4501 38.8496 40.9401 38.4396" stroke="#1E3405" stroke-linecap="round" stroke-linejoin="round"></path><path d="M42.6798 25.2998C43.5998 25.3398 44.5398 25.0498 45.2598 24.4798C45.9898 23.9098 46.4998 23.0698 46.6798 22.1698C46.8198 21.4798 46.7598 20.7798 46.6198 20.0998C46.4998 19.5098 46.2198 18.9198 46.2198 18.3198C46.2198 16.9998 45.9798 15.6598 45.8198 14.3398C45.6998 13.3398 45.6198 12.3098 45.1498 11.4198C44.5298 10.2298 43.2898 9.45979 42.0098 9.04979C40.7298 8.63979 39.3698 8.54979 38.0398 8.34979C37.0198 8.19979 35.8898 8.15979 34.8698 8.32979C33.2698 8.59979 31.9298 9.74979 31.5498 11.3298C30.6598 11.3998 29.8898 12.0498 29.4698 12.8298C29.0498 13.6198 28.9298 14.5298 28.9198 15.4198C28.9098 16.3098 28.9798 17.2098 28.9198 18.0998C28.8998 18.3198 28.8798 18.5498 28.8398 18.7698C28.8498 18.8098 28.8698 18.8998 28.9098 19.0598C28.9298 19.1398 29.0798 19.5798 29.1398 19.8098L29.3498 20.1698C29.3498 20.1698 29.3898 20.2098 29.4198 20.2398C29.5198 20.3498 30.0198 20.7698 30.0198 20.7998C30.2298 20.9298 30.4398 21.0498 30.6598 21.1798C30.6598 21.1398 30.6598 21.0898 30.6598 21.0498C30.6798 19.9098 31.3598 18.7798 31.0198 17.6898C30.9598 17.4798 30.8498 17.2798 30.8298 17.0698C30.7698 16.5598 31.1298 16.1098 31.3698 15.6498C31.7198 14.9998 31.8598 14.2398 31.7498 13.5098C32.0498 14.3398 33.0798 14.5898 33.7398 15.1698C33.6198 14.4998 33.6098 13.7998 33.7198 13.1298C35.6598 16.2798 38.9998 18.4998 42.6398 19.1798C42.9298 18.6998 43.5098 18.3998 44.0698 18.4398C44.6298 18.4798 45.1598 18.8598 45.3698 19.3798C45.4198 19.4998 45.4498 19.6298 45.4798 19.7598C45.5198 19.9598 45.5298 20.1698 45.5198 20.3698C45.4998 21.0698 45.1998 21.7198 44.7298 22.2298C44.4998 22.4798 44.2298 22.6798 43.9298 22.8398C43.6698 22.9798 43.2298 22.9898 43.0098 23.1498C42.7498 23.3398 42.8698 23.6998 42.8598 24.0098C42.8498 24.4198 42.8098 24.8298 42.7298 25.2398" fill="#61666B"></path><path d="M45.7398 31.7998C41.8898 29.9998 42.4898 25.1998 42.9398 23.0898" stroke="#1E3405" stroke-linecap="round" stroke-linejoin="round"></path><path d="M42.5498 22.8104C42.8698 23.1104 43.3698 23.1704 43.7898 23.0304C44.2098 22.8904 44.5498 22.5904 44.8198 22.2404C45.2698 21.6504 45.5298 20.9104 45.5398 20.1704C45.5398 19.8504 45.5098 19.5204 45.3598 19.2404C45.1098 18.7304 44.5298 18.4204 43.9598 18.4404C43.3898 18.4604 42.8998 18.7604 42.5998 19.2504C38.9598 18.5604 35.6098 16.2804 33.6998 13.1104C33.5598 13.8404 33.5398 14.5404 33.6998 15.2604C32.8598 14.8704 32.1598 14.2204 31.6998 13.4104C31.8598 14.2204 31.6198 14.9904 31.2698 15.7404C31.0998 16.1104 30.8598 16.4704 30.8398 16.8804C30.8198 17.3604 31.0998 17.8004 31.1798 18.2704C31.3698 19.3504 30.5198 20.4004 30.6498 21.5004C30.7098 21.9604 30.9298 22.3804 31.0598 22.8204C31.2098 23.3104 31.2398 23.8304 31.3398 24.3404C31.4598 24.9904 31.6798 25.6204 31.9798 26.2004C32.4198 27.0404 33.0698 27.8004 33.9398 28.1904C34.8598 28.6104 35.9398 28.5604 36.8998 28.2604C37.8598 27.9604 38.7298 27.4204 39.5698 26.8604" stroke="#1E3405" stroke-linecap="round" stroke-linejoin="round"></path><path d="M30.61 21.2001C29.82 21.0901 29.22 20.4001 28.98 19.6401C28.74 18.8801 28.8 18.0701 28.88 17.2801C28.96 16.4901 28.87 15.7701 28.92 14.9801C28.97 14.1901 29.11 13.3001 29.53 12.5801C29.95 11.8601 30.79 11.3901 31.62 11.4201C31.66 10.2101 32.59 9.1601 33.69 8.6701C34.79 8.1801 36.05 8.16011 37.26 8.26011C38.27 8.34011 39.29 8.6101 40.3 8.6701C40.84 8.7001 41.37 8.7601 41.88 8.9201C42.39 9.0801 42.9301 9.3101 43.4001 9.6201C44.6801 10.4701 45.5001 11.9001 45.8101 13.4001C45.9801 14.2101 46.01 15.0401 46.1 15.8701C46.22 16.9801 46.3001 18.2301 46.5401 19.3201C46.7801 20.4101 46.94 21.5601 46.62 22.6301C46.13 24.2501 44.4301 25.4201 42.7401 25.2901" stroke="#1E3405" stroke-linecap="round" stroke-linejoin="round"></path><path d="M34.8399 17.8799C34.8399 18.7699 34.5099 19.6499 33.9099 20.2999C33.7099 20.5199 33.4799 20.7099 33.3199 20.9599C33.1599 21.2099 33.0799 21.5299 33.2099 21.7999C33.3599 22.1099 33.7299 22.2299 34.0799 22.2599C34.3999 22.2799 34.7299 22.2399 35.0399 22.1399" stroke="#1E3405" stroke-linecap="round" stroke-linejoin="round"></path><path d="M37.8707 18.3528C37.8735 17.9221 37.6384 17.5713 37.3457 17.5694C37.053 17.5675 36.8135 17.9152 36.8107 18.346C36.8079 18.7768 37.0429 19.1275 37.3357 19.1294C37.6284 19.1313 37.8679 18.7836 37.8707 18.3528Z" fill="#1E3405"></path><path d="M33.1109 18.6714C33.1228 18.2408 32.8952 17.8852 32.6026 17.8771C32.31 17.869 32.0632 18.2116 32.0513 18.6422C32.0394 19.0728 32.267 19.4284 32.5596 19.4365C32.8522 19.4446 33.099 19.102 33.1109 18.6714Z" fill="#1E3405"></path><path d="M32.1698 16.7899C32.5298 16.7699 32.8998 16.8299 33.2498 16.9199C33.4198 16.9599 33.6498 16.9999 33.7398 16.8499C33.8198 16.7199 33.7398 16.5999 33.6198 16.4999C33.2898 16.1899 32.7098 16.0899 32.2598 16.1099C31.7498 16.1299 31.2798 16.2099 30.9198 16.5699C30.8298 16.6599 30.7498 16.7699 30.7198 16.8999C30.6898 17.0299 30.6798 17.1499 30.7898 17.2099C30.9798 17.3199 31.2198 17.0999 31.3698 17.0099C31.6098 16.8699 31.8998 16.8099 32.1698 16.7899Z" fill="#1E3405"></path><path d="M14.1399 27.49C17.7799 28.15 22.1199 25.29 22.9399 24.6C23.2399 24.35 23.5499 24.08 23.8399 24.27C24.0199 24.38 24.0699 24.63 24.0599 24.84C24.0499 25.05 23.9999 25.27 24.0499 25.48C24.1399 25.89 24.5699 26.12 24.9599 26.27C25.3499 26.42 25.7899 26.57 25.9999 26.93C26.2999 27.44 25.9799 28.09 25.5899 28.53C24.8499 29.36 23.3699 30.12 22.3699 30.6C21.2299 31.14 20.5299 31.41 19.2899 31.65C18.0499 31.89 16.7399 31.89 15.5599 31.47C14.5899 31.13 14.3699 30.54 14.7799 29.65C15.0399 29.08 13.5499 28.05 14.1399 27.49Z" stroke="#1E3405" stroke-linecap="round" stroke-linejoin="round"></path><path d="M13.6302 20.7496C12.9202 20.9296 12.3902 21.6396 12.4202 22.3696C13.1002 22.3796 13.7202 22.3696 14.3402 22.0996C15.2802 22.7396 16.5702 22.9196 17.6602 22.6096C17.2602 21.6596 16.6502 20.7696 15.5902 20.5596" stroke="#1E3405" stroke-linecap="round" stroke-linejoin="round"></path><path d="M16.3301 6.4697C17.4101 5.6597 18.7201 5.1497 20.0601 5.0197C21.4001 4.8897 22.7801 5.1197 24.0101 5.6897" stroke="#1E3405" stroke-linecap="round" stroke-linejoin="round"></path><path d="M14.0802 28.1104C11.9602 33.0604 11.1802 39.7504 11.1802 44.0004" stroke="#1E3405" stroke-linecap="round" stroke-linejoin="round"></path><path d="M24.54 29.4199C19.79 33.7599 18.59 39.1899 16.75 45.3499" stroke="#1E3405" stroke-linecap="round" stroke-linejoin="round"></path><path d="M43.9602 9.81995C43.9302 9.05995 44.4602 8.33995 45.1702 8.04995C45.8802 7.75995 46.7102 7.89995 47.3602 8.28995C48.0102 8.67995 48.4802 9.32995 48.7802 10.03C49.1902 11 49.2702 12.16 48.7802 13.1C48.2902 14.04 47.1702 14.67 46.1502 14.4" stroke="#1E3405" stroke-linecap="round" stroke-linejoin="round"></path><path d="M33.77 24.3698C34.88 24.5798 36.08 24.2798 36.98 23.5898" stroke="#1E3405" stroke-linecap="round" stroke-linejoin="round"></path></svg>