<svg width="64" height="64" viewBox="0 0 64 64"><path d="M17.39 27.99a2.66 2.66 0 0 1-1.02-2.1c0-.57.2-1.15.57-1.63l7.02-9a2.65 2.65 0 0 1 2.24-1.24H40s.76.04 1.66.64a5.2 5.2 0 0 1 2.22 4.27 5.19 5.19 0 0 1-.94 2.97L36 32.05l-.6-.46a17.12 17.12 0 0 0-8.18-3.4l-1.17-.17 6.02-8.69h-4.55l-6.4 8.21a2.66 2.66 0 0 1-2.09 1.01 2.65 2.65 0 0 1-1.64-.56m30.93 25.99h-.13c-.78 0-1.48-.35-1.9-.82a3.3 3.3 0 0 1-1.14-2.49V38.68h-4.32l-.19-.42a17.33 17.33 0 0 0-3.41-4.98L36 32.05h12.45a3.3 3.3 0 0 1 3.24 2.66c.05.21.08.44.08.68V48.7a2.66 2.66 0 0 1-.48 5.28h-2.97zM24.64 31.5a14.37 14.37 0 0 0-14.35 14.35c0 7.91 6.44 14.35 14.35 14.35a14.36 14.36 0 0 0 0-28.7zM42 8.43a4.96 4.96 0 0 1 4.95-4.96 4.96 4.96 0 0 1 0 9.91A4.95 4.95 0 0 1 42 8.43z"></path></svg>
