<svg width="64" height="64" viewBox="0 0 64 64"><path d="M53.46 36.23 41.53 24.5a6.17 6.17 0 0 0-.53-.46 12.4 12.4 0 0 0-8.51-3.33c-3.52 0-6.69 1.43-8.91 3.73l-.07.06-11.8 11.62c-3.24 3.16 1.14 7.22 4.35 4.06l7.13-7.05v6.61h18.6V33.1l7.31 7.2c2.95 3.05 7.43-1.04 4.36-4.06zM24.93 10.71c0-4.06 3.4-7.35 7.6-7.35 4.2 0 7.6 3.29 7.6 7.35s-3.4 7.34-7.6 7.34c-4.2 0-7.6-3.28-7.6-7.34zm9.77 49.6h8.57l4.2-4.28c1.8-1.8 2.29-5.1.37-7l-5.97-5.86-7 6.89L40 55.1l-5.27 5.18c-.02 0-.02.02-.04.04zm-12.79 0h8.58l-.04-.03-5.27-5.18 5.15-5.04-7-6.89-5.97 5.87c-1.92 1.88-1.43 5.2.35 6.99l4.2 4.29z"></path></svg>
