<svg width="64" height="64" viewBox="0 0 64 64"><path d="M56.75 23.88H6.6a3.54 3.54 0 0 1-3.53-3.54c0-1.96 3.02-13.02 28.63-13.02 25.62 0 28.58 11.06 28.58 13.02a3.54 3.54 0 0 1-3.54 3.54zM6.62 40.1h50.13a3.54 3.54 0 0 1 3.54 3.54c0 1.96-3.02 13.02-28.64 13.02S3.08 45.6 3.08 43.64A3.54 3.54 0 0 1 6.6 40.1zm1.27-9.2c.16.26 4.06 6.41 11.45 6.41 3.97 0 6.18-1.8 7.79-3.13 1.33-1.08 2.22-1.8 4.04-1.85 1.83.05 2.72.77 4.05 1.85 1.61 1.32 3.82 3.13 7.78 3.13 7.4 0 11.3-6.15 11.46-6.42a2.77 2.77 0 0 0-.89-3.8 2.79 2.79 0 0 0-3.82.86c-.1.16-2.5 3.8-6.75 3.8-1.98 0-2.89-.74-4.27-1.86-1.66-1.37-3.74-3.06-7.56-3.11-3.81.05-5.89 1.74-7.56 3.1-1.38 1.13-2.29 1.88-4.27 1.88-4.25 0-6.64-3.65-6.74-3.8a2.79 2.79 0 0 0-3.83-.87 2.77 2.77 0 0 0-.88 3.8"></path></svg>
