<svg width="64" height="64" viewBox="0 0 64 64" xmlns="http://www.w3.org/2000/svg"><path d="M35.39 48.87c11.56 0 20.84-10.18 20.84-23.7v-4.39H9.65a2.51 2.51 0 1 0 0 5.03h4.76c.3 13.22 9.6 23.06 20.98 23.06zm-13.61 12.1a4.07 4.07 0 0 1 0-8.13h26.6a4.07 4.07 0 0 1 0 8.13h-26.6zm8.2-43.79a2.12 2.12 0 0 1-1.79-3.27l5.76-9.08a2.13 2.13 0 1 1 3.59 2.27l-5.76 9.1a2.12 2.12 0 0 1-1.8.98zm8.95 0c-.4 0-.8-.11-1.14-.33a2.12 2.12 0 0 1-.99-1.8c0-.4.12-.8.34-1.13l5.75-9.1a2.13 2.13 0 1 1 3.6 2.28l-5.76 9.1a2.12 2.12 0 0 1-1.8.98z"></path></svg>
