<svg viewBox="0 0 200 200" width="64" height="64"><path d="m147.5 63.4 27.9 17.5c7.5 4.7 17.4 2.4 22.1-5.2 4.7-7.6 2.4-17.5-5.2-24.3l-24.9-21.1-19.9 33.1zm13.1 83.8-2-2V110c.1-1 .1-2.1.1-3.1 0-19.1-15.4-34.5-34.4-34.5l-73.3.1-4.8-4.9a6.58 6.58 0 0 0-9.5 0 6.73 6.73 0 0 0 0 9.6l6 6.1-40.6 66.5c-1.2 2-1.8 4.3-1.8 6.6 0 1 .1 2 .3 2.9.8 3.2 2.8 6.1 5.6 7.8a12.95 12.95 0 0 0 9.5 1.6c3.2-.8 6.1-2.8 7.8-5.7l25-40.9 69.9 17.7 24.3 25c2.3 2.4 5.5 3.8 8.8 3.8h.1c3.3 0 6.4-1.3 8.8-3.6 2.4-2.3 3.7-5.6 3.8-8.9v-.2c0-3.2-1.3-6.4-3.6-8.7z"></path></svg>
