<svg width="64" height="64" viewBox="0 0 64 64"><path d="M45.65 18.07a12.2 12.2 0 0 0 .39-3.51C45.62 4.4 36.2 4.07 36.2 4.07s.22 9.51-2.1 5.51C28.56.18 13.18 3.61 13.18 3.61s10.8 3.34 10.06 8.77c-.3 2.18-2.1 4.17-3.73 5.56L16.16 21A21.78 21.78 0 0 0 9 37.52a23.48 23.48 0 1 0 36.65-19.45zm-4.7 8.32a3.8 3.8 0 1 1 0 7.6 3.8 3.8 0 0 1 0-7.6zm-15.41 0a3.8 3.8 0 1 1 0 7.6 3.8 3.8 0 0 1 0-7.6zM45.3 46.13c-.15.3-3.78 7.4-11.95 7.4-8.1 0-11.97-6.98-12.14-7.28a2 2 0 0 1 .8-2.7 2 2 0 0 1 2.7.8c.12.21 2.89 5.19 8.64 5.19 5.73 0 8.28-4.98 8.4-5.19a2.03 2.03 0 0 1 2.66-.89 2 2 0 0 1 .9 2.67z"></path></svg>
