<svg fill="none" viewBox="0 0 56 56" xmlns="http://www.w3.org/2000/svg" class="css-1jxvrpq e1ig6ntm0"><path opacity="0.2" d="M10.5056 40.8959C13.7005 40.6646 16.2229 39.5439 16.1396 38.3926C16.0562 37.2413 13.3987 36.4955 10.2038 36.7268C7.00892 36.958 4.4865 38.0788 4.56983 39.2301C4.65316 40.3813 7.31069 41.1271 10.5056 40.8959Z" fill="black"></path><path opacity="0.2" d="M34.8802 39.3595L8.05016 46.3895C7.03016 46.6595 7.03016 48.1095 8.05016 48.3695L20.1202 51.5195C20.4602 51.6095 20.8102 51.6495 21.1602 51.6495H24.7102C24.8602 51.6495 25.0002 51.6295 25.1402 51.5895L53.7002 44.0995C54.1402 43.9895 54.1402 43.3695 53.7002 43.2495L38.7202 39.3295C37.4602 38.9995 36.1402 38.9995 34.8802 39.3295V39.3595Z" fill="black"></path><path opacity="0.2" d="M46.9299 52.2367C50.1248 52.0054 52.6472 50.8847 52.5639 49.7334C52.4805 48.5822 49.823 47.8363 46.6281 48.0676C43.4332 48.2989 40.9108 49.4196 40.9941 50.5709C41.0775 51.7221 43.735 52.468 46.9299 52.2367Z" fill="black"></path><path d="M15.0902 35.0596V37.7596C15.0902 39.3396 12.4902 40.6096 9.29023 40.6096C6.08023 40.6096 3.49023 39.3296 3.49023 37.7596V35.0596H15.1002H15.0902Z" fill="#B2BBC3"></path><path d="M15.0902 35.0596V37.7596C15.0902 39.3396 12.4902 40.6096 9.29023 40.6096C6.08023 40.6096 3.49023 39.3296 3.49023 37.7596V35.0596" stroke="#1E3300" stroke-linecap="round" stroke-linejoin="round"></path><path d="M9.29023 37.91C12.4935 37.91 15.0902 36.634 15.0902 35.06C15.0902 33.486 12.4935 32.21 9.29023 32.21C6.08698 32.21 3.49023 33.486 3.49023 35.06C3.49023 36.634 6.08698 37.91 9.29023 37.91Z" fill="white"></path><path d="M9.29023 37.91C12.4935 37.91 15.0902 36.634 15.0902 35.06C15.0902 33.486 12.4935 32.21 9.29023 32.21C6.08698 32.21 3.49023 33.486 3.49023 35.06C3.49023 36.634 6.08698 37.91 9.29023 37.91Z" stroke="#1E3300" stroke-linecap="round" stroke-linejoin="round"></path><path d="M15.0902 32.3604V35.0604C15.0902 36.6404 12.4902 37.9104 9.29023 37.9104C6.08023 37.9104 3.49023 36.6304 3.49023 35.0604V32.3604H15.1002H15.0902Z" fill="#B2BBC3"></path><path d="M15.0902 32.3604V35.0604C15.0902 36.6404 12.4902 37.9104 9.29023 37.9104C6.08023 37.9104 3.49023 36.6304 3.49023 35.0604V32.3604" stroke="#1E3300" stroke-linecap="round" stroke-linejoin="round"></path><path d="M9.29023 35.2098C12.4935 35.2098 15.0902 33.9338 15.0902 32.3598C15.0902 30.7858 12.4935 29.5098 9.29023 29.5098C6.08698 29.5098 3.49023 30.7858 3.49023 32.3598C3.49023 33.9338 6.08698 35.2098 9.29023 35.2098Z" fill="white"></path><path d="M9.29023 35.2098C12.4935 35.2098 15.0902 33.9338 15.0902 32.3598C15.0902 30.7858 12.4935 29.5098 9.29023 29.5098C6.08698 29.5098 3.49023 30.7858 3.49023 32.3598C3.49023 33.9338 6.08698 35.2098 9.29023 35.2098Z" stroke="#1E3300" stroke-linecap="round" stroke-linejoin="round"></path><path d="M15.0902 29.6602V32.3602C15.0902 33.9402 12.4902 35.2102 9.29023 35.2102C6.08023 35.2102 3.49023 33.9302 3.49023 32.3602V29.6602H15.1002H15.0902Z" fill="#B2BBC3"></path><path d="M15.0902 29.6602V32.3602C15.0902 33.9402 12.4902 35.2102 9.29023 35.2102C6.08023 35.2102 3.49023 33.9302 3.49023 32.3602V29.6602" stroke="#1E3300" stroke-linecap="round" stroke-linejoin="round"></path><path d="M9.29023 32.5096C12.4935 32.5096 15.0902 31.2336 15.0902 29.6596C15.0902 28.0856 12.4935 26.8096 9.29023 26.8096C6.08698 26.8096 3.49023 28.0856 3.49023 29.6596C3.49023 31.2336 6.08698 32.5096 9.29023 32.5096Z" fill="white"></path><path d="M9.29023 32.5096C12.4935 32.5096 15.0902 31.2336 15.0902 29.6596C15.0902 28.0856 12.4935 26.8096 9.29023 26.8096C6.08698 26.8096 3.49023 28.0856 3.49023 29.6596C3.49023 31.2336 6.08698 32.5096 9.29023 32.5096Z" stroke="#1E3300" stroke-linecap="round" stroke-linejoin="round"></path><path d="M15.0902 26.96V29.66C15.0902 31.24 12.4902 32.51 9.29023 32.51C6.08023 32.51 3.49023 31.23 3.49023 29.66V26.96H15.1002H15.0902Z" fill="#B2BBC3"></path><path d="M15.0902 26.96V29.66C15.0902 31.24 12.4902 32.51 9.29023 32.51C6.08023 32.51 3.49023 31.23 3.49023 29.66V26.96" stroke="#1E3300" stroke-linecap="round" stroke-linejoin="round"></path><path d="M9.29023 29.8104C12.4935 29.8104 15.0902 28.5344 15.0902 26.9604C15.0902 25.3863 12.4935 24.1104 9.29023 24.1104C6.08698 24.1104 3.49023 25.3863 3.49023 26.9604C3.49023 28.5344 6.08698 29.8104 9.29023 29.8104Z" fill="white"></path><path d="M9.29023 29.8104C12.4935 29.8104 15.0902 28.5344 15.0902 26.9604C15.0902 25.3863 12.4935 24.1104 9.29023 24.1104C6.08698 24.1104 3.49023 25.3863 3.49023 26.9604C3.49023 28.5344 6.08698 29.8104 9.29023 29.8104Z" stroke="#1E3300" stroke-linecap="round" stroke-linejoin="round"></path><path d="M15.0902 24.2598V26.9598C15.0902 28.5398 12.4902 29.8098 9.29023 29.8098C6.08023 29.8098 3.49023 28.5298 3.49023 26.9598V24.2598H15.1002H15.0902Z" fill="#B2BBC3"></path><path d="M15.0902 24.2598V26.9598C15.0902 28.5398 12.4902 29.8098 9.29023 29.8098C6.08023 29.8098 3.49023 28.5298 3.49023 26.9598V24.2598" stroke="#1E3300" stroke-linecap="round" stroke-linejoin="round"></path><path d="M9.29023 27.1102C12.4935 27.1102 15.0902 25.8342 15.0902 24.2602C15.0902 22.6861 12.4935 21.4102 9.29023 21.4102C6.08698 21.4102 3.49023 22.6861 3.49023 24.2602C3.49023 25.8342 6.08698 27.1102 9.29023 27.1102Z" fill="white"></path><path d="M9.29023 27.1102C12.4935 27.1102 15.0902 25.8342 15.0902 24.2602C15.0902 22.6861 12.4935 21.4102 9.29023 21.4102C6.08698 21.4102 3.49023 22.6861 3.49023 24.2602C3.49023 25.8342 6.08698 27.1102 9.29023 27.1102Z" stroke="#1E3300" stroke-linecap="round" stroke-linejoin="round"></path><path d="M18.0902 20.5596V23.2596C18.0902 24.8396 15.4902 26.1096 12.2902 26.1096C9.08023 26.1096 6.49023 24.8296 6.49023 23.2596V20.5596H18.1002H18.0902Z" fill="#B2BBC3"></path><path d="M18.0902 20.5596V23.2596C18.0902 24.8396 15.4902 26.1096 12.2902 26.1096C9.08023 26.1096 6.49023 24.8296 6.49023 23.2596V20.5596" stroke="#1E3300" stroke-linecap="round" stroke-linejoin="round"></path><path d="M12.2902 23.41C15.4935 23.41 18.0902 22.134 18.0902 20.56C18.0902 18.9859 15.4935 17.71 12.2902 17.71C9.08698 17.71 6.49023 18.9859 6.49023 20.56C6.49023 22.134 9.08698 23.41 12.2902 23.41Z" fill="white"></path><path d="M12.2902 23.41C15.4935 23.41 18.0902 22.134 18.0902 20.56C18.0902 18.9859 15.4935 17.71 12.2902 17.71C9.08698 17.71 6.49023 18.9859 6.49023 20.56C6.49023 22.134 9.08698 23.41 12.2902 23.41Z" stroke="#1E3300" stroke-linecap="round" stroke-linejoin="round"></path><path d="M18.0902 17.8604V20.5604C18.0902 22.1404 15.4902 23.4104 12.2902 23.4104C9.08023 23.4104 6.49023 22.1304 6.49023 20.5604V17.8604H18.1002H18.0902Z" fill="#B2BBC3"></path><path d="M18.0902 17.8604V20.5604C18.0902 22.1404 15.4902 23.4104 12.2902 23.4104C9.08023 23.4104 6.49023 22.1304 6.49023 20.5604V17.8604" stroke="#1E3300" stroke-linecap="round" stroke-linejoin="round"></path><path d="M12.2902 20.7098C15.4935 20.7098 18.0902 19.4338 18.0902 17.8598C18.0902 16.2858 15.4935 15.0098 12.2902 15.0098C9.08698 15.0098 6.49023 16.2858 6.49023 17.8598C6.49023 19.4338 9.08698 20.7098 12.2902 20.7098Z" fill="white"></path><path d="M12.2902 20.7098C15.4935 20.7098 18.0902 19.4338 18.0902 17.8598C18.0902 16.2858 15.4935 15.0098 12.2902 15.0098C9.08698 15.0098 6.49023 16.2858 6.49023 17.8598C6.49023 19.4338 9.08698 20.7098 12.2902 20.7098Z" stroke="#1E3300" stroke-linecap="round" stroke-linejoin="round"></path><path d="M3.56006 38.3197C4.87006 36.8097 5.17006 34.7197 6.00006 32.7797C6.06006 32.6397 6.17006 32.5197 6.31006 32.4597C8.98006 31.2897 12.6501 29.6597 15.1001 28.4697C15.3901 28.6697 15.0101 30.5797 15.3101 30.7797C15.0701 33.2497 15.0501 35.5097 15.1001 37.9897C14.7801 38.5497 13.8501 39.5997 13.2501 39.8397C10.8201 40.8097 8.14006 40.8497 5.68006 39.9797C4.79006 39.6697 3.96006 39.1697 3.57006 38.3097L3.56006 38.3197Z" fill="#1E3300"></path><path d="M6.49023 32.9403L35.9802 25.2803L49.5402 28.8103L19.9802 36.4603L6.49023 32.9403Z" fill="white"></path><path d="M16.1401 32.2499L35.4801 27.1699L41.6601 28.8099L22.3601 33.8699L16.1401 32.2499Z" fill="#98C917"></path><path d="M49.54 28.8096V43.3396L19.98 50.9896V36.4596L49.54 28.8096Z" fill="#D9EEA8"></path><path d="M6.49023 32.9404V47.4604L19.9802 50.9904V36.4604L6.49023 32.9404Z" fill="white"></path><path d="M6.49023 32.9403L35.9802 25.2803L49.5402 28.8103L19.9802 36.4603L6.49023 32.9403Z" stroke="#1E3300" stroke-linecap="round" stroke-linejoin="round"></path><path d="M49.5402 33.6504L19.9802 41.3004L6.49023 37.7704" stroke="#1E3300" stroke-linecap="round" stroke-linejoin="round"></path><path d="M49.5402 38.4902L19.9802 46.1402L6.49023 42.6102" stroke="#1E3300" stroke-linecap="round" stroke-linejoin="round"></path><path d="M49.54 28.8096V43.3396L19.98 50.9896V36.4596L49.54 28.8096Z" stroke="#1E3300" stroke-linecap="round" stroke-linejoin="round"></path><path d="M6.49023 32.9404V47.4604L19.9802 50.9904V36.4604L6.49023 32.9404Z" stroke="#1E3300" stroke-linecap="round" stroke-linejoin="round"></path><path d="M26.3902 27.79L39.8502 31.29C39.8902 31.46 39.8502 45.82 39.8502 45.82L30.6602 48.21C30.6602 48.21 30.7002 33.85 30.6602 33.68L17.2002 30.18L26.4002 27.79H26.3902Z" fill="#B2BBC3"></path><path d="M30.6499 33.68L17.1899 30.18L26.3899 27.79L39.8399 31.3L30.6499 33.68Z" fill="white"></path><path d="M17.6099 30.28L23.0499 31.59L31.4799 29.38L26.4499 28L17.6099 30.28Z" fill="#1E3300"></path><path d="M26.3902 27.79L39.8502 31.29C39.8902 31.46 39.8502 45.82 39.8502 45.82L30.6602 48.21C30.6602 48.21 30.7002 33.85 30.6602 33.68L17.2002 30.18L26.4002 27.79H26.3902Z" stroke="#1E3300" stroke-linecap="round" stroke-linejoin="round"></path><path d="M30.6499 33.6798L39.8399 31.2998" stroke="#1E3300" stroke-linecap="round" stroke-linejoin="round"></path><path d="M39.4202 35.2803C39.2202 39.0403 39.0102 42.8803 37.6602 46.4003C37.6902 46.4403 37.6302 46.5003 37.6902 46.4803C38.4102 46.2703 39.1202 46.0303 39.8102 45.7503L39.4302 35.2803H39.4202Z" fill="#1E3300"></path><path d="M23.5901 30.8998V13.5698L20.3701 14.4998L25.6901 7.61985C26.3901 6.71985 27.6001 6.42985 28.4401 6.96985L34.3801 10.7798L31.1301 11.6398V28.9198" fill="#99CC33"></path><path d="M27.2198 9.0498L27.0898 27.2498" stroke="#497C00" stroke-linecap="round" stroke-linejoin="round"></path><path d="M25.29 11.3999L27.2 8.91992L29.38 10.3199" stroke="#497C00" stroke-linecap="round" stroke-linejoin="round"></path><path d="M31.1399 28.92V11.65L34.3899 10.79L28.4499 6.97997C27.6099 6.43997 26.3999 6.71997 25.6999 7.62997L20.3799 14.51L23.5999 13.69V30.91" stroke="#1E3300" stroke-linecap="round" stroke-linejoin="round"></path><path d="M23.5901 30.8998V13.5698L20.3701 14.4998L25.6901 7.61985C26.3901 6.71985 27.6001 6.42985 28.4401 6.96985L34.3801 10.7798L31.1301 11.6398V28.9198L23.5901 30.8998Z" fill="#99CC33"></path><path d="M27.42 9.07031L27.29 27.2703" stroke="#497C00" stroke-linecap="round" stroke-linejoin="round"></path><path d="M25.4702 11.2003L27.4202 9.07031L29.1802 10.1903" stroke="#497C00" stroke-linecap="round" stroke-linejoin="round"></path><path d="M31.1399 28.92V11.65L34.3899 10.79L28.4499 6.97997C27.6099 6.43997 26.3999 6.71997 25.6999 7.62997L20.3799 14.51L23.5999 13.69V30.91L31.1399 28.93V28.92Z" stroke="#1E3300" stroke-linecap="round" stroke-linejoin="round"></path><path d="M51.4501 46.4404V49.1404C51.4501 50.7204 48.8501 51.9904 45.6501 51.9904C42.4401 51.9904 39.8501 50.7104 39.8501 49.1404V46.4404H51.4601H51.4501Z" fill="#B2BBC3"></path><path d="M51.4501 46.4404V49.1404C51.4501 50.7204 48.8501 51.9904 45.6501 51.9904C42.4401 51.9904 39.8501 50.7104 39.8501 49.1404V46.4404" stroke="#1E3300" stroke-linecap="round" stroke-linejoin="round"></path><path d="M45.6398 49.2898C48.8431 49.2898 51.4398 48.0139 51.4398 46.4398C51.4398 44.8658 48.8431 43.5898 45.6398 43.5898C42.4366 43.5898 39.8398 44.8658 39.8398 46.4398C39.8398 48.0139 42.4366 49.2898 45.6398 49.2898Z" fill="white"></path><path d="M45.6398 49.2898C48.8431 49.2898 51.4398 48.0139 51.4398 46.4398C51.4398 44.8658 48.8431 43.5898 45.6398 43.5898C42.4366 43.5898 39.8398 44.8658 39.8398 46.4398C39.8398 48.0139 42.4366 49.2898 45.6398 49.2898Z" stroke="#1E3300" stroke-linecap="round" stroke-linejoin="round"></path><path d="M51.4501 43.79V46.49C51.4501 48.07 48.8501 49.34 45.6501 49.34C42.4401 49.34 39.8501 48.06 39.8501 46.49V43.79H51.4601H51.4501Z" fill="#B2BBC3"></path><path d="M51.4501 43.79V46.49C51.4501 48.07 48.8501 49.34 45.6501 49.34C42.4401 49.34 39.8501 48.06 39.8501 46.49V43.79" stroke="#1E3300" stroke-linecap="round" stroke-linejoin="round"></path><path d="M45.6398 46.6404C48.8431 46.6404 51.4398 45.3644 51.4398 43.7904C51.4398 42.2164 48.8431 40.9404 45.6398 40.9404C42.4366 40.9404 39.8398 42.2164 39.8398 43.7904C39.8398 45.3644 42.4366 46.6404 45.6398 46.6404Z" fill="white"></path><path d="M45.6398 46.6404C48.8431 46.6404 51.4398 45.3644 51.4398 43.7904C51.4398 42.2164 48.8431 40.9404 45.6398 40.9404C42.4366 40.9404 39.8398 42.2164 39.8398 43.7904C39.8398 45.3644 42.4366 46.6404 45.6398 46.6404Z" stroke="#1E3300" stroke-linecap="round" stroke-linejoin="round"></path><path d="M51.4501 41.1299V43.8299C51.4501 45.4099 48.8501 46.6799 45.6501 46.6799C42.4401 46.6799 39.8501 45.3999 39.8501 43.8299V41.1299H51.4601H51.4501Z" fill="#B2BBC3"></path><path d="M51.4501 41.1299V43.8299C51.4501 45.4099 48.8501 46.6799 45.6501 46.6799C42.4401 46.6799 39.8501 45.3999 39.8501 43.8299V41.1299" stroke="#1E3300" stroke-linecap="round" stroke-linejoin="round"></path><path d="M45.6398 43.9803C48.8431 43.9803 51.4398 42.7043 51.4398 41.1303C51.4398 39.5563 48.8431 38.2803 45.6398 38.2803C42.4366 38.2803 39.8398 39.5563 39.8398 41.1303C39.8398 42.7043 42.4366 43.9803 45.6398 43.9803Z" fill="white"></path><path d="M45.6398 43.9803C48.8431 43.9803 51.4398 42.7043 51.4398 41.1303C51.4398 39.5563 48.8431 38.2803 45.6398 38.2803C42.4366 38.2803 39.8398 39.5563 39.8398 41.1303C39.8398 42.7043 42.4366 43.9803 45.6398 43.9803Z" stroke="#1E3300" stroke-linecap="round" stroke-linejoin="round"></path><path d="M51.4501 38.4297V41.1297C51.4501 42.7097 48.8501 43.9797 45.6501 43.9797C42.4401 43.9797 39.8501 42.6997 39.8501 41.1297V38.4297H51.4601H51.4501Z" fill="#B2BBC3"></path><path d="M51.4501 38.4297V41.1297C51.4501 42.7097 48.8501 43.9797 45.6501 43.9797C42.4401 43.9797 39.8501 42.6997 39.8501 41.1297V38.4297" stroke="#1E3300" stroke-linecap="round" stroke-linejoin="round"></path><path d="M45.6398 41.2801C48.8431 41.2801 51.4398 40.0041 51.4398 38.4301C51.4398 36.8561 48.8431 35.5801 45.6398 35.5801C42.4366 35.5801 39.8398 36.8561 39.8398 38.4301C39.8398 40.0041 42.4366 41.2801 45.6398 41.2801Z" fill="white"></path><path d="M45.6398 41.2801C48.8431 41.2801 51.4398 40.0041 51.4398 38.4301C51.4398 36.8561 48.8431 35.5801 45.6398 35.5801C42.4366 35.5801 39.8398 36.8561 39.8398 38.4301C39.8398 40.0041 42.4366 41.2801 45.6398 41.2801Z" stroke="#1E3300" stroke-linecap="round" stroke-linejoin="round"></path><path d="M51.4501 35.7305V38.4305C51.4501 40.0105 48.8501 41.2805 45.6501 41.2805C42.4401 41.2805 39.8501 40.0005 39.8501 38.4305V35.7305H51.4601H51.4501Z" fill="#B2BBC3"></path><path d="M51.4501 35.7305V38.4305C51.4501 40.0105 48.8501 41.2805 45.6501 41.2805C42.4401 41.2805 39.8501 40.0005 39.8501 38.4305V35.7305" stroke="#1E3300" stroke-linecap="round" stroke-linejoin="round"></path><path d="M45.6398 38.5799C48.8431 38.5799 51.4398 37.3039 51.4398 35.7299C51.4398 34.1559 48.8431 32.8799 45.6398 32.8799C42.4366 32.8799 39.8398 34.1559 39.8398 35.7299C39.8398 37.3039 42.4366 38.5799 45.6398 38.5799Z" fill="white"></path><path d="M45.6398 38.5799C48.8431 38.5799 51.4398 37.3039 51.4398 35.7299C51.4398 34.1559 48.8431 32.8799 45.6398 32.8799C42.4366 32.8799 39.8398 34.1559 39.8398 35.7299C39.8398 37.3039 42.4366 38.5799 45.6398 38.5799Z" stroke="#1E3300" stroke-linecap="round" stroke-linejoin="round"></path></svg>