<svg fill="none" viewBox="0 0 56 56" xmlns="http://www.w3.org/2000/svg" class="css-1jxvrpq e1ig6ntm0"><path opacity="0.2" d="M30.39 39.8698L35.01 38.6598C36.94 38.1498 38.97 38.1498 40.91 38.6598L45.63 39.8898C47.69 40.4298 47.69 43.3498 45.63 43.8898L40.97 45.1098C39.04 45.6198 37.01 45.6198 35.07 45.1098L30.38 43.8798C28.32 43.3398 28.32 40.4198 30.38 39.8798L30.39 39.8698Z" fill="black"></path><path opacity="0.2" d="M5.54004 46.57L28.28 52.9C28.64 53 29.02 53.04 29.4 53.04H33.2C33.36 53.04 33.51 53.02 33.66 52.98L43.32 50.53C44.13 50.4 44.74 49.3 43.65 48.73L22.4 43.07C21.36 42.79 20.26 42.79 19.22 43.05L5.54004 46.56V46.57Z" fill="black"></path><path d="M37.09 40.3701L31.48 43.3601" stroke="#1E3300" stroke-linecap="round" stroke-linejoin="round"></path><path d="M42.8799 43.6301L37.1899 40.3501" stroke="#1E3300" stroke-linecap="round" stroke-linejoin="round"></path><path d="M43.24 38.8901L37.02 40.3901" stroke="#1E3300" stroke-linecap="round" stroke-linejoin="round"></path><path d="M31.6899 39.1602L37.1899 40.2202" stroke="#1E3300" stroke-linecap="round" stroke-linejoin="round"></path><path d="M37.1899 39.9598V34.3198" stroke="#1E3300" stroke-linecap="round" stroke-linejoin="round"></path><path d="M37.1899 34.05C37.6483 34.05 38.0199 33.8709 38.0199 33.65C38.0199 33.4291 37.6483 33.25 37.1899 33.25C36.7315 33.25 36.3599 33.4291 36.3599 33.65C36.3599 33.8709 36.7315 34.05 37.1899 34.05Z" fill="white" stroke="#1E3300" stroke-linecap="round" stroke-linejoin="round"></path><path d="M35.9702 29.27V33.63C35.9702 33.95 36.5202 34.22 37.2002 34.22C37.8802 34.22 38.4302 33.96 38.4302 33.63V29.27H35.9802H35.9702Z" fill="#61666B"></path><path d="M35.9702 29.27V33.63C35.9702 33.95 36.5202 34.22 37.2002 34.22C37.8802 34.22 38.4302 33.96 38.4302 33.63V29.27" stroke="#1E3300" stroke-linecap="round" stroke-linejoin="round"></path><path d="M37.19 29.8602C37.8693 29.8602 38.42 29.596 38.42 29.2702C38.42 28.9443 37.8693 28.6802 37.19 28.6802C36.5107 28.6802 35.96 28.9443 35.96 29.2702C35.96 29.596 36.5107 29.8602 37.19 29.8602Z" fill="white" stroke="#1E3300" stroke-linecap="round" stroke-linejoin="round"></path><path d="M41.0002 25.8799C41.1202 26.2899 41.1202 26.7299 40.9702 27.1299L43.7302 27.7399C43.8602 27.2599 43.9002 26.8699 43.8202 26.3799L40.9902 25.8799H41.0002Z" fill="#61666B"></path><path d="M44.02 26.1902C43.77 26.1502 44.21 26.6602 43.99 26.7902C43.67 26.9802 44.17 27.5702 43.98 27.9002C43.81 27.8302 41.22 27.1102 41.05 27.0702C41.07 27.0502 41.09 27.0102 41.09 26.9902C41.09 26.8102 41.09 26.6402 41.1 26.4602C41.1 26.2802 41.1 26.0902 41.04 25.9102C41.73 26.0502 43.33 26.0702 44.02 26.1902Z" fill="#1E3200"></path><path d="M45.5299 26.3702C43.0199 26.5402 39.5099 25.4902 38.1599 24.8202C37.9099 24.6902 36.8799 24.1702 36.8299 22.5002C36.7999 21.3302 37.0699 20.4302 37.3399 19.2902C37.8799 17.0702 38.6499 14.4602 39.8699 12.7802C40.5499 11.8502 41.8199 11.4002 42.9699 11.3802C44.1699 11.3602 45.4999 11.7102 46.3599 12.5502C47.1299 13.3002 47.4299 14.4202 47.6299 15.7702C47.9299 17.8202 49.5899 26.1002 45.5299 26.3802V26.3702Z" fill="#99CC33"></path><path d="M38.07 26.3902L44.38 27.9802C45.01 28.1402 45.46 28.7102 45.46 29.3702C45.46 30.0202 45.02 30.5902 44.39 30.7502L38.07 32.4002C36.95 32.6902 35.78 32.7002 34.66 32.4202L28.31 30.8202C27.67 30.6602 27.23 30.0902 27.23 29.4302C27.23 28.7802 27.67 28.2102 28.3 28.0502L34.67 26.3902C35.79 26.1002 36.96 26.1002 38.08 26.3802L38.07 26.3902Z" fill="#99CC33"></path><path d="M38.07 26.3902L44.38 27.9802C45.01 28.1402 45.46 28.7102 45.46 29.3702C45.46 30.0202 45.02 30.5902 44.39 30.7502L38.07 32.4002C36.95 32.6902 35.78 32.7002 34.66 32.4202L28.31 30.8202C27.67 30.6602 27.23 30.0902 27.23 29.4302C27.23 28.7802 27.67 28.2102 28.3 28.0502L34.67 26.3902C35.79 26.1002 36.96 26.1002 38.08 26.3802L38.07 26.3902Z" stroke="#1E3300" stroke-linecap="round" stroke-linejoin="round"></path><path d="M45.5299 26.3702C43.0199 26.5402 39.5099 25.4902 38.1599 24.8202C37.9099 24.6902 36.8799 24.1702 36.8299 22.5002C36.7999 21.3302 37.0699 20.4302 37.3399 19.2902C37.8799 17.0702 38.6499 14.4602 39.8699 12.7802C40.5499 11.8502 41.8199 11.4002 42.9699 11.3802C44.1699 11.3602 45.4999 11.7102 46.3599 12.5502C47.1299 13.3002 47.4299 14.4202 47.6299 15.7702C47.9299 17.8202 49.5899 26.1002 45.5299 26.3802V26.3702Z" stroke="#1E3300" stroke-linecap="round" stroke-linejoin="round"></path><path d="M43.8302 26.3901C43.9102 26.8801 43.8602 27.2701 43.7402 27.7501" stroke="#1E3300" stroke-linecap="round" stroke-linejoin="round"></path><path d="M41.0002 25.8799C41.1202 26.2899 41.1202 26.7299 40.9702 27.1299" stroke="#1E3300" stroke-linecap="round" stroke-linejoin="round"></path><path d="M42.6899 26.27C42.7599 26.67 42.7399 27.08 42.6499 27.48" stroke="#1E3300" stroke-linecap="round" stroke-linejoin="round"></path><path d="M40.97 34.9598L15.3 28.2998L3.5 31.3698L29.23 38.0298L40.97 34.9598Z" fill="#B2BBC3"></path><path d="M40.97 34.9598L15.3 28.2998L3.5 31.3698L29.23 38.0298L40.97 34.9598Z" stroke="#1E3300" stroke-linecap="round" stroke-linejoin="round"></path><path d="M3.5 31.3701V34.1501L29.23 40.8101V38.0301L3.5 31.3701Z" fill="#D9EEA8"></path><path d="M40.97 34.96V37.74L29.23 40.81V38.03L40.97 34.96Z" fill="white"></path><path d="M3.5 31.3701V34.1501L29.23 40.8101V38.0301L3.5 31.3701Z" stroke="#1E3300" stroke-linecap="round" stroke-linejoin="round"></path><path d="M40.97 34.96V37.74L29.23 40.81V38.03L40.97 34.96Z" stroke="#1E3300" stroke-linecap="round" stroke-linejoin="round"></path><path d="M19.9399 35.6098L11.9399 33.5298" stroke="#1E3300" stroke-linecap="round" stroke-linejoin="round"></path><path d="M39.6799 38.1401V48.3101C39.6799 49.1801 39.0899 49.9401 38.2499 50.1701L29.6499 52.4201C28.7799 52.6501 27.9399 51.9901 27.9399 51.1001V40.6401" stroke="#1E3300" stroke-linecap="round" stroke-linejoin="round"></path><path d="M16.3699 37.6698V42.1798C16.3699 43.0498 15.7799 43.8098 14.9399 44.0398L6.33988 46.2898C5.46988 46.5198 4.62988 45.8598 4.62988 44.9698V34.5098" stroke="#1E3300" stroke-linecap="round" stroke-linejoin="round"></path><path d="M18.8701 22.5798C18.9301 22.7598 18.9401 22.9498 18.9701 23.1298C19.0501 23.7098 19.2201 24.2698 19.4601 24.7998C19.5501 24.9898 19.6501 25.1898 19.6401 25.3998C19.6201 25.7598 19.2901 26.0198 19.1801 26.3598C18.7401 25.9698 18.4401 25.4498 18.2201 24.8998C18.0001 24.3498 17.8701 23.7798 17.7601 23.1998C17.7201 23.0098 17.6801 22.8198 17.7001 22.6198C17.7201 22.4198 17.8001 22.2298 17.9601 22.1198C18.3401 21.8498 18.7501 22.2198 18.8601 22.5698L18.8701 22.5798Z" fill="#61666B"></path><path d="M21.7002 24.7798C21.8902 24.8798 22.0802 24.9798 22.2202 25.1298C22.3702 25.2998 22.4402 25.5298 22.4902 25.7498C22.6802 26.4998 22.7602 27.2798 22.7502 28.0598C22.5102 27.7698 22.3502 27.4098 22.2102 27.0598C22.0702 26.7098 21.9102 26.3498 21.6702 26.0598C21.4302 25.7698 21.0802 25.5298 20.7002 25.5098C20.4602 25.4998 20.2202 25.5698 19.9802 25.5098C19.7602 25.4598 19.5902 25.3098 19.4602 25.1198C19.3302 24.9298 19.2702 24.7198 19.2002 24.5098C19.0902 24.1498 19.0002 23.7798 18.9702 23.4098C18.9602 23.2398 18.8802 22.4798 19.2102 22.7198C19.4702 22.8998 19.6702 23.2498 19.9002 23.4698C20.1502 23.7098 20.4202 23.9298 20.7002 24.1398C21.0202 24.3698 21.3502 24.5798 21.7002 24.7698V24.7798Z" fill="#61666B"></path><path d="M35.6398 21.8301C35.1898 22.4001 34.7398 22.9201 34.2598 23.2401C34.2898 23.2001 34.7798 23.2901 34.8398 23.2901C35.0398 23.3101 35.2398 23.3201 35.4398 23.3401C35.8498 23.3701 36.2598 23.3801 36.6698 23.3801C36.8198 23.3801 37.5998 23.4501 37.4098 23.1501C37.3398 23.0401 37.0998 22.9601 36.9898 22.9001C36.8398 22.8101 36.6898 22.7201 36.5498 22.6101C36.2198 22.3801 35.9198 22.1201 35.6298 21.8301H35.6398Z" fill="#1E3300"></path><path d="M42.9698 25.5098C43.1598 25.5198 43.3498 25.5998 43.4998 25.7198C43.5998 25.7998 43.6798 25.9198 43.6698 26.0398C43.6698 26.2198 43.4798 26.3398 43.2998 26.3498C43.1198 26.3598 42.9598 26.2798 42.7998 26.2098L42.9698 25.5098Z" fill="#CBD1D8"></path><path d="M23.0701 30.9398C23.9501 30.6598 24.8201 30.3798 25.6901 30.0798C26.4401 29.8198 27.2001 29.5398 27.8901 29.1398C28.5801 28.7398 29.2201 28.2198 29.6601 27.5598C31.1501 28.1298 32.7801 28.3098 34.35 28.0898C33.7701 27.6098 33.1901 27.1198 32.6 26.6398C32.47 26.5298 32.3201 26.4098 32.1501 26.3898C31.9201 26.3598 31.7101 26.4998 31.5201 26.6298C30.2401 27.4698 28.7001 27.8398 27.1701 27.8898C25.6401 27.9398 24.1201 27.6898 22.6201 27.3698C22.5201 28.0198 22.4201 28.6798 22.3201 29.3298C22.2701 29.6498 22.2201 29.9698 22.1701 30.2998C22.1401 30.4698 22.1001 30.6598 22.2001 30.8098C22.4001 31.0998 22.7701 31.0398 23.0601 30.9398H23.0701Z" fill="#61666B"></path><path d="M21.43 25.47C21.57 25.74 21.63 26.05 21.65 26.35C21.78 28 21.07 29.6 20.98 31.25C20.96 31.61 20.95 32 20.7 32.25C20.44 32.51 19.98 32.5 19.67 32.29C19.36 32.08 19.2 31.71 19.14 31.34C19.08 30.97 19.12 30.6 19.14 30.22C19.17 29.63 19.16 29.03 19.11 28.44C19.07 27.93 18.99 27.42 19.01 26.9C19.03 26.38 19.16 25.86 19.47 25.46C19.99 24.8 20.99 24.63 21.42 25.46L21.43 25.47Z" fill="#61666B"></path><path d="M22.0901 26.5402C22.1801 26.8702 22.2401 27.2202 22.4101 27.5202C22.5101 27.7002 22.6601 27.8602 22.7401 28.0602C22.8201 28.2402 22.8301 28.4402 22.8501 28.6302C22.8801 28.9502 22.9101 29.2702 22.9301 29.5902C22.9401 29.7602 22.9601 29.9302 22.9001 30.0902C22.8501 30.2402 22.7301 30.3602 22.6201 30.4702C22.0201 31.0802 20.9901 31.8602 20.3901 32.4802C20.4501 31.6802 20.4101 30.2702 20.5701 29.4902C20.7101 28.7702 21.0501 28.2802 21.1801 27.5602C21.2801 27.0302 21.3401 26.5702 21.2701 26.0402C21.2501 25.9102 21.5301 25.6302 21.7901 25.8502C21.9601 26.0002 22.0401 26.3402 22.0901 26.5502V26.5402Z" fill="#61666B"></path><path d="M39.1201 23.67C38.1701 23.35 37.1601 23.24 36.1601 23.24C34.3501 23.24 33.0701 22.75 31.6001 23.04C29.2501 23.51 25.3801 25.27 22.1401 25.05C22.3601 25.9 22.5801 26.75 22.8001 27.6C24.3701 27.79 25.9501 27.99 27.5301 27.87C29.1101 27.75 30.7001 27.3 31.9401 26.31C33.6401 27.33 35.3501 28.36 37.1901 29.09C38.2001 29.49 39.3401 29.81 40.3601 29.44C41.2101 29.14 41.8501 28.41 42.2401 27.59C42.4401 27.16 42.5901 26.71 42.7001 26.25C42.7601 26.02 43.0601 25.19 42.8301 25.06C42.6901 24.98 42.4001 25 42.2301 24.96C42.0201 24.91 41.8201 24.85 41.6301 24.77C41.2201 24.62 40.8301 24.42 40.4401 24.23C40.0101 24.02 39.5701 23.81 39.1101 23.65L39.1201 23.67Z" fill="#B2BBC3"></path><path d="M44.75 7.79013C44.98 7.97013 45.04 8.30013 44.97 8.57013C44.9 8.84013 44.72 9.08013 44.53 9.30013C44.4 9.44013 44.13 9.61013 44.22 9.78013C45.47 12.2101 41.29 13.6301 41.21 12.6801C41.16 12.4301 41.2 12.1701 41.19 11.9101C41.18 11.6501 41.15 11.3801 40.98 11.1801C40.86 11.0401 40.69 10.9501 40.55 10.8301C40.15 10.4801 40.05 9.91013 40.04 9.38013C40.02 8.39013 40.21 7.40013 40.4 6.43013C41.3 6.41013 42.2 6.25013 43.06 5.98013C43.16 5.95013 43.28 5.92013 43.35 5.99013C43.38 6.02013 43.39 6.07013 43.41 6.11013C43.48 6.37013 43.56 6.63013 43.63 6.89013C43.69 7.10013 43.72 7.40013 43.84 7.59013C44.04 7.91013 44.48 7.58013 44.76 7.80013L44.75 7.79013Z" fill="white"></path><path d="M53.0302 7.86999C52.6802 7.39999 52.0602 7.23999 51.4902 7.11999C50.1102 6.80999 48.7302 6.49999 47.3502 6.17999C47.2102 6.04999 47.0102 5.92999 46.8602 5.79999C46.6602 5.62999 46.4202 5.49999 46.1602 5.43999C45.7802 5.34999 45.3602 5.38999 45.0102 5.56999C45.1402 6.35999 45.2702 7.15999 45.4002 7.95999C45.7302 7.99999 46.0602 8.03999 46.3902 8.07999C46.3902 8.04999 46.4002 8.02999 46.4102 7.99999C46.4102 8.10999 46.4102 8.21999 46.4402 8.32999C47.3002 8.74999 48.1702 9.12999 49.0302 9.54999C48.2702 10.05 47.4702 10.46 46.6102 10.75C46.0802 10.93 45.5202 11.05 45.0102 11.29C44.3802 11.58 43.8502 12.05 43.2502 12.4C42.6502 12.75 41.9102 12.97 41.2602 12.71C41.2402 12.18 41.1902 11.7 41.1702 11.17C40.7302 11.14 40.3802 10.76 40.2402 10.35C40.1002 9.92999 40.1302 9.47999 40.1602 9.03999C40.2202 8.18999 40.2802 7.32999 40.3302 6.47999C40.8902 5.98999 41.3502 5.43999 41.9102 4.94999C42.0802 4.79999 42.2602 4.63999 42.3502 4.43999C42.4402 4.22999 42.4102 4.17999 42.4102 4.17999C42.4102 4.17999 39.9202 2.99999 39.0902 2.86999C38.5802 2.78999 37.9702 2.55999 37.4702 2.69999C36.9702 2.84999 36.5202 3.18999 36.3402 3.67999C36.1902 4.08999 36.2502 4.54999 36.3402 4.97999C36.6202 6.25999 37.8402 9.17999 37.6802 11.21C37.5902 12.33 37.3502 13.44 37.1102 14.54C36.6002 16.91 36.2002 19.29 35.4702 21.61C35.7302 22.2 36.2502 22.64 36.8302 22.95C37.4102 23.26 38.0302 23.43 38.6402 23.63C40.4302 24.21 42.1502 24.98 43.7702 25.92C44.3902 23.56 44.9802 21.26 45.9402 19.02C46.9002 16.78 48.2102 14.65 50.0402 13.03C50.8502 12.31 51.6402 11.59 52.3502 10.78C52.7002 10.38 53.0502 9.94999 53.2202 9.43999C53.4002 8.92999 53.3802 8.32999 53.0602 7.89999L53.0302 7.86999Z" fill="#D8ECA3"></path><path d="M42.3499 10.9101C42.0999 11.0201 41.8499 11.1001 41.5799 11.1301C41.0499 11.1901 40.4499 10.9901 40.1999 10.5201C40.0399 10.2201 40.0399 9.86014 40.0599 9.51014C40.0899 8.55014 40.1599 7.59014 40.2699 6.64014" stroke="#1E3300" stroke-linecap="round" stroke-linejoin="round"></path><path d="M43.9399 8.11996C44.0899 7.97996 44.2999 7.88996 44.4899 7.92996C44.7299 7.97996 44.9099 8.20996 44.9399 8.45996C44.9699 8.70996 44.8699 8.94995 44.7199 9.14995C44.5699 9.34995 44.6999 11.51 44.6999 11.51" stroke="#1E3300" stroke-linecap="round" stroke-linejoin="round"></path><path d="M45.0802 8.76986C45.5202 8.02986 45.7302 7.16986 45.7602 6.30986C45.7702 6.02986 45.7602 5.73986 45.6202 5.49986C45.4802 5.25986 45.1602 5.10986 44.9102 5.22986C44.8302 4.84986 44.7102 4.47986 44.4602 4.17986C44.2102 3.87986 43.8402 3.65986 43.4502 3.63986C43.0602 3.61986 42.6902 3.78986 42.3002 3.80986C41.8902 3.83986 41.5002 3.70986 41.1002 3.61986C40.7002 3.52986 40.2702 3.47986 39.9002 3.65986C39.5502 3.82986 39.3102 4.18986 39.2002 4.55986C39.0802 4.95986 39.0702 5.40986 39.2002 5.80986C39.3302 6.20986 39.6202 6.55986 39.9902 6.75986C40.4102 6.98986 40.9102 7.01986 41.3802 6.95986C41.8502 6.89986 42.3102 6.75986 42.7802 6.66986C42.8002 6.95986 42.8702 7.25986 42.8902 7.54986C42.9102 7.76986 42.9302 7.99986 43.0302 8.18986C43.1302 8.37986 43.5302 8.63986 44.0002 8.59986C44.1402 8.40986 44.0402 8.26986 44.2602 8.18986C44.4802 8.10986 44.5902 7.99986 44.7602 8.14986C44.9202 8.28986 45.0302 8.54986 45.0702 8.75986L45.0802 8.76986Z" fill="#1E3200"></path><path d="M49.01 9.5498C48.22 10.0298 48.16 10.1298 47.41 10.4898C46.8 10.7798 46.42 10.8298 45.76 10.9898C45.1 11.1498 44.85 11.3798 44.34 11.8198C43.49 12.5598 43.17 13.1598 41.25 12.8098" stroke="#1E3300" stroke-linecap="round" stroke-linejoin="round"></path><path d="M42.3802 4.17007C41.8002 3.95007 40.4502 3.23007 39.8602 3.04007C39.2702 2.85007 38.6602 2.67007 38.0502 2.70007C37.4402 2.73007 36.7902 2.99007 36.4602 3.51007C36.0602 4.13007 36.1802 4.94007 36.3902 5.64007C37.1002 7.94007 37.8502 9.12007 37.5602 11.5101C37.4502 12.3901 36.8202 16.0001 36.6502 16.7101C36.1902 18.6301 36.0902 18.5901 35.5102 21.3501C35.4102 21.8401 35.9002 22.2601 36.3202 22.5301C37.9302 23.5801 42.7102 25.3201 43.3102 25.5901C43.5002 25.6701 43.7102 25.8001 43.7202 26.0001C43.7202 26.1901 43.5402 26.3401 43.3502 26.3601C43.1602 26.3801 42.9802 26.3001 42.8002 26.2201" stroke="#1E3300" stroke-linecap="round" stroke-linejoin="round"></path><path d="M44.9502 5.43998C45.5402 5.25998 46.0202 5.27998 46.6202 5.73998C48.1302 6.92998 50.4502 6.38998 52.1602 7.26998C52.6002 7.48998 53.0402 7.77998 53.2502 8.21998C53.4202 8.57998 53.4002 8.99998 53.2802 9.37998C53.1502 9.79998 52.8902 10.17 52.6102 10.51C52.0002 11.27 51.3002 11.95 50.5402 12.55C48.9602 13.8 47.4002 15.49 46.5502 17.5C45.8702 19.12 45.1202 20.72 44.6502 22.42C44.4802 23.04 43.9702 24.79 43.7202 25.99" stroke="#1E3300" stroke-linecap="round" stroke-linejoin="round"></path><path d="M48.9601 9.52008C48.0001 9.24008 47.1201 8.55008 46.3701 7.89008C45.9401 7.91008 45.4901 8.00008 45.1001 7.83008" stroke="#1E3300" stroke-linecap="round" stroke-linejoin="round"></path><path d="M41.1001 11.25L41.2001 12.74" stroke="#1E3300" stroke-linecap="round" stroke-linejoin="round"></path><path d="M42.8798 25.4502C42.7798 26.2702 42.5698 27.0802 42.1598 27.8002C41.6898 28.6402 40.9098 29.3402 39.9698 29.5702C38.9198 29.8202 37.8198 29.4502 36.8398 29.0002C35.3098 28.3102 33.4998 27.3102 32.0698 26.4302" stroke="#1E3300" stroke-linecap="round" stroke-linejoin="round"></path><path d="M37.5802 23.3298C36.5502 23.3898 35.7902 23.4298 34.7602 23.2998C33.7102 23.1698 32.6602 22.9298 31.6002 23.0398C30.6602 23.1398 29.7802 23.5198 28.8902 23.8298C26.7502 24.5798 24.4902 24.9898 22.2202 25.0398C22.5002 25.8898 22.6502 26.6398 22.6902 27.5298C24.2702 27.7198 25.8702 27.9598 27.4602 27.8598C29.0502 27.7598 30.6502 27.3198 31.9302 26.3698" stroke="#1E3300" stroke-linecap="round" stroke-linejoin="round"></path><path d="M35.6002 21.8799C35.2402 22.3999 34.8002 22.8199 34.2002 23.2299" stroke="#1E3300" stroke-linecap="round" stroke-linejoin="round"></path><path d="M22.2299 25.04C21.0399 24.55 19.9499 23.81 19.1699 22.79C18.9899 22.56 18.8199 22.31 18.5799 22.13C18.5399 22.1 18.4999 22.08 18.4599 22.06C18.1299 21.88 17.7199 22.12 17.6999 22.5C17.6499 23.88 18.1199 25.27 19.0799 26.28" stroke="#1E3300" stroke-linecap="round" stroke-linejoin="round"></path><path d="M22.36 27.4298C21.33 23.9098 19.91 25.0198 19.64 25.3098C19.1 25.8898 18.95 26.7398 18.97 27.5398C18.99 28.3398 19.15 29.1298 19.13 29.9198C19.12 30.2898 19.07 30.6698 19.08 31.0398C19.09 31.4098 19.18 31.7998 19.41 32.0898C19.64 32.3798 20.04 32.5698 20.4 32.4698" stroke="#1E3300" stroke-linecap="round" stroke-linejoin="round"></path><path d="M22.3599 27.4302C22.5799 28.2902 22.9399 29.7402 22.6899 30.8402" stroke="#1E3300" stroke-linecap="round" stroke-linejoin="round"></path><path d="M20.3901 32.47C21.3501 32.21 22.6201 30.96 22.6201 30.96" stroke="#1E3300" stroke-linecap="round" stroke-linejoin="round"></path><path d="M22.6201 30.9602C23.8901 30.7302 25.2001 30.3502 26.4001 29.8702C27.0801 29.6002 27.7501 29.2702 28.3501 28.8502C28.6601 28.6302 28.9501 28.4002 29.2101 28.1302C29.4901 27.8402 29.5501 27.5402 29.9701 27.6502C31.7201 28.1102 33.3901 28.4002 35.2101 28.2002" stroke="#1E3300" stroke-linecap="round" stroke-linejoin="round"></path><path d="M33.5102 28.2302C33.5102 28.2302 33.4902 28.0902 33.5802 28.1402C33.6702 28.2002 33.7802 28.2102 33.8902 28.2102C34.3002 28.2402 34.7102 28.2402 35.1302 28.2102C34.6802 27.9302 34.2302 27.6502 33.7802 27.3602C33.4202 27.1402 32.4002 26.5702 31.9902 26.4902C33.1702 27.4102 33.5202 28.2302 33.5202 28.2302H33.5102Z" fill="#1E3200"></path><path d="M42.6499 27.2301L43.5299 27.4101C43.6299 27.4301 43.7399 27.4501 43.8299 27.3901C43.9399 27.3201 43.9499 27.1701 43.9199 27.0501C43.8399 26.7301 43.4299 26.3501 43.0899 26.3301C42.6599 26.3101 42.7099 26.9001 42.6499 27.2301Z" fill="#1E3200"></path><path d="M29.5501 33.4001L17.5201 30.2801C17.1501 30.1801 16.7601 30.1801 16.3901 30.2801L10.2801 31.9001C9.76014 32.0401 9.76014 32.7801 10.2801 32.9201L22.3301 36.0401C22.7001 36.1401 23.0901 36.1401 23.4601 36.0401L29.5401 34.4201C30.0601 34.2801 30.0601 33.5401 29.5401 33.4001H29.5501Z" fill="#61666B"></path><path d="M29.5501 33.4001L17.5201 30.2801C17.1501 30.1801 16.7601 30.1801 16.3901 30.2801L10.2801 31.9001C9.76014 32.0401 9.76014 32.7801 10.2801 32.9201L22.3301 36.0401C22.7001 36.1401 23.0901 36.1401 23.4601 36.0401L29.5401 34.4201C30.0601 34.2801 30.0601 33.5401 29.5401 33.4001H29.5501Z" stroke="#1E3300" stroke-linecap="round" stroke-linejoin="round"></path><path d="M8.33984 31.6802V20.9302C8.33984 20.5602 8.68984 20.2902 9.04984 20.3802L22.2098 23.7902C22.6298 23.9002 22.9198 24.2702 22.9198 24.7102V35.4602C22.9198 35.8302 22.5698 36.1002 22.2098 36.0102L9.04984 32.6002C8.62984 32.4902 8.33984 32.1202 8.33984 31.6802Z" fill="#B2BBC3"></path><path d="M12.9102 27.98L14.3302 30.37L18.3402 26.23" stroke="white" stroke-linecap="round" stroke-linejoin="round"></path><path d="M8.33984 31.6802V20.9302C8.33984 20.5602 8.68984 20.2902 9.04984 20.3802L22.2098 23.7902C22.6298 23.9002 22.9198 24.2702 22.9198 24.7102V35.4602C22.9198 35.8302 22.5698 36.1002 22.2098 36.0102L9.04984 32.6002C8.62984 32.4902 8.33984 32.1202 8.33984 31.6802Z" stroke="#1E3300" stroke-linecap="round" stroke-linejoin="round"></path></svg>