<svg fill="none" viewBox="0 0 56 56" xmlns="http://www.w3.org/2000/svg" class="css-1jxvrpq e1ig6ntm0"><path opacity="0.2" d="M13.5703 39.2705L9.24025 40.4005C7.60025 40.8305 7.60025 43.1605 9.24025 43.5905L32.5103 49.6705C33.0603 49.8105 33.6203 49.8905 34.1903 49.8905H39.9103C40.1403 49.8905 40.3803 49.8605 40.6003 49.8005L47.7203 47.9405C48.4203 47.7605 48.4203 46.7605 47.7203 46.5805L19.7603 39.2705C17.7303 38.7405 15.6103 38.7405 13.5803 39.2705H13.5703Z" fill="black"></path><path d="M7.01 8.95996V41.08C7.01 41.93 7.59 42.68 8.41 42.89L32.27 49.09C33.97 49.53 35.62 48.25 35.62 46.5V21.27C35.62 18.94 34.05 16.91 31.8 16.32L9.45 10.47L7 8.95996H7.01Z" fill="#99CC33"></path><path d="M35.62 20.89C35.62 18.79 34.2 16.95 32.16 16.41L9.45 10.47C7.96 10.11 7 9.57 7 8.96C7 7.88 10 7 13.7 7C15.27 7 16.71 7.16 17.85 7.42H17.87C18.07 7.47 18.26 7.52 18.44 7.57L42.44 13.83C44.35 14.33 45.68 16.05 45.68 18.03V43.93C45.68 45.65 44.06 46.9 42.4 46.48L41.99 46.37L40.74 45.94L38.8 47.71L38.06 47.82L35.64 47.16L35.36 48.12L35.63 46.32V20.88L35.62 20.89Z" fill="#B2BBC3"></path><path d="M44.06 36.64C44.02 36.73 43.94 36.8 43.96 36.89C42.33 37.63 41.07 39.16 40.67 40.91C40.67 39.72 40.66 38.57 40.67 37.38L40.74 26.56C40.77 25.34 40.82 24.22 40.84 23C41.09 23.69 41.56 24.29 42.15 24.74C42.74 25.19 43.43 25.47 44.15 25.63L44.07 36.64H44.06Z" fill="#1E3200"></path><path d="M35.7304 39.0409C35.7304 40.2309 35.7404 41.3809 35.7304 42.5709C36.1404 40.8209 37.3904 39.2909 39.0204 38.5509C39.0004 38.4609 39.0804 38.3909 39.1204 38.3009L39.0404 27.2609C38.3204 27.1009 37.6304 26.8209 37.0404 26.3709C36.4504 25.9209 35.9804 25.3309 35.7304 24.6309C35.7004 25.8509 35.6504 26.9709 35.6304 28.1909L35.7204 39.0409H35.7304Z" fill="#1E3200"></path><path d="M40.87 46.0907L42.41 46.4907C44.07 46.9207 45.69 45.6707 45.69 43.9507V18.2407C45.69 16.1507 44.28 14.3207 42.25 13.7907L18.44 7.58074C18.26 7.53074 18.07 7.48074 17.87 7.43074H17.85C16.71 7.17074 15.27 7.01074 13.7 7.01074C10 7.01074 7 7.89074 7 8.97074C7 9.58074 7.95 10.1207 9.45 10.4807L32.13 16.4207C34.19 16.9607 35.62 18.8207 35.62 20.9407V46.5807C35.62 48.3007 34 49.5507 32.34 49.1207L8.57 42.9407C7.65 42.7007 7.01 41.8707 7.01 40.9207V8.96074" stroke="#1E3300" stroke-linecap="round" stroke-linejoin="round"></path><path d="M35.77 47.2204L37.59 47.6904C39.25 48.1204 40.87 46.8704 40.87 45.1504" stroke="#1E3300" stroke-linecap="round" stroke-linejoin="round"></path><path d="M16.0903 9.49023L37.3803 15.0602C39.4403 15.6002 40.8703 17.4602 40.8703 19.5802V45.2202" stroke="#1E3300" stroke-linecap="round" stroke-linejoin="round"></path><path d="M45.6901 24.2502L45.6401 25.7002C45.8401 25.5802 46.7801 25.6102 46.8101 25.3802L47.0701 25.0602L46.9401 24.8102L46.6701 24.5702L45.6801 24.2402L45.6901 24.2502Z" fill="#1E3200"></path><path d="M46.95 25.3909L36.64 28.0909C35.36 28.4309 34.01 28.4309 32.73 28.0909L29.83 27.3309C27.02 26.5909 24.27 28.7109 24.25 31.6109V31.8909C24.24 34.6709 26.11 37.1109 28.8 37.8109L31.97 38.6409C33.75 39.1009 35.61 39.1109 37.39 38.6509L46.23 36.3709C46.65 36.2609 46.94 35.8909 46.94 35.4509V25.3809L46.95 25.3909Z" fill="#D8ECA3"></path><path d="M29.0792 35.3603C30.2388 35.1319 30.928 33.6729 30.6185 32.1014C30.3091 30.53 29.1182 29.4412 27.9586 29.6695C26.7989 29.8979 26.1097 31.3569 26.4192 32.9284C26.7286 34.4998 27.9195 35.5886 29.0792 35.3603Z" fill="#1E3200"></path><path d="M45.69 24.3301L46.68 24.5901H46.71C47.08 24.7501 47.11 25.3501 46.65 25.4701L36.64 28.0901C35.36 28.4301 34.01 28.4301 32.73 28.0901L29.83 27.3301C27.02 26.5901 24.27 28.7101 24.25 31.6101V31.8901C24.24 34.6701 26.11 37.1101 28.8 37.8101L31.97 38.6401C33.75 39.1001 35.61 39.1101 37.39 38.6501L46.39 36.3301C46.74 36.2401 46.98 35.9301 46.98 35.5701V25.0301" stroke="#1E3300" stroke-linecap="round" stroke-linejoin="round"></path></svg>