<svg fill="none" viewBox="0 0 56 56" xmlns="http://www.w3.org/2000/svg" class="css-1jxvrpq e1ig6ntm0"><path opacity="0.2" d="M32.7498 41.1693L8.14982 47.6193C7.20982 47.8593 7.20982 49.1893 8.14982 49.4393L19.2098 52.3293C19.5198 52.4093 19.8398 52.4493 20.1598 52.4493H23.4098C23.5398 52.4493 23.6798 52.4293 23.7998 52.3993L49.9898 45.5393C50.3898 45.4393 50.3898 44.8693 49.9898 44.7593L36.2598 41.1693C35.1098 40.8693 33.8998 40.8693 32.7398 41.1693H32.7498Z" fill="black"></path><path d="M7.77979 36.0789L33.7698 29.3389L45.7098 32.4489L19.6698 39.1889L7.77979 36.0789Z" fill="white"></path><path d="M24.0497 37.8693C23.8397 37.8993 23.6297 37.9093 23.4197 37.9093C22.8397 37.9093 22.2897 37.8193 21.7697 37.6593C21.1097 37.6393 20.4797 37.5093 19.9097 37.2793C19.2097 37.6293 18.4497 37.8393 17.6697 37.8693C17.1097 38.0793 16.5197 38.1993 15.9297 38.2093L19.6597 39.1893L24.4497 37.9493C24.3097 37.9293 24.1797 37.8993 24.0397 37.8593L24.0497 37.8693Z" fill="#1E3300"></path><path d="M17.4399 35.1786L33.2999 31.0186L39.0099 32.4486L23.1199 36.6086L17.4399 35.1786Z" fill="#99CC33"></path><path d="M45.7099 32.4492V45.2492L19.6699 51.9892V39.1892L45.7099 32.4492Z" fill="#D9EEA8"></path><path d="M7.77979 36.0791V48.8891L19.6698 51.9891V39.1891L7.77979 36.0791Z" fill="white"></path><path d="M7.77977 36.0791L12.3498 34.8891L33.7598 29.3291L45.6998 32.4391L26.5098 37.4091C24.6698 37.8891 22.7398 37.9491 20.8698 37.6091L19.8198 37.4191L19.0498 37.6791C17.5598 38.1791 15.9598 38.2291 14.4398 37.8291L7.75977 36.0791H7.77977Z" stroke="#1E3300" stroke-linecap="round" stroke-linejoin="round"></path><path d="M45.7098 36.709L19.6698 43.449L7.77979 40.349" stroke="#1E3300" stroke-linecap="round" stroke-linejoin="round"></path><path d="M45.7098 40.9688L19.6698 47.7188L7.77979 44.6087" stroke="#1E3300" stroke-linecap="round" stroke-linejoin="round"></path><path d="M45.7099 32.4492V45.2492L19.6699 51.9892V39.1892L45.7099 32.4492Z" stroke="#1E3300" stroke-linecap="round" stroke-linejoin="round"></path><path d="M7.77979 36.0791V48.8891L19.6698 51.9891V39.1891L7.77979 36.0791Z" stroke="#1E3300" stroke-linecap="round" stroke-linejoin="round"></path><path d="M25.31 31.5488L37.17 34.6388C37.21 34.7888 37.17 47.4388 37.17 47.4388L29.07 49.5388C29.07 49.5388 29.11 36.8888 29.07 36.7388L17.21 33.6488L25.31 31.5488Z" fill="#B2BBC3"></path><path d="M29.07 36.7388L17.21 33.6488L25.31 31.5488L37.17 34.6388L29.07 36.7388Z" fill="white"></path><path d="M25.31 31.5488L37.17 34.6388C37.21 34.7888 37.17 47.4388 37.17 47.4388L29.07 49.5388C29.07 49.5388 29.11 36.8888 29.07 36.7388L17.21 33.6488L25.31 31.5488Z" stroke="#1E3300" stroke-linecap="round" stroke-linejoin="round"></path><path d="M29.0698 36.7387L37.1698 34.6387" stroke="#1E3300" stroke-linecap="round" stroke-linejoin="round"></path><path d="M29.0099 38.4092C28.8399 42.2392 28.3999 46.0592 27.6899 49.8292C28.1699 49.6792 28.6099 49.5792 29.0799 49.4092L29.0099 38.4092Z" fill="#1E3300"></path><path d="M28.8799 25.08L45.4199 20.37V23.35L49.9899 17.12C50.5899 16.3 50.5399 15.2 49.8699 14.61L45.1599 10.46L45.2099 13.45L28.8999 18.11" fill="#99CC33"></path><path d="M28.9196 18.11L45.2296 13.45L45.1796 10.46L49.8896 14.61C50.5596 15.2 50.6096 16.3 50.0096 17.12L45.4196 23.35L45.3396 20.4L28.8896 25.08" stroke="#1E3300" stroke-linecap="round" stroke-linejoin="round"></path><path d="M28.8799 25.08L45.4199 20.37V23.35L49.9899 17.12C50.5899 16.3 50.5399 15.2 49.8699 14.61L45.1599 10.46L45.2099 13.45L28.8999 18.11L28.8599 25.08H28.8799Z" fill="#99CC33"></path><path d="M28.9196 18.11L45.2296 13.45L45.1796 10.46L49.8896 14.61C50.5596 15.2 50.6096 16.3 50.0096 17.12L45.4196 23.35L45.3396 20.4L28.8896 25.08L28.9296 18.11H28.9196Z" stroke="#1E3300" stroke-linecap="round" stroke-linejoin="round"></path><path d="M29.7698 6.42969L13.1298 10.7597L13.2098 7.77969L8.47977 13.8997C7.85977 14.6997 7.87977 15.8097 8.53977 16.4097L13.1498 20.6697V17.6797L29.7598 13.3597" fill="#99CC33"></path><path d="M29.7596 13.3599L13.1596 17.6799V20.6699L8.53956 16.4099C7.88956 15.8099 7.85956 14.6999 8.47956 13.8999L13.2096 7.77992V10.7299L29.7696 6.41992" stroke="#1E3300" stroke-linecap="round" stroke-linejoin="round"></path><path d="M29.7596 13.3599L13.1596 17.6799V20.6699L8.53956 16.4099C7.88956 15.8099 7.85956 14.6999 8.47956 13.8999L13.2096 7.77992V10.7299L29.7696 6.41992V13.3599H29.7596Z" stroke="#1E3300" stroke-linecap="round" stroke-linejoin="round"></path></svg>