<svg fill="none" viewBox="0 0 56 56" xmlns="http://www.w3.org/2000/svg" class="css-1hqcu0z e1ig6ntm0"><g opacity="0.2"><path d="M49.0701 46.1201L39.6601 43.7901L20.5701 38.7201C20.4301 38.6901 20.2801 38.6901 20.1401 38.7301L16.5301 39.7301L8.99012 41.6901C8.62012 41.7901 8.37012 42.1201 8.37012 42.5001C8.37012 42.8801 8.62012 43.2101 8.99012 43.3101L33.3601 49.9101C33.6001 49.9701 33.8401 50.0001 34.0901 50.0001H36.4701C36.7401 50.0001 37.0001 49.9701 37.2601 49.9001L49.0701 46.9301C49.4901 46.8201 49.4901 46.2301 49.0701 46.1201Z" fill="black"></path><path d="M49.0701 46.1201L39.6601 43.7901L20.5701 38.7201C20.4301 38.6901 20.2801 38.6901 20.1401 38.7301L16.5301 39.7301L8.99012 41.6901C8.62012 41.7901 8.37012 42.1201 8.37012 42.5001C8.37012 42.8801 8.62012 43.2101 8.99012 43.3101L33.3601 49.9101C33.6001 49.9701 33.8401 50.0001 34.0901 50.0001H36.4701C36.7401 50.0001 37.0001 49.9701 37.2601 49.9001L49.0701 46.9301C49.4901 46.8201 49.4901 46.2301 49.0701 46.1201Z" fill="black"></path></g><path d="M10.0901 39.42C12.8101 40.66 17.4801 39.76 17.4801 38.02V39.08C17.4801 40.82 12.8201 41.72 10.0901 40.48C9.25008 40.1 8.84008 39.6 8.83008 39.1V38.04C8.83008 38.54 9.25008 39.04 10.0801 39.42H10.0901Z" fill="#B2BBC3"></path><path d="M10.1102 36.64C8.4202 37.41 8.4102 38.65 10.0902 39.42C11.7702 40.19 14.5102 40.19 16.2002 39.42C17.8902 38.65 17.9002 37.41 16.2202 36.64C14.5402 35.87 11.8002 35.87 10.1102 36.64Z" fill="#B2BBC3"></path><path d="M10.0598 17.12C10.1298 17.14 10.4798 17.21 10.8398 17.27C15.4998 18.02 20.8998 16.38 20.4698 13.9H20.5098C20.4198 13.65 17.8598 6.18996 17.7798 5.95996H8.71981C8.71981 5.95996 6.27981 13.24 6.21981 13.43C5.28981 15.27 7.89981 16.68 10.0698 17.12H10.0598Z" fill="#D9EEA8"></path><path d="M9.94983 7.11989C12.7098 7.97989 17.4198 7.43989 17.8098 6.24989C18.2598 4.91989 13.0598 4.12989 9.96983 5.08989C8.17983 5.64989 8.12983 6.54989 9.94983 7.11989Z" fill="white"></path><path d="M14.3202 7.63987C14.1302 7.61987 13.9402 7.60987 13.7502 7.60987C13.5602 7.60987 13.3802 7.61987 13.1902 7.63987C12.8502 7.57987 12.5102 7.53987 12.1702 7.53987C12.0502 7.53987 11.9402 7.53987 11.8302 7.54987C11.2902 7.35987 10.7302 7.25987 10.1602 7.23987C11.7502 6.59987 14.3302 6.44987 16.3302 7.23987C15.8302 7.28987 15.3502 7.40987 14.8902 7.57987C14.7002 7.57987 14.5202 7.60987 14.3302 7.62987L14.3202 7.63987Z" fill="#61666B"></path><path d="M10.06 17.1202C10.13 17.1402 10.48 17.2102 10.84 17.2702C11.72 11.1802 11.53 12.3702 12.22 7.5402C12.17 7.5402 11.63 7.4902 11.34 7.4202C10.46 7.2502 9.36004 7.3902 8.95004 6.6502L8.75004 6.7702C8.72004 6.7402 8.63004 6.5102 8.63004 6.4802C8.67004 6.3002 8.51004 6.1202 8.65004 5.9502H8.71004L6.21004 13.4202C5.28004 15.2602 7.89004 16.6702 10.06 17.1102V17.1202Z" fill="#497C00"></path><path d="M10.2002 17.1501C12.6602 17.6701 15.8802 17.5501 18.1802 16.5601L15.6802 7.3501C14.3202 7.5801 12.8302 7.5401 11.3802 7.5401L10.2002 17.1501Z" fill="#99CC33"></path><path d="M10.0901 39.42C12.8101 40.66 17.4801 39.76 17.4801 38.02V39.01C17.4801 40.75 12.8201 41.65 10.0901 40.41C9.25008 40.03 8.84008 39.53 8.83008 39.03V38.04C8.83008 38.54 9.25008 39.04 10.0801 39.42H10.0901Z" stroke="#1E3300" stroke-linecap="round" stroke-linejoin="round"></path><path d="M12.6102 36.0801C11.7002 36.1301 10.8102 36.3201 10.1102 36.6401C8.4202 37.4101 8.4102 38.6501 10.0902 39.4201C11.7702 40.1901 14.5102 40.1901 16.2002 39.4201C17.8902 38.6501 17.9002 37.4101 16.2202 36.6401C15.5202 36.3201 14.6502 36.1401 13.7402 36.0801" stroke="#1E3300" stroke-linecap="round" stroke-linejoin="round"></path><path d="M8.66002 5.95986C8.66002 5.95986 6.28002 13.2399 6.22002 13.4299C5.48002 15.4399 7.90002 16.6799 10.07 17.1199C10.14 17.1399 10.49 17.2099 10.85 17.2699C15.51 18.0199 21.18 16.3799 20.48 13.8999C20.48 13.8999 17.86 6.08986 17.78 5.85986" stroke="#1E3300" stroke-linecap="round" stroke-linejoin="round"></path><path d="M9.94983 7.11989C12.7098 7.97989 17.4198 7.43989 17.8098 6.24989C18.2598 4.91989 13.0598 4.12989 9.96983 5.08989C8.17983 5.64989 8.12983 6.54989 9.94983 7.11989Z" stroke="#1E3300" stroke-linecap="round" stroke-linejoin="round"></path><path d="M34.2299 49.6601L34.1299 47.0601L32.8999 47.1301C32.8999 47.2001 33.2899 49.6701 33.2899 49.6701C33.3399 50.1001 34.2499 50.0701 34.2299 49.6701V49.6601Z" fill="#1E3300"></path><path d="M46.4799 46.4498L46.3799 43.0498L45.1499 43.1198C45.1499 43.1898 45.5399 46.4598 45.5399 46.4598C45.5899 46.8898 46.4999 46.8598 46.4799 46.4598V46.4498Z" fill="#1E3300"></path><path d="M20.5298 20.8101L21.2598 21.0001C21.8298 21.1501 22.2198 21.6601 22.2198 22.2501V33.3501C22.2198 34.1101 21.7098 34.7701 20.9698 34.9601L7.98982 38.3301C7.38982 38.4901 6.75982 38.4801 6.15982 38.3301L5.55982 38.1701C4.82982 37.9801 4.31982 37.3201 4.31982 36.5601V25.7601C4.31982 25.0001 4.82982 24.3401 5.56982 24.1501L18.4998 20.8101C19.1598 20.6401 19.8598 20.6401 20.5298 20.8101Z" fill="white"></path><path d="M7.63978 37.4998C7.50978 37.0998 7.55978 36.4398 7.57978 36.0198C7.71978 32.9398 7.68979 29.9198 7.55978 26.8398C7.55978 26.6298 7.43978 26.3498 7.36978 26.1598C7.21978 25.7798 6.86978 25.6198 6.47978 25.4798C6.08978 25.3398 5.60978 25.2498 5.22978 25.0898C5.05978 25.0198 4.83978 25.0498 4.65978 25.0898C4.36978 25.1698 4.32979 25.3298 4.31979 25.6298C4.27979 29.0198 4.31979 32.4198 4.27979 35.8098C4.27979 36.4498 4.27979 37.1498 4.68979 37.6398C4.95978 37.9698 5.36979 38.1498 5.77979 38.2698C6.46979 38.4698 7.23978 38.5198 7.93979 38.3598C8.73979 38.1798 7.78979 37.9698 7.62979 37.4998H7.63978Z" fill="#B2BBC3"></path><path d="M20.5298 20.8101L21.2598 21.0001C21.8298 21.1501 22.2198 21.6601 22.2198 22.2501V33.3501C22.2198 34.1101 21.7098 34.7701 20.9698 34.9601L7.98982 38.3301C7.38982 38.4901 6.75982 38.4801 6.15982 38.3301L5.55982 38.1701C4.82982 37.9801 4.31982 37.3201 4.31982 36.5601V25.7601C4.31982 25.0001 4.82982 24.3401 5.56982 24.1501L18.4998 20.8101C19.1598 20.6401 19.8598 20.6401 20.5298 20.8101Z" stroke="#1E3300" stroke-linecap="round" stroke-linejoin="round"></path><path d="M9.5 25.1602L19.16 22.6602" stroke="#B3BCC4" stroke-miterlimit="10" stroke-linecap="round"></path><path d="M9.49982 37.9498L8.87982 38.1098C8.20982 38.2798 7.54982 37.7798 7.54982 37.0798V26.8398C7.54982 26.2298 7.14982 25.6898 6.56982 25.5098L5.10982 25.0498C4.71982 24.9298 4.31982 25.2198 4.31982 25.6298V26.3298" stroke="#1E3300" stroke-linecap="round" stroke-linejoin="round"></path><path d="M35.0301 42.4401L47.6601 39.1301V43.3601C47.6601 43.9501 47.2601 45.2601 46.7001 45.4101L35.7901 48.2601C35.3001 48.3901 34.7801 48.3901 34.2901 48.2601L9.85014 41.6001C9.28014 41.4501 8.89014 40.9401 8.89014 40.3501V35.3301L35.0501 42.4401H35.0301Z" fill="#61666B"></path><path d="M47.5801 39.52V44.21C47.5801 44.77 47.2001 45.26 46.6601 45.4L35.7301 48.25C35.4601 48.32 35.1801 48.34 34.9001 48.3L33.8101 48.14L34.2501 48.2C34.8601 48.28 35.4001 47.81 35.4001 47.2V42.72L47.5901 39.53L47.5801 39.52Z" fill="#B2BBC3"></path><path d="M35.0301 42.4401L47.6601 39.1301V44.1601C47.6601 44.7501 47.2601 45.2601 46.7001 45.4101L35.7901 48.2601C35.3001 48.3901 34.7801 48.3901 34.2901 48.2601L9.85014 41.6001C9.28014 41.4501 8.89014 40.9401 8.89014 40.3501V35.3301L35.0501 42.4401H35.0301Z" stroke="#1E3300" stroke-linecap="round" stroke-linejoin="round"></path><path d="M24.1502 17.9102L25.4302 17.5802C25.9102 17.4602 26.4102 17.4602 26.8802 17.5802L37.1002 20.2602C37.8302 20.4502 38.3602 21.0702 38.4202 21.8202C38.7502 25.6902 38.1602 29.6202 36.7502 33.6002C36.5502 34.1502 36.0902 34.5702 35.5302 34.7202L33.8702 35.1602C33.4202 35.2802 32.9502 35.2802 32.5002 35.1602L22.0702 32.4402C21.4002 32.2702 20.8902 31.7302 20.7702 31.0502C20.1102 27.3302 20.7202 23.5102 22.3202 19.5202C22.6402 18.7302 23.3202 18.1402 24.1502 17.9202V17.9102Z" fill="#B2BBC3"></path><path d="M24.1502 17.9102L25.4302 17.5802C25.9102 17.4602 26.4102 17.4602 26.8802 17.5802L37.1002 20.2602C37.8302 20.4502 38.3602 21.0702 38.4202 21.8202C38.7502 25.6902 38.1602 29.6202 36.7502 33.6002C36.5502 34.1502 36.0902 34.5702 35.5302 34.7202L33.8702 35.1602C33.4202 35.2802 32.9502 35.2802 32.5002 35.1602L22.0702 32.4402C21.4002 32.2702 20.8902 31.7302 20.7702 31.0502C20.1102 27.3302 20.7202 23.5102 22.3202 19.5202C22.6402 18.7302 23.3202 18.1402 24.1502 17.9202V17.9102Z" stroke="#1E3300" stroke-linecap="round" stroke-linejoin="round"></path><path d="M25.9302 19.4902L32.1902 21.1302" stroke="#B3BCC4" stroke-miterlimit="10" stroke-linecap="round"></path><path d="M37.2898 21.2198L38.5698 20.8898C39.0498 20.7698 39.5498 20.7698 40.0198 20.8898L50.2398 23.5698C50.9698 23.7598 51.4998 24.3798 51.5598 25.1298C51.8898 28.9998 51.2998 32.9298 49.8898 36.9098C49.6898 37.4598 49.2298 37.8798 48.6698 38.0298L47.0098 38.4698C46.5598 38.5898 46.0898 38.5898 45.6398 38.4698L35.2098 35.7498C34.5398 35.5798 34.0298 35.0398 33.9098 34.3598C33.2498 30.6398 33.8598 26.8198 35.4598 22.8298C35.7798 22.0398 36.4598 21.4498 37.2898 21.2298V21.2198Z" fill="#B2BBC3"></path><path d="M43.7599 29.8002C43.6199 29.5202 43.8099 29.2602 43.8299 28.9602C43.8299 28.8702 43.8299 28.7702 43.7799 28.7002C43.7299 28.6402 43.6599 28.6102 43.5799 28.6002C42.5199 28.3502 41.5299 29.1602 40.4599 29.3602C39.6499 29.5102 38.8099 29.3102 37.9999 29.4302C37.1899 29.5502 36.4099 29.9702 35.5999 29.8702C35.3699 29.8402 35.1199 29.7702 34.9199 29.8802C34.5599 30.0702 34.6399 30.6002 34.8099 30.9602C34.9799 31.3202 35.2199 31.7402 35.0299 32.1002L43.7499 29.8102L43.7599 29.8002Z" fill="#99CC33"></path><path d="M37.2898 21.2198L38.5698 20.8898C39.0498 20.7698 39.5498 20.7698 40.0198 20.8898L50.2398 23.5698C50.9698 23.7598 51.4998 24.3798 51.5598 25.1298C51.8898 28.9998 51.2998 32.9298 49.8898 36.9098C49.6898 37.4598 49.2298 37.8798 48.6698 38.0298L47.0098 38.4698C46.5598 38.5898 46.0898 38.5898 45.6398 38.4698L35.2098 35.7498C34.5398 35.5798 34.0298 35.0398 33.9098 34.3598C33.2498 30.6398 33.8598 26.8198 35.4598 22.8298C35.7798 22.0398 36.4598 21.4498 37.2898 21.2298V21.2198Z" stroke="#1E3300" stroke-linecap="round" stroke-linejoin="round"></path><path d="M38.3101 22.96L45.8101 24.93" stroke="#B3BCC4" stroke-miterlimit="10" stroke-linecap="round"></path><path d="M22.0098 29.7398C25.7698 30.1798 28.9198 31.0798 31.6098 32.3298C32.2298 32.6198 32.6298 33.2398 32.6298 33.9298V35.1898C32.6298 35.9298 32.1298 36.5698 31.4198 36.7598L21.7798 39.2798C20.6998 39.5598 19.5698 39.6498 18.4598 39.5198C14.0398 39.0198 10.6498 38.1898 8.53977 36.9598C8.05977 36.6798 7.75977 36.1598 7.75977 35.5998V34.1898C7.75977 33.3898 8.29977 32.6798 9.07977 32.4798L18.7098 29.9698C19.7898 29.6898 20.9098 29.5998 22.0198 29.7298L22.0098 29.7398Z" fill="white"></path><path d="M22.0098 29.7398C25.7698 30.1798 28.9198 31.0798 31.6098 32.3298C32.2298 32.6198 32.6298 33.2398 32.6298 33.9298V35.1898C32.6298 35.9298 32.1298 36.5698 31.4198 36.7598L21.7798 39.2798C20.6998 39.5598 19.5698 39.6498 18.4598 39.5198C14.0398 39.0198 10.6498 38.1898 8.53977 36.9598C8.05977 36.6798 7.75977 36.1598 7.75977 35.5998V34.1898C7.75977 33.3898 8.29977 32.6798 9.07977 32.4798L18.7098 29.9698C19.7898 29.6898 20.9098 29.5998 22.0198 29.7298L22.0098 29.7398Z" stroke="#1E3300" stroke-linecap="round" stroke-linejoin="round"></path><path d="M18.4601 35.9799C15.3901 35.6299 12.8101 35.1199 10.8101 34.4399" stroke="#B3BCC4" stroke-miterlimit="10" stroke-linecap="round"></path><path d="M34.4502 32.9302C38.2102 33.3702 41.3602 34.2702 44.0502 35.5202C44.6702 35.8102 45.0702 36.4302 45.0702 37.1202V38.3802C45.0702 39.1202 44.5702 39.7602 43.8602 39.9502L34.2202 42.4702C33.1402 42.7502 32.0102 42.8402 30.9002 42.7102C26.4802 42.2102 23.0902 41.3802 20.9802 40.1502C20.5002 39.8702 20.2002 39.3502 20.2002 38.7902V37.3802C20.2002 36.5802 20.7402 35.8702 21.5202 35.6702L31.1502 33.1602C32.2302 32.8802 33.3502 32.7902 34.4602 32.9202L34.4502 32.9302Z" fill="white"></path><path d="M34.4502 32.9302C38.2102 33.3702 41.3602 34.2702 44.0502 35.5202C44.6702 35.8102 45.0702 36.4302 45.0702 37.1202V38.3802C45.0702 39.1202 44.5702 39.7602 43.8602 39.9502L34.2202 42.4702C33.1402 42.7502 32.0102 42.8402 30.9002 42.7102C26.4802 42.2102 23.0902 41.3802 20.9802 40.1502C20.5002 39.8702 20.2002 39.3502 20.2002 38.7902V37.3802C20.2002 36.5802 20.7402 35.8702 21.5202 35.6702L31.1502 33.1602C32.2302 32.8802 33.3502 32.7902 34.4602 32.9202L34.4502 32.9302Z" stroke="#1E3300" stroke-linecap="round" stroke-linejoin="round"></path><path d="M39.12 37.6499L34.22 38.9299C33.14 39.2099 32.01 39.2999 30.9 39.1699C27.83 38.8199 25.25 38.3099 23.25 37.6299" stroke="#B3BCC4" stroke-miterlimit="10" stroke-linecap="round"></path><path d="M50.17 28.7501L50.9 28.9401C51.47 29.0901 51.86 29.6001 51.86 30.1901V41.2901C51.86 42.0501 51.35 42.7101 50.61 42.9001L37.63 46.2701C37.03 46.4301 36.4 46.4201 35.8 46.2701L35.2 46.1101C34.47 45.9201 33.96 45.2601 33.96 44.5001V33.7001C33.96 32.9401 34.47 32.2801 35.21 32.0901L48.14 28.7501C48.8 28.5801 49.5 28.5801 50.17 28.7501Z" fill="white"></path><path d="M38.1001 33.3601L50.6401 30.1201" stroke="#B3BCC4" stroke-miterlimit="10" stroke-linecap="round"></path><path d="M44.5101 29.6802C45.8501 29.8002 47.2701 30.3702 47.6601 31.2102C48.2201 32.4302 48.2201 34.7802 48.1901 36.1202C48.1601 37.4702 48.2101 38.8802 48.8601 40.0602C47.0201 40.0702 45.1901 40.4602 43.4001 40.9002C42.3201 41.1702 41.1601 41.5202 40.1201 41.1302C40.0001 39.4902 40.0301 37.4502 39.9101 35.8102C39.8401 34.9002 39.6501 34.0602 39.3401 33.2102C39.0301 32.3602 37.3001 31.6702 36.5601 31.7402L44.5201 29.6802H44.5101Z" fill="#497C00"></path><path d="M37.2799 45.43C37.1499 45.03 37.1999 44.37 37.2199 43.95C37.3599 40.87 37.3299 37.85 37.1999 34.77C37.1999 34.56 37.0799 34.28 37.0099 34.09C36.8599 33.71 36.5099 33.55 36.1199 33.41C35.7299 33.27 35.2499 33.18 34.8699 33.02C34.6999 32.95 34.4799 32.98 34.2999 33.02C34.0099 33.1 33.9699 33.26 33.9599 33.56C33.9199 36.95 33.9599 40.35 33.9199 43.74C33.9199 44.38 33.9199 45.08 34.3299 45.57C34.5999 45.9 35.0099 46.08 35.4199 46.2C36.1099 46.4 36.8799 46.45 37.5799 46.29C38.3799 46.11 37.4299 45.9 37.2699 45.43H37.2799Z" fill="#B2BBC3"></path><path d="M50.17 28.7501L50.9 28.9401C51.47 29.0901 51.86 29.6001 51.86 30.1901V41.2901C51.86 42.0501 51.35 42.7101 50.61 42.9001L37.63 46.2701C37.03 46.4301 36.4 46.4201 35.8 46.2701L35.2 46.1101C34.47 45.9201 33.96 45.2601 33.96 44.5001V33.7001C33.96 32.9401 34.47 32.2801 35.21 32.0901L48.14 28.7501C48.8 28.5801 49.5 28.5801 50.17 28.7501Z" stroke="#1E3300" stroke-linecap="round" stroke-linejoin="round"></path><path d="M39.14 45.88L38.52 46.04C37.85 46.21 37.19 45.71 37.19 45.01V34.77C37.19 34.16 36.79 33.62 36.21 33.44L34.75 32.98C34.36 32.86 33.96 33.15 33.96 33.56V34.26" stroke="#1E3300" stroke-linecap="round" stroke-linejoin="round"></path><path d="M8.73977 38.1102C8.51977 37.5502 8.06977 37.0802 7.50977 36.8502C7.50977 36.7802 7.64977 36.0502 7.65977 35.9702C7.89977 36.0802 8.12977 36.6502 8.35977 36.7602C8.44977 36.8002 8.42977 37.0302 8.51977 37.0602C8.62977 37.1002 8.73977 37.1302 8.85977 37.1502L8.72976 38.1102H8.73977Z" fill="#1E3300"></path><path d="M46.9599 45.3802C44.2199 45.6002 41.3599 45.4202 38.6899 46.0802L47.6099 43.6802V44.6902L46.9499 45.3802H46.9599Z" fill="#1E3300"></path><path d="M10.6901 41.8901L10.1101 43.2701C10.0701 43.3601 10.1101 43.4501 10.1801 43.5001C10.2401 43.5401 10.3201 43.5701 10.4401 43.5901C10.7401 43.6201 10.9501 43.4401 10.9501 43.4401L11.6601 42.1301L10.6801 41.8901H10.6901Z" fill="#1E3300"></path><path d="M50.19 24.36C49.39 24.18 48.6 24.79 48.23 25.52C47.86 26.25 47.76 27.09 47.5 27.86" stroke="white" stroke-miterlimit="10" stroke-linecap="round"></path><path d="M44.5101 29.6802C45.8501 29.8002 47.2701 30.3702 47.6601 31.2102C48.2201 32.4302 48.2201 34.7802 48.1901 36.1202C48.1601 37.4702 48.2101 38.8802 48.8601 40.0602C47.0201 40.0702 45.1901 40.4602 43.4001 40.9002C42.3201 41.1702 41.1601 41.5202 40.1201 41.1302C40.0001 39.4902 40.0301 37.4502 39.9101 35.8102C39.8401 34.9002 39.6501 34.0602 39.3401 33.2102C39.0301 32.3602 37.3001 31.6702 36.5601 31.7402" stroke="#1E3300" stroke-linecap="round" stroke-linejoin="round"></path><path d="M43.7599 29.8002C43.6199 29.5202 43.8099 29.2602 43.8299 28.9602C43.8299 28.8702 43.8299 28.7702 43.7799 28.7002C43.7299 28.6402 43.6599 28.6102 43.5799 28.6002C42.5199 28.3502 41.5299 29.1602 40.4599 29.3602C39.6499 29.5102 38.8099 29.3102 37.9999 29.4302C37.1899 29.5502 36.4099 29.9702 35.5999 29.8702C35.3699 29.8402 35.1199 29.7702 34.9199 29.8802C34.5599 30.0702 34.6399 30.6002 34.8099 30.9602C34.9799 31.3202 35.2199 31.7402 35.0299 32.1002" stroke="#1E3300" stroke-linecap="round" stroke-linejoin="round"></path><path d="M43.7302 28.6299C43.6402 29.0099 43.3102 29.2999 42.9502 29.4699C42.5902 29.6399 42.2002 29.7199 41.8302 29.8599C41.2502 30.0699 40.7302 30.4099 40.2202 30.7399C41.4202 30.4899 42.6402 30.2299 43.8102 29.8299C43.6202 29.7099 43.6802 29.4199 43.7602 29.2099C43.8402 28.9999 43.9202 28.7599 43.7402 28.6299H43.7302Z" fill="#1E3300"></path><path d="M49.1702 39.5599C49.1702 39.5599 49.1702 39.4999 49.1402 39.4799C48.6602 39.0399 48.3502 38.6299 48.2202 37.6299C48.2502 38.0599 48.3702 38.6399 48.4902 39.0599C48.5302 39.1899 48.5802 39.5099 48.6802 39.5899C48.7502 39.6499 49.1202 39.6499 49.1702 39.5599Z" stroke="#1E3300" stroke-linecap="round" stroke-linejoin="round"></path><path d="M10.0901 39.42C12.8101 40.66 17.4801 39.76 17.4801 38.02V39.08C17.4801 40.82 12.8201 41.72 10.0901 40.48C9.25008 40.1 8.84008 39.6 8.83008 39.1V38.04C8.83008 38.54 9.25008 39.04 10.0801 39.42H10.0901Z" fill="#B2BBC3"></path><path d="M10.1102 36.64C8.4202 37.41 8.4102 38.65 10.0902 39.42C11.7702 40.19 14.5102 40.19 16.2002 39.42C17.8902 38.65 17.9002 37.41 16.2202 36.64C14.5402 35.87 11.8002 35.87 10.1102 36.64Z" fill="#B2BBC3"></path><path d="M10.0598 17.12C10.1298 17.14 10.4798 17.21 10.8398 17.27C15.4998 18.02 20.8998 16.38 20.4698 13.9H20.5098C20.4198 13.65 17.8598 6.18996 17.7798 5.95996H8.71981C8.71981 5.95996 6.27981 13.24 6.21981 13.43C5.28981 15.27 7.89981 16.68 10.0698 17.12H10.0598Z" fill="#99CC33"></path><path d="M9.94983 7.11989C12.7098 7.97989 17.4198 7.43989 17.8098 6.24989C18.2598 4.91989 13.0598 4.12989 9.96983 5.08989C8.17983 5.64989 8.12983 6.54989 9.94983 7.11989Z" fill="white"></path><path d="M10.06 17.1202C10.13 17.1402 10.48 17.2102 10.84 17.2702C11.72 11.1802 11.53 12.3702 12.22 7.5402C12.17 7.5402 11.63 7.4902 11.34 7.4202C10.46 7.2502 9.36004 7.3902 8.95004 6.6502L8.75004 6.7702C8.72004 6.7402 8.63004 6.5102 8.63004 6.4802C8.67004 6.3002 8.51004 6.1202 8.65004 5.9502H8.71004L6.21004 13.4202C5.28004 15.2602 7.89004 16.6702 10.06 17.1102V17.1202Z" fill="#99CC33"></path><path d="M10.2002 17.1501C12.6602 17.6701 15.8802 17.5501 18.1802 16.5601L15.6802 7.3501C14.3202 7.5801 12.8302 7.5401 11.3802 7.5401L10.2002 17.1501Z" fill="#99CC33"></path><path d="M10.0901 39.42C12.8101 40.66 17.4801 39.76 17.4801 38.02V39.01C17.4801 40.75 12.8201 41.65 10.0901 40.41C9.25008 40.03 8.84008 39.53 8.83008 39.03V38.04C8.83008 38.54 9.25008 39.04 10.0801 39.42H10.0901Z" stroke="#1E3300" stroke-linecap="round" stroke-linejoin="round"></path><path d="M12.6102 36.0801C11.7002 36.1301 10.8102 36.3201 10.1102 36.6401C8.4202 37.4101 8.4102 38.6501 10.0902 39.4201C11.7702 40.1901 14.5102 40.1901 16.2002 39.4201C17.8902 38.6501 17.9002 37.4101 16.2202 36.6401C15.5202 36.3201 14.6502 36.1401 13.7402 36.0801" stroke="#1E3300" stroke-linecap="round" stroke-linejoin="round"></path><path d="M8.66002 5.95986C8.66002 5.95986 6.28002 13.2399 6.22002 13.4299C5.48002 15.4399 7.90002 16.6799 10.07 17.1199C10.14 17.1399 10.49 17.2099 10.85 17.2699C15.51 18.0199 21.18 16.3799 20.48 13.8999C20.48 13.8999 17.86 6.08986 17.78 5.85986" stroke="#1E3300" stroke-linecap="round" stroke-linejoin="round"></path><path d="M9.94983 7.11989C12.7098 7.97989 17.4198 7.43989 17.8098 6.24989C18.2598 4.91989 13.0598 4.12989 9.96983 5.08989C8.17983 5.64989 8.12983 6.54989 9.94983 7.11989Z" stroke="#1E3300" stroke-linecap="round" stroke-linejoin="round"></path><path d="M13.1602 37.82V17.46" stroke="#1E3300" stroke-linecap="round" stroke-linejoin="round"></path><path d="M34.2299 49.6601L34.1299 47.0601L32.8999 47.1301C32.8999 47.2001 33.2899 49.6701 33.2899 49.6701C33.3399 50.1001 34.2499 50.0701 34.2299 49.6701V49.6601Z" fill="#1E3300"></path><path d="M46.4799 46.4498L46.3799 43.0498L45.1499 43.1198C45.1499 43.1898 45.5399 46.4598 45.5399 46.4598C45.5899 46.8898 46.4999 46.8598 46.4799 46.4598V46.4498Z" fill="#1E3300"></path><path d="M20.5298 20.8101L21.2598 21.0001C21.8298 21.1501 22.2198 21.6601 22.2198 22.2501V33.3501C22.2198 34.1101 21.7098 34.7701 20.9698 34.9601L7.98982 38.3301C7.38982 38.4901 6.75982 38.4801 6.15982 38.3301L5.55982 38.1701C4.82982 37.9801 4.31982 37.3201 4.31982 36.5601V25.7601C4.31982 25.0001 4.82982 24.3401 5.56982 24.1501L18.4998 20.8101C19.1598 20.6401 19.8598 20.6401 20.5298 20.8101Z" fill="white"></path><path d="M7.63978 37.4998C7.50978 37.0998 7.55978 36.4398 7.57978 36.0198C7.71978 32.9398 7.68979 29.9198 7.55978 26.8398C7.55978 26.6298 7.43978 26.3498 7.36978 26.1598C7.21978 25.7798 6.86978 25.6198 6.47978 25.4798C6.08978 25.3398 5.60978 25.2498 5.22978 25.0898C5.05978 25.0198 4.83978 25.0498 4.65978 25.0898C4.36978 25.1698 4.32979 25.3298 4.31979 25.6298C4.27979 29.0198 4.31979 32.4198 4.27979 35.8098C4.27979 36.4498 4.27979 37.1498 4.68979 37.6398C4.95978 37.9698 5.36979 38.1498 5.77979 38.2698C6.46979 38.4698 7.23978 38.5198 7.93979 38.3598C8.73979 38.1798 7.78979 37.9698 7.62979 37.4998H7.63978Z" fill="#B2BBC3"></path><path d="M20.5298 20.8101L21.2598 21.0001C21.8298 21.1501 22.2198 21.6601 22.2198 22.2501V33.3501C22.2198 34.1101 21.7098 34.7701 20.9698 34.9601L7.98982 38.3301C7.38982 38.4901 6.75982 38.4801 6.15982 38.3301L5.55982 38.1701C4.82982 37.9801 4.31982 37.3201 4.31982 36.5601V25.7601C4.31982 25.0001 4.82982 24.3401 5.56982 24.1501L18.4998 20.8101C19.1598 20.6401 19.8598 20.6401 20.5298 20.8101Z" stroke="#1E3300" stroke-linecap="round" stroke-linejoin="round"></path><path d="M9.49982 37.9498L8.87982 38.1098C8.20982 38.2798 7.54982 37.7798 7.54982 37.0798V26.8398C7.54982 26.2298 7.14982 25.6898 6.56982 25.5098L5.10982 25.0498C4.71982 24.9298 4.31982 25.2198 4.31982 25.6298V26.3298" stroke="#1E3300" stroke-linecap="round" stroke-linejoin="round"></path><path d="M35.0301 42.4401L47.6601 39.1301V43.3601C47.6601 43.9501 47.2601 45.2601 46.7001 45.4101L35.7901 48.2601C35.3001 48.3901 34.7801 48.3901 34.2901 48.2601L9.85014 41.6001C9.28014 41.4501 8.89014 40.9401 8.89014 40.3501V35.3301L35.0501 42.4401H35.0301Z" fill="#61666B"></path><path d="M47.5801 39.52V44.21C47.5801 44.77 47.2001 45.26 46.6601 45.4L35.7301 48.25C35.4601 48.32 35.1801 48.34 34.9001 48.3L33.8101 48.14L34.2501 48.2C34.8601 48.28 35.4001 47.81 35.4001 47.2V42.72L47.5901 39.53L47.5801 39.52Z" fill="#B2BBC3"></path><path d="M35.0301 42.4401L47.6601 39.1301V44.1601C47.6601 44.7501 47.2601 45.2601 46.7001 45.4101L35.7901 48.2601C35.3001 48.3901 34.7801 48.3901 34.2901 48.2601L9.85014 41.6001C9.28014 41.4501 8.89014 40.9401 8.89014 40.3501V35.3301L35.0501 42.4401H35.0301Z" stroke="#1E3300" stroke-linecap="round" stroke-linejoin="round"></path><path d="M24.1502 17.9102L25.4302 17.5802C25.9102 17.4602 26.4102 17.4602 26.8802 17.5802L37.1002 20.2602C37.8302 20.4502 38.3602 21.0702 38.4202 21.8202C38.7502 25.6902 38.1602 29.6202 36.7502 33.6002C36.5502 34.1502 36.0902 34.5702 35.5302 34.7202L33.8702 35.1602C33.4202 35.2802 32.9502 35.2802 32.5002 35.1602L22.0702 32.4402C21.4002 32.2702 20.8902 31.7302 20.7702 31.0502C20.1102 27.3302 20.7202 23.5102 22.3202 19.5202C22.6402 18.7302 23.3202 18.1402 24.1502 17.9202V17.9102Z" fill="#B2BBC3"></path><path d="M24.1502 17.9102L25.4302 17.5802C25.9102 17.4602 26.4102 17.4602 26.8802 17.5802L37.1002 20.2602C37.8302 20.4502 38.3602 21.0702 38.4202 21.8202C38.7502 25.6902 38.1602 29.6202 36.7502 33.6002C36.5502 34.1502 36.0902 34.5702 35.5302 34.7202L33.8702 35.1602C33.4202 35.2802 32.9502 35.2802 32.5002 35.1602L22.0702 32.4402C21.4002 32.2702 20.8902 31.7302 20.7702 31.0502C20.1102 27.3302 20.7202 23.5102 22.3202 19.5202C22.6402 18.7302 23.3202 18.1402 24.1502 17.9202V17.9102Z" stroke="#1E3300" stroke-linecap="round" stroke-linejoin="round"></path><path d="M25.9302 19.4902L32.1902 21.1302" stroke="#B3BCC4" stroke-miterlimit="10" stroke-linecap="round"></path><path d="M37.2898 21.2198L38.5698 20.8898C39.0498 20.7698 39.5498 20.7698 40.0198 20.8898L50.2398 23.5698C50.9698 23.7598 51.4998 24.3798 51.5598 25.1298C51.8898 28.9998 51.2998 32.9298 49.8898 36.9098C49.6898 37.4598 49.2298 37.8798 48.6698 38.0298L47.0098 38.4698C46.5598 38.5898 46.0898 38.5898 45.6398 38.4698L35.2098 35.7498C34.5398 35.5798 34.0298 35.0398 33.9098 34.3598C33.2498 30.6398 33.8598 26.8198 35.4598 22.8298C35.7798 22.0398 36.4598 21.4498 37.2898 21.2298V21.2198Z" fill="#B2BBC3"></path><path d="M37.2898 21.2198L38.5698 20.8898C39.0498 20.7698 39.5498 20.7698 40.0198 20.8898L50.2398 23.5698C50.9698 23.7598 51.4998 24.3798 51.5598 25.1298C51.8898 28.9998 51.2998 32.9298 49.8898 36.9098C49.6898 37.4598 49.2298 37.8798 48.6698 38.0298L47.0098 38.4698C46.5598 38.5898 46.0898 38.5898 45.6398 38.4698L35.2098 35.7498C34.5398 35.5798 34.0298 35.0398 33.9098 34.3598C33.2498 30.6398 33.8598 26.8198 35.4598 22.8298C35.7798 22.0398 36.4598 21.4498 37.2898 21.2298V21.2198Z" stroke="#1E3300" stroke-linecap="round" stroke-linejoin="round"></path><path d="M38.3101 22.96L45.8101 24.93" stroke="#B3BCC4" stroke-miterlimit="10" stroke-linecap="round"></path><path d="M22.0098 29.7398C25.7698 30.1798 28.9198 31.0798 31.6098 32.3298C32.2298 32.6198 32.6298 33.2398 32.6298 33.9298V35.1898C32.6298 35.9298 32.1298 36.5698 31.4198 36.7598L21.7798 39.2798C20.6998 39.5598 19.5698 39.6498 18.4598 39.5198C14.0398 39.0198 10.6498 38.1898 8.53977 36.9598C8.05977 36.6798 7.75977 36.1598 7.75977 35.5998V34.1898C7.75977 33.3898 8.29977 32.6798 9.07977 32.4798L18.7098 29.9698C19.7898 29.6898 20.9098 29.5998 22.0198 29.7298L22.0098 29.7398Z" fill="white"></path><path d="M22.0098 29.7398C25.7698 30.1798 28.9198 31.0798 31.6098 32.3298C32.2298 32.6198 32.6298 33.2398 32.6298 33.9298V35.1898C32.6298 35.9298 32.1298 36.5698 31.4198 36.7598L21.7798 39.2798C20.6998 39.5598 19.5698 39.6498 18.4598 39.5198C14.0398 39.0198 10.6498 38.1898 8.53977 36.9598C8.05977 36.6798 7.75977 36.1598 7.75977 35.5998V34.1898C7.75977 33.3898 8.29977 32.6798 9.07977 32.4798L18.7098 29.9698C19.7898 29.6898 20.9098 29.5998 22.0198 29.7298L22.0098 29.7398Z" stroke="#1E3300" stroke-linecap="round" stroke-linejoin="round"></path><path d="M34.4502 32.9302C38.2102 33.3702 41.3602 34.2702 44.0502 35.5202C44.6702 35.8102 45.0702 36.4302 45.0702 37.1202V38.3802C45.0702 39.1202 44.5702 39.7602 43.8602 39.9502L34.2202 42.4702C33.1402 42.7502 32.0102 42.8402 30.9002 42.7102C26.4802 42.2102 23.0902 41.3802 20.9802 40.1502C20.5002 39.8702 20.2002 39.3502 20.2002 38.7902V37.3802C20.2002 36.5802 20.7402 35.8702 21.5202 35.6702L31.1502 33.1602C32.2302 32.8802 33.3502 32.7902 34.4602 32.9202L34.4502 32.9302Z" fill="white"></path><path d="M34.4502 32.9302C38.2102 33.3702 41.3602 34.2702 44.0502 35.5202C44.6702 35.8102 45.0702 36.4302 45.0702 37.1202V38.3802C45.0702 39.1202 44.5702 39.7602 43.8602 39.9502L34.2202 42.4702C33.1402 42.7502 32.0102 42.8402 30.9002 42.7102C26.4802 42.2102 23.0902 41.3802 20.9802 40.1502C20.5002 39.8702 20.2002 39.3502 20.2002 38.7902V37.3802C20.2002 36.5802 20.7402 35.8702 21.5202 35.6702L31.1502 33.1602C32.2302 32.8802 33.3502 32.7902 34.4602 32.9202L34.4502 32.9302Z" stroke="#1E3300" stroke-linecap="round" stroke-linejoin="round"></path><path d="M50.17 28.7501L50.9 28.9401C51.47 29.0901 51.86 29.6001 51.86 30.1901V41.2901C51.86 42.0501 51.35 42.7101 50.61 42.9001L37.63 46.2701C37.03 46.4301 36.4 46.4201 35.8 46.2701L35.2 46.1101C34.47 45.9201 33.96 45.2601 33.96 44.5001V33.7001C33.96 32.9401 34.47 32.2801 35.21 32.0901L48.14 28.7501C48.8 28.5801 49.5 28.5801 50.17 28.7501Z" fill="white"></path><path d="M37.2799 45.43C37.1499 45.03 37.1999 44.37 37.2199 43.95C37.3599 40.87 37.3299 37.85 37.1999 34.77C37.1999 34.56 37.0799 34.28 37.0099 34.09C36.8599 33.71 36.5099 33.55 36.1199 33.41C35.7299 33.27 35.2499 33.18 34.8699 33.02C34.6999 32.95 34.4799 32.98 34.2999 33.02C34.0099 33.1 33.9699 33.26 33.9599 33.56C33.9199 36.95 33.9599 40.35 33.9199 43.74C33.9199 44.38 33.9199 45.08 34.3299 45.57C34.5999 45.9 35.0099 46.08 35.4199 46.2C36.1099 46.4 36.8799 46.45 37.5799 46.29C38.3799 46.11 37.4299 45.9 37.2699 45.43H37.2799Z" fill="#B2BBC3"></path><path d="M50.17 28.7501L50.9 28.9401C51.47 29.0901 51.86 29.6001 51.86 30.1901V41.2901C51.86 42.0501 51.35 42.7101 50.61 42.9001L37.63 46.2701C37.03 46.4301 36.4 46.4201 35.8 46.2701L35.2 46.1101C34.47 45.9201 33.96 45.2601 33.96 44.5001V33.7001C33.96 32.9401 34.47 32.2801 35.21 32.0901L48.14 28.7501C48.8 28.5801 49.5 28.5801 50.17 28.7501Z" stroke="#1E3300" stroke-linecap="round" stroke-linejoin="round"></path><path d="M39.14 45.88L38.52 46.04C37.85 46.21 37.19 45.71 37.19 45.01V34.77C37.19 34.16 36.79 33.62 36.21 33.44L34.75 32.98C34.36 32.86 33.96 33.15 33.96 33.56V34.26" stroke="#1E3300" stroke-linecap="round" stroke-linejoin="round"></path><path d="M8.74014 38.11C8.52014 37.55 8.20014 38.34 7.64014 38.11C7.64014 38.04 7.64014 36.05 7.66014 35.98C7.90014 36.09 8.13014 36.66 8.36014 36.77C8.45014 36.81 8.43014 37.04 8.52014 37.07C8.63014 37.11 8.74014 37.14 8.86014 37.16L8.73014 38.12L8.74014 38.11Z" fill="#1E3300"></path><path d="M46.9599 45.3802C44.2199 45.6002 41.3599 45.4202 38.6899 46.0802L47.6099 43.6802V44.6902L46.9499 45.3802H46.9599Z" fill="#1E3300"></path><path d="M10.6901 41.8901L10.1101 43.2701C10.0701 43.3601 10.1101 43.4501 10.1801 43.5001C10.2401 43.5401 10.3201 43.5701 10.4401 43.5901C10.7401 43.6201 10.9501 43.4401 10.9501 43.4401L11.6601 42.1301L10.6801 41.8901H10.6901Z" fill="#1E3300"></path><path d="M11.6201 34.6499C12.5101 35.0399 14.5301 35.4699 16.1301 35.6199" stroke="#B3BCC4" stroke-width="1.2" stroke-miterlimit="10" stroke-linecap="round"></path><path d="M23.6699 37.6299C24.5599 38.0199 26.5799 38.5599 28.1799 38.6999" stroke="#B3BCC4" stroke-width="1.2" stroke-miterlimit="10" stroke-linecap="round"></path></svg>