<svg fill="none" viewBox="0 0 56 56" xmlns="http://www.w3.org/2000/svg" class="css-1hqcu0z e1ig6ntm0"><path opacity="0.2" d="M37.8504 50.29L53.3404 46.02C53.9304 45.87 53.9304 45.03 53.3404 44.88L40.0504 41.42C35.8504 40.33 31.4504 40.33 27.2604 41.43L16.2504 44.55C15.4704 44.75 15.4504 45.96 16.2304 46.16L32.0204 50.29C32.4204 50.4 32.8404 50.45 33.2604 50.45H36.6404C37.0604 50.45 37.4704 50.4 37.8804 50.29H37.8504Z" fill="black"></path><path d="M16.1201 9.70005L31.9401 5.55005L47.9001 9.70005L32.0101 13.86L16.1201 9.70005Z" fill="white"></path><path d="M47.8998 9.69995V45.6199L32.0098 49.7799V13.86L47.8998 9.69995Z" fill="#D9EEA8"></path><path d="M16.1201 9.69995V45.6199L32.0101 49.7799V13.86L16.1201 9.69995Z" fill="#B3BCC4"></path><path d="M16.1201 33.8601V45.6001L20.7101 46.8501V35.0601L16.1201 33.8601Z" fill="#1E3300"></path><path d="M16.1201 9.70005L31.9401 5.55005L47.9001 9.70005L32.0101 13.86L16.1201 9.70005Z" stroke="#1E3300" stroke-linecap="round" stroke-linejoin="round"></path><path d="M47.8998 9.69995V45.6199L32.0098 49.7799V13.86L47.8998 9.69995Z" stroke="#1E3300" stroke-linecap="round" stroke-linejoin="round"></path><path d="M32.0098 21.86L47.8998 17.7" stroke="#1E3300" stroke-linecap="round" stroke-linejoin="round"></path><path d="M32.0098 29.86L47.8998 25.71" stroke="#1E3300" stroke-linecap="round" stroke-linejoin="round"></path><path d="M32.0098 37.86L47.8998 33.71" stroke="#1E3300" stroke-linecap="round" stroke-linejoin="round"></path><path d="M42.8301 11.1201V46.8101" stroke="#1E3300" stroke-linecap="round" stroke-linejoin="round"></path><path d="M37.4404 12.6101V48.2201" stroke="#1E3300" stroke-linecap="round" stroke-linejoin="round"></path><path d="M20.71 11.0901V46.8501" stroke="#1E3300" stroke-linecap="round" stroke-linejoin="round"></path><path d="M26.5098 12.54V48.29" stroke="#1E3300" stroke-linecap="round" stroke-linejoin="round"></path><path d="M16.1201 9.69995V45.6199L32.0101 49.7799V13.86L16.1201 9.69995Z" stroke="#1E3300" stroke-linecap="round" stroke-linejoin="round"></path><path d="M32.0101 21.86L16.1201 17.7" stroke="#1E3300" stroke-linecap="round" stroke-linejoin="round"></path><path d="M32.0101 29.86L16.1201 25.71" stroke="#1E3300" stroke-linecap="round" stroke-linejoin="round"></path><path d="M32.0101 37.86L16.1201 33.71" stroke="#1E3300" stroke-linecap="round" stroke-linejoin="round"></path><path d="M9.98047 18.3601L14.0205 19.4101V31.4101L9.98047 30.3601V18.3601Z" fill="#99CC33"></path><path d="M9.98047 18.3601L14.0205 19.4101V31.4101L9.98047 30.3601V18.3601Z" stroke="#1E3300" stroke-linecap="round" stroke-linejoin="round"></path><path d="M9.08008 35.56L16.1001 33.71L27.7801 36.75L20.7101 38.6L9.08008 35.56Z" fill="#99CC33"></path><path d="M27.78 36.75V39.44L20.71 41.29V38.6L27.78 36.75Z" fill="#D9EEA8"></path><path d="M9.08008 35.5601V38.2501L20.7101 41.2901V38.6001L9.08008 35.5601Z" fill="white"></path><path d="M9.08008 35.56L16.1001 33.71L27.7801 36.75L20.7101 38.6L9.08008 35.56Z" stroke="#1E3300" stroke-linecap="round" stroke-linejoin="round"></path><path d="M27.78 36.75V39.44L20.71 41.29V38.6L27.78 36.75Z" stroke="#1E3300" stroke-linecap="round" stroke-linejoin="round"></path><path d="M9.08008 35.5601V38.2501L20.7101 41.2901V38.6001L9.08008 35.5601Z" stroke="#1E3300" stroke-linecap="round" stroke-linejoin="round"></path><path d="M20.71 50.4501V38.6001" stroke="#1E3300" stroke-linecap="round" stroke-linejoin="round"></path><path d="M9.08008 47.4101V35.5601" stroke="#1E3300" stroke-linecap="round" stroke-linejoin="round"></path><path d="M14.3701 21.3301L15.9401 21.7401" stroke="#1E3300" stroke-linecap="round" stroke-linejoin="round"></path><path d="M14.3701 29.3301L15.9401 29.7401" stroke="#1E3300" stroke-linecap="round" stroke-linejoin="round"></path></svg>