<svg fill="none" viewBox="0 0 56 56" xmlns="http://www.w3.org/2000/svg" class="css-1hqcu0z e1ig6ntm0"><path opacity="0.2" d="M35.8098 39.9601L8.97984 46.9901C7.95984 47.2601 7.95984 48.7101 8.97984 48.9701L21.0498 52.1201C21.3898 52.2101 21.7398 52.2501 22.0898 52.2501H25.6398C25.7898 52.2501 25.9298 52.2301 26.0698 52.1901L54.6298 44.7001C55.0698 44.5901 55.0698 43.9701 54.6298 43.8501L39.6498 39.9301C38.3898 39.6001 37.0698 39.6001 35.8098 39.9301V39.9601Z" fill="black"></path><path d="M7.43018 33.5699L36.9102 25.9199L50.4702 29.4499L20.9102 37.0999L7.43018 33.5699Z" fill="white"></path><path d="M17.0698 32.8801L36.4098 27.8L42.5898 29.4501L23.2998 34.51L17.0698 32.8801Z" fill="#98C917"></path><path d="M50.4702 29.45V43.9799L20.9102 51.63V37.0999L50.4702 29.45Z" fill="#D9EEA8"></path><path d="M7.43018 33.5701V48.1001L20.9102 51.6301V37.1001L7.43018 33.5701Z" fill="white"></path><path d="M7.43018 33.5699L36.9102 25.9199L50.4702 29.4499L20.9102 37.0999L7.43018 33.5699Z" stroke="#1E3300" stroke-linecap="round" stroke-linejoin="round"></path><path d="M50.4702 34.29L20.9102 41.94L7.43018 38.41" stroke="#1E3300" stroke-linecap="round" stroke-linejoin="round"></path><path d="M50.4702 39.1201L20.9102 46.7701L7.43018 43.2501" stroke="#1E3300" stroke-linecap="round" stroke-linejoin="round"></path><path d="M50.4702 29.45V43.9799L20.9102 51.63V37.0999L50.4702 29.45Z" stroke="#1E3300" stroke-linecap="round" stroke-linejoin="round"></path><path d="M7.43018 33.5701V48.1001L20.9102 51.6301V37.1001L7.43018 33.5701Z" stroke="#1E3300" stroke-linecap="round" stroke-linejoin="round"></path><path d="M27.3199 28.4299L40.7799 31.9299C40.8199 32.0999 40.7799 46.4599 40.7799 46.4599L31.5899 48.8499C31.5899 48.8499 31.6299 34.4899 31.5899 34.3199L18.1299 30.8199L27.3299 28.4299H27.3199Z" fill="#B2BBC3"></path><path d="M31.5801 34.3199L18.1201 30.8199L27.3201 28.4299L40.7701 31.9299L31.5801 34.3199Z" fill="#1E3200"></path><path d="M18.54 30.91L24.34 32.32L24.52 29.28L18.54 30.91Z" fill="#1E3300"></path><path d="M27.3199 28.4299L40.7799 31.9299C40.8199 32.0999 40.7799 46.4599 40.7799 46.4599L31.5899 48.8499C31.5899 48.8499 31.6299 34.4899 31.5899 34.3199L18.1299 30.8199L27.3299 28.4299H27.3199Z" stroke="#1E3300" stroke-linecap="round" stroke-linejoin="round"></path><path d="M31.5801 34.3199L40.7701 31.9299" stroke="#1E3300" stroke-linecap="round" stroke-linejoin="round"></path><path d="M40.3498 35.9099C40.1498 39.6699 39.9398 43.5099 38.5898 47.0299C38.6198 47.0699 38.5598 47.1299 38.6198 47.1099C39.3398 46.8999 40.0498 46.6599 40.7398 46.3799L40.3598 35.9099H40.3498Z" fill="#1E3300"></path><path d="M9.86014 13.95L15.8901 16.39L15.6801 33L9.39014 30.45L9.86014 13.95Z" fill="#B2BBC3"></path><path d="M10.9302 14.5L10.7202 30.91" stroke="white" stroke-linecap="round" stroke-linejoin="round"></path><path d="M12.16 15.03L11.96 31.41" stroke="white" stroke-linecap="round" stroke-linejoin="round"></path><path d="M13.3899 15.52L13.1899 31.99" stroke="white" stroke-linecap="round" stroke-linejoin="round"></path><path d="M14.6299 16.01L14.4199 32.37" stroke="white" stroke-linecap="round" stroke-linejoin="round"></path><path d="M26.2801 16.3901H15.8901L9.6001 13.8401C23.3001 14.2901 35.6801 14.3701 45.9501 13.8401L52.2401 16.3901H26.2801Z" fill="#D9EEA8"></path><path d="M24.4199 14.2099L29.1999 16.3199H40.6099L35.2699 14.1699L24.4199 14.2099Z" fill="white"></path><path d="M26.6602 14.21L32.4502 16.39" stroke="#B3BCC4" stroke-miterlimit="10" stroke-linecap="round"></path><path d="M32.5698 14.21L38.3598 16.39" stroke="#B3BCC4" stroke-miterlimit="10" stroke-linecap="round"></path><path d="M15.8701 16.4001C15.8301 16.9501 15.8101 17.5001 15.8101 18.0501C18.0401 17.4201 20.3001 16.9201 22.5701 16.4701C20.4101 16.3801 18.2501 16.3301 16.0901 16.3201C16.0201 16.3201 15.9201 16.3501 15.8701 16.4001Z" fill="#B2BBC3"></path><path d="M52.2402 33.0699L25.5102 33.0099C21.6602 33.0799 18.7202 33.3699 15.7002 33.8799V18.1899C19.0402 17.0799 22.7702 16.3899 27.0202 16.3899H52.2402V33.0699Z" fill="white"></path><path d="M30.54 18.28C30 18.28 24.68 18.3 24.56 18.33V31.33C24.29 31.33 29.22 31.33 29.36 31.32L50.33 31.37V18.28H30.54Z" fill="#99CC33"></path><path d="M38.3002 28.5299C40.5866 28.5299 42.4402 26.8733 42.4402 24.8299C42.4402 22.7864 40.5866 21.1299 38.3002 21.1299C36.0137 21.1299 34.1602 22.7864 34.1602 24.8299C34.1602 26.8733 36.0137 28.5299 38.3002 28.5299Z" stroke="#497C00" stroke-linecap="round" stroke-linejoin="round"></path><path d="M29.71 16.3901L40.61 16.3201L40.81 33.0301L29.71 32.9701V16.3901Z" fill="#B2BBC3"></path><path d="M38.2998 16.3899V33.0299" stroke="white" stroke-linecap="round" stroke-linejoin="round"></path><path d="M52.2402 33.0699L25.5102 33.0099C21.6602 33.0799 18.7202 33.3699 15.7002 33.8799V18.1899C19.0402 17.0799 22.7702 16.3899 27.0202 16.3899H52.2402V33.0699Z" stroke="#1E3300" stroke-linecap="round" stroke-linejoin="round"></path><path d="M26.2801 16.3901H15.8901L9.6001 13.8401C23.3001 14.2901 35.6801 14.3701 45.9501 13.8401L52.2401 16.3901" stroke="#1E3300" stroke-linecap="round" stroke-linejoin="round"></path><path d="M15.8901 16.3899V18.0899" stroke="#1E3300" stroke-linecap="round" stroke-linejoin="round"></path><path d="M35.02 14.21L40.81 16.39V33.03" stroke="#1E3300" stroke-linecap="round" stroke-linejoin="round"></path><path d="M23.9199 14.21L29.7099 16.39V32.97" stroke="#1E3300" stroke-linecap="round" stroke-linejoin="round"></path><path d="M9.60014 13.8401L9.39014 30.4501L15.6801 33.0001" stroke="#1E3300" stroke-linecap="round" stroke-linejoin="round"></path><path d="M17.3198 20.64V20.22C17.6898 20.07 17.9198 19.81 17.9198 19.48L18.3798 19.3V22.1901L17.8998 22.39V20.42L17.3198 20.65V20.64Z" fill="#D9EEA8"></path><path d="M20.56 20.12C20.56 21.09 20.23 21.68 19.63 21.82C19.03 21.96 18.73 21.52 18.73 20.59C18.73 19.91 18.93 19.05 19.65 18.89C20.23 18.76 20.56 19.2 20.56 20.12ZM19.26 20.49C19.26 21.1 19.4 21.4 19.64 21.35C19.88 21.3 20.02 20.92 20.02 20.24C20.02 19.61 19.89 19.31 19.66 19.37C19.41 19.43 19.27 19.8 19.27 20.5L19.26 20.49Z" fill="#D9EEA8"></path><path d="M22.7201 19.7599C22.7201 20.7299 22.3901 21.3199 21.7901 21.4599C21.1901 21.5999 20.8901 21.1599 20.8901 20.2299C20.8901 19.5499 21.0901 18.6899 21.8101 18.5299C22.3901 18.3999 22.7201 18.8399 22.7201 19.7599ZM21.4201 20.1299C21.4201 20.7399 21.5601 21.0399 21.8001 20.9899C22.0401 20.9399 22.1801 20.5599 22.1801 19.8799C22.1801 19.2499 22.0501 18.9499 21.8201 19.0099C21.5701 19.0699 21.4301 19.4399 21.4301 20.1399L21.4201 20.1299Z" fill="#D9EEA8"></path><path d="M25.7598 28.8799C26.3698 29.0499 26.8498 29.6199 26.8998 30.2499" stroke="#497C00" stroke-linecap="round" stroke-linejoin="round"></path><path d="M25.7598 21.18C26.2798 20.79 26.6198 20.17 26.6598 19.52" stroke="#497C00" stroke-linecap="round" stroke-linejoin="round"></path><path d="M47.6699 19.46C47.7099 19.81 47.8899 20.15 48.1599 20.38C48.4299 20.61 48.7999 20.72 49.1599 20.69" stroke="#497C00" stroke-linecap="round" stroke-linejoin="round"></path><path d="M49.1599 28.8201C48.5599 29.0401 48.1399 29.6801 48.1799 30.3201" stroke="#497C00" stroke-linecap="round" stroke-linejoin="round"></path><path d="M18.3799 31.35C19.5899 31.15 20.8399 31.06 22.0799 31.03" stroke="#B3BCC4" stroke-miterlimit="10" stroke-linecap="round"></path><path d="M30.77 6.51001L30.73 9.54001" stroke="#B3BCC4" stroke-linecap="round" stroke-linejoin="round"></path><path d="M42.6799 8.36011L41.8799 10.6301" stroke="#B3BCC4" stroke-linecap="round" stroke-linejoin="round"></path><path d="M19.1602 8.36011L19.9602 10.6301" stroke="#B3BCC4" stroke-linecap="round" stroke-linejoin="round"></path><path d="M9.86014 13.95L15.8901 16.39L15.6801 33L9.39014 30.45L9.86014 13.95Z" fill="#B2BBC3"></path><path d="M26.2801 16.3901H15.8901L9.6001 13.8401C23.3001 14.2901 35.6801 14.3701 45.9501 13.8401L52.2401 16.3901H26.2801Z" fill="#D9EEA8"></path><path d="M24.4199 14.2099L29.1999 16.3199H40.6099L35.2699 14.1699L24.4199 14.2099Z" fill="white"></path><path d="M15.8701 16.4001C15.8301 16.9501 15.8101 17.5001 15.8101 18.0501C18.0401 17.4201 20.3001 16.9201 22.5701 16.4701C20.4101 16.3801 18.2501 16.3301 16.0901 16.3201C16.0201 16.3201 15.9201 16.3501 15.8701 16.4001Z" fill="#1E3200"></path><path d="M52.2402 33.0699L25.5102 33.0099C21.6602 33.0799 18.7202 33.3699 15.7002 33.8799V18.1899C19.0402 17.0799 22.7702 16.3899 27.0202 16.3899H52.2402V33.0699Z" fill="white"></path><path d="M30.54 18.28C30 18.28 24.68 18.3 24.56 18.33V31.33C24.29 31.33 29.22 31.33 29.36 31.32L50.33 31.37V18.28H30.54Z" fill="#99CC33"></path><path d="M29.71 16.3901L40.61 16.3201L40.81 33.0301L29.71 32.9701V16.3901Z" fill="#B2BBC3"></path><path d="M52.2402 33.0699L25.5102 33.0099C21.6602 33.0799 18.7202 33.3699 15.7002 33.8799V18.1899C19.0402 17.0799 22.7702 16.3899 27.0202 16.3899H52.2402V33.0699Z" stroke="#1E3300" stroke-linecap="round" stroke-linejoin="round"></path><path d="M26.2801 16.3901H15.8901L9.6001 13.8401C23.3001 14.2901 35.6801 14.3701 45.9501 13.8401L52.2401 16.3901" stroke="#1E3300" stroke-linecap="round" stroke-linejoin="round"></path><path d="M15.8901 16.3899V18.0899" stroke="#1E3300" stroke-linecap="round" stroke-linejoin="round"></path><path d="M35.02 14.21L40.81 16.39V33.03" stroke="#1E3300" stroke-linecap="round" stroke-linejoin="round"></path><path d="M23.9199 14.21L29.7099 16.39V32.97" stroke="#1E3300" stroke-linecap="round" stroke-linejoin="round"></path><path d="M9.60014 13.8401L9.39014 30.4501L15.6801 33.0001" stroke="#1E3300" stroke-linecap="round" stroke-linejoin="round"></path><path d="M30.77 6.51001L30.73 9.54001" stroke="#B3BCC4" stroke-linecap="round" stroke-linejoin="round"></path><path d="M42.6799 8.36011L41.8799 10.6301" stroke="#B3BCC4" stroke-linecap="round" stroke-linejoin="round"></path><path d="M19.1602 8.36011L19.9602 10.6301" stroke="#B3BCC4" stroke-linecap="round" stroke-linejoin="round"></path></svg>