<svg fill="none" viewBox="0 0 56 56" xmlns="http://www.w3.org/2000/svg" class="css-1hqcu0z e1ig6ntm0"><path opacity="0.2" d="M45.1198 37.38C45.1198 36.69 44.6498 36.09 43.9898 35.91L22.8698 30.41C21.5298 30.06 20.1298 30.06 18.7998 30.41L5.83979 33.73C4.75979 34.01 4.75979 35.55 5.83979 35.83L27.5398 41.63C27.8998 41.72 28.2698 41.77 28.6398 41.77H32.4098C32.5598 41.77 32.7198 41.75 32.8698 41.71L43.9898 38.84C44.6598 38.67 45.1298 38.06 45.1298 37.37L45.1198 37.38Z" fill="black"></path><path d="M4.7002 7.67992L18.0602 4.16992L40.4402 9.98992L26.9702 13.5099L4.7002 7.67992Z" fill="#99CC33"></path><path d="M40.4402 9.99023V37.4002L26.9702 40.9102V13.5102L40.4402 9.99023Z" fill="#61666B"></path><path d="M40.4402 9.99023V37.4002L26.9702 40.9102V13.5102L40.4402 9.99023Z" stroke="#1E3300" stroke-linecap="round" stroke-linejoin="round"></path><path d="M4.7002 7.67969V35.0897L26.9702 40.9097V13.5097L4.7002 7.67969Z" fill="#B3BCC4"></path><path d="M14.6501 15.6201V23.9601L11.6401 24.8001L19.3701 26.8701V16.8801L14.6501 15.6201Z" fill="#61666B"></path><path d="M14.6501 27.7803V33.6603L11.6401 34.5003L19.3701 36.5703V29.0403L14.6501 27.7803Z" fill="#61666B"></path><path d="M19.39 35.6802C19.39 35.4902 19.39 35.3202 19.4 35.1302L14.78 33.9102L6.29004 36.1602L13.85 38.2302L19.53 36.7502L19.38 35.6702L19.39 35.6802Z" fill="white"></path><path d="M19.23 35.1502V29.1702L14.73 27.9902V33.9702L19.23 35.1502Z" fill="#61666B"></path><path d="M11.6401 24.8001L14.6501 24.0101V15.6201" stroke="#1E3300" stroke-linecap="round" stroke-linejoin="round"></path><path d="M19.3099 25.2403L14.6499 24.0303" stroke="#1E3300" stroke-linecap="round" stroke-linejoin="round"></path><path d="M19.3099 35.1202L14.6499 33.9102" stroke="#1E3300" stroke-linecap="round" stroke-linejoin="round"></path><path d="M19.4302 38.9397L26.9702 40.9097V13.5097L4.7002 7.67969V35.0897L7.5502 35.8297" stroke="#1E3300" stroke-linecap="round" stroke-linejoin="round"></path><path d="M19.3701 38.87V12.46" stroke="#1E3300" stroke-linecap="round" stroke-linejoin="round"></path><path d="M11.6401 34.53V10.46" stroke="#1E3300" stroke-linecap="round" stroke-linejoin="round"></path><path d="M40.4402 25.3496L26.9702 28.8596" stroke="#1E3300" stroke-linecap="round" stroke-linejoin="round"></path><path d="M4.75977 23.04L26.9698 28.86" stroke="#1E3300" stroke-linecap="round" stroke-linejoin="round"></path><path d="M41.0402 10.0002L18.0302 3.99023L4.22021 7.58023L27.3002 13.5902L41.0402 10.0002Z" fill="#99CC33"></path><path d="M37.6698 12.2296L17.9998 7.09961L7.77979 9.80961L27.2998 14.8896L37.6698 12.2296Z" fill="#D9EEA8"></path><path d="M36.9999 12.0596L17.9999 7.09961L8.16992 9.69961" stroke="#1E3300" stroke-linecap="round" stroke-linejoin="round"></path><path d="M4.22021 7.58008V10.5701L27.3002 16.5901V13.5901L4.22021 7.58008Z" fill="#B3BCC4"></path><path d="M41.0398 10V12.99L27.2998 16.59V13.59L41.0398 10Z" fill="#61666B"></path><path d="M41.0402 10.0002L18.0302 3.99023L4.22021 7.58023L27.3002 13.5902L41.0402 10.0002Z" stroke="#1E3300" stroke-linecap="round" stroke-linejoin="round"></path><path d="M4.22021 7.58008V10.5701L27.3002 16.5901V13.5901L4.22021 7.58008Z" stroke="#1E3300" stroke-linecap="round" stroke-linejoin="round"></path><path d="M41.0398 10V12.99L27.2998 16.59V13.59L41.0398 10Z" stroke="#1E3300" stroke-linecap="round" stroke-linejoin="round"></path><path d="M18.8201 22.1496L11.0801 20.1396V24.6996L18.8201 26.6996V22.1496Z" fill="#99CC33"></path><path d="M18.8201 22.1496L11.0801 20.1396V24.6996L18.8201 26.6996V22.1496Z" stroke="#1E3300" stroke-linecap="round" stroke-linejoin="round"></path><path d="M19.2901 16.7205L11.6401 14.7305" stroke="#1E3300" stroke-linecap="round" stroke-linejoin="round"></path><path d="M9.8802 19.8798V14.9498L6.4502 14.0498V18.9798L9.8802 19.8798Z" fill="white"></path><path d="M9.8802 19.8798V14.9498L6.4502 14.0498V18.9798L9.8802 19.8798Z" stroke="#1E3300" stroke-linecap="round" stroke-linejoin="round"></path><path d="M9.8802 32.0505V27.1205L6.4502 26.2305V31.1505L9.8802 32.0505Z" fill="white"></path><path d="M9.8802 32.0505V27.1205L6.4502 26.2305V31.1505L9.8802 32.0505Z" stroke="#1E3300" stroke-linecap="round" stroke-linejoin="round"></path><path d="M24.8699 23.79V18.86L21.4399 17.96V22.89L24.8699 23.79Z" fill="#99CC33"></path><path d="M24.8699 23.79V18.86L21.4399 17.96V22.89L24.8699 23.79Z" stroke="#1E3300" stroke-linecap="round" stroke-linejoin="round"></path><path d="M24.8699 35.9596V31.0396L21.4399 30.1396V35.0597L24.8699 35.9596Z" fill="white"></path><path d="M24.8699 35.9596V31.0396L21.4399 30.1396V35.0597L24.8699 35.9596Z" stroke="#1E3300" stroke-linecap="round" stroke-linejoin="round"></path><path d="M19.2901 29.0798L11.6401 27.0898" stroke="#1E3300" stroke-linecap="round" stroke-linejoin="round"></path><path d="M14.7899 37.9998L13.8599 38.2398V38.4298L13.9399 40.4998L19.3699 38.9498V36.7998L14.7899 37.9998Z" fill="#61666B"></path><path d="M6.12988 36.1699V38.2799L13.8599 40.3499V38.2399L6.12988 36.1699Z" fill="#B3BCC4"></path><path d="M13.8599 38.2399L6.12988 36.1699" stroke="#1E3300" stroke-linecap="round" stroke-linejoin="round"></path><path d="M13.8599 40.3898L19.3699 38.9498V36.7998L13.8599 38.2398V40.3898Z" stroke="#1E3300" stroke-linecap="round" stroke-linejoin="round"></path><path d="M11.7502 27.3198C12.8102 27.7598 13.7902 28.3898 14.6302 29.1698C14.6402 28.7198 14.6302 28.2398 14.6302 27.7898L11.7402 27.0898V27.3198H11.7502Z" fill="#1E3300"></path><path d="M11.7502 15.0698C12.8102 15.5098 13.7902 16.1398 14.6302 16.9198C14.6402 16.4698 14.6302 15.9898 14.6302 15.5398L11.7402 14.8398V15.0698H11.7502Z" fill="#1E3300"></path><path d="M13.8599 40.3902L6.12988 38.3102V36.7602V36.1702L14.6499 33.9402V27.9902" stroke="#1E3300" stroke-linecap="round" stroke-linejoin="round"></path><path d="M33.7 23.3398L20.5 36.3098L26.91 38.3098L26.82 46.9098L40.01 33.9398L33.7 23.3398Z" fill="#D9EEA8"></path><path d="M28.0398 34.6396C29.6998 37.3996 30.6598 39.5896 30.7198 42.8196C32.2598 41.2396 33.8698 39.8596 35.4998 38.3596C34.7598 37.9996 34.2098 37.3596 33.6098 36.7996C31.9498 35.2496 30.1198 35.5596 28.0298 34.6396H28.0398Z" fill="#1E3200"></path><path d="M33.7 23.3398L20.5 36.3098L26.91 38.3098L26.82 46.9098L40.01 33.9398L33.7 23.3398Z" stroke="#1E3200" stroke-linecap="round" stroke-linejoin="round"></path><path d="M41.6099 26.54L51.6999 41.97L45.1099 42.94L43.2399 51.01L33.1499 35.58L41.6099 26.54Z" fill="#D9EEA8"></path><path d="M42.9799 36.96C41.3499 38.78 39.6599 40.57 38.6499 44.03C37.3899 42.37 36.2699 40.36 35.1899 38.58L42.9899 36.97L42.9799 36.96Z" fill="#1E3200"></path><path d="M41.6099 26.54L51.6999 41.97L45.1099 42.94L43.2399 51.01L33.1499 35.58L41.6099 26.54Z" stroke="#1E3200" stroke-linecap="round" stroke-linejoin="round"></path><path d="M33.6001 18.9898L36.2101 18.6798H36.2901C40.4001 18.3598 44.2701 22.4098 45.0001 27.9098C45.7301 33.3398 43.1301 38.1998 39.1601 39.0198H39.0901L35.6401 39.4498L33.6001 18.9898Z" fill="#497B00"></path><path d="M35.9838 39.4203C40.201 38.8314 42.9825 33.7913 42.1965 28.1629C41.4105 22.5345 37.3546 18.4492 33.1374 19.0381C28.9202 19.6271 26.1387 24.6672 26.9247 30.2956C27.7107 35.924 31.7666 40.0093 35.9838 39.4203Z" fill="#99CC33"></path><path d="M35.9838 39.4203C40.201 38.8314 42.9825 33.7913 42.1965 28.1629C41.4105 22.5345 37.3546 18.4492 33.1374 19.0381C28.9202 19.6271 26.1387 24.6672 26.9247 30.2956C27.7107 35.924 31.7666 40.0093 35.9838 39.4203Z" stroke="#1E3100" stroke-linecap="round" stroke-linejoin="round"></path><path d="M33.6001 18.9898L36.2101 18.6798H36.2901C40.4001 18.3598 44.2701 22.4098 45.0001 27.9098C45.7301 33.3398 43.1301 38.1998 39.1601 39.0198H39.0901L35.6401 39.4498" stroke="#1E3100" stroke-linecap="round" stroke-linejoin="round"></path><path d="M37.6999 25.1701L31.1499 23.3301V32.8401C31.1499 33.3201 31.4499 33.7501 31.9099 33.9001L33.2299 34.3501C33.5199 34.4501 33.7799 34.6401 33.9499 34.8901L34.4199 35.5901L34.7499 35.3301C35.0899 35.0601 35.5299 34.9701 35.9499 35.0801L36.7299 35.2801C37.2199 35.4101 37.6999 35.0401 37.6999 34.5401V25.1601V25.1701Z" stroke="#497B00" stroke-linecap="round" stroke-linejoin="round"></path><path d="M37.6999 30.6095L31.1499 28.7695" stroke="#497B00" stroke-linecap="round" stroke-linejoin="round"></path><path d="M34.4302 24.4004V35.2804" stroke="#497B00" stroke-linecap="round" stroke-linejoin="round"></path></svg>